<svg width="300" height="22" viewBox="0 0 305 22" fill="none" xmlns="http://www.w3.org/2000/svg">
<line x1="2" y1="5.5" x2="47" y2="5.5" stroke="#737373" stroke-width="3"/>
<line x1="47.5" y1="1.5" x2="47.5" y2="9.5" stroke="#737373" stroke-width="3" stroke-linecap="round"/>
<line x1="92.5" y1="1.5" x2="92.5" y2="9.5" stroke="#737373" stroke-width="3" stroke-linecap="round"/>
<line x1="152.5" y1="1.5" x2="152.5" y2="9.5" stroke="#737373" stroke-width="3" stroke-linecap="round"/>
<line x1="227.5" y1="1.5" x2="227.5" y2="9.5" stroke="#737373" stroke-width="3" stroke-linecap="round"/>
<line x1="303.5" y1="1.5" x2="303.5" y2="9.5" stroke="#737373" stroke-width="3" stroke-linecap="round"/>
<line x1="1.5" y1="1.5" x2="1.5" y2="9.5" stroke="#737373" stroke-width="3" stroke-linecap="round"/>
<line x1="47" y1="5.5" x2="92" y2="5.5" stroke="#737373" stroke-width="3"/>
<line x1="92" y1="5.5" x2="152" y2="5.5" stroke="#737373" stroke-width="3"/>
<line x1="152" y1="5.5" x2="227" y2="5.5" stroke="#737373" stroke-width="3"/>
<line x1="227" y1="5.5" x2="302" y2="5.5" stroke="#737373" stroke-width="3"/>
<path d="M189.555 19.2227V20H185.605V19.2227H189.555ZM189.465 14.918L185.969 20H185.312V19.3789L188.82 14.3125H189.465V14.918ZM189.102 14.3125V15.0938H185.336V14.3125H189.102ZM191.32 14V20H190.375V14H191.32ZM194.734 19.1523V17.1367C194.734 16.9857 194.707 16.8555 194.652 16.7461C194.598 16.6367 194.514 16.5521 194.402 16.4922C194.293 16.4323 194.155 16.4023 193.988 16.4023C193.835 16.4023 193.702 16.4284 193.59 16.4805C193.478 16.5326 193.391 16.6029 193.328 16.6914C193.266 16.7799 193.234 16.8802 193.234 16.9922H192.297C192.297 16.8255 192.337 16.6641 192.418 16.5078C192.499 16.3516 192.616 16.2122 192.77 16.0898C192.923 15.9674 193.107 15.8711 193.32 15.8008C193.534 15.7305 193.773 15.6953 194.039 15.6953C194.357 15.6953 194.638 15.7487 194.883 15.8555C195.13 15.9622 195.324 16.1237 195.465 16.3398C195.608 16.5534 195.68 16.8216 195.68 17.1445V19.0234C195.68 19.2161 195.693 19.3893 195.719 19.543C195.747 19.694 195.788 19.8255 195.84 19.9375V20H194.875C194.831 19.8984 194.796 19.7695 194.77 19.6133C194.746 19.4544 194.734 19.3008 194.734 19.1523ZM194.871 17.4297L194.879 18.0117H194.203C194.029 18.0117 193.875 18.0286 193.742 18.0625C193.609 18.0938 193.499 18.1406 193.41 18.2031C193.322 18.2656 193.255 18.3411 193.211 18.4297C193.167 18.5182 193.145 18.6185 193.145 18.7305C193.145 18.8424 193.171 18.9453 193.223 19.0391C193.275 19.1302 193.35 19.2018 193.449 19.2539C193.551 19.306 193.673 19.332 193.816 19.332C194.009 19.332 194.177 19.293 194.32 19.2148C194.466 19.1341 194.581 19.0365 194.664 18.9219C194.747 18.8047 194.792 18.694 194.797 18.5898L195.102 19.0078C195.07 19.1146 195.017 19.2292 194.941 19.3516C194.866 19.474 194.767 19.5911 194.645 19.7031C194.525 19.8125 194.38 19.9023 194.211 19.9727C194.044 20.043 193.852 20.0781 193.633 20.0781C193.357 20.0781 193.111 20.0234 192.895 19.9141C192.678 19.8021 192.509 19.6523 192.387 19.4648C192.264 19.2747 192.203 19.0599 192.203 18.8203C192.203 18.5964 192.245 18.3984 192.328 18.2266C192.414 18.0521 192.539 17.9062 192.703 17.7891C192.87 17.6719 193.073 17.5833 193.312 17.5234C193.552 17.4609 193.826 17.4297 194.133 17.4297H194.871ZM193.602 15.1758L194.363 14H195.426L194.363 15.1758H193.602Z" fill="black"/>
<path d="M106.738 17.8789H105.258V17.1016H106.738C106.996 17.1016 107.204 17.0599 107.363 16.9766C107.522 16.8932 107.638 16.7786 107.711 16.6328C107.786 16.4844 107.824 16.3151 107.824 16.125C107.824 15.9453 107.786 15.7773 107.711 15.6211C107.638 15.4622 107.522 15.3346 107.363 15.2383C107.204 15.1419 106.996 15.0938 106.738 15.0938H105.559V20H104.578V14.3125H106.738C107.178 14.3125 107.552 14.3906 107.859 14.5469C108.169 14.7005 108.405 14.9141 108.566 15.1875C108.728 15.4583 108.809 15.7682 108.809 16.1172C108.809 16.4844 108.728 16.7995 108.566 17.0625C108.405 17.3255 108.169 17.5273 107.859 17.668C107.552 17.8086 107.178 17.8789 106.738 17.8789ZM110.539 16.5781V20H109.598V15.7734H110.496L110.539 16.5781ZM111.832 15.7461L111.824 16.6211C111.767 16.6107 111.704 16.6029 111.637 16.5977C111.572 16.5924 111.507 16.5898 111.441 16.5898C111.28 16.5898 111.138 16.6133 111.016 16.6602C110.893 16.7044 110.79 16.7695 110.707 16.8555C110.626 16.9388 110.564 17.0404 110.52 17.1602C110.475 17.2799 110.449 17.4141 110.441 17.5625L110.227 17.5781C110.227 17.3125 110.253 17.0664 110.305 16.8398C110.357 16.6133 110.435 16.4141 110.539 16.2422C110.646 16.0703 110.779 15.9362 110.938 15.8398C111.099 15.7435 111.285 15.6953 111.496 15.6953C111.553 15.6953 111.615 15.7005 111.68 15.7109C111.747 15.7214 111.798 15.7331 111.832 15.7461ZM113.43 15.7734V20H112.484V15.7734H113.43ZM112.422 14.6641C112.422 14.5208 112.469 14.4023 112.562 14.3086C112.659 14.2122 112.792 14.1641 112.961 14.1641C113.128 14.1641 113.259 14.2122 113.355 14.3086C113.452 14.4023 113.5 14.5208 113.5 14.6641C113.5 14.8047 113.452 14.9219 113.355 15.0156C113.259 15.1094 113.128 15.1562 112.961 15.1562C112.792 15.1562 112.659 15.1094 112.562 15.0156C112.469 14.9219 112.422 14.8047 112.422 14.6641ZM116.324 20.0781C116.012 20.0781 115.729 20.0273 115.477 19.9258C115.227 19.8216 115.013 19.6771 114.836 19.4922C114.661 19.3073 114.527 19.0898 114.434 18.8398C114.34 18.5898 114.293 18.3203 114.293 18.0312V17.875C114.293 17.5443 114.341 17.2448 114.438 16.9766C114.534 16.7083 114.668 16.4792 114.84 16.2891C115.012 16.0964 115.215 15.9492 115.449 15.8477C115.684 15.7461 115.938 15.6953 116.211 15.6953C116.513 15.6953 116.777 15.7461 117.004 15.8477C117.23 15.9492 117.418 16.0924 117.566 16.2773C117.717 16.4596 117.829 16.6771 117.902 16.9297C117.978 17.1823 118.016 17.4609 118.016 17.7656V18.168H114.75V17.4922H117.086V17.418C117.081 17.2487 117.047 17.0898 116.984 16.9414C116.924 16.793 116.832 16.6732 116.707 16.582C116.582 16.4909 116.415 16.4453 116.207 16.4453C116.051 16.4453 115.911 16.4792 115.789 16.5469C115.669 16.612 115.569 16.707 115.488 16.832C115.408 16.957 115.345 17.1081 115.301 17.2852C115.259 17.4596 115.238 17.6562 115.238 17.875V18.0312C115.238 18.2161 115.263 18.388 115.312 18.5469C115.365 18.7031 115.44 18.8398 115.539 18.957C115.638 19.0742 115.758 19.1667 115.898 19.2344C116.039 19.2995 116.199 19.332 116.379 19.332C116.605 19.332 116.807 19.2865 116.984 19.1953C117.161 19.1042 117.315 18.9753 117.445 18.8086L117.941 19.2891C117.85 19.4219 117.732 19.5495 117.586 19.6719C117.44 19.7917 117.262 19.8893 117.051 19.9648C116.842 20.0404 116.6 20.0781 116.324 20.0781ZM119.691 16.6328V20H118.75V15.7734H119.637L119.691 16.6328ZM119.539 17.7305L119.219 17.7266C119.219 17.4349 119.255 17.1654 119.328 16.918C119.401 16.6706 119.508 16.4557 119.648 16.2734C119.789 16.0885 119.964 15.9466 120.172 15.8477C120.383 15.7461 120.626 15.6953 120.902 15.6953C121.095 15.6953 121.271 15.724 121.43 15.7812C121.591 15.8359 121.73 15.9232 121.848 16.043C121.967 16.1628 122.059 16.3164 122.121 16.5039C122.186 16.6914 122.219 16.918 122.219 17.1836V20H121.277V17.2656C121.277 17.0599 121.246 16.8984 121.184 16.7812C121.124 16.6641 121.036 16.5807 120.922 16.5312C120.81 16.4792 120.676 16.4531 120.52 16.4531C120.342 16.4531 120.191 16.487 120.066 16.5547C119.944 16.6224 119.844 16.7148 119.766 16.832C119.688 16.9492 119.63 17.0846 119.594 17.2383C119.557 17.3919 119.539 17.556 119.539 17.7305ZM122.16 17.4805L121.719 17.5781C121.719 17.3229 121.754 17.082 121.824 16.8555C121.897 16.6263 122.003 16.4258 122.141 16.2539C122.281 16.0794 122.454 15.9427 122.66 15.8438C122.866 15.7448 123.102 15.6953 123.367 15.6953C123.583 15.6953 123.776 15.7253 123.945 15.7852C124.117 15.8424 124.263 15.9336 124.383 16.0586C124.503 16.1836 124.594 16.3464 124.656 16.5469C124.719 16.7448 124.75 16.9844 124.75 17.2656V20H123.805V17.2617C123.805 17.0482 123.773 16.8828 123.711 16.7656C123.651 16.6484 123.565 16.5677 123.453 16.5234C123.341 16.4766 123.207 16.4531 123.051 16.4531C122.905 16.4531 122.776 16.4805 122.664 16.5352C122.555 16.5872 122.462 16.6615 122.387 16.7578C122.311 16.8516 122.254 16.9596 122.215 17.082C122.178 17.2044 122.16 17.3372 122.16 17.4805ZM127.582 20.0781C127.27 20.0781 126.987 20.0273 126.734 19.9258C126.484 19.8216 126.271 19.6771 126.094 19.4922C125.919 19.3073 125.785 19.0898 125.691 18.8398C125.598 18.5898 125.551 18.3203 125.551 18.0312V17.875C125.551 17.5443 125.599 17.2448 125.695 16.9766C125.792 16.7083 125.926 16.4792 126.098 16.2891C126.27 16.0964 126.473 15.9492 126.707 15.8477C126.941 15.7461 127.195 15.6953 127.469 15.6953C127.771 15.6953 128.035 15.7461 128.262 15.8477C128.488 15.9492 128.676 16.0924 128.824 16.2773C128.975 16.4596 129.087 16.6771 129.16 16.9297C129.236 17.1823 129.273 17.4609 129.273 17.7656V18.168H126.008V17.4922H128.344V17.418C128.339 17.2487 128.305 17.0898 128.242 16.9414C128.182 16.793 128.09 16.6732 127.965 16.582C127.84 16.4909 127.673 16.4453 127.465 16.4453C127.309 16.4453 127.169 16.4792 127.047 16.5469C126.927 16.612 126.827 16.707 126.746 16.832C126.665 16.957 126.603 17.1081 126.559 17.2852C126.517 17.4596 126.496 17.6562 126.496 17.875V18.0312C126.496 18.2161 126.521 18.388 126.57 18.5469C126.622 18.7031 126.698 18.8398 126.797 18.957C126.896 19.0742 127.016 19.1667 127.156 19.2344C127.297 19.2995 127.457 19.332 127.637 19.332C127.863 19.332 128.065 19.2865 128.242 19.1953C128.419 19.1042 128.573 18.9753 128.703 18.8086L129.199 19.2891C129.108 19.4219 128.99 19.5495 128.844 19.6719C128.698 19.7917 128.52 19.8893 128.309 19.9648C128.1 20.0404 127.858 20.0781 127.582 20.0781ZM130.953 16.5781V20H130.012V15.7734H130.91L130.953 16.5781ZM132.246 15.7461L132.238 16.6211C132.181 16.6107 132.118 16.6029 132.051 16.5977C131.986 16.5924 131.921 16.5898 131.855 16.5898C131.694 16.5898 131.552 16.6133 131.43 16.6602C131.307 16.7044 131.204 16.7695 131.121 16.8555C131.04 16.9388 130.978 17.0404 130.934 17.1602C130.889 17.2799 130.863 17.4141 130.855 17.5625L130.641 17.5781C130.641 17.3125 130.667 17.0664 130.719 16.8398C130.771 16.6133 130.849 16.4141 130.953 16.2422C131.06 16.0703 131.193 15.9362 131.352 15.8398C131.513 15.7435 131.699 15.6953 131.91 15.6953C131.967 15.6953 132.029 15.7005 132.094 15.7109C132.161 15.7214 132.212 15.7331 132.246 15.7461ZM133.77 16.6758V20H132.828V15.7734H133.715L133.77 16.6758ZM133.602 17.7305L133.297 17.7266C133.299 17.4271 133.341 17.1523 133.422 16.9023C133.505 16.6523 133.62 16.4375 133.766 16.2578C133.914 16.0781 134.091 15.9401 134.297 15.8438C134.503 15.7448 134.732 15.6953 134.984 15.6953C135.188 15.6953 135.371 15.724 135.535 15.7812C135.702 15.8359 135.844 15.9258 135.961 16.0508C136.081 16.1758 136.172 16.3385 136.234 16.5391C136.297 16.737 136.328 16.9805 136.328 17.2695V20H135.383V17.2656C135.383 17.0625 135.353 16.9023 135.293 16.7852C135.236 16.6654 135.151 16.5807 135.039 16.5312C134.93 16.4792 134.793 16.4531 134.629 16.4531C134.467 16.4531 134.323 16.487 134.195 16.5547C134.068 16.6224 133.96 16.7148 133.871 16.832C133.785 16.9492 133.719 17.0846 133.672 17.2383C133.625 17.3919 133.602 17.556 133.602 17.7305ZM139.672 19.1523V17.1367C139.672 16.9857 139.645 16.8555 139.59 16.7461C139.535 16.6367 139.452 16.5521 139.34 16.4922C139.23 16.4323 139.092 16.4023 138.926 16.4023C138.772 16.4023 138.639 16.4284 138.527 16.4805C138.415 16.5326 138.328 16.6029 138.266 16.6914C138.203 16.7799 138.172 16.8802 138.172 16.9922H137.234C137.234 16.8255 137.275 16.6641 137.355 16.5078C137.436 16.3516 137.553 16.2122 137.707 16.0898C137.861 15.9674 138.044 15.8711 138.258 15.8008C138.471 15.7305 138.711 15.6953 138.977 15.6953C139.294 15.6953 139.576 15.7487 139.82 15.8555C140.068 15.9622 140.262 16.1237 140.402 16.3398C140.546 16.5534 140.617 16.8216 140.617 17.1445V19.0234C140.617 19.2161 140.63 19.3893 140.656 19.543C140.685 19.694 140.725 19.8255 140.777 19.9375V20H139.812C139.768 19.8984 139.733 19.7695 139.707 19.6133C139.684 19.4544 139.672 19.3008 139.672 19.1523ZM139.809 17.4297L139.816 18.0117H139.141C138.966 18.0117 138.812 18.0286 138.68 18.0625C138.547 18.0938 138.436 18.1406 138.348 18.2031C138.259 18.2656 138.193 18.3411 138.148 18.4297C138.104 18.5182 138.082 18.6185 138.082 18.7305C138.082 18.8424 138.108 18.9453 138.16 19.0391C138.212 19.1302 138.288 19.2018 138.387 19.2539C138.488 19.306 138.611 19.332 138.754 19.332C138.947 19.332 139.115 19.293 139.258 19.2148C139.404 19.1341 139.518 19.0365 139.602 18.9219C139.685 18.8047 139.729 18.694 139.734 18.5898L140.039 19.0078C140.008 19.1146 139.954 19.2292 139.879 19.3516C139.803 19.474 139.704 19.5911 139.582 19.7031C139.462 19.8125 139.318 19.9023 139.148 19.9727C138.982 20.043 138.789 20.0781 138.57 20.0781C138.294 20.0781 138.048 20.0234 137.832 19.9141C137.616 19.8021 137.447 19.6523 137.324 19.4648C137.202 19.2747 137.141 19.0599 137.141 18.8203C137.141 18.5964 137.182 18.3984 137.266 18.2266C137.352 18.0521 137.477 17.9062 137.641 17.7891C137.807 17.6719 138.01 17.5833 138.25 17.5234C138.49 17.4609 138.763 17.4297 139.07 17.4297H139.809ZM138.539 15.1758L139.301 14H140.363L139.301 15.1758H138.539Z" fill="black"/>
<path d="M62.2305 20H61.0156L61.0234 19.2227H62.2305C62.582 19.2227 62.8763 19.1458 63.1133 18.9922C63.3529 18.8385 63.5326 18.6185 63.6523 18.332C63.7747 18.0456 63.8359 17.7044 63.8359 17.3086V17C63.8359 16.6927 63.8008 16.4206 63.7305 16.1836C63.6628 15.9466 63.5612 15.7474 63.4258 15.5859C63.293 15.4245 63.1289 15.3021 62.9336 15.2188C62.7409 15.1354 62.5182 15.0938 62.2656 15.0938H60.9922V14.3125H62.2656C62.6432 14.3125 62.9883 14.3763 63.3008 14.5039C63.6133 14.6289 63.8828 14.8099 64.1094 15.0469C64.3385 15.2839 64.5143 15.5677 64.6367 15.8984C64.7591 16.2292 64.8203 16.599 64.8203 17.0078V17.3086C64.8203 17.7174 64.7591 18.0872 64.6367 18.418C64.5143 18.7487 64.3385 19.0326 64.1094 19.2695C63.8802 19.5039 63.6068 19.6849 63.2891 19.8125C62.974 19.9375 62.6211 20 62.2305 20ZM61.5586 14.3125V20H60.5781V14.3125H61.5586ZM65.5312 17.9336V17.8438C65.5312 17.5391 65.5755 17.2565 65.6641 16.9961C65.7526 16.7331 65.8802 16.5052 66.0469 16.3125C66.2161 16.1172 66.4219 15.9661 66.6641 15.8594C66.9089 15.75 67.1849 15.6953 67.4922 15.6953C67.8021 15.6953 68.0781 15.75 68.3203 15.8594C68.5651 15.9661 68.7721 16.1172 68.9414 16.3125C69.1107 16.5052 69.2396 16.7331 69.3281 16.9961C69.4167 17.2565 69.4609 17.5391 69.4609 17.8438V17.9336C69.4609 18.2383 69.4167 18.5208 69.3281 18.7812C69.2396 19.0417 69.1107 19.2695 68.9414 19.4648C68.7721 19.6576 68.5664 19.8086 68.3242 19.918C68.082 20.0247 67.8073 20.0781 67.5 20.0781C67.1901 20.0781 66.9128 20.0247 66.668 19.918C66.4258 19.8086 66.2201 19.6576 66.0508 19.4648C65.8815 19.2695 65.7526 19.0417 65.6641 18.7812C65.5755 18.5208 65.5312 18.2383 65.5312 17.9336ZM66.4727 17.8438V17.9336C66.4727 18.1237 66.4922 18.3034 66.5312 18.4727C66.5703 18.6419 66.6315 18.7904 66.7148 18.918C66.7982 19.0456 66.9049 19.1458 67.0352 19.2188C67.1654 19.2917 67.3203 19.3281 67.5 19.3281C67.6745 19.3281 67.8255 19.2917 67.9531 19.2188C68.0833 19.1458 68.1901 19.0456 68.2734 18.918C68.3568 18.7904 68.418 18.6419 68.457 18.4727C68.4987 18.3034 68.5195 18.1237 68.5195 17.9336V17.8438C68.5195 17.6562 68.4987 17.4792 68.457 17.3125C68.418 17.1432 68.3555 16.9935 68.2695 16.8633C68.1862 16.7331 68.0794 16.6315 67.9492 16.5586C67.8216 16.4831 67.6693 16.4453 67.4922 16.4453C67.3151 16.4453 67.1615 16.4831 67.0312 16.5586C66.9036 16.6315 66.7982 16.7331 66.7148 16.8633C66.6315 16.9935 66.5703 17.1432 66.5312 17.3125C66.4922 17.4792 66.4727 17.6562 66.4727 17.8438ZM70.2539 14H71.1953V19.0977L71.1055 20H70.2539V14ZM73.9531 17.8477V17.9297C73.9531 18.2422 73.918 18.5299 73.8477 18.793C73.7799 19.0534 73.6758 19.2799 73.5352 19.4727C73.3971 19.6654 73.2253 19.8151 73.0195 19.9219C72.8164 20.026 72.5807 20.0781 72.3125 20.0781C72.0495 20.0781 71.8203 20.0286 71.625 19.9297C71.4297 19.8307 71.2656 19.6901 71.1328 19.5078C71.0026 19.3255 70.8971 19.1081 70.8164 18.8555C70.7357 18.6029 70.6784 18.3242 70.6445 18.0195V17.7578C70.6784 17.4505 70.7357 17.1719 70.8164 16.9219C70.8971 16.6693 71.0026 16.4518 71.1328 16.2695C71.2656 16.0846 71.4284 15.9427 71.6211 15.8438C71.8164 15.7448 72.0443 15.6953 72.3047 15.6953C72.5755 15.6953 72.8138 15.7474 73.0195 15.8516C73.2279 15.9557 73.401 16.1042 73.5391 16.2969C73.6771 16.487 73.7799 16.7135 73.8477 16.9766C73.918 17.2396 73.9531 17.5299 73.9531 17.8477ZM73.0117 17.9297V17.8477C73.0117 17.6576 72.9961 17.4792 72.9648 17.3125C72.9336 17.1432 72.8815 16.9948 72.8086 16.8672C72.7383 16.7396 72.6419 16.6393 72.5195 16.5664C72.3997 16.4909 72.25 16.4531 72.0703 16.4531C71.9036 16.4531 71.7604 16.4818 71.6406 16.5391C71.5208 16.5964 71.4206 16.6745 71.3398 16.7734C71.2591 16.8724 71.1953 16.987 71.1484 17.1172C71.1042 17.2474 71.0742 17.388 71.0586 17.5391V18.2461C71.082 18.4414 71.1315 18.6211 71.207 18.7852C71.2852 18.9466 71.3945 19.0768 71.5352 19.1758C71.6758 19.2721 71.8568 19.3203 72.0781 19.3203C72.2526 19.3203 72.3997 19.2852 72.5195 19.2148C72.6393 19.1445 72.7344 19.0469 72.8047 18.9219C72.8776 18.7943 72.9297 18.6458 72.9609 18.4766C72.9948 18.3073 73.0117 18.125 73.0117 17.9297ZM75.6953 16.5781V20H74.7539V15.7734H75.6523L75.6953 16.5781ZM76.9883 15.7461L76.9805 16.6211C76.9232 16.6107 76.8607 16.6029 76.793 16.5977C76.7279 16.5924 76.6628 16.5898 76.5977 16.5898C76.4362 16.5898 76.2943 16.6133 76.1719 16.6602C76.0495 16.7044 75.9466 16.7695 75.8633 16.8555C75.7826 16.9388 75.7201 17.0404 75.6758 17.1602C75.6315 17.2799 75.6055 17.4141 75.5977 17.5625L75.3828 17.5781C75.3828 17.3125 75.4089 17.0664 75.4609 16.8398C75.513 16.6133 75.5911 16.4141 75.6953 16.2422C75.8021 16.0703 75.9349 15.9362 76.0938 15.8398C76.2552 15.7435 76.4414 15.6953 76.6523 15.6953C76.7096 15.6953 76.7708 15.7005 76.8359 15.7109C76.9036 15.7214 76.9544 15.7331 76.9883 15.7461ZM79.8203 19.1523V17.1367C79.8203 16.9857 79.793 16.8555 79.7383 16.7461C79.6836 16.6367 79.6003 16.5521 79.4883 16.4922C79.3789 16.4323 79.2409 16.4023 79.0742 16.4023C78.9206 16.4023 78.7878 16.4284 78.6758 16.4805C78.5638 16.5326 78.4766 16.6029 78.4141 16.6914C78.3516 16.7799 78.3203 16.8802 78.3203 16.9922H77.3828C77.3828 16.8255 77.4232 16.6641 77.5039 16.5078C77.5846 16.3516 77.7018 16.2122 77.8555 16.0898C78.0091 15.9674 78.1927 15.8711 78.4062 15.8008C78.6198 15.7305 78.8594 15.6953 79.125 15.6953C79.4427 15.6953 79.724 15.7487 79.9688 15.8555C80.2161 15.9622 80.4102 16.1237 80.5508 16.3398C80.694 16.5534 80.7656 16.8216 80.7656 17.1445V19.0234C80.7656 19.2161 80.7786 19.3893 80.8047 19.543C80.8333 19.694 80.8737 19.8255 80.9258 19.9375V20H79.9609C79.9167 19.8984 79.8815 19.7695 79.8555 19.6133C79.832 19.4544 79.8203 19.3008 79.8203 19.1523ZM79.957 17.4297L79.9648 18.0117H79.2891C79.1146 18.0117 78.9609 18.0286 78.8281 18.0625C78.6953 18.0938 78.5846 18.1406 78.4961 18.2031C78.4076 18.2656 78.3411 18.3411 78.2969 18.4297C78.2526 18.5182 78.2305 18.6185 78.2305 18.7305C78.2305 18.8424 78.2565 18.9453 78.3086 19.0391C78.3607 19.1302 78.4362 19.2018 78.5352 19.2539C78.6367 19.306 78.7591 19.332 78.9023 19.332C79.0951 19.332 79.263 19.293 79.4062 19.2148C79.5521 19.1341 79.6667 19.0365 79.75 18.9219C79.8333 18.8047 79.8776 18.694 79.8828 18.5898L80.1875 19.0078C80.1562 19.1146 80.1029 19.2292 80.0273 19.3516C79.9518 19.474 79.8529 19.5911 79.7305 19.7031C79.6107 19.8125 79.4661 19.9023 79.2969 19.9727C79.1302 20.043 78.9375 20.0781 78.7188 20.0781C78.4427 20.0781 78.1966 20.0234 77.9805 19.9141C77.7643 19.8021 77.5951 19.6523 77.4727 19.4648C77.3503 19.2747 77.2891 19.0599 77.2891 18.8203C77.2891 18.5964 77.3307 18.3984 77.4141 18.2266C77.5 18.0521 77.625 17.9062 77.7891 17.7891C77.9557 17.6719 78.1589 17.5833 78.3984 17.5234C78.638 17.4609 78.9115 17.4297 79.2188 17.4297H79.957ZM78.6875 15.1758L79.4492 14H80.5117L79.4492 15.1758H78.6875Z" fill="black"/>
<path d="M251.527 18.9609L253.023 14.3125H254.105L252.066 20H251.336L251.527 18.9609ZM250.145 14.3125L251.629 18.9609L251.832 20H251.098L249.066 14.3125H250.145ZM256.34 20.0781C256.027 20.0781 255.745 20.0273 255.492 19.9258C255.242 19.8216 255.029 19.6771 254.852 19.4922C254.677 19.3073 254.543 19.0898 254.449 18.8398C254.355 18.5898 254.309 18.3203 254.309 18.0312V17.875C254.309 17.5443 254.357 17.2448 254.453 16.9766C254.549 16.7083 254.684 16.4792 254.855 16.2891C255.027 16.0964 255.23 15.9492 255.465 15.8477C255.699 15.7461 255.953 15.6953 256.227 15.6953C256.529 15.6953 256.793 15.7461 257.02 15.8477C257.246 15.9492 257.434 16.0924 257.582 16.2773C257.733 16.4596 257.845 16.6771 257.918 16.9297C257.993 17.1823 258.031 17.4609 258.031 17.7656V18.168H254.766V17.4922H257.102V17.418C257.096 17.2487 257.062 17.0898 257 16.9414C256.94 16.793 256.848 16.6732 256.723 16.582C256.598 16.4909 256.431 16.4453 256.223 16.4453C256.066 16.4453 255.927 16.4792 255.805 16.5469C255.685 16.612 255.585 16.707 255.504 16.832C255.423 16.957 255.361 17.1081 255.316 17.2852C255.275 17.4596 255.254 17.6562 255.254 17.875V18.0312C255.254 18.2161 255.279 18.388 255.328 18.5469C255.38 18.7031 255.456 18.8398 255.555 18.957C255.654 19.0742 255.773 19.1667 255.914 19.2344C256.055 19.2995 256.215 19.332 256.395 19.332C256.621 19.332 256.823 19.2865 257 19.1953C257.177 19.1042 257.331 18.9753 257.461 18.8086L257.957 19.2891C257.866 19.4219 257.747 19.5495 257.602 19.6719C257.456 19.7917 257.277 19.8893 257.066 19.9648C256.858 20.0404 256.616 20.0781 256.34 20.0781ZM259.773 14V20H258.828V14H259.773ZM261.156 13.9922V14.2852C261.156 14.5117 261.105 14.7474 261.004 14.9922C260.905 15.237 260.768 15.4401 260.594 15.6016L260.105 15.3086C260.199 15.1628 260.271 15.0117 260.32 14.8555C260.372 14.6992 260.398 14.5208 260.398 14.3203V13.9922H261.156ZM262.332 16.6328V20H261.391V15.7734H262.277L262.332 16.6328ZM262.18 17.7305L261.859 17.7266C261.859 17.4349 261.896 17.1654 261.969 16.918C262.042 16.6706 262.148 16.4557 262.289 16.2734C262.43 16.0885 262.604 15.9466 262.812 15.8477C263.023 15.7461 263.267 15.6953 263.543 15.6953C263.736 15.6953 263.911 15.724 264.07 15.7812C264.232 15.8359 264.371 15.9232 264.488 16.043C264.608 16.1628 264.699 16.3164 264.762 16.5039C264.827 16.6914 264.859 16.918 264.859 17.1836V20H263.918V17.2656C263.918 17.0599 263.887 16.8984 263.824 16.7812C263.764 16.6641 263.677 16.5807 263.562 16.5312C263.451 16.4792 263.316 16.4531 263.16 16.4531C262.983 16.4531 262.832 16.487 262.707 16.5547C262.585 16.6224 262.484 16.7148 262.406 16.832C262.328 16.9492 262.271 17.0846 262.234 17.2383C262.198 17.3919 262.18 17.556 262.18 17.7305ZM264.801 17.4805L264.359 17.5781C264.359 17.3229 264.395 17.082 264.465 16.8555C264.538 16.6263 264.643 16.4258 264.781 16.2539C264.922 16.0794 265.095 15.9427 265.301 15.8438C265.507 15.7448 265.742 15.6953 266.008 15.6953C266.224 15.6953 266.417 15.7253 266.586 15.7852C266.758 15.8424 266.904 15.9336 267.023 16.0586C267.143 16.1836 267.234 16.3464 267.297 16.5469C267.359 16.7448 267.391 16.9844 267.391 17.2656V20H266.445V17.2617C266.445 17.0482 266.414 16.8828 266.352 16.7656C266.292 16.6484 266.206 16.5677 266.094 16.5234C265.982 16.4766 265.848 16.4531 265.691 16.4531C265.546 16.4531 265.417 16.4805 265.305 16.5352C265.195 16.5872 265.103 16.6615 265.027 16.7578C264.952 16.8516 264.895 16.9596 264.855 17.082C264.819 17.2044 264.801 17.3372 264.801 17.4805ZM269.367 15.7734V20H268.422V15.7734H269.367ZM268.359 14.6641C268.359 14.5208 268.406 14.4023 268.5 14.3086C268.596 14.2122 268.729 14.1641 268.898 14.1641C269.065 14.1641 269.197 14.2122 269.293 14.3086C269.389 14.4023 269.438 14.5208 269.438 14.6641C269.438 14.8047 269.389 14.9219 269.293 15.0156C269.197 15.1094 269.065 15.1562 268.898 15.1562C268.729 15.1562 268.596 15.1094 268.5 15.0156C268.406 14.9219 268.359 14.8047 268.359 14.6641ZM275.66 19.25V20H272.512V19.25H275.66ZM275.574 16.3594L272.832 20H272.223V19.3945L274.949 15.7734H275.574V16.3594ZM275.211 15.7734V16.5234H272.27V15.7734H275.211ZM277.422 14V20H276.477V14H277.422ZM280.836 19.1523V17.1367C280.836 16.9857 280.809 16.8555 280.754 16.7461C280.699 16.6367 280.616 16.5521 280.504 16.4922C280.395 16.4323 280.257 16.4023 280.09 16.4023C279.936 16.4023 279.803 16.4284 279.691 16.4805C279.579 16.5326 279.492 16.6029 279.43 16.6914C279.367 16.7799 279.336 16.8802 279.336 16.9922H278.398C278.398 16.8255 278.439 16.6641 278.52 16.5078C278.6 16.3516 278.717 16.2122 278.871 16.0898C279.025 15.9674 279.208 15.8711 279.422 15.8008C279.635 15.7305 279.875 15.6953 280.141 15.6953C280.458 15.6953 280.74 15.7487 280.984 15.8555C281.232 15.9622 281.426 16.1237 281.566 16.3398C281.71 16.5534 281.781 16.8216 281.781 17.1445V19.0234C281.781 19.2161 281.794 19.3893 281.82 19.543C281.849 19.694 281.889 19.8255 281.941 19.9375V20H280.977C280.932 19.8984 280.897 19.7695 280.871 19.6133C280.848 19.4544 280.836 19.3008 280.836 19.1523ZM280.973 17.4297L280.98 18.0117H280.305C280.13 18.0117 279.977 18.0286 279.844 18.0625C279.711 18.0938 279.6 18.1406 279.512 18.2031C279.423 18.2656 279.357 18.3411 279.312 18.4297C279.268 18.5182 279.246 18.6185 279.246 18.7305C279.246 18.8424 279.272 18.9453 279.324 19.0391C279.376 19.1302 279.452 19.2018 279.551 19.2539C279.652 19.306 279.775 19.332 279.918 19.332C280.111 19.332 280.279 19.293 280.422 19.2148C280.568 19.1341 280.682 19.0365 280.766 18.9219C280.849 18.8047 280.893 18.694 280.898 18.5898L281.203 19.0078C281.172 19.1146 281.118 19.2292 281.043 19.3516C280.967 19.474 280.868 19.5911 280.746 19.7031C280.626 19.8125 280.482 19.9023 280.312 19.9727C280.146 20.043 279.953 20.0781 279.734 20.0781C279.458 20.0781 279.212 20.0234 278.996 19.9141C278.78 19.8021 278.611 19.6523 278.488 19.4648C278.366 19.2747 278.305 19.0599 278.305 18.8203C278.305 18.5964 278.346 18.3984 278.43 18.2266C278.516 18.0521 278.641 17.9062 278.805 17.7891C278.971 17.6719 279.174 17.5833 279.414 17.5234C279.654 17.4609 279.927 17.4297 280.234 17.4297H280.973ZM279.703 15.1758L280.465 14H281.527L280.465 15.1758H279.703Z" fill="black"/>
<path d="M12.5273 18.9609L14.0234 14.3125H15.1055L13.0664 20H12.3359L12.5273 18.9609ZM11.1445 14.3125L12.6289 18.9609L12.832 20H12.0977L10.0664 14.3125H11.1445ZM16.8281 19.5391L17.9766 15.7734H18.9844L17.2891 20.6445C17.25 20.7487 17.1992 20.862 17.1367 20.9844C17.0742 21.1068 16.9922 21.2227 16.8906 21.332C16.7917 21.444 16.668 21.5339 16.5195 21.6016C16.3711 21.6719 16.1914 21.707 15.9805 21.707C15.8971 21.707 15.8164 21.6992 15.7383 21.6836C15.6628 21.6706 15.5911 21.6562 15.5234 21.6406L15.5195 20.9219C15.5456 20.9245 15.5768 20.9271 15.6133 20.9297C15.6523 20.9323 15.6836 20.9336 15.707 20.9336C15.8633 20.9336 15.9935 20.9141 16.0977 20.875C16.2018 20.8385 16.2865 20.7786 16.3516 20.6953C16.4193 20.612 16.4766 20.5 16.5234 20.3594L16.8281 19.5391ZM16.1797 15.7734L17.1836 18.9375L17.3516 19.9297L16.6992 20.0977L15.1641 15.7734H16.1797ZM16.6562 15.1758L17.418 14H18.4805L17.418 15.1758H16.6562ZM19.5273 14H20.4688V19.0977L20.3789 20H19.5273V14ZM23.2266 17.8477V17.9297C23.2266 18.2422 23.1914 18.5299 23.1211 18.793C23.0534 19.0534 22.9492 19.2799 22.8086 19.4727C22.6706 19.6654 22.4987 19.8151 22.293 19.9219C22.0898 20.026 21.8542 20.0781 21.5859 20.0781C21.3229 20.0781 21.0938 20.0286 20.8984 19.9297C20.7031 19.8307 20.5391 19.6901 20.4062 19.5078C20.276 19.3255 20.1706 19.1081 20.0898 18.8555C20.0091 18.6029 19.9518 18.3242 19.918 18.0195V17.7578C19.9518 17.4505 20.0091 17.1719 20.0898 16.9219C20.1706 16.6693 20.276 16.4518 20.4062 16.2695C20.5391 16.0846 20.7018 15.9427 20.8945 15.8438C21.0898 15.7448 21.3177 15.6953 21.5781 15.6953C21.849 15.6953 22.0872 15.7474 22.293 15.8516C22.5013 15.9557 22.6745 16.1042 22.8125 16.2969C22.9505 16.487 23.0534 16.7135 23.1211 16.9766C23.1914 17.2396 23.2266 17.5299 23.2266 17.8477ZM22.2852 17.9297V17.8477C22.2852 17.6576 22.2695 17.4792 22.2383 17.3125C22.207 17.1432 22.1549 16.9948 22.082 16.8672C22.0117 16.7396 21.9154 16.6393 21.793 16.5664C21.6732 16.4909 21.5234 16.4531 21.3438 16.4531C21.1771 16.4531 21.0339 16.4818 20.9141 16.5391C20.7943 16.5964 20.694 16.6745 20.6133 16.7734C20.5326 16.8724 20.4688 16.987 20.4219 17.1172C20.3776 17.2474 20.3477 17.388 20.332 17.5391V18.2461C20.3555 18.4414 20.4049 18.6211 20.4805 18.7852C20.5586 18.9466 20.668 19.0768 20.8086 19.1758C20.9492 19.2721 21.1302 19.3203 21.3516 19.3203C21.526 19.3203 21.6732 19.2852 21.793 19.2148C21.9128 19.1445 22.0078 19.0469 22.0781 18.9219C22.151 18.7943 22.2031 18.6458 22.2344 18.4766C22.2682 18.3073 22.2852 18.125 22.2852 17.9297ZM23.8438 17.9336V17.8438C23.8438 17.5391 23.888 17.2565 23.9766 16.9961C24.0651 16.7331 24.1927 16.5052 24.3594 16.3125C24.5286 16.1172 24.7344 15.9661 24.9766 15.8594C25.2214 15.75 25.4974 15.6953 25.8047 15.6953C26.1146 15.6953 26.3906 15.75 26.6328 15.8594C26.8776 15.9661 27.0846 16.1172 27.2539 16.3125C27.4232 16.5052 27.5521 16.7331 27.6406 16.9961C27.7292 17.2565 27.7734 17.5391 27.7734 17.8438V17.9336C27.7734 18.2383 27.7292 18.5208 27.6406 18.7812C27.5521 19.0417 27.4232 19.2695 27.2539 19.4648C27.0846 19.6576 26.8789 19.8086 26.6367 19.918C26.3945 20.0247 26.1198 20.0781 25.8125 20.0781C25.5026 20.0781 25.2253 20.0247 24.9805 19.918C24.7383 19.8086 24.5326 19.6576 24.3633 19.4648C24.194 19.2695 24.0651 19.0417 23.9766 18.7812C23.888 18.5208 23.8438 18.2383 23.8438 17.9336ZM24.7852 17.8438V17.9336C24.7852 18.1237 24.8047 18.3034 24.8438 18.4727C24.8828 18.6419 24.944 18.7904 25.0273 18.918C25.1107 19.0456 25.2174 19.1458 25.3477 19.2188C25.4779 19.2917 25.6328 19.3281 25.8125 19.3281C25.987 19.3281 26.138 19.2917 26.2656 19.2188C26.3958 19.1458 26.5026 19.0456 26.5859 18.918C26.6693 18.7904 26.7305 18.6419 26.7695 18.4727C26.8112 18.3034 26.832 18.1237 26.832 17.9336V17.8438C26.832 17.6562 26.8112 17.4792 26.7695 17.3125C26.7305 17.1432 26.668 16.9935 26.582 16.8633C26.4987 16.7331 26.3919 16.6315 26.2617 16.5586C26.1341 16.4831 25.9818 16.4453 25.8047 16.4453C25.6276 16.4453 25.474 16.4831 25.3438 16.5586C25.2161 16.6315 25.1107 16.7331 25.0273 16.8633C24.944 16.9935 24.8828 17.1432 24.8438 17.3125C24.8047 17.4792 24.7852 17.6562 24.7852 17.8438ZM29.5078 16.5781V20H28.5664V15.7734H29.4648L29.5078 16.5781ZM30.8008 15.7461L30.793 16.6211C30.7357 16.6107 30.6732 16.6029 30.6055 16.5977C30.5404 16.5924 30.4753 16.5898 30.4102 16.5898C30.2487 16.5898 30.1068 16.6133 29.9844 16.6602C29.862 16.7044 29.7591 16.7695 29.6758 16.8555C29.5951 16.9388 29.5326 17.0404 29.4883 17.1602C29.444 17.2799 29.418 17.4141 29.4102 17.5625L29.1953 17.5781C29.1953 17.3125 29.2214 17.0664 29.2734 16.8398C29.3255 16.6133 29.4036 16.4141 29.5078 16.2422C29.6146 16.0703 29.7474 15.9362 29.9062 15.8398C30.0677 15.7435 30.2539 15.6953 30.4648 15.6953C30.5221 15.6953 30.5833 15.7005 30.6484 15.7109C30.7161 15.7214 30.7669 15.7331 30.8008 15.7461ZM32.3242 16.6758V20H31.3828V15.7734H32.2695L32.3242 16.6758ZM32.1562 17.7305L31.8516 17.7266C31.8542 17.4271 31.8958 17.1523 31.9766 16.9023C32.0599 16.6523 32.1745 16.4375 32.3203 16.2578C32.4688 16.0781 32.6458 15.9401 32.8516 15.8438C33.0573 15.7448 33.2865 15.6953 33.5391 15.6953C33.7422 15.6953 33.9258 15.724 34.0898 15.7812C34.2565 15.8359 34.3984 15.9258 34.5156 16.0508C34.6354 16.1758 34.7266 16.3385 34.7891 16.5391C34.8516 16.737 34.8828 16.9805 34.8828 17.2695V20H33.9375V17.2656C33.9375 17.0625 33.9076 16.9023 33.8477 16.7852C33.7904 16.6654 33.7057 16.5807 33.5938 16.5312C33.4844 16.4792 33.3477 16.4531 33.1836 16.4531C33.0221 16.4531 32.8776 16.487 32.75 16.5547C32.6224 16.6224 32.5143 16.7148 32.4258 16.832C32.3398 16.9492 32.2734 17.0846 32.2266 17.2383C32.1797 17.3919 32.1562 17.556 32.1562 17.7305ZM38.2266 19.1523V17.1367C38.2266 16.9857 38.1992 16.8555 38.1445 16.7461C38.0898 16.6367 38.0065 16.5521 37.8945 16.4922C37.7852 16.4323 37.6471 16.4023 37.4805 16.4023C37.3268 16.4023 37.194 16.4284 37.082 16.4805C36.9701 16.5326 36.8828 16.6029 36.8203 16.6914C36.7578 16.7799 36.7266 16.8802 36.7266 16.9922H35.7891C35.7891 16.8255 35.8294 16.6641 35.9102 16.5078C35.9909 16.3516 36.1081 16.2122 36.2617 16.0898C36.4154 15.9674 36.599 15.8711 36.8125 15.8008C37.026 15.7305 37.2656 15.6953 37.5312 15.6953C37.849 15.6953 38.1302 15.7487 38.375 15.8555C38.6224 15.9622 38.8164 16.1237 38.957 16.3398C39.1003 16.5534 39.1719 16.8216 39.1719 17.1445V19.0234C39.1719 19.2161 39.1849 19.3893 39.2109 19.543C39.2396 19.694 39.2799 19.8255 39.332 19.9375V20H38.3672C38.3229 19.8984 38.2878 19.7695 38.2617 19.6133C38.2383 19.4544 38.2266 19.3008 38.2266 19.1523ZM38.3633 17.4297L38.3711 18.0117H37.6953C37.5208 18.0117 37.3672 18.0286 37.2344 18.0625C37.1016 18.0938 36.9909 18.1406 36.9023 18.2031C36.8138 18.2656 36.7474 18.3411 36.7031 18.4297C36.6589 18.5182 36.6367 18.6185 36.6367 18.7305C36.6367 18.8424 36.6628 18.9453 36.7148 19.0391C36.7669 19.1302 36.8424 19.2018 36.9414 19.2539C37.043 19.306 37.1654 19.332 37.3086 19.332C37.5013 19.332 37.6693 19.293 37.8125 19.2148C37.9583 19.1341 38.0729 19.0365 38.1562 18.9219C38.2396 18.8047 38.2839 18.694 38.2891 18.5898L38.5938 19.0078C38.5625 19.1146 38.5091 19.2292 38.4336 19.3516C38.3581 19.474 38.2591 19.5911 38.1367 19.7031C38.0169 19.8125 37.8724 19.9023 37.7031 19.9727C37.5365 20.043 37.3438 20.0781 37.125 20.0781C36.849 20.0781 36.6029 20.0234 36.3867 19.9141C36.1706 19.8021 36.0013 19.6523 35.8789 19.4648C35.7565 19.2747 35.6953 19.0599 35.6953 18.8203C35.6953 18.5964 35.737 18.3984 35.8203 18.2266C35.9062 18.0521 36.0312 17.9062 36.1953 17.7891C36.362 17.6719 36.5651 17.5833 36.8047 17.5234C37.0443 17.4609 37.3177 17.4297 37.625 17.4297H38.3633ZM37.0938 15.1758L37.8555 14H38.918L37.8555 15.1758H37.0938Z" fill="black"/>
</svg>
