<svg xmlns="http://www.w3.org/2000/svg" xmlns:xlink="http://www.w3.org/1999/xlink" width="189" zoomAndPan="magnify" viewBox="0 0 141.75 141.749996" height="189" preserveAspectRatio="xMidYMid meet" version="1.0"><defs><g/><clipPath id="id1"><path d="M 20 59.511719 L 44 59.511719 L 44 67 L 20 67 Z M 20 59.511719 " clip-rule="nonzero"/></clipPath><clipPath id="id2"><path d="M 20 77 L 44 77 L 44 84.261719 L 20 84.261719 Z M 20 77 " clip-rule="nonzero"/></clipPath><clipPath id="id3"><path d="M 36 68 L 44.320312 68 L 44.320312 75 L 36 75 Z M 36 68 " clip-rule="nonzero"/></clipPath><clipPath id="id4"><path d="M 19.570312 68 L 28 68 L 28 75 L 19.570312 75 Z M 19.570312 68 " clip-rule="nonzero"/></clipPath></defs><g clip-path="url(#id1)"><path fill="#009ea6" d="M 23.019531 66.730469 C 24.128906 64.816406 25.835938 63.289062 27.882812 62.410156 C 27.199219 63.570312 26.65625 65.042969 26.289062 66.730469 L 28.425781 66.730469 C 29.207031 63.59375 30.628906 61.574219 31.945312 61.574219 C 33.261719 61.574219 34.683594 63.59375 35.464844 66.730469 L 37.601562 66.730469 C 37.234375 65.042969 36.691406 63.570312 36.003906 62.410156 C 38.054688 63.289062 39.757812 64.816406 40.871094 66.730469 L 43.179688 66.730469 C 41.21875 62.476562 36.925781 59.511719 31.945312 59.511719 C 26.960938 59.511719 22.667969 62.476562 20.710938 66.730469 Z M 23.019531 66.730469 " fill-opacity="1" fill-rule="nonzero"/></g><g clip-path="url(#id2)"><path fill="#009ea6" d="M 40.871094 77.042969 C 39.757812 78.953125 38.054688 80.480469 36.003906 81.363281 C 36.691406 80.199219 37.234375 78.726562 37.601562 77.042969 L 35.464844 77.042969 C 34.683594 80.175781 33.261719 82.199219 31.945312 82.199219 C 30.625 82.199219 29.207031 80.175781 28.425781 77.042969 L 26.289062 77.042969 C 26.65625 78.726562 27.199219 80.199219 27.882812 81.363281 C 25.835938 80.480469 24.128906 78.953125 23.019531 77.042969 L 20.710938 77.042969 C 22.667969 81.292969 26.960938 84.261719 31.945312 84.261719 C 36.925781 84.261719 41.21875 81.292969 43.179688 77.042969 Z M 40.871094 77.042969 " fill-opacity="1" fill-rule="nonzero"/></g><path fill="#009ea6" d="M 36.070312 68.792969 L 34.523438 74.980469 L 33.0625 74.980469 C 33.0625 74.980469 32.007812 71.207031 31.996094 70.953125 L 31.980469 70.953125 C 31.957031 71.234375 30.878906 74.980469 30.878906 74.980469 L 29.355469 74.980469 L 27.820312 68.792969 L 29.261719 68.792969 C 29.261719 68.792969 30.144531 72.449219 30.160156 72.742188 L 30.1875 72.742188 C 30.195312 72.523438 31.363281 68.792969 31.363281 68.792969 L 32.777344 68.792969 C 32.777344 68.792969 33.800781 72.445312 33.828125 72.734375 L 33.847656 72.734375 C 33.855469 72.507812 34.738281 68.792969 34.738281 68.792969 Z M 36.070312 68.792969 " fill-opacity="1" fill-rule="nonzero"/><g clip-path="url(#id3)"><path fill="#009ea6" d="M 44.320312 68.792969 L 42.773438 74.980469 L 41.3125 74.980469 C 41.3125 74.980469 40.257812 71.207031 40.246094 70.953125 L 40.230469 70.953125 C 40.207031 71.234375 39.128906 74.980469 39.128906 74.980469 L 37.605469 74.980469 L 36.070312 68.792969 L 37.511719 68.792969 C 37.511719 68.792969 38.394531 72.449219 38.410156 72.742188 L 38.4375 72.742188 C 38.445312 72.523438 39.613281 68.792969 39.613281 68.792969 L 41.027344 68.792969 C 41.027344 68.792969 42.050781 72.445312 42.078125 72.734375 L 42.097656 72.734375 C 42.105469 72.507812 42.988281 68.792969 42.988281 68.792969 Z M 44.320312 68.792969 " fill-opacity="1" fill-rule="nonzero"/></g><g clip-path="url(#id4)"><path fill="#009ea6" d="M 27.820312 68.792969 L 26.273438 74.980469 L 24.8125 74.980469 C 24.8125 74.980469 23.757812 71.207031 23.746094 70.953125 L 23.730469 70.953125 C 23.707031 71.234375 22.628906 74.980469 22.628906 74.980469 L 21.109375 74.980469 L 19.570312 68.792969 L 21.011719 68.792969 C 21.011719 68.792969 21.894531 72.449219 21.910156 72.742188 L 21.9375 72.742188 C 21.945312 72.523438 23.113281 68.792969 23.113281 68.792969 L 24.527344 68.792969 C 24.527344 68.792969 25.550781 72.445312 25.578125 72.734375 L 25.597656 72.734375 C 25.605469 72.507812 26.488281 68.792969 26.488281 68.792969 Z M 27.820312 68.792969 " fill-opacity="1" fill-rule="nonzero"/></g><g fill="#737373" fill-opacity="1"><g transform="translate(53.032509, 62.529313)"><g><path d="M 2.984375 -0.953125 C 2.984375 -0.617188 2.867188 -0.359375 2.640625 -0.171875 C 2.410156 0.015625 2.078125 0.109375 1.640625 0.109375 C 1.347656 0.109375 1.082031 0.0507812 0.84375 -0.0625 C 0.613281 -0.175781 0.445312 -0.332031 0.34375 -0.53125 L 0.796875 -0.8125 C 0.972656 -0.53125 1.257812 -0.390625 1.65625 -0.390625 C 1.914062 -0.390625 2.109375 -0.4375 2.234375 -0.53125 C 2.359375 -0.632812 2.421875 -0.769531 2.421875 -0.9375 C 2.421875 -1.03125 2.398438 -1.109375 2.359375 -1.171875 C 2.316406 -1.234375 2.242188 -1.285156 2.140625 -1.328125 C 2.046875 -1.378906 1.851562 -1.441406 1.5625 -1.515625 C 1.144531 -1.617188 0.847656 -1.753906 0.671875 -1.921875 C 0.503906 -2.085938 0.421875 -2.316406 0.421875 -2.609375 C 0.421875 -2.921875 0.53125 -3.171875 0.75 -3.359375 C 0.976562 -3.546875 1.289062 -3.640625 1.6875 -3.640625 C 2 -3.640625 2.257812 -3.578125 2.46875 -3.453125 C 2.675781 -3.335938 2.828125 -3.191406 2.921875 -3.015625 L 2.46875 -2.734375 C 2.28125 -3.015625 2.015625 -3.15625 1.671875 -3.15625 C 1.484375 -3.15625 1.320312 -3.109375 1.1875 -3.015625 C 1.050781 -2.929688 0.984375 -2.800781 0.984375 -2.625 C 0.984375 -2.46875 1.039062 -2.351562 1.15625 -2.28125 C 1.28125 -2.207031 1.46875 -2.140625 1.71875 -2.078125 C 2.113281 -1.972656 2.382812 -1.875 2.53125 -1.78125 C 2.6875 -1.695312 2.800781 -1.585938 2.875 -1.453125 C 2.945312 -1.328125 2.984375 -1.160156 2.984375 -0.953125 Z M 2.984375 -0.953125 "/></g></g><g transform="translate(56.371055, 62.529313)"><g><path d="M 1 -1.703125 C 1 -1.234375 1.078125 -0.898438 1.234375 -0.703125 C 1.390625 -0.503906 1.644531 -0.40625 2 -0.40625 C 2.15625 -0.40625 2.289062 -0.4375 2.40625 -0.5 C 2.53125 -0.5625 2.648438 -0.671875 2.765625 -0.828125 L 3.234375 -0.53125 C 3.097656 -0.320312 2.929688 -0.160156 2.734375 -0.046875 C 2.546875 0.0546875 2.289062 0.109375 1.96875 0.109375 C 1.4375 0.109375 1.039062 -0.0390625 0.78125 -0.34375 C 0.519531 -0.65625 0.390625 -1.117188 0.390625 -1.734375 C 0.390625 -2.390625 0.515625 -2.867188 0.765625 -3.171875 C 1.023438 -3.484375 1.410156 -3.640625 1.921875 -3.640625 C 2.378906 -3.640625 2.722656 -3.503906 2.953125 -3.234375 C 3.179688 -2.972656 3.296875 -2.566406 3.296875 -2.015625 L 3.296875 -1.703125 Z M 2.734375 -2.15625 C 2.722656 -2.46875 2.648438 -2.710938 2.515625 -2.890625 C 2.390625 -3.066406 2.1875 -3.15625 1.90625 -3.15625 C 1.625 -3.15625 1.410156 -3.078125 1.265625 -2.921875 C 1.128906 -2.765625 1.039062 -2.507812 1 -2.15625 Z M 2.734375 -2.15625 "/></g></g><g transform="translate(60.012799, 62.529313)"><g><path d="M 2.796875 0 L 2.796875 -2.078125 C 2.796875 -2.421875 2.773438 -2.644531 2.734375 -2.75 C 2.703125 -2.863281 2.648438 -2.945312 2.578125 -3 C 2.503906 -3.050781 2.394531 -3.078125 2.25 -3.078125 C 2.09375 -3.078125 1.914062 -3.019531 1.71875 -2.90625 C 1.53125 -2.789062 1.34375 -2.65625 1.15625 -2.5 L 1.15625 0 L 0.578125 0 L 0.578125 -3.53125 L 1.15625 -3.53125 L 1.15625 -3.015625 C 1.320312 -3.171875 1.507812 -3.3125 1.71875 -3.4375 C 1.9375 -3.570312 2.160156 -3.640625 2.390625 -3.640625 C 2.722656 -3.640625 2.96875 -3.539062 3.125 -3.34375 C 3.289062 -3.15625 3.375 -2.828125 3.375 -2.359375 L 3.375 0 Z M 2.796875 0 "/></g></g><g transform="translate(63.93079, 62.529313)"><g><path d="M 2.984375 -0.953125 C 2.984375 -0.617188 2.867188 -0.359375 2.640625 -0.171875 C 2.410156 0.015625 2.078125 0.109375 1.640625 0.109375 C 1.347656 0.109375 1.082031 0.0507812 0.84375 -0.0625 C 0.613281 -0.175781 0.445312 -0.332031 0.34375 -0.53125 L 0.796875 -0.8125 C 0.972656 -0.53125 1.257812 -0.390625 1.65625 -0.390625 C 1.914062 -0.390625 2.109375 -0.4375 2.234375 -0.53125 C 2.359375 -0.632812 2.421875 -0.769531 2.421875 -0.9375 C 2.421875 -1.03125 2.398438 -1.109375 2.359375 -1.171875 C 2.316406 -1.234375 2.242188 -1.285156 2.140625 -1.328125 C 2.046875 -1.378906 1.851562 -1.441406 1.5625 -1.515625 C 1.144531 -1.617188 0.847656 -1.753906 0.671875 -1.921875 C 0.503906 -2.085938 0.421875 -2.316406 0.421875 -2.609375 C 0.421875 -2.921875 0.53125 -3.171875 0.75 -3.359375 C 0.976562 -3.546875 1.289062 -3.640625 1.6875 -3.640625 C 2 -3.640625 2.257812 -3.578125 2.46875 -3.453125 C 2.675781 -3.335938 2.828125 -3.191406 2.921875 -3.015625 L 2.46875 -2.734375 C 2.28125 -3.015625 2.015625 -3.15625 1.671875 -3.15625 C 1.484375 -3.15625 1.320312 -3.109375 1.1875 -3.015625 C 1.050781 -2.929688 0.984375 -2.800781 0.984375 -2.625 C 0.984375 -2.46875 1.039062 -2.351562 1.15625 -2.28125 C 1.28125 -2.207031 1.46875 -2.140625 1.71875 -2.078125 C 2.113281 -1.972656 2.382812 -1.875 2.53125 -1.78125 C 2.6875 -1.695312 2.800781 -1.585938 2.875 -1.453125 C 2.945312 -1.328125 2.984375 -1.160156 2.984375 -0.953125 Z M 2.984375 -0.953125 "/></g></g><g transform="translate(67.269336, 62.529313)"><g><path d="M 1 -1.703125 C 1 -1.234375 1.078125 -0.898438 1.234375 -0.703125 C 1.390625 -0.503906 1.644531 -0.40625 2 -0.40625 C 2.15625 -0.40625 2.289062 -0.4375 2.40625 -0.5 C 2.53125 -0.5625 2.648438 -0.671875 2.765625 -0.828125 L 3.234375 -0.53125 C 3.097656 -0.320312 2.929688 -0.160156 2.734375 -0.046875 C 2.546875 0.0546875 2.289062 0.109375 1.96875 0.109375 C 1.4375 0.109375 1.039062 -0.0390625 0.78125 -0.34375 C 0.519531 -0.65625 0.390625 -1.117188 0.390625 -1.734375 C 0.390625 -2.390625 0.515625 -2.867188 0.765625 -3.171875 C 1.023438 -3.484375 1.410156 -3.640625 1.921875 -3.640625 C 2.378906 -3.640625 2.722656 -3.503906 2.953125 -3.234375 C 3.179688 -2.972656 3.296875 -2.566406 3.296875 -2.015625 L 3.296875 -1.703125 Z M 2.734375 -2.15625 C 2.722656 -2.46875 2.648438 -2.710938 2.515625 -2.890625 C 2.390625 -3.066406 2.1875 -3.15625 1.90625 -3.15625 C 1.625 -3.15625 1.410156 -3.078125 1.265625 -2.921875 C 1.128906 -2.765625 1.039062 -2.507812 1 -2.15625 Z M 2.734375 -2.15625 "/></g></g><g transform="translate(70.91108, 62.529313)"><g><path d="M 1.25 -4.4375 C 1.25 -4.300781 1.21875 -4.207031 1.15625 -4.15625 C 1.09375 -4.113281 0.992188 -4.09375 0.859375 -4.09375 C 0.722656 -4.09375 0.625 -4.117188 0.5625 -4.171875 C 0.507812 -4.234375 0.484375 -4.320312 0.484375 -4.4375 C 0.484375 -4.550781 0.515625 -4.632812 0.578125 -4.6875 C 0.640625 -4.75 0.734375 -4.78125 0.859375 -4.78125 C 0.992188 -4.78125 1.09375 -4.753906 1.15625 -4.703125 C 1.21875 -4.648438 1.25 -4.5625 1.25 -4.4375 Z M 0.578125 0 L 0.578125 -3.53125 L 1.15625 -3.53125 L 1.15625 0 Z M 0.578125 0 "/></g></g><g transform="translate(72.635939, 62.529313)"><g><path d="M 3.5 -1.765625 C 3.5 -1.148438 3.367188 -0.679688 3.109375 -0.359375 C 2.847656 -0.046875 2.460938 0.109375 1.953125 0.109375 C 1.453125 0.109375 1.066406 -0.046875 0.796875 -0.359375 C 0.523438 -0.671875 0.390625 -1.140625 0.390625 -1.765625 C 0.390625 -2.390625 0.523438 -2.859375 0.796875 -3.171875 C 1.066406 -3.484375 1.453125 -3.640625 1.953125 -3.640625 C 2.460938 -3.640625 2.847656 -3.476562 3.109375 -3.15625 C 3.367188 -2.84375 3.5 -2.378906 3.5 -1.765625 Z M 2.90625 -1.765625 C 2.90625 -2.242188 2.828125 -2.59375 2.671875 -2.8125 C 2.515625 -3.03125 2.273438 -3.140625 1.953125 -3.140625 C 1.628906 -3.140625 1.390625 -3.03125 1.234375 -2.8125 C 1.078125 -2.59375 1 -2.242188 1 -1.765625 C 1 -1.296875 1.070312 -0.953125 1.21875 -0.734375 C 1.375 -0.515625 1.617188 -0.40625 1.953125 -0.40625 C 2.273438 -0.40625 2.515625 -0.515625 2.671875 -0.734375 C 2.828125 -0.953125 2.90625 -1.296875 2.90625 -1.765625 Z M 2.90625 -1.765625 "/></g></g><g transform="translate(76.533717, 62.529313)"><g><path d="M 2.34375 0 C 2.113281 0.0703125 1.890625 0.109375 1.671875 0.109375 C 1.316406 0.109375 1.0625 0.015625 0.90625 -0.171875 C 0.75 -0.367188 0.671875 -0.664062 0.671875 -1.0625 L 0.671875 -3.046875 L 0.15625 -3.046875 L 0.15625 -3.53125 L 0.671875 -3.53125 L 0.671875 -4.515625 L 1.25 -4.515625 L 1.25 -3.53125 L 2.140625 -3.53125 L 2.140625 -3.046875 L 1.25 -3.046875 L 1.25 -1.1875 C 1.25 -0.894531 1.273438 -0.6875 1.328125 -0.5625 C 1.390625 -0.4375 1.519531 -0.375 1.71875 -0.375 C 1.882812 -0.375 2.039062 -0.40625 2.1875 -0.46875 Z M 2.34375 0 "/></g></g><g transform="translate(78.98962, 62.529313)"><g><path d="M 1.34375 -0.328125 C 1.34375 -0.191406 1.304688 -0.09375 1.234375 -0.03125 C 1.171875 0.0195312 1.070312 0.046875 0.9375 0.046875 C 0.769531 0.046875 0.660156 0.015625 0.609375 -0.046875 C 0.554688 -0.117188 0.53125 -0.210938 0.53125 -0.328125 C 0.53125 -0.460938 0.5625 -0.5625 0.625 -0.625 C 0.6875 -0.6875 0.789062 -0.71875 0.9375 -0.71875 C 1.082031 -0.71875 1.1875 -0.6875 1.25 -0.625 C 1.3125 -0.5625 1.34375 -0.460938 1.34375 -0.328125 Z M 1.34375 -0.328125 "/></g></g><g transform="translate(80.859341, 62.529313)"><g><path d="M 2.984375 -0.953125 C 2.984375 -0.617188 2.867188 -0.359375 2.640625 -0.171875 C 2.410156 0.015625 2.078125 0.109375 1.640625 0.109375 C 1.347656 0.109375 1.082031 0.0507812 0.84375 -0.0625 C 0.613281 -0.175781 0.445312 -0.332031 0.34375 -0.53125 L 0.796875 -0.8125 C 0.972656 -0.53125 1.257812 -0.390625 1.65625 -0.390625 C 1.914062 -0.390625 2.109375 -0.4375 2.234375 -0.53125 C 2.359375 -0.632812 2.421875 -0.769531 2.421875 -0.9375 C 2.421875 -1.03125 2.398438 -1.109375 2.359375 -1.171875 C 2.316406 -1.234375 2.242188 -1.285156 2.140625 -1.328125 C 2.046875 -1.378906 1.851562 -1.441406 1.5625 -1.515625 C 1.144531 -1.617188 0.847656 -1.753906 0.671875 -1.921875 C 0.503906 -2.085938 0.421875 -2.316406 0.421875 -2.609375 C 0.421875 -2.921875 0.53125 -3.171875 0.75 -3.359375 C 0.976562 -3.546875 1.289062 -3.640625 1.6875 -3.640625 C 2 -3.640625 2.257812 -3.578125 2.46875 -3.453125 C 2.675781 -3.335938 2.828125 -3.191406 2.921875 -3.015625 L 2.46875 -2.734375 C 2.28125 -3.015625 2.015625 -3.15625 1.671875 -3.15625 C 1.484375 -3.15625 1.320312 -3.109375 1.1875 -3.015625 C 1.050781 -2.929688 0.984375 -2.800781 0.984375 -2.625 C 0.984375 -2.46875 1.039062 -2.351562 1.15625 -2.28125 C 1.28125 -2.207031 1.46875 -2.140625 1.71875 -2.078125 C 2.113281 -1.972656 2.382812 -1.875 2.53125 -1.78125 C 2.6875 -1.695312 2.800781 -1.585938 2.875 -1.453125 C 2.945312 -1.328125 2.984375 -1.160156 2.984375 -0.953125 Z M 2.984375 -0.953125 "/></g></g><g transform="translate(84.197887, 62.529313)"><g><path d="M 2.65625 0 L 1.53125 -1.59375 L 1.15625 -1.171875 L 1.15625 0 L 0.578125 0 L 0.578125 -5.015625 L 1.15625 -5.015625 L 1.15625 -1.890625 L 2.59375 -3.53125 L 3.296875 -3.53125 L 1.890625 -1.984375 L 3.375 0 Z M 2.65625 0 "/></g></g></g><g fill="#737373" fill-opacity="1"><g transform="translate(53.032509, 73.453422)"><g><path d="M 2.984375 -0.953125 C 2.984375 -0.617188 2.867188 -0.359375 2.640625 -0.171875 C 2.410156 0.015625 2.078125 0.109375 1.640625 0.109375 C 1.347656 0.109375 1.082031 0.0507812 0.84375 -0.0625 C 0.613281 -0.175781 0.445312 -0.332031 0.34375 -0.53125 L 0.796875 -0.8125 C 0.972656 -0.53125 1.257812 -0.390625 1.65625 -0.390625 C 1.914062 -0.390625 2.109375 -0.4375 2.234375 -0.53125 C 2.359375 -0.632812 2.421875 -0.769531 2.421875 -0.9375 C 2.421875 -1.03125 2.398438 -1.109375 2.359375 -1.171875 C 2.316406 -1.234375 2.242188 -1.285156 2.140625 -1.328125 C 2.046875 -1.378906 1.851562 -1.441406 1.5625 -1.515625 C 1.144531 -1.617188 0.847656 -1.753906 0.671875 -1.921875 C 0.503906 -2.085938 0.421875 -2.316406 0.421875 -2.609375 C 0.421875 -2.921875 0.53125 -3.171875 0.75 -3.359375 C 0.976562 -3.546875 1.289062 -3.640625 1.6875 -3.640625 C 2 -3.640625 2.257812 -3.578125 2.46875 -3.453125 C 2.675781 -3.335938 2.828125 -3.191406 2.921875 -3.015625 L 2.46875 -2.734375 C 2.28125 -3.015625 2.015625 -3.15625 1.671875 -3.15625 C 1.484375 -3.15625 1.320312 -3.109375 1.1875 -3.015625 C 1.050781 -2.929688 0.984375 -2.800781 0.984375 -2.625 C 0.984375 -2.46875 1.039062 -2.351562 1.15625 -2.28125 C 1.28125 -2.207031 1.46875 -2.140625 1.71875 -2.078125 C 2.113281 -1.972656 2.382812 -1.875 2.53125 -1.78125 C 2.6875 -1.695312 2.800781 -1.585938 2.875 -1.453125 C 2.945312 -1.328125 2.984375 -1.160156 2.984375 -0.953125 Z M 2.984375 -0.953125 "/></g></g><g transform="translate(56.371055, 73.453422)"><g><path d="M 1 -1.703125 C 1 -1.234375 1.078125 -0.898438 1.234375 -0.703125 C 1.390625 -0.503906 1.644531 -0.40625 2 -0.40625 C 2.15625 -0.40625 2.289062 -0.4375 2.40625 -0.5 C 2.53125 -0.5625 2.648438 -0.671875 2.765625 -0.828125 L 3.234375 -0.53125 C 3.097656 -0.320312 2.929688 -0.160156 2.734375 -0.046875 C 2.546875 0.0546875 2.289062 0.109375 1.96875 0.109375 C 1.4375 0.109375 1.039062 -0.0390625 0.78125 -0.34375 C 0.519531 -0.65625 0.390625 -1.117188 0.390625 -1.734375 C 0.390625 -2.390625 0.515625 -2.867188 0.765625 -3.171875 C 1.023438 -3.484375 1.410156 -3.640625 1.921875 -3.640625 C 2.378906 -3.640625 2.722656 -3.503906 2.953125 -3.234375 C 3.179688 -2.972656 3.296875 -2.566406 3.296875 -2.015625 L 3.296875 -1.703125 Z M 2.734375 -2.15625 C 2.722656 -2.46875 2.648438 -2.710938 2.515625 -2.890625 C 2.390625 -3.066406 2.1875 -3.15625 1.90625 -3.15625 C 1.625 -3.15625 1.410156 -3.078125 1.265625 -2.921875 C 1.128906 -2.765625 1.039062 -2.507812 1 -2.15625 Z M 2.734375 -2.15625 "/></g></g><g transform="translate(60.012799, 73.453422)"><g><path d="M 2.796875 0 L 2.796875 -2.078125 C 2.796875 -2.421875 2.773438 -2.644531 2.734375 -2.75 C 2.703125 -2.863281 2.648438 -2.945312 2.578125 -3 C 2.503906 -3.050781 2.394531 -3.078125 2.25 -3.078125 C 2.09375 -3.078125 1.914062 -3.019531 1.71875 -2.90625 C 1.53125 -2.789062 1.34375 -2.65625 1.15625 -2.5 L 1.15625 0 L 0.578125 0 L 0.578125 -3.53125 L 1.15625 -3.53125 L 1.15625 -3.015625 C 1.320312 -3.171875 1.507812 -3.3125 1.71875 -3.4375 C 1.9375 -3.570312 2.160156 -3.640625 2.390625 -3.640625 C 2.722656 -3.640625 2.96875 -3.539062 3.125 -3.34375 C 3.289062 -3.15625 3.375 -2.828125 3.375 -2.359375 L 3.375 0 Z M 2.796875 0 "/></g></g><g transform="translate(63.93079, 73.453422)"><g><path d="M 2.984375 -0.953125 C 2.984375 -0.617188 2.867188 -0.359375 2.640625 -0.171875 C 2.410156 0.015625 2.078125 0.109375 1.640625 0.109375 C 1.347656 0.109375 1.082031 0.0507812 0.84375 -0.0625 C 0.613281 -0.175781 0.445312 -0.332031 0.34375 -0.53125 L 0.796875 -0.8125 C 0.972656 -0.53125 1.257812 -0.390625 1.65625 -0.390625 C 1.914062 -0.390625 2.109375 -0.4375 2.234375 -0.53125 C 2.359375 -0.632812 2.421875 -0.769531 2.421875 -0.9375 C 2.421875 -1.03125 2.398438 -1.109375 2.359375 -1.171875 C 2.316406 -1.234375 2.242188 -1.285156 2.140625 -1.328125 C 2.046875 -1.378906 1.851562 -1.441406 1.5625 -1.515625 C 1.144531 -1.617188 0.847656 -1.753906 0.671875 -1.921875 C 0.503906 -2.085938 0.421875 -2.316406 0.421875 -2.609375 C 0.421875 -2.921875 0.53125 -3.171875 0.75 -3.359375 C 0.976562 -3.546875 1.289062 -3.640625 1.6875 -3.640625 C 2 -3.640625 2.257812 -3.578125 2.46875 -3.453125 C 2.675781 -3.335938 2.828125 -3.191406 2.921875 -3.015625 L 2.46875 -2.734375 C 2.28125 -3.015625 2.015625 -3.15625 1.671875 -3.15625 C 1.484375 -3.15625 1.320312 -3.109375 1.1875 -3.015625 C 1.050781 -2.929688 0.984375 -2.800781 0.984375 -2.625 C 0.984375 -2.46875 1.039062 -2.351562 1.15625 -2.28125 C 1.28125 -2.207031 1.46875 -2.140625 1.71875 -2.078125 C 2.113281 -1.972656 2.382812 -1.875 2.53125 -1.78125 C 2.6875 -1.695312 2.800781 -1.585938 2.875 -1.453125 C 2.945312 -1.328125 2.984375 -1.160156 2.984375 -0.953125 Z M 2.984375 -0.953125 "/></g></g><g transform="translate(67.269336, 73.453422)"><g><path d="M 1 -1.703125 C 1 -1.234375 1.078125 -0.898438 1.234375 -0.703125 C 1.390625 -0.503906 1.644531 -0.40625 2 -0.40625 C 2.15625 -0.40625 2.289062 -0.4375 2.40625 -0.5 C 2.53125 -0.5625 2.648438 -0.671875 2.765625 -0.828125 L 3.234375 -0.53125 C 3.097656 -0.320312 2.929688 -0.160156 2.734375 -0.046875 C 2.546875 0.0546875 2.289062 0.109375 1.96875 0.109375 C 1.4375 0.109375 1.039062 -0.0390625 0.78125 -0.34375 C 0.519531 -0.65625 0.390625 -1.117188 0.390625 -1.734375 C 0.390625 -2.390625 0.515625 -2.867188 0.765625 -3.171875 C 1.023438 -3.484375 1.410156 -3.640625 1.921875 -3.640625 C 2.378906 -3.640625 2.722656 -3.503906 2.953125 -3.234375 C 3.179688 -2.972656 3.296875 -2.566406 3.296875 -2.015625 L 3.296875 -1.703125 Z M 2.734375 -2.15625 C 2.722656 -2.46875 2.648438 -2.710938 2.515625 -2.890625 C 2.390625 -3.066406 2.1875 -3.15625 1.90625 -3.15625 C 1.625 -3.15625 1.410156 -3.078125 1.265625 -2.921875 C 1.128906 -2.765625 1.039062 -2.507812 1 -2.15625 Z M 2.734375 -2.15625 "/></g></g><g transform="translate(70.91108, 73.453422)"><g><path d="M 2.984375 -0.953125 C 2.984375 -0.617188 2.867188 -0.359375 2.640625 -0.171875 C 2.410156 0.015625 2.078125 0.109375 1.640625 0.109375 C 1.347656 0.109375 1.082031 0.0507812 0.84375 -0.0625 C 0.613281 -0.175781 0.445312 -0.332031 0.34375 -0.53125 L 0.796875 -0.8125 C 0.972656 -0.53125 1.257812 -0.390625 1.65625 -0.390625 C 1.914062 -0.390625 2.109375 -0.4375 2.234375 -0.53125 C 2.359375 -0.632812 2.421875 -0.769531 2.421875 -0.9375 C 2.421875 -1.03125 2.398438 -1.109375 2.359375 -1.171875 C 2.316406 -1.234375 2.242188 -1.285156 2.140625 -1.328125 C 2.046875 -1.378906 1.851562 -1.441406 1.5625 -1.515625 C 1.144531 -1.617188 0.847656 -1.753906 0.671875 -1.921875 C 0.503906 -2.085938 0.421875 -2.316406 0.421875 -2.609375 C 0.421875 -2.921875 0.53125 -3.171875 0.75 -3.359375 C 0.976562 -3.546875 1.289062 -3.640625 1.6875 -3.640625 C 2 -3.640625 2.257812 -3.578125 2.46875 -3.453125 C 2.675781 -3.335938 2.828125 -3.191406 2.921875 -3.015625 L 2.46875 -2.734375 C 2.28125 -3.015625 2.015625 -3.15625 1.671875 -3.15625 C 1.484375 -3.15625 1.320312 -3.109375 1.1875 -3.015625 C 1.050781 -2.929688 0.984375 -2.800781 0.984375 -2.625 C 0.984375 -2.46875 1.039062 -2.351562 1.15625 -2.28125 C 1.28125 -2.207031 1.46875 -2.140625 1.71875 -2.078125 C 2.113281 -1.972656 2.382812 -1.875 2.53125 -1.78125 C 2.6875 -1.695312 2.800781 -1.585938 2.875 -1.453125 C 2.945312 -1.328125 2.984375 -1.160156 2.984375 -0.953125 Z M 2.984375 -0.953125 "/></g></g><g transform="translate(74.249626, 73.453422)"><g><path d="M 3.5 -1.765625 C 3.5 -1.148438 3.367188 -0.679688 3.109375 -0.359375 C 2.847656 -0.046875 2.460938 0.109375 1.953125 0.109375 C 1.453125 0.109375 1.066406 -0.046875 0.796875 -0.359375 C 0.523438 -0.671875 0.390625 -1.140625 0.390625 -1.765625 C 0.390625 -2.390625 0.523438 -2.859375 0.796875 -3.171875 C 1.066406 -3.484375 1.453125 -3.640625 1.953125 -3.640625 C 2.460938 -3.640625 2.847656 -3.476562 3.109375 -3.15625 C 3.367188 -2.84375 3.5 -2.378906 3.5 -1.765625 Z M 2.90625 -1.765625 C 2.90625 -2.242188 2.828125 -2.59375 2.671875 -2.8125 C 2.515625 -3.03125 2.273438 -3.140625 1.953125 -3.140625 C 1.628906 -3.140625 1.390625 -3.03125 1.234375 -2.8125 C 1.078125 -2.59375 1 -2.242188 1 -1.765625 C 1 -1.296875 1.070312 -0.953125 1.21875 -0.734375 C 1.375 -0.515625 1.617188 -0.40625 1.953125 -0.40625 C 2.273438 -0.40625 2.515625 -0.515625 2.671875 -0.734375 C 2.828125 -0.953125 2.90625 -1.296875 2.90625 -1.765625 Z M 2.90625 -1.765625 "/></g></g><g transform="translate(78.147404, 73.453422)"><g><path d="M 0.59375 0 L 0.59375 -5.015625 L 1.1875 -5.015625 L 1.1875 0 Z M 0.59375 0 "/></g></g><g transform="translate(79.926165, 73.453422)"><g><path d="M 2.765625 0 L 2.765625 -0.53125 C 2.585938 -0.34375 2.390625 -0.1875 2.171875 -0.0625 C 1.953125 0.0507812 1.742188 0.109375 1.546875 0.109375 C 1.304688 0.109375 1.113281 0.0664062 0.96875 -0.015625 C 0.820312 -0.109375 0.710938 -0.242188 0.640625 -0.421875 C 0.578125 -0.609375 0.546875 -0.859375 0.546875 -1.171875 L 0.546875 -3.53125 L 1.125 -3.53125 L 1.125 -1.453125 C 1.125 -1.109375 1.140625 -0.878906 1.171875 -0.765625 C 1.210938 -0.660156 1.269531 -0.582031 1.34375 -0.53125 C 1.414062 -0.476562 1.523438 -0.453125 1.671875 -0.453125 C 1.828125 -0.453125 2 -0.507812 2.1875 -0.625 C 2.382812 -0.738281 2.578125 -0.875 2.765625 -1.03125 L 2.765625 -3.53125 L 3.34375 -3.53125 L 3.34375 0 Z M 2.765625 0 "/></g></g><g transform="translate(83.844156, 73.453422)"><g><path d="M 2.34375 0 C 2.113281 0.0703125 1.890625 0.109375 1.671875 0.109375 C 1.316406 0.109375 1.0625 0.015625 0.90625 -0.171875 C 0.75 -0.367188 0.671875 -0.664062 0.671875 -1.0625 L 0.671875 -3.046875 L 0.15625 -3.046875 L 0.15625 -3.53125 L 0.671875 -3.53125 L 0.671875 -4.515625 L 1.25 -4.515625 L 1.25 -3.53125 L 2.140625 -3.53125 L 2.140625 -3.046875 L 1.25 -3.046875 L 1.25 -1.1875 C 1.25 -0.894531 1.273438 -0.6875 1.328125 -0.5625 C 1.390625 -0.4375 1.519531 -0.375 1.71875 -0.375 C 1.882812 -0.375 2.039062 -0.40625 2.1875 -0.46875 Z M 2.34375 0 "/></g></g><g transform="translate(86.300059, 73.453422)"><g><path d="M 1.25 -4.4375 C 1.25 -4.300781 1.21875 -4.207031 1.15625 -4.15625 C 1.09375 -4.113281 0.992188 -4.09375 0.859375 -4.09375 C 0.722656 -4.09375 0.625 -4.117188 0.5625 -4.171875 C 0.507812 -4.234375 0.484375 -4.320312 0.484375 -4.4375 C 0.484375 -4.550781 0.515625 -4.632812 0.578125 -4.6875 C 0.640625 -4.75 0.734375 -4.78125 0.859375 -4.78125 C 0.992188 -4.78125 1.09375 -4.753906 1.15625 -4.703125 C 1.21875 -4.648438 1.25 -4.5625 1.25 -4.4375 Z M 0.578125 0 L 0.578125 -3.53125 L 1.15625 -3.53125 L 1.15625 0 Z M 0.578125 0 "/></g></g><g transform="translate(88.024918, 73.453422)"><g><path d="M 3.5 -1.765625 C 3.5 -1.148438 3.367188 -0.679688 3.109375 -0.359375 C 2.847656 -0.046875 2.460938 0.109375 1.953125 0.109375 C 1.453125 0.109375 1.066406 -0.046875 0.796875 -0.359375 C 0.523438 -0.671875 0.390625 -1.140625 0.390625 -1.765625 C 0.390625 -2.390625 0.523438 -2.859375 0.796875 -3.171875 C 1.066406 -3.484375 1.453125 -3.640625 1.953125 -3.640625 C 2.460938 -3.640625 2.847656 -3.476562 3.109375 -3.15625 C 3.367188 -2.84375 3.5 -2.378906 3.5 -1.765625 Z M 2.90625 -1.765625 C 2.90625 -2.242188 2.828125 -2.59375 2.671875 -2.8125 C 2.515625 -3.03125 2.273438 -3.140625 1.953125 -3.140625 C 1.628906 -3.140625 1.390625 -3.03125 1.234375 -2.8125 C 1.078125 -2.59375 1 -2.242188 1 -1.765625 C 1 -1.296875 1.070312 -0.953125 1.21875 -0.734375 C 1.375 -0.515625 1.617188 -0.40625 1.953125 -0.40625 C 2.273438 -0.40625 2.515625 -0.515625 2.671875 -0.734375 C 2.828125 -0.953125 2.90625 -1.296875 2.90625 -1.765625 Z M 2.90625 -1.765625 "/></g></g><g transform="translate(91.922696, 73.453422)"><g><path d="M 2.796875 0 L 2.796875 -2.078125 C 2.796875 -2.421875 2.773438 -2.644531 2.734375 -2.75 C 2.703125 -2.863281 2.648438 -2.945312 2.578125 -3 C 2.503906 -3.050781 2.394531 -3.078125 2.25 -3.078125 C 2.09375 -3.078125 1.914062 -3.019531 1.71875 -2.90625 C 1.53125 -2.789062 1.34375 -2.65625 1.15625 -2.5 L 1.15625 0 L 0.578125 0 L 0.578125 -3.53125 L 1.15625 -3.53125 L 1.15625 -3.015625 C 1.320312 -3.171875 1.507812 -3.3125 1.71875 -3.4375 C 1.9375 -3.570312 2.160156 -3.640625 2.390625 -3.640625 C 2.722656 -3.640625 2.96875 -3.539062 3.125 -3.34375 C 3.289062 -3.15625 3.375 -2.828125 3.375 -2.359375 L 3.375 0 Z M 2.796875 0 "/></g></g><g transform="translate(95.840687, 73.453422)"><g><path d="M 2.984375 -0.953125 C 2.984375 -0.617188 2.867188 -0.359375 2.640625 -0.171875 C 2.410156 0.015625 2.078125 0.109375 1.640625 0.109375 C 1.347656 0.109375 1.082031 0.0507812 0.84375 -0.0625 C 0.613281 -0.175781 0.445312 -0.332031 0.34375 -0.53125 L 0.796875 -0.8125 C 0.972656 -0.53125 1.257812 -0.390625 1.65625 -0.390625 C 1.914062 -0.390625 2.109375 -0.4375 2.234375 -0.53125 C 2.359375 -0.632812 2.421875 -0.769531 2.421875 -0.9375 C 2.421875 -1.03125 2.398438 -1.109375 2.359375 -1.171875 C 2.316406 -1.234375 2.242188 -1.285156 2.140625 -1.328125 C 2.046875 -1.378906 1.851562 -1.441406 1.5625 -1.515625 C 1.144531 -1.617188 0.847656 -1.753906 0.671875 -1.921875 C 0.503906 -2.085938 0.421875 -2.316406 0.421875 -2.609375 C 0.421875 -2.921875 0.53125 -3.171875 0.75 -3.359375 C 0.976562 -3.546875 1.289062 -3.640625 1.6875 -3.640625 C 2 -3.640625 2.257812 -3.578125 2.46875 -3.453125 C 2.675781 -3.335938 2.828125 -3.191406 2.921875 -3.015625 L 2.46875 -2.734375 C 2.28125 -3.015625 2.015625 -3.15625 1.671875 -3.15625 C 1.484375 -3.15625 1.320312 -3.109375 1.1875 -3.015625 C 1.050781 -2.929688 0.984375 -2.800781 0.984375 -2.625 C 0.984375 -2.46875 1.039062 -2.351562 1.15625 -2.28125 C 1.28125 -2.207031 1.46875 -2.140625 1.71875 -2.078125 C 2.113281 -1.972656 2.382812 -1.875 2.53125 -1.78125 C 2.6875 -1.695312 2.800781 -1.585938 2.875 -1.453125 C 2.945312 -1.328125 2.984375 -1.160156 2.984375 -0.953125 Z M 2.984375 -0.953125 "/></g></g><g transform="translate(99.179233, 73.453422)"><g><path d="M 1.34375 -0.328125 C 1.34375 -0.191406 1.304688 -0.09375 1.234375 -0.03125 C 1.171875 0.0195312 1.070312 0.046875 0.9375 0.046875 C 0.769531 0.046875 0.660156 0.015625 0.609375 -0.046875 C 0.554688 -0.117188 0.53125 -0.210938 0.53125 -0.328125 C 0.53125 -0.460938 0.5625 -0.5625 0.625 -0.625 C 0.6875 -0.6875 0.789062 -0.71875 0.9375 -0.71875 C 1.082031 -0.71875 1.1875 -0.6875 1.25 -0.625 C 1.3125 -0.5625 1.34375 -0.460938 1.34375 -0.328125 Z M 1.34375 -0.328125 "/></g></g><g transform="translate(101.048954, 73.453422)"><g><path d="M 2.984375 -0.953125 C 2.984375 -0.617188 2.867188 -0.359375 2.640625 -0.171875 C 2.410156 0.015625 2.078125 0.109375 1.640625 0.109375 C 1.347656 0.109375 1.082031 0.0507812 0.84375 -0.0625 C 0.613281 -0.175781 0.445312 -0.332031 0.34375 -0.53125 L 0.796875 -0.8125 C 0.972656 -0.53125 1.257812 -0.390625 1.65625 -0.390625 C 1.914062 -0.390625 2.109375 -0.4375 2.234375 -0.53125 C 2.359375 -0.632812 2.421875 -0.769531 2.421875 -0.9375 C 2.421875 -1.03125 2.398438 -1.109375 2.359375 -1.171875 C 2.316406 -1.234375 2.242188 -1.285156 2.140625 -1.328125 C 2.046875 -1.378906 1.851562 -1.441406 1.5625 -1.515625 C 1.144531 -1.617188 0.847656 -1.753906 0.671875 -1.921875 C 0.503906 -2.085938 0.421875 -2.316406 0.421875 -2.609375 C 0.421875 -2.921875 0.53125 -3.171875 0.75 -3.359375 C 0.976562 -3.546875 1.289062 -3.640625 1.6875 -3.640625 C 2 -3.640625 2.257812 -3.578125 2.46875 -3.453125 C 2.675781 -3.335938 2.828125 -3.191406 2.921875 -3.015625 L 2.46875 -2.734375 C 2.28125 -3.015625 2.015625 -3.15625 1.671875 -3.15625 C 1.484375 -3.15625 1.320312 -3.109375 1.1875 -3.015625 C 1.050781 -2.929688 0.984375 -2.800781 0.984375 -2.625 C 0.984375 -2.46875 1.039062 -2.351562 1.15625 -2.28125 C 1.28125 -2.207031 1.46875 -2.140625 1.71875 -2.078125 C 2.113281 -1.972656 2.382812 -1.875 2.53125 -1.78125 C 2.6875 -1.695312 2.800781 -1.585938 2.875 -1.453125 C 2.945312 -1.328125 2.984375 -1.160156 2.984375 -0.953125 Z M 2.984375 -0.953125 "/></g></g><g transform="translate(104.3875, 73.453422)"><g><path d="M 2.65625 0 L 1.53125 -1.59375 L 1.15625 -1.171875 L 1.15625 0 L 0.578125 0 L 0.578125 -5.015625 L 1.15625 -5.015625 L 1.15625 -1.890625 L 2.59375 -3.53125 L 3.296875 -3.53125 L 1.890625 -1.984375 L 3.375 0 Z M 2.65625 0 "/></g></g></g><g fill="#737373" fill-opacity="1"><g transform="translate(53.032509, 84.37753)"><g><path d="M 1.25 -4.4375 C 1.25 -4.300781 1.21875 -4.207031 1.15625 -4.15625 C 1.09375 -4.113281 0.992188 -4.09375 0.859375 -4.09375 C 0.722656 -4.09375 0.625 -4.117188 0.5625 -4.171875 C 0.507812 -4.234375 0.484375 -4.320312 0.484375 -4.4375 C 0.484375 -4.550781 0.515625 -4.632812 0.578125 -4.6875 C 0.640625 -4.75 0.734375 -4.78125 0.859375 -4.78125 C 0.992188 -4.78125 1.09375 -4.753906 1.15625 -4.703125 C 1.21875 -4.648438 1.25 -4.5625 1.25 -4.4375 Z M 0.578125 0 L 0.578125 -3.53125 L 1.15625 -3.53125 L 1.15625 0 Z M 0.578125 0 "/></g></g><g transform="translate(54.757368, 84.37753)"><g><path d="M 2.796875 0 L 2.796875 -2.078125 C 2.796875 -2.421875 2.773438 -2.644531 2.734375 -2.75 C 2.703125 -2.863281 2.648438 -2.945312 2.578125 -3 C 2.503906 -3.050781 2.394531 -3.078125 2.25 -3.078125 C 2.09375 -3.078125 1.914062 -3.019531 1.71875 -2.90625 C 1.53125 -2.789062 1.34375 -2.65625 1.15625 -2.5 L 1.15625 0 L 0.578125 0 L 0.578125 -3.53125 L 1.15625 -3.53125 L 1.15625 -3.015625 C 1.320312 -3.171875 1.507812 -3.3125 1.71875 -3.4375 C 1.9375 -3.570312 2.160156 -3.640625 2.390625 -3.640625 C 2.722656 -3.640625 2.96875 -3.539062 3.125 -3.34375 C 3.289062 -3.15625 3.375 -2.828125 3.375 -2.359375 L 3.375 0 Z M 2.796875 0 "/></g></g><g transform="translate(58.675359, 84.37753)"><g><path d="M 2.28125 -4.5 C 2.21875 -4.53125 2.132812 -4.554688 2.03125 -4.578125 C 1.9375 -4.609375 1.847656 -4.625 1.765625 -4.625 C 1.566406 -4.625 1.429688 -4.570312 1.359375 -4.46875 C 1.285156 -4.363281 1.25 -4.164062 1.25 -3.875 L 1.25 -3.53125 L 2.03125 -3.53125 L 2.03125 -3.046875 L 1.25 -3.046875 L 1.25 0 L 0.671875 0 L 0.671875 -3.046875 L 0.140625 -3.046875 L 0.140625 -3.53125 L 0.671875 -3.53125 L 0.671875 -3.875 C 0.671875 -4.300781 0.75 -4.613281 0.90625 -4.8125 C 1.0625 -5.019531 1.34375 -5.125 1.75 -5.125 C 2.007812 -5.125 2.238281 -5.082031 2.4375 -5 Z M 2.28125 -4.5 "/></g></g><g transform="translate(60.807851, 84.37753)"><g><path d="M 3.5 -1.765625 C 3.5 -1.148438 3.367188 -0.679688 3.109375 -0.359375 C 2.847656 -0.046875 2.460938 0.109375 1.953125 0.109375 C 1.453125 0.109375 1.066406 -0.046875 0.796875 -0.359375 C 0.523438 -0.671875 0.390625 -1.140625 0.390625 -1.765625 C 0.390625 -2.390625 0.523438 -2.859375 0.796875 -3.171875 C 1.066406 -3.484375 1.453125 -3.640625 1.953125 -3.640625 C 2.460938 -3.640625 2.847656 -3.476562 3.109375 -3.15625 C 3.367188 -2.84375 3.5 -2.378906 3.5 -1.765625 Z M 2.90625 -1.765625 C 2.90625 -2.242188 2.828125 -2.59375 2.671875 -2.8125 C 2.515625 -3.03125 2.273438 -3.140625 1.953125 -3.140625 C 1.628906 -3.140625 1.390625 -3.03125 1.234375 -2.8125 C 1.078125 -2.59375 1 -2.242188 1 -1.765625 C 1 -1.296875 1.070312 -0.953125 1.21875 -0.734375 C 1.375 -0.515625 1.617188 -0.40625 1.953125 -0.40625 C 2.273438 -0.40625 2.515625 -0.515625 2.671875 -0.734375 C 2.828125 -0.953125 2.90625 -1.296875 2.90625 -1.765625 Z M 2.90625 -1.765625 "/></g></g><g transform="translate(64.705629, 84.37753)"><g><path d="M 6.125 -1.921875 C 6.125 -1.316406 6.007812 -0.851562 5.78125 -0.53125 C 5.550781 -0.207031 5.234375 -0.046875 4.828125 -0.046875 C 4.585938 -0.046875 4.398438 -0.0820312 4.265625 -0.15625 C 4.140625 -0.226562 4.050781 -0.351562 4 -0.53125 C 3.675781 -0.269531 3.34375 -0.140625 3 -0.140625 C 2.726562 -0.140625 2.5 -0.203125 2.3125 -0.328125 C 2.132812 -0.460938 1.992188 -0.648438 1.890625 -0.890625 C 1.796875 -1.140625 1.75 -1.421875 1.75 -1.734375 C 1.75 -2.273438 1.875 -2.695312 2.125 -3 C 2.375 -3.300781 2.722656 -3.453125 3.171875 -3.453125 C 3.453125 -3.453125 3.722656 -3.359375 3.984375 -3.171875 L 3.984375 -3.34375 L 4.546875 -3.34375 L 4.546875 -0.90625 C 4.546875 -0.757812 4.570312 -0.660156 4.625 -0.609375 C 4.675781 -0.554688 4.757812 -0.53125 4.875 -0.53125 C 5.09375 -0.53125 5.265625 -0.648438 5.390625 -0.890625 C 5.523438 -1.140625 5.59375 -1.472656 5.59375 -1.890625 C 5.59375 -2.660156 5.394531 -3.253906 5 -3.671875 C 4.613281 -4.085938 4.050781 -4.296875 3.3125 -4.296875 C 2.863281 -4.296875 2.453125 -4.1875 2.078125 -3.96875 C 1.710938 -3.757812 1.425781 -3.46875 1.21875 -3.09375 C 1.019531 -2.71875 0.921875 -2.304688 0.921875 -1.859375 C 0.921875 -1.117188 1.128906 -0.53125 1.546875 -0.09375 C 1.972656 0.34375 2.554688 0.5625 3.296875 0.5625 C 3.835938 0.5625 4.320312 0.515625 4.75 0.421875 L 4.859375 0.890625 C 4.441406 0.992188 3.921875 1.046875 3.296875 1.046875 C 2.722656 1.046875 2.21875 0.925781 1.78125 0.6875 C 1.34375 0.445312 1.003906 0.109375 0.765625 -0.328125 C 0.523438 -0.773438 0.40625 -1.285156 0.40625 -1.859375 C 0.40625 -2.398438 0.53125 -2.890625 0.78125 -3.328125 C 1.03125 -3.773438 1.375 -4.125 1.8125 -4.375 C 2.257812 -4.632812 2.757812 -4.765625 3.3125 -4.765625 C 4.195312 -4.765625 4.882812 -4.507812 5.375 -4 C 5.875 -3.5 6.125 -2.804688 6.125 -1.921875 Z M 3.96875 -2.671875 C 3.695312 -2.847656 3.460938 -2.9375 3.265625 -2.9375 C 2.929688 -2.9375 2.691406 -2.832031 2.546875 -2.625 C 2.410156 -2.425781 2.34375 -2.132812 2.34375 -1.75 C 2.34375 -1.039062 2.609375 -0.6875 3.140625 -0.6875 C 3.367188 -0.6875 3.644531 -0.804688 3.96875 -1.046875 Z M 3.96875 -2.671875 "/></g></g><g transform="translate(71.224384, 84.37753)"><g><path d="M 2.984375 -0.953125 C 2.984375 -0.617188 2.867188 -0.359375 2.640625 -0.171875 C 2.410156 0.015625 2.078125 0.109375 1.640625 0.109375 C 1.347656 0.109375 1.082031 0.0507812 0.84375 -0.0625 C 0.613281 -0.175781 0.445312 -0.332031 0.34375 -0.53125 L 0.796875 -0.8125 C 0.972656 -0.53125 1.257812 -0.390625 1.65625 -0.390625 C 1.914062 -0.390625 2.109375 -0.4375 2.234375 -0.53125 C 2.359375 -0.632812 2.421875 -0.769531 2.421875 -0.9375 C 2.421875 -1.03125 2.398438 -1.109375 2.359375 -1.171875 C 2.316406 -1.234375 2.242188 -1.285156 2.140625 -1.328125 C 2.046875 -1.378906 1.851562 -1.441406 1.5625 -1.515625 C 1.144531 -1.617188 0.847656 -1.753906 0.671875 -1.921875 C 0.503906 -2.085938 0.421875 -2.316406 0.421875 -2.609375 C 0.421875 -2.921875 0.53125 -3.171875 0.75 -3.359375 C 0.976562 -3.546875 1.289062 -3.640625 1.6875 -3.640625 C 2 -3.640625 2.257812 -3.578125 2.46875 -3.453125 C 2.675781 -3.335938 2.828125 -3.191406 2.921875 -3.015625 L 2.46875 -2.734375 C 2.28125 -3.015625 2.015625 -3.15625 1.671875 -3.15625 C 1.484375 -3.15625 1.320312 -3.109375 1.1875 -3.015625 C 1.050781 -2.929688 0.984375 -2.800781 0.984375 -2.625 C 0.984375 -2.46875 1.039062 -2.351562 1.15625 -2.28125 C 1.28125 -2.207031 1.46875 -2.140625 1.71875 -2.078125 C 2.113281 -1.972656 2.382812 -1.875 2.53125 -1.78125 C 2.6875 -1.695312 2.800781 -1.585938 2.875 -1.453125 C 2.945312 -1.328125 2.984375 -1.160156 2.984375 -0.953125 Z M 2.984375 -0.953125 "/></g></g><g transform="translate(74.56293, 84.37753)"><g><path d="M 1 -1.703125 C 1 -1.234375 1.078125 -0.898438 1.234375 -0.703125 C 1.390625 -0.503906 1.644531 -0.40625 2 -0.40625 C 2.15625 -0.40625 2.289062 -0.4375 2.40625 -0.5 C 2.53125 -0.5625 2.648438 -0.671875 2.765625 -0.828125 L 3.234375 -0.53125 C 3.097656 -0.320312 2.929688 -0.160156 2.734375 -0.046875 C 2.546875 0.0546875 2.289062 0.109375 1.96875 0.109375 C 1.4375 0.109375 1.039062 -0.0390625 0.78125 -0.34375 C 0.519531 -0.65625 0.390625 -1.117188 0.390625 -1.734375 C 0.390625 -2.390625 0.515625 -2.867188 0.765625 -3.171875 C 1.023438 -3.484375 1.410156 -3.640625 1.921875 -3.640625 C 2.378906 -3.640625 2.722656 -3.503906 2.953125 -3.234375 C 3.179688 -2.972656 3.296875 -2.566406 3.296875 -2.015625 L 3.296875 -1.703125 Z M 2.734375 -2.15625 C 2.722656 -2.46875 2.648438 -2.710938 2.515625 -2.890625 C 2.390625 -3.066406 2.1875 -3.15625 1.90625 -3.15625 C 1.625 -3.15625 1.410156 -3.078125 1.265625 -2.921875 C 1.128906 -2.765625 1.039062 -2.507812 1 -2.15625 Z M 2.734375 -2.15625 "/></g></g><g transform="translate(78.204674, 84.37753)"><g><path d="M 2.796875 0 L 2.796875 -2.078125 C 2.796875 -2.421875 2.773438 -2.644531 2.734375 -2.75 C 2.703125 -2.863281 2.648438 -2.945312 2.578125 -3 C 2.503906 -3.050781 2.394531 -3.078125 2.25 -3.078125 C 2.09375 -3.078125 1.914062 -3.019531 1.71875 -2.90625 C 1.53125 -2.789062 1.34375 -2.65625 1.15625 -2.5 L 1.15625 0 L 0.578125 0 L 0.578125 -3.53125 L 1.15625 -3.53125 L 1.15625 -3.015625 C 1.320312 -3.171875 1.507812 -3.3125 1.71875 -3.4375 C 1.9375 -3.570312 2.160156 -3.640625 2.390625 -3.640625 C 2.722656 -3.640625 2.96875 -3.539062 3.125 -3.34375 C 3.289062 -3.15625 3.375 -2.828125 3.375 -2.359375 L 3.375 0 Z M 2.796875 0 "/></g></g><g transform="translate(82.122665, 84.37753)"><g><path d="M 2.984375 -0.953125 C 2.984375 -0.617188 2.867188 -0.359375 2.640625 -0.171875 C 2.410156 0.015625 2.078125 0.109375 1.640625 0.109375 C 1.347656 0.109375 1.082031 0.0507812 0.84375 -0.0625 C 0.613281 -0.175781 0.445312 -0.332031 0.34375 -0.53125 L 0.796875 -0.8125 C 0.972656 -0.53125 1.257812 -0.390625 1.65625 -0.390625 C 1.914062 -0.390625 2.109375 -0.4375 2.234375 -0.53125 C 2.359375 -0.632812 2.421875 -0.769531 2.421875 -0.9375 C 2.421875 -1.03125 2.398438 -1.109375 2.359375 -1.171875 C 2.316406 -1.234375 2.242188 -1.285156 2.140625 -1.328125 C 2.046875 -1.378906 1.851562 -1.441406 1.5625 -1.515625 C 1.144531 -1.617188 0.847656 -1.753906 0.671875 -1.921875 C 0.503906 -2.085938 0.421875 -2.316406 0.421875 -2.609375 C 0.421875 -2.921875 0.53125 -3.171875 0.75 -3.359375 C 0.976562 -3.546875 1.289062 -3.640625 1.6875 -3.640625 C 2 -3.640625 2.257812 -3.578125 2.46875 -3.453125 C 2.675781 -3.335938 2.828125 -3.191406 2.921875 -3.015625 L 2.46875 -2.734375 C 2.28125 -3.015625 2.015625 -3.15625 1.671875 -3.15625 C 1.484375 -3.15625 1.320312 -3.109375 1.1875 -3.015625 C 1.050781 -2.929688 0.984375 -2.800781 0.984375 -2.625 C 0.984375 -2.46875 1.039062 -2.351562 1.15625 -2.28125 C 1.28125 -2.207031 1.46875 -2.140625 1.71875 -2.078125 C 2.113281 -1.972656 2.382812 -1.875 2.53125 -1.78125 C 2.6875 -1.695312 2.800781 -1.585938 2.875 -1.453125 C 2.945312 -1.328125 2.984375 -1.160156 2.984375 -0.953125 Z M 2.984375 -0.953125 "/></g></g><g transform="translate(85.461211, 84.37753)"><g><path d="M 1 -1.703125 C 1 -1.234375 1.078125 -0.898438 1.234375 -0.703125 C 1.390625 -0.503906 1.644531 -0.40625 2 -0.40625 C 2.15625 -0.40625 2.289062 -0.4375 2.40625 -0.5 C 2.53125 -0.5625 2.648438 -0.671875 2.765625 -0.828125 L 3.234375 -0.53125 C 3.097656 -0.320312 2.929688 -0.160156 2.734375 -0.046875 C 2.546875 0.0546875 2.289062 0.109375 1.96875 0.109375 C 1.4375 0.109375 1.039062 -0.0390625 0.78125 -0.34375 C 0.519531 -0.65625 0.390625 -1.117188 0.390625 -1.734375 C 0.390625 -2.390625 0.515625 -2.867188 0.765625 -3.171875 C 1.023438 -3.484375 1.410156 -3.640625 1.921875 -3.640625 C 2.378906 -3.640625 2.722656 -3.503906 2.953125 -3.234375 C 3.179688 -2.972656 3.296875 -2.566406 3.296875 -2.015625 L 3.296875 -1.703125 Z M 2.734375 -2.15625 C 2.722656 -2.46875 2.648438 -2.710938 2.515625 -2.890625 C 2.390625 -3.066406 2.1875 -3.15625 1.90625 -3.15625 C 1.625 -3.15625 1.410156 -3.078125 1.265625 -2.921875 C 1.128906 -2.765625 1.039062 -2.507812 1 -2.15625 Z M 2.734375 -2.15625 "/></g></g><g transform="translate(89.102955, 84.37753)"><g><path d="M 2.984375 -0.953125 C 2.984375 -0.617188 2.867188 -0.359375 2.640625 -0.171875 C 2.410156 0.015625 2.078125 0.109375 1.640625 0.109375 C 1.347656 0.109375 1.082031 0.0507812 0.84375 -0.0625 C 0.613281 -0.175781 0.445312 -0.332031 0.34375 -0.53125 L 0.796875 -0.8125 C 0.972656 -0.53125 1.257812 -0.390625 1.65625 -0.390625 C 1.914062 -0.390625 2.109375 -0.4375 2.234375 -0.53125 C 2.359375 -0.632812 2.421875 -0.769531 2.421875 -0.9375 C 2.421875 -1.03125 2.398438 -1.109375 2.359375 -1.171875 C 2.316406 -1.234375 2.242188 -1.285156 2.140625 -1.328125 C 2.046875 -1.378906 1.851562 -1.441406 1.5625 -1.515625 C 1.144531 -1.617188 0.847656 -1.753906 0.671875 -1.921875 C 0.503906 -2.085938 0.421875 -2.316406 0.421875 -2.609375 C 0.421875 -2.921875 0.53125 -3.171875 0.75 -3.359375 C 0.976562 -3.546875 1.289062 -3.640625 1.6875 -3.640625 C 2 -3.640625 2.257812 -3.578125 2.46875 -3.453125 C 2.675781 -3.335938 2.828125 -3.191406 2.921875 -3.015625 L 2.46875 -2.734375 C 2.28125 -3.015625 2.015625 -3.15625 1.671875 -3.15625 C 1.484375 -3.15625 1.320312 -3.109375 1.1875 -3.015625 C 1.050781 -2.929688 0.984375 -2.800781 0.984375 -2.625 C 0.984375 -2.46875 1.039062 -2.351562 1.15625 -2.28125 C 1.28125 -2.207031 1.46875 -2.140625 1.71875 -2.078125 C 2.113281 -1.972656 2.382812 -1.875 2.53125 -1.78125 C 2.6875 -1.695312 2.800781 -1.585938 2.875 -1.453125 C 2.945312 -1.328125 2.984375 -1.160156 2.984375 -0.953125 Z M 2.984375 -0.953125 "/></g></g><g transform="translate(92.441501, 84.37753)"><g><path d="M 3.5 -1.765625 C 3.5 -1.148438 3.367188 -0.679688 3.109375 -0.359375 C 2.847656 -0.046875 2.460938 0.109375 1.953125 0.109375 C 1.453125 0.109375 1.066406 -0.046875 0.796875 -0.359375 C 0.523438 -0.671875 0.390625 -1.140625 0.390625 -1.765625 C 0.390625 -2.390625 0.523438 -2.859375 0.796875 -3.171875 C 1.066406 -3.484375 1.453125 -3.640625 1.953125 -3.640625 C 2.460938 -3.640625 2.847656 -3.476562 3.109375 -3.15625 C 3.367188 -2.84375 3.5 -2.378906 3.5 -1.765625 Z M 2.90625 -1.765625 C 2.90625 -2.242188 2.828125 -2.59375 2.671875 -2.8125 C 2.515625 -3.03125 2.273438 -3.140625 1.953125 -3.140625 C 1.628906 -3.140625 1.390625 -3.03125 1.234375 -2.8125 C 1.078125 -2.59375 1 -2.242188 1 -1.765625 C 1 -1.296875 1.070312 -0.953125 1.21875 -0.734375 C 1.375 -0.515625 1.617188 -0.40625 1.953125 -0.40625 C 2.273438 -0.40625 2.515625 -0.515625 2.671875 -0.734375 C 2.828125 -0.953125 2.90625 -1.296875 2.90625 -1.765625 Z M 2.90625 -1.765625 "/></g></g><g transform="translate(96.339279, 84.37753)"><g><path d="M 0.59375 0 L 0.59375 -5.015625 L 1.1875 -5.015625 L 1.1875 0 Z M 0.59375 0 "/></g></g><g transform="translate(98.11804, 84.37753)"><g><path d="M 2.765625 0 L 2.765625 -0.53125 C 2.585938 -0.34375 2.390625 -0.1875 2.171875 -0.0625 C 1.953125 0.0507812 1.742188 0.109375 1.546875 0.109375 C 1.304688 0.109375 1.113281 0.0664062 0.96875 -0.015625 C 0.820312 -0.109375 0.710938 -0.242188 0.640625 -0.421875 C 0.578125 -0.609375 0.546875 -0.859375 0.546875 -1.171875 L 0.546875 -3.53125 L 1.125 -3.53125 L 1.125 -1.453125 C 1.125 -1.109375 1.140625 -0.878906 1.171875 -0.765625 C 1.210938 -0.660156 1.269531 -0.582031 1.34375 -0.53125 C 1.414062 -0.476562 1.523438 -0.453125 1.671875 -0.453125 C 1.828125 -0.453125 2 -0.507812 2.1875 -0.625 C 2.382812 -0.738281 2.578125 -0.875 2.765625 -1.03125 L 2.765625 -3.53125 L 3.34375 -3.53125 L 3.34375 0 Z M 2.765625 0 "/></g></g><g transform="translate(102.036031, 84.37753)"><g><path d="M 2.34375 0 C 2.113281 0.0703125 1.890625 0.109375 1.671875 0.109375 C 1.316406 0.109375 1.0625 0.015625 0.90625 -0.171875 C 0.75 -0.367188 0.671875 -0.664062 0.671875 -1.0625 L 0.671875 -3.046875 L 0.15625 -3.046875 L 0.15625 -3.53125 L 0.671875 -3.53125 L 0.671875 -4.515625 L 1.25 -4.515625 L 1.25 -3.53125 L 2.140625 -3.53125 L 2.140625 -3.046875 L 1.25 -3.046875 L 1.25 -1.1875 C 1.25 -0.894531 1.273438 -0.6875 1.328125 -0.5625 C 1.390625 -0.4375 1.519531 -0.375 1.71875 -0.375 C 1.882812 -0.375 2.039062 -0.40625 2.1875 -0.46875 Z M 2.34375 0 "/></g></g><g transform="translate(104.491934, 84.37753)"><g><path d="M 1.25 -4.4375 C 1.25 -4.300781 1.21875 -4.207031 1.15625 -4.15625 C 1.09375 -4.113281 0.992188 -4.09375 0.859375 -4.09375 C 0.722656 -4.09375 0.625 -4.117188 0.5625 -4.171875 C 0.507812 -4.234375 0.484375 -4.320312 0.484375 -4.4375 C 0.484375 -4.550781 0.515625 -4.632812 0.578125 -4.6875 C 0.640625 -4.75 0.734375 -4.78125 0.859375 -4.78125 C 0.992188 -4.78125 1.09375 -4.753906 1.15625 -4.703125 C 1.21875 -4.648438 1.25 -4.5625 1.25 -4.4375 Z M 0.578125 0 L 0.578125 -3.53125 L 1.15625 -3.53125 L 1.15625 0 Z M 0.578125 0 "/></g></g><g transform="translate(106.216794, 84.37753)"><g><path d="M 3.5 -1.765625 C 3.5 -1.148438 3.367188 -0.679688 3.109375 -0.359375 C 2.847656 -0.046875 2.460938 0.109375 1.953125 0.109375 C 1.453125 0.109375 1.066406 -0.046875 0.796875 -0.359375 C 0.523438 -0.671875 0.390625 -1.140625 0.390625 -1.765625 C 0.390625 -2.390625 0.523438 -2.859375 0.796875 -3.171875 C 1.066406 -3.484375 1.453125 -3.640625 1.953125 -3.640625 C 2.460938 -3.640625 2.847656 -3.476562 3.109375 -3.15625 C 3.367188 -2.84375 3.5 -2.378906 3.5 -1.765625 Z M 2.90625 -1.765625 C 2.90625 -2.242188 2.828125 -2.59375 2.671875 -2.8125 C 2.515625 -3.03125 2.273438 -3.140625 1.953125 -3.140625 C 1.628906 -3.140625 1.390625 -3.03125 1.234375 -2.8125 C 1.078125 -2.59375 1 -2.242188 1 -1.765625 C 1 -1.296875 1.070312 -0.953125 1.21875 -0.734375 C 1.375 -0.515625 1.617188 -0.40625 1.953125 -0.40625 C 2.273438 -0.40625 2.515625 -0.515625 2.671875 -0.734375 C 2.828125 -0.953125 2.90625 -1.296875 2.90625 -1.765625 Z M 2.90625 -1.765625 "/></g></g><g transform="translate(110.114571, 84.37753)"><g><path d="M 2.796875 0 L 2.796875 -2.078125 C 2.796875 -2.421875 2.773438 -2.644531 2.734375 -2.75 C 2.703125 -2.863281 2.648438 -2.945312 2.578125 -3 C 2.503906 -3.050781 2.394531 -3.078125 2.25 -3.078125 C 2.09375 -3.078125 1.914062 -3.019531 1.71875 -2.90625 C 1.53125 -2.789062 1.34375 -2.65625 1.15625 -2.5 L 1.15625 0 L 0.578125 0 L 0.578125 -3.53125 L 1.15625 -3.53125 L 1.15625 -3.015625 C 1.320312 -3.171875 1.507812 -3.3125 1.71875 -3.4375 C 1.9375 -3.570312 2.160156 -3.640625 2.390625 -3.640625 C 2.722656 -3.640625 2.96875 -3.539062 3.125 -3.34375 C 3.289062 -3.15625 3.375 -2.828125 3.375 -2.359375 L 3.375 0 Z M 2.796875 0 "/></g></g><g transform="translate(114.032562, 84.37753)"><g><path d="M 2.984375 -0.953125 C 2.984375 -0.617188 2.867188 -0.359375 2.640625 -0.171875 C 2.410156 0.015625 2.078125 0.109375 1.640625 0.109375 C 1.347656 0.109375 1.082031 0.0507812 0.84375 -0.0625 C 0.613281 -0.175781 0.445312 -0.332031 0.34375 -0.53125 L 0.796875 -0.8125 C 0.972656 -0.53125 1.257812 -0.390625 1.65625 -0.390625 C 1.914062 -0.390625 2.109375 -0.4375 2.234375 -0.53125 C 2.359375 -0.632812 2.421875 -0.769531 2.421875 -0.9375 C 2.421875 -1.03125 2.398438 -1.109375 2.359375 -1.171875 C 2.316406 -1.234375 2.242188 -1.285156 2.140625 -1.328125 C 2.046875 -1.378906 1.851562 -1.441406 1.5625 -1.515625 C 1.144531 -1.617188 0.847656 -1.753906 0.671875 -1.921875 C 0.503906 -2.085938 0.421875 -2.316406 0.421875 -2.609375 C 0.421875 -2.921875 0.53125 -3.171875 0.75 -3.359375 C 0.976562 -3.546875 1.289062 -3.640625 1.6875 -3.640625 C 2 -3.640625 2.257812 -3.578125 2.46875 -3.453125 C 2.675781 -3.335938 2.828125 -3.191406 2.921875 -3.015625 L 2.46875 -2.734375 C 2.28125 -3.015625 2.015625 -3.15625 1.671875 -3.15625 C 1.484375 -3.15625 1.320312 -3.109375 1.1875 -3.015625 C 1.050781 -2.929688 0.984375 -2.800781 0.984375 -2.625 C 0.984375 -2.46875 1.039062 -2.351562 1.15625 -2.28125 C 1.28125 -2.207031 1.46875 -2.140625 1.71875 -2.078125 C 2.113281 -1.972656 2.382812 -1.875 2.53125 -1.78125 C 2.6875 -1.695312 2.800781 -1.585938 2.875 -1.453125 C 2.945312 -1.328125 2.984375 -1.160156 2.984375 -0.953125 Z M 2.984375 -0.953125 "/></g></g><g transform="translate(117.371108, 84.37753)"><g><path d="M 1.34375 -0.328125 C 1.34375 -0.191406 1.304688 -0.09375 1.234375 -0.03125 C 1.171875 0.0195312 1.070312 0.046875 0.9375 0.046875 C 0.769531 0.046875 0.660156 0.015625 0.609375 -0.046875 C 0.554688 -0.117188 0.53125 -0.210938 0.53125 -0.328125 C 0.53125 -0.460938 0.5625 -0.5625 0.625 -0.625 C 0.6875 -0.6875 0.789062 -0.71875 0.9375 -0.71875 C 1.082031 -0.71875 1.1875 -0.6875 1.25 -0.625 C 1.3125 -0.5625 1.34375 -0.460938 1.34375 -0.328125 Z M 1.34375 -0.328125 "/></g></g><g transform="translate(119.240829, 84.37753)"><g><path d="M 2.984375 -0.953125 C 2.984375 -0.617188 2.867188 -0.359375 2.640625 -0.171875 C 2.410156 0.015625 2.078125 0.109375 1.640625 0.109375 C 1.347656 0.109375 1.082031 0.0507812 0.84375 -0.0625 C 0.613281 -0.175781 0.445312 -0.332031 0.34375 -0.53125 L 0.796875 -0.8125 C 0.972656 -0.53125 1.257812 -0.390625 1.65625 -0.390625 C 1.914062 -0.390625 2.109375 -0.4375 2.234375 -0.53125 C 2.359375 -0.632812 2.421875 -0.769531 2.421875 -0.9375 C 2.421875 -1.03125 2.398438 -1.109375 2.359375 -1.171875 C 2.316406 -1.234375 2.242188 -1.285156 2.140625 -1.328125 C 2.046875 -1.378906 1.851562 -1.441406 1.5625 -1.515625 C 1.144531 -1.617188 0.847656 -1.753906 0.671875 -1.921875 C 0.503906 -2.085938 0.421875 -2.316406 0.421875 -2.609375 C 0.421875 -2.921875 0.53125 -3.171875 0.75 -3.359375 C 0.976562 -3.546875 1.289062 -3.640625 1.6875 -3.640625 C 2 -3.640625 2.257812 -3.578125 2.46875 -3.453125 C 2.675781 -3.335938 2.828125 -3.191406 2.921875 -3.015625 L 2.46875 -2.734375 C 2.28125 -3.015625 2.015625 -3.15625 1.671875 -3.15625 C 1.484375 -3.15625 1.320312 -3.109375 1.1875 -3.015625 C 1.050781 -2.929688 0.984375 -2.800781 0.984375 -2.625 C 0.984375 -2.46875 1.039062 -2.351562 1.15625 -2.28125 C 1.28125 -2.207031 1.46875 -2.140625 1.71875 -2.078125 C 2.113281 -1.972656 2.382812 -1.875 2.53125 -1.78125 C 2.6875 -1.695312 2.800781 -1.585938 2.875 -1.453125 C 2.945312 -1.328125 2.984375 -1.160156 2.984375 -0.953125 Z M 2.984375 -0.953125 "/></g></g><g transform="translate(122.579375, 84.37753)"><g><path d="M 2.65625 0 L 1.53125 -1.59375 L 1.15625 -1.171875 L 1.15625 0 L 0.578125 0 L 0.578125 -5.015625 L 1.15625 -5.015625 L 1.15625 -1.890625 L 2.59375 -3.53125 L 3.296875 -3.53125 L 1.890625 -1.984375 L 3.375 0 Z M 2.65625 0 "/></g></g></g></svg>