<svg xmlns="http://www.w3.org/2000/svg" xmlns:xlink="http://www.w3.org/1999/xlink" width="189" zoomAndPan="magnify" viewBox="0 0 141.75 141.749996" height="189" preserveAspectRatio="xMidYMid meet" version="1.0"><defs><g/><clipPath id="id1"><path d="M 17.382812 57.15625 L 42.132812 57.15625 L 42.132812 81.90625 L 17.382812 81.90625 Z M 17.382812 57.15625 " clip-rule="nonzero"/></clipPath></defs><g clip-path="url(#id1)"><path fill="#009ea6" d="M 29.757812 81.90625 C 22.933594 81.90625 17.382812 76.355469 17.382812 69.53125 C 17.382812 62.710938 22.933594 57.15625 29.757812 57.15625 C 36.582031 57.15625 42.132812 62.710938 42.132812 69.53125 C 42.132812 76.355469 36.582031 81.90625 29.757812 81.90625 Z M 29.757812 58.953125 C 23.921875 58.953125 19.175781 63.695312 19.175781 69.53125 C 19.175781 75.367188 23.921875 80.113281 29.757812 80.113281 C 35.59375 80.113281 40.339844 75.367188 40.339844 69.53125 C 40.339844 63.695312 35.59375 58.953125 29.757812 58.953125 Z M 29.757812 58.953125 " fill-opacity="1" fill-rule="nonzero"/></g><path fill="#009ea6" d="M 30.011719 75.953125 C 29.917969 75.917969 29.816406 75.859375 29.816406 75.609375 C 29.816406 75.507812 29.832031 75.386719 29.867188 75.242188 L 31.429688 67.664062 C 31.464844 67.488281 31.484375 67.300781 31.484375 67.117188 C 31.484375 66.625 31.332031 66.253906 31.035156 66.007812 C 30.367188 65.457031 29.199219 65.566406 27.257812 66.222656 L 27.066406 66.285156 L 26.992188 67.261719 L 27.316406 67.261719 C 28.304688 67.261719 28.546875 67.339844 28.59375 67.363281 C 28.660156 67.394531 28.699219 67.433594 28.699219 67.546875 C 28.699219 67.609375 28.691406 67.675781 28.671875 67.753906 C 28.652344 67.855469 28.632812 67.976562 28.609375 68.105469 L 27.175781 75.0625 C 27.109375 75.414062 27.074219 75.714844 27.074219 75.957031 C 27.074219 76.511719 27.234375 76.9375 27.546875 77.226562 C 27.855469 77.511719 28.273438 77.652344 28.796875 77.652344 C 29.40625 77.652344 30.222656 77.484375 31.296875 77.136719 L 31.488281 77.074219 L 31.566406 76.085938 L 31.242188 76.085938 C 30.507812 76.085938 30.171875 76.011719 30.011719 75.953125 Z M 30.011719 75.953125 " fill-opacity="1" fill-rule="nonzero"/><path fill="#009ea6" d="M 32.070312 61.835938 C 31.777344 61.554688 31.398438 61.410156 30.945312 61.410156 C 30.476562 61.410156 30.082031 61.566406 29.769531 61.867188 C 29.457031 62.171875 29.296875 62.582031 29.296875 63.085938 C 29.296875 63.550781 29.449219 63.933594 29.746094 64.234375 C 30.046875 64.535156 30.429688 64.6875 30.886719 64.6875 C 31.347656 64.6875 31.742188 64.523438 32.054688 64.210938 C 32.363281 63.894531 32.523438 63.484375 32.523438 62.988281 C 32.523438 62.507812 32.371094 62.121094 32.070312 61.835938 Z M 32.070312 61.835938 " fill-opacity="1" fill-rule="nonzero"/><g fill="#737373" fill-opacity="1"><g transform="translate(54.204622, 69.560233)"><g><path d="M 2.25 0 L 0.34375 0 L 0.34375 -0.546875 L 0.984375 -0.546875 L 0.984375 -4.140625 L 0.34375 -4.140625 L 0.34375 -4.671875 L 2.25 -4.671875 L 2.25 -4.140625 L 1.609375 -4.140625 L 1.609375 -0.546875 L 2.25 -0.546875 Z M 2.25 0 "/></g></g><g transform="translate(56.798649, 69.560233)"><g><path d="M 4.1875 -0.8125 C 4.039062 -0.570312 3.890625 -0.390625 3.734375 -0.265625 C 3.578125 -0.148438 3.394531 -0.0625 3.1875 0 C 2.988281 0.0625 2.753906 0.09375 2.484375 0.09375 C 1.785156 0.09375 1.269531 -0.101562 0.9375 -0.5 C 0.601562 -0.90625 0.4375 -1.515625 0.4375 -2.328125 C 0.4375 -3.140625 0.597656 -3.75 0.921875 -4.15625 C 1.253906 -4.5625 1.765625 -4.765625 2.453125 -4.765625 C 2.722656 -4.765625 2.960938 -4.726562 3.171875 -4.65625 C 3.390625 -4.59375 3.570312 -4.5 3.71875 -4.375 C 3.863281 -4.257812 4 -4.097656 4.125 -3.890625 L 3.609375 -3.546875 C 3.515625 -3.710938 3.414062 -3.835938 3.3125 -3.921875 C 3.207031 -4.015625 3.082031 -4.085938 2.9375 -4.140625 C 2.800781 -4.191406 2.640625 -4.21875 2.453125 -4.21875 C 1.984375 -4.21875 1.640625 -4.0625 1.421875 -3.75 C 1.203125 -3.4375 1.09375 -2.960938 1.09375 -2.328125 C 1.09375 -1.710938 1.195312 -1.242188 1.40625 -0.921875 C 1.625 -0.609375 1.972656 -0.453125 2.453125 -0.453125 C 2.722656 -0.453125 2.953125 -0.503906 3.140625 -0.609375 C 3.335938 -0.710938 3.515625 -0.894531 3.671875 -1.15625 Z M 3.1875 -5.078125 L 2.46875 -5.078125 L 1.703125 -6.296875 L 2.203125 -6.296875 L 2.828125 -5.484375 L 3.453125 -6.296875 L 3.953125 -6.296875 Z M 3.1875 -5.078125 "/></g></g><g transform="translate(61.248921, 69.560233)"><g><path d="M 4.203125 -2.328125 C 4.203125 -1.492188 4.039062 -0.878906 3.71875 -0.484375 C 3.40625 -0.0976562 2.929688 0.09375 2.296875 0.09375 C 1.648438 0.09375 1.171875 -0.101562 0.859375 -0.5 C 0.554688 -0.894531 0.40625 -1.503906 0.40625 -2.328125 C 0.40625 -3.148438 0.554688 -3.757812 0.859375 -4.15625 C 1.171875 -4.5625 1.648438 -4.765625 2.296875 -4.765625 C 2.941406 -4.765625 3.421875 -4.566406 3.734375 -4.171875 C 4.046875 -3.773438 4.203125 -3.160156 4.203125 -2.328125 Z M 3.546875 -2.328125 C 3.546875 -2.972656 3.445312 -3.445312 3.25 -3.75 C 3.050781 -4.0625 2.734375 -4.21875 2.296875 -4.21875 C 1.859375 -4.21875 1.539062 -4.0625 1.34375 -3.75 C 1.15625 -3.445312 1.0625 -2.972656 1.0625 -2.328125 C 1.0625 -1.679688 1.15625 -1.207031 1.34375 -0.90625 C 1.539062 -0.601562 1.859375 -0.453125 2.296875 -0.453125 C 2.734375 -0.453125 3.050781 -0.601562 3.25 -0.90625 C 3.445312 -1.207031 3.546875 -1.679688 3.546875 -2.328125 Z M 3.546875 -2.328125 "/></g></g><g transform="translate(65.844054, 69.560233)"><g><path d="M 1.34375 -3.15625 C 1.34375 -3.007812 1.304688 -2.910156 1.234375 -2.859375 C 1.171875 -2.804688 1.070312 -2.78125 0.9375 -2.78125 C 0.769531 -2.78125 0.660156 -2.8125 0.609375 -2.875 C 0.554688 -2.945312 0.53125 -3.039062 0.53125 -3.15625 C 0.53125 -3.289062 0.5625 -3.382812 0.625 -3.4375 C 0.6875 -3.5 0.789062 -3.53125 0.9375 -3.53125 C 1.082031 -3.53125 1.1875 -3.5 1.25 -3.4375 C 1.3125 -3.382812 1.34375 -3.289062 1.34375 -3.15625 Z M 1.34375 -0.328125 C 1.34375 -0.191406 1.304688 -0.09375 1.234375 -0.03125 C 1.171875 0.0195312 1.070312 0.046875 0.9375 0.046875 C 0.769531 0.046875 0.660156 0.015625 0.609375 -0.046875 C 0.554688 -0.117188 0.53125 -0.210938 0.53125 -0.328125 C 0.53125 -0.460938 0.5625 -0.5625 0.625 -0.625 C 0.6875 -0.6875 0.789062 -0.71875 0.9375 -0.71875 C 1.082031 -0.71875 1.1875 -0.6875 1.25 -0.625 C 1.3125 -0.5625 1.34375 -0.460938 1.34375 -0.328125 Z M 1.34375 -0.328125 "/></g></g><g transform="translate(67.713774, 69.560233)"><g/></g><g transform="translate(69.576757, 69.560233)"><g><path d="M 3.515625 -1.484375 C 3.515625 -1.003906 3.375 -0.617188 3.09375 -0.328125 C 2.8125 -0.046875 2.394531 0.09375 1.84375 0.09375 C 1.476562 0.09375 1.171875 0.03125 0.921875 -0.09375 C 0.671875 -0.226562 0.488281 -0.394531 0.375 -0.59375 L 0.890625 -0.921875 C 0.972656 -0.796875 1.09375 -0.6875 1.25 -0.59375 C 1.40625 -0.5 1.597656 -0.453125 1.828125 -0.453125 C 2.171875 -0.453125 2.429688 -0.546875 2.609375 -0.734375 C 2.785156 -0.921875 2.875 -1.171875 2.875 -1.484375 C 2.875 -1.765625 2.78125 -1.988281 2.59375 -2.15625 C 2.414062 -2.320312 2.160156 -2.40625 1.828125 -2.40625 C 1.492188 -2.40625 1.207031 -2.320312 0.96875 -2.15625 L 0.65625 -2.15625 L 0.90625 -4.671875 L 3.359375 -4.671875 L 3.359375 -4.109375 L 1.421875 -4.109375 L 1.28125 -2.765625 C 1.375 -2.816406 1.488281 -2.851562 1.625 -2.875 C 1.757812 -2.90625 1.890625 -2.921875 2.015625 -2.921875 C 2.492188 -2.921875 2.863281 -2.800781 3.125 -2.5625 C 3.382812 -2.320312 3.515625 -1.960938 3.515625 -1.484375 Z M 3.515625 -1.484375 "/></g></g><g transform="translate(73.57897, 69.560233)"><g><path d="M 3.21875 -1.03125 L 3.21875 0 L 2.625 0 L 2.625 -1.03125 L 0.21875 -1.03125 L 0.21875 -1.640625 L 2.65625 -4.671875 L 3.21875 -4.671875 L 3.21875 -1.578125 L 3.875 -1.578125 L 3.875 -1.03125 Z M 2.625 -3.78125 L 0.84375 -1.578125 L 2.625 -1.578125 Z M 2.625 -3.78125 "/></g></g><g transform="translate(77.837216, 69.560233)"><g/></g><g transform="translate(79.700199, 69.560233)"><g><path d="M 3.515625 -1.484375 C 3.515625 -1.003906 3.375 -0.617188 3.09375 -0.328125 C 2.8125 -0.046875 2.394531 0.09375 1.84375 0.09375 C 1.476562 0.09375 1.171875 0.03125 0.921875 -0.09375 C 0.671875 -0.226562 0.488281 -0.394531 0.375 -0.59375 L 0.890625 -0.921875 C 0.972656 -0.796875 1.09375 -0.6875 1.25 -0.59375 C 1.40625 -0.5 1.597656 -0.453125 1.828125 -0.453125 C 2.171875 -0.453125 2.429688 -0.546875 2.609375 -0.734375 C 2.785156 -0.921875 2.875 -1.171875 2.875 -1.484375 C 2.875 -1.765625 2.78125 -1.988281 2.59375 -2.15625 C 2.414062 -2.320312 2.160156 -2.40625 1.828125 -2.40625 C 1.492188 -2.40625 1.207031 -2.320312 0.96875 -2.15625 L 0.65625 -2.15625 L 0.90625 -4.671875 L 3.359375 -4.671875 L 3.359375 -4.109375 L 1.421875 -4.109375 L 1.28125 -2.765625 C 1.375 -2.816406 1.488281 -2.851562 1.625 -2.875 C 1.757812 -2.90625 1.890625 -2.921875 2.015625 -2.921875 C 2.492188 -2.921875 2.863281 -2.800781 3.125 -2.5625 C 3.382812 -2.320312 3.515625 -1.960938 3.515625 -1.484375 Z M 3.515625 -1.484375 "/></g></g><g transform="translate(83.702412, 69.560233)"><g><path d="M 2.046875 0.09375 C 1.484375 0.09375 1.070312 -0.101562 0.8125 -0.5 C 0.550781 -0.894531 0.421875 -1.476562 0.421875 -2.25 C 0.421875 -3.050781 0.582031 -3.671875 0.90625 -4.109375 C 1.226562 -4.546875 1.675781 -4.765625 2.25 -4.765625 C 2.507812 -4.765625 2.734375 -4.722656 2.921875 -4.640625 C 3.117188 -4.566406 3.300781 -4.457031 3.46875 -4.3125 L 3.078125 -3.828125 C 2.941406 -3.960938 2.8125 -4.0625 2.6875 -4.125 C 2.5625 -4.1875 2.414062 -4.21875 2.25 -4.21875 C 1.5625 -4.21875 1.175781 -3.6875 1.09375 -2.625 C 1.21875 -2.71875 1.378906 -2.800781 1.578125 -2.875 C 1.773438 -2.945312 1.988281 -2.984375 2.21875 -2.984375 C 2.644531 -2.984375 2.984375 -2.863281 3.234375 -2.625 C 3.492188 -2.382812 3.625 -2.015625 3.625 -1.515625 C 3.625 -0.992188 3.484375 -0.59375 3.203125 -0.3125 C 2.921875 -0.0390625 2.535156 0.09375 2.046875 0.09375 Z M 2.078125 -0.4375 C 2.378906 -0.4375 2.609375 -0.523438 2.765625 -0.703125 C 2.921875 -0.890625 3 -1.148438 3 -1.484375 C 3 -2.117188 2.6875 -2.4375 2.0625 -2.4375 C 1.882812 -2.4375 1.707031 -2.40625 1.53125 -2.34375 C 1.351562 -2.289062 1.203125 -2.222656 1.078125 -2.140625 C 1.078125 -1.546875 1.15625 -1.113281 1.3125 -0.84375 C 1.476562 -0.570312 1.734375 -0.4375 2.078125 -0.4375 Z M 2.078125 -0.4375 "/></g></g><g transform="translate(87.704624, 69.560233)"><g><path d="M 0.46875 0 L 0.46875 -0.65625 C 1.019531 -1.125 1.414062 -1.472656 1.65625 -1.703125 C 1.90625 -1.941406 2.109375 -2.148438 2.265625 -2.328125 C 2.429688 -2.515625 2.554688 -2.695312 2.640625 -2.875 C 2.734375 -3.050781 2.78125 -3.242188 2.78125 -3.453125 C 2.78125 -3.679688 2.703125 -3.863281 2.546875 -4 C 2.398438 -4.144531 2.203125 -4.21875 1.953125 -4.21875 C 1.710938 -4.21875 1.515625 -4.160156 1.359375 -4.046875 C 1.210938 -3.941406 1.082031 -3.804688 0.96875 -3.640625 L 0.453125 -3.96875 C 0.617188 -4.25 0.828125 -4.453125 1.078125 -4.578125 C 1.328125 -4.703125 1.625 -4.765625 1.96875 -4.765625 C 2.425781 -4.765625 2.785156 -4.648438 3.046875 -4.421875 C 3.316406 -4.203125 3.453125 -3.890625 3.453125 -3.484375 C 3.453125 -3.273438 3.421875 -3.078125 3.359375 -2.890625 C 3.296875 -2.710938 3.203125 -2.539062 3.078125 -2.375 C 2.953125 -2.21875 2.785156 -2.03125 2.578125 -1.8125 C 2.367188 -1.601562 1.898438 -1.1875 1.171875 -0.5625 L 3.59375 -0.5625 L 3.59375 0 Z M 0.46875 0 "/></g></g><g transform="translate(91.706837, 69.560233)"><g/></g><g transform="translate(93.56982, 69.560233)"><g><path d="M 0.859375 -0.84375 C 0.992188 -0.707031 1.128906 -0.601562 1.265625 -0.53125 C 1.398438 -0.46875 1.554688 -0.4375 1.734375 -0.4375 C 2.085938 -0.4375 2.359375 -0.5625 2.546875 -0.8125 C 2.742188 -1.070312 2.863281 -1.476562 2.90625 -2.03125 C 2.78125 -1.945312 2.617188 -1.863281 2.421875 -1.78125 C 2.222656 -1.707031 2.015625 -1.671875 1.796875 -1.671875 C 1.359375 -1.671875 1.007812 -1.789062 0.75 -2.03125 C 0.5 -2.269531 0.375 -2.644531 0.375 -3.15625 C 0.375 -3.664062 0.515625 -4.0625 0.796875 -4.34375 C 1.078125 -4.625 1.460938 -4.765625 1.953125 -4.765625 C 2.535156 -4.765625 2.953125 -4.566406 3.203125 -4.171875 C 3.460938 -3.785156 3.59375 -3.222656 3.59375 -2.484375 C 3.59375 -1.929688 3.523438 -1.460938 3.390625 -1.078125 C 3.253906 -0.703125 3.046875 -0.410156 2.765625 -0.203125 C 2.484375 -0.00390625 2.140625 0.09375 1.734375 0.09375 C 1.222656 0.09375 0.800781 -0.0546875 0.46875 -0.359375 Z M 1.953125 -2.21875 C 2.117188 -2.21875 2.289062 -2.25 2.46875 -2.3125 C 2.644531 -2.375 2.796875 -2.441406 2.921875 -2.515625 C 2.921875 -2.941406 2.890625 -3.265625 2.828125 -3.484375 C 2.765625 -3.710938 2.660156 -3.890625 2.515625 -4.015625 C 2.378906 -4.148438 2.191406 -4.21875 1.953125 -4.21875 C 1.640625 -4.21875 1.398438 -4.128906 1.234375 -3.953125 C 1.078125 -3.773438 1 -3.515625 1 -3.171875 C 1 -2.535156 1.316406 -2.21875 1.953125 -2.21875 Z M 1.953125 -2.21875 "/></g></g><g transform="translate(97.572032, 69.560233)"><g><path d="M 1.953125 0 L 1.265625 0 L 3.109375 -4.109375 L 0.46875 -4.109375 L 0.46875 -4.671875 L 3.734375 -4.671875 L 3.734375 -4.09375 Z M 1.953125 0 "/></g></g><g transform="translate(101.830279, 69.560233)"><g><path d="M 3.84375 -2.328125 C 3.84375 -1.492188 3.703125 -0.878906 3.421875 -0.484375 C 3.140625 -0.0859375 2.707031 0.109375 2.125 0.109375 C 1.539062 0.109375 1.109375 -0.0820312 0.828125 -0.46875 C 0.554688 -0.863281 0.421875 -1.476562 0.421875 -2.3125 C 0.421875 -3.15625 0.554688 -3.769531 0.828125 -4.15625 C 1.109375 -4.550781 1.539062 -4.75 2.125 -4.75 C 2.71875 -4.75 3.148438 -4.550781 3.421875 -4.15625 C 3.703125 -3.769531 3.84375 -3.160156 3.84375 -2.328125 Z M 3.1875 -2.328125 C 3.1875 -2.972656 3.097656 -3.445312 2.921875 -3.75 C 2.753906 -4.050781 2.488281 -4.203125 2.125 -4.203125 C 1.769531 -4.203125 1.503906 -4.050781 1.328125 -3.75 C 1.160156 -3.445312 1.078125 -2.96875 1.078125 -2.3125 C 1.078125 -1.664062 1.160156 -1.191406 1.328125 -0.890625 C 1.503906 -0.585938 1.769531 -0.4375 2.125 -0.4375 C 2.488281 -0.4375 2.753906 -0.585938 2.921875 -0.890625 C 3.097656 -1.191406 3.1875 -1.671875 3.1875 -2.328125 Z M 3.1875 -2.328125 "/></g></g></g></svg>