<svg width="550" height="28" viewBox="0 0 561 28" fill="none" xmlns="http://www.w3.org/2000/svg">
<line x1="3" y1="8" x2="113" y2="8" stroke="white" stroke-width="4"/>
<line x1="114" y1="2" x2="114" y2="14" stroke="white" stroke-width="4" stroke-linecap="round"/>
<line x1="225" y1="2" x2="225" y2="14" stroke="white" stroke-width="4" stroke-linecap="round"/>
<line x1="336" y1="2" x2="336" y2="14" stroke="white" stroke-width="4" stroke-linecap="round"/>
<line x1="447" y1="2" x2="447" y2="14" stroke="white" stroke-width="4" stroke-linecap="round"/>
<line x1="559" y1="2" x2="559" y2="14" stroke="white" stroke-width="4" stroke-linecap="round"/>
<line x1="2" y1="2" x2="2" y2="14" stroke="white" stroke-width="4" stroke-linecap="round"/>
<line x1="114" y1="8" x2="224" y2="8" stroke="white" stroke-width="4"/>
<line x1="336" y1="8" x2="446" y2="8" stroke="white" stroke-width="4"/>
<line x1="226" y1="8" x2="336" y2="8" stroke="white" stroke-width="4"/>
<line x1="447" y1="8" x2="557" y2="8" stroke="white" stroke-width="4"/>
<path d="M391.693 24.0283V25H386.757V24.0283H391.693ZM391.581 18.6475L387.211 25H386.391V24.2236L390.775 17.8906H391.581V18.6475ZM391.127 17.8906V18.8672H386.42V17.8906H391.127ZM393.9 17.5V25H392.719V17.5H393.9ZM398.168 23.9404V21.4209C398.168 21.2321 398.134 21.0693 398.065 20.9326C397.997 20.7959 397.893 20.6901 397.753 20.6152C397.616 20.5404 397.444 20.5029 397.235 20.5029C397.043 20.5029 396.877 20.5355 396.737 20.6006C396.597 20.6657 396.488 20.7536 396.41 20.8643C396.332 20.9749 396.293 21.1003 396.293 21.2402H395.121C395.121 21.0319 395.172 20.8301 395.272 20.6348C395.373 20.4395 395.52 20.2653 395.712 20.1123C395.904 19.9593 396.133 19.8389 396.4 19.751C396.667 19.6631 396.967 19.6191 397.299 19.6191C397.696 19.6191 398.048 19.6859 398.354 19.8193C398.663 19.9528 398.905 20.1546 399.081 20.4248C399.26 20.6917 399.35 21.027 399.35 21.4307V23.7793C399.35 24.0202 399.366 24.2367 399.398 24.4287C399.434 24.6175 399.485 24.7819 399.55 24.9219V25H398.344C398.288 24.873 398.244 24.7119 398.212 24.5166C398.183 24.318 398.168 24.126 398.168 23.9404ZM398.339 21.7871L398.349 22.5146H397.504C397.286 22.5146 397.094 22.5358 396.928 22.5781C396.762 22.6172 396.623 22.6758 396.513 22.7539C396.402 22.832 396.319 22.9264 396.264 23.0371C396.208 23.1478 396.181 23.2731 396.181 23.4131C396.181 23.5531 396.213 23.6816 396.278 23.7988C396.343 23.9128 396.438 24.0023 396.562 24.0674C396.688 24.1325 396.841 24.165 397.021 24.165C397.261 24.165 397.471 24.1162 397.65 24.0186C397.833 23.9176 397.976 23.7956 398.08 23.6523C398.184 23.5059 398.24 23.3675 398.246 23.2373L398.627 23.7598C398.588 23.8932 398.521 24.0365 398.427 24.1895C398.332 24.3424 398.209 24.4889 398.056 24.6289C397.906 24.7656 397.725 24.8779 397.514 24.9658C397.305 25.0537 397.064 25.0977 396.791 25.0977C396.446 25.0977 396.138 25.0293 395.868 24.8926C395.598 24.7526 395.386 24.5654 395.233 24.3311C395.08 24.0934 395.004 23.8249 395.004 23.5254C395.004 23.2454 395.056 22.998 395.16 22.7832C395.268 22.5651 395.424 22.3828 395.629 22.2363C395.837 22.0898 396.091 21.9792 396.391 21.9043C396.69 21.8262 397.032 21.7871 397.416 21.7871H398.339ZM396.752 18.9697L397.704 17.5H399.032L397.704 18.9697H396.752Z" fill="white"/>
<path d="M260.423 22.3486H258.572V21.377H260.423C260.745 21.377 261.006 21.3249 261.204 21.2207C261.403 21.1165 261.548 20.9733 261.639 20.791C261.733 20.6055 261.78 20.3939 261.78 20.1562C261.78 19.9316 261.733 19.7217 261.639 19.5264C261.548 19.3278 261.403 19.1683 261.204 19.0479C261.006 18.9274 260.745 18.8672 260.423 18.8672H258.948V25H257.723V17.8906H260.423C260.973 17.8906 261.44 17.9883 261.824 18.1836C262.212 18.3757 262.506 18.6426 262.708 18.9844C262.91 19.3229 263.011 19.7103 263.011 20.1465C263.011 20.6055 262.91 20.9993 262.708 21.3281C262.506 21.6569 262.212 21.9092 261.824 22.085C261.44 22.2607 260.973 22.3486 260.423 22.3486ZM265.174 20.7227V25H263.997V19.7168H265.12L265.174 20.7227ZM266.79 19.6826L266.78 20.7764C266.709 20.7633 266.631 20.7536 266.546 20.7471C266.465 20.7406 266.383 20.7373 266.302 20.7373C266.1 20.7373 265.923 20.7666 265.77 20.8252C265.617 20.8805 265.488 20.9619 265.384 21.0693C265.283 21.1735 265.205 21.3005 265.149 21.4502C265.094 21.5999 265.062 21.7676 265.052 21.9531L264.783 21.9727C264.783 21.6406 264.816 21.333 264.881 21.0498C264.946 20.7666 265.044 20.5176 265.174 20.3027C265.307 20.0879 265.473 19.9202 265.672 19.7998C265.874 19.6794 266.106 19.6191 266.37 19.6191C266.442 19.6191 266.518 19.6257 266.6 19.6387C266.684 19.6517 266.748 19.6663 266.79 19.6826ZM268.787 19.7168V25H267.605V19.7168H268.787ZM267.527 18.3301C267.527 18.151 267.586 18.0029 267.703 17.8857C267.824 17.7653 267.99 17.7051 268.201 17.7051C268.41 17.7051 268.574 17.7653 268.694 17.8857C268.815 18.0029 268.875 18.151 268.875 18.3301C268.875 18.5059 268.815 18.6523 268.694 18.7695C268.574 18.8867 268.41 18.9453 268.201 18.9453C267.99 18.9453 267.824 18.8867 267.703 18.7695C267.586 18.6523 267.527 18.5059 267.527 18.3301ZM272.405 25.0977C272.015 25.0977 271.661 25.0342 271.346 24.9072C271.033 24.777 270.766 24.5964 270.545 24.3652C270.327 24.1341 270.159 23.8623 270.042 23.5498C269.925 23.2373 269.866 22.9004 269.866 22.5391V22.3438C269.866 21.9303 269.926 21.556 270.047 21.2207C270.167 20.8854 270.335 20.599 270.55 20.3613C270.765 20.1204 271.019 19.9365 271.312 19.8096C271.604 19.6826 271.922 19.6191 272.264 19.6191C272.641 19.6191 272.972 19.6826 273.255 19.8096C273.538 19.9365 273.772 20.1156 273.958 20.3467C274.147 20.5745 274.287 20.8464 274.378 21.1621C274.472 21.4779 274.52 21.8262 274.52 22.207V22.71H270.438V21.8652H273.357V21.7725C273.351 21.5609 273.309 21.3623 273.23 21.1768C273.156 20.9912 273.04 20.8415 272.884 20.7275C272.728 20.6136 272.519 20.5566 272.259 20.5566C272.063 20.5566 271.889 20.599 271.736 20.6836C271.587 20.765 271.461 20.8838 271.36 21.04C271.259 21.1963 271.181 21.3851 271.126 21.6064C271.074 21.8245 271.048 22.0703 271.048 22.3438V22.5391C271.048 22.7702 271.079 22.985 271.141 23.1836C271.206 23.3789 271.3 23.5498 271.424 23.6963C271.548 23.8428 271.697 23.9583 271.873 24.043C272.049 24.1243 272.249 24.165 272.474 24.165C272.757 24.165 273.009 24.1081 273.23 23.9941C273.452 23.8802 273.644 23.7191 273.807 23.5107L274.427 24.1113C274.313 24.2773 274.165 24.4368 273.982 24.5898C273.8 24.7396 273.577 24.8617 273.313 24.9561C273.053 25.0505 272.75 25.0977 272.405 25.0977ZM276.614 20.791V25H275.438V19.7168H276.546L276.614 20.791ZM276.424 22.1631L276.023 22.1582C276.023 21.7936 276.069 21.4567 276.16 21.1475C276.251 20.8382 276.385 20.5697 276.561 20.3418C276.736 20.1107 276.954 19.9333 277.215 19.8096C277.479 19.6826 277.783 19.6191 278.128 19.6191C278.369 19.6191 278.589 19.6549 278.787 19.7266C278.989 19.7949 279.163 19.904 279.31 20.0537C279.459 20.2035 279.573 20.3955 279.651 20.6299C279.733 20.8643 279.773 21.1475 279.773 21.4795V25H278.597V21.582C278.597 21.3249 278.558 21.123 278.479 20.9766C278.405 20.8301 278.296 20.7259 278.152 20.6641C278.012 20.599 277.845 20.5664 277.649 20.5664C277.428 20.5664 277.239 20.6087 277.083 20.6934C276.93 20.778 276.805 20.8936 276.707 21.04C276.609 21.1865 276.538 21.3558 276.492 21.5479C276.447 21.7399 276.424 21.945 276.424 22.1631ZM279.7 21.8506L279.148 21.9727C279.148 21.6536 279.192 21.3525 279.28 21.0693C279.371 20.7829 279.503 20.5322 279.676 20.3174C279.852 20.0993 280.068 19.9284 280.325 19.8047C280.582 19.681 280.877 19.6191 281.209 19.6191C281.479 19.6191 281.72 19.6566 281.932 19.7314C282.146 19.8031 282.329 19.917 282.479 20.0732C282.628 20.2295 282.742 20.4329 282.82 20.6836C282.898 20.931 282.938 21.2305 282.938 21.582V25H281.756V21.5771C281.756 21.3102 281.717 21.1035 281.639 20.957C281.564 20.8105 281.456 20.7096 281.316 20.6543C281.176 20.5957 281.009 20.5664 280.813 20.5664C280.631 20.5664 280.47 20.6006 280.33 20.6689C280.193 20.734 280.078 20.8268 279.983 20.9473C279.889 21.0645 279.817 21.1995 279.769 21.3525C279.723 21.5055 279.7 21.6715 279.7 21.8506ZM286.478 25.0977C286.087 25.0977 285.734 25.0342 285.418 24.9072C285.105 24.777 284.839 24.5964 284.617 24.3652C284.399 24.1341 284.231 23.8623 284.114 23.5498C283.997 23.2373 283.938 22.9004 283.938 22.5391V22.3438C283.938 21.9303 283.999 21.556 284.119 21.2207C284.24 20.8854 284.407 20.599 284.622 20.3613C284.837 20.1204 285.091 19.9365 285.384 19.8096C285.677 19.6826 285.994 19.6191 286.336 19.6191C286.714 19.6191 287.044 19.6826 287.327 19.8096C287.61 19.9365 287.845 20.1156 288.03 20.3467C288.219 20.5745 288.359 20.8464 288.45 21.1621C288.545 21.4779 288.592 21.8262 288.592 22.207V22.71H284.51V21.8652H287.43V21.7725C287.423 21.5609 287.381 21.3623 287.303 21.1768C287.228 20.9912 287.112 20.8415 286.956 20.7275C286.8 20.6136 286.591 20.5566 286.331 20.5566C286.136 20.5566 285.962 20.599 285.809 20.6836C285.659 20.765 285.534 20.8838 285.433 21.04C285.332 21.1963 285.254 21.3851 285.198 21.6064C285.146 21.8245 285.12 22.0703 285.12 22.3438V22.5391C285.12 22.7702 285.151 22.985 285.213 23.1836C285.278 23.3789 285.372 23.5498 285.496 23.6963C285.62 23.8428 285.77 23.9583 285.945 24.043C286.121 24.1243 286.321 24.165 286.546 24.165C286.829 24.165 287.081 24.1081 287.303 23.9941C287.524 23.8802 287.716 23.7191 287.879 23.5107L288.499 24.1113C288.385 24.2773 288.237 24.4368 288.055 24.5898C287.872 24.7396 287.649 24.8617 287.386 24.9561C287.125 25.0505 286.823 25.0977 286.478 25.0977ZM290.691 20.7227V25H289.515V19.7168H290.638L290.691 20.7227ZM292.308 19.6826L292.298 20.7764C292.226 20.7633 292.148 20.7536 292.063 20.7471C291.982 20.7406 291.901 20.7373 291.819 20.7373C291.618 20.7373 291.44 20.7666 291.287 20.8252C291.134 20.8805 291.006 20.9619 290.901 21.0693C290.8 21.1735 290.722 21.3005 290.667 21.4502C290.612 21.5999 290.579 21.7676 290.569 21.9531L290.301 21.9727C290.301 21.6406 290.333 21.333 290.398 21.0498C290.464 20.7666 290.561 20.5176 290.691 20.3027C290.825 20.0879 290.991 19.9202 291.189 19.7998C291.391 19.6794 291.624 19.6191 291.888 19.6191C291.959 19.6191 292.036 19.6257 292.117 19.6387C292.202 19.6517 292.265 19.6663 292.308 19.6826ZM294.212 20.8447V25H293.035V19.7168H294.144L294.212 20.8447ZM294.002 22.1631L293.621 22.1582C293.624 21.7839 293.676 21.4404 293.777 21.1279C293.882 20.8154 294.025 20.5469 294.207 20.3223C294.393 20.0977 294.614 19.9251 294.871 19.8047C295.128 19.681 295.415 19.6191 295.73 19.6191C295.984 19.6191 296.214 19.6549 296.419 19.7266C296.627 19.7949 296.805 19.9072 296.951 20.0635C297.101 20.2197 297.215 20.4232 297.293 20.6738C297.371 20.9212 297.41 21.2256 297.41 21.5869V25H296.229V21.582C296.229 21.3281 296.191 21.1279 296.116 20.9814C296.045 20.8317 295.939 20.7259 295.799 20.6641C295.662 20.599 295.491 20.5664 295.286 20.5664C295.084 20.5664 294.904 20.6087 294.744 20.6934C294.585 20.778 294.45 20.8936 294.339 21.04C294.231 21.1865 294.148 21.3558 294.09 21.5479C294.031 21.7399 294.002 21.945 294.002 22.1631ZM301.59 23.9404V21.4209C301.59 21.2321 301.556 21.0693 301.487 20.9326C301.419 20.7959 301.315 20.6901 301.175 20.6152C301.038 20.5404 300.866 20.5029 300.657 20.5029C300.465 20.5029 300.299 20.5355 300.159 20.6006C300.019 20.6657 299.91 20.7536 299.832 20.8643C299.754 20.9749 299.715 21.1003 299.715 21.2402H298.543C298.543 21.0319 298.593 20.8301 298.694 20.6348C298.795 20.4395 298.942 20.2653 299.134 20.1123C299.326 19.9593 299.555 19.8389 299.822 19.751C300.089 19.6631 300.389 19.6191 300.721 19.6191C301.118 19.6191 301.469 19.6859 301.775 19.8193C302.085 19.9528 302.327 20.1546 302.503 20.4248C302.682 20.6917 302.771 21.027 302.771 21.4307V23.7793C302.771 24.0202 302.788 24.2367 302.82 24.4287C302.856 24.6175 302.907 24.7819 302.972 24.9219V25H301.766C301.71 24.873 301.666 24.7119 301.634 24.5166C301.604 24.318 301.59 24.126 301.59 23.9404ZM301.761 21.7871L301.771 22.5146H300.926C300.708 22.5146 300.516 22.5358 300.35 22.5781C300.184 22.6172 300.045 22.6758 299.935 22.7539C299.824 22.832 299.741 22.9264 299.686 23.0371C299.63 23.1478 299.603 23.2731 299.603 23.4131C299.603 23.5531 299.635 23.6816 299.7 23.7988C299.765 23.9128 299.86 24.0023 299.983 24.0674C300.11 24.1325 300.263 24.165 300.442 24.165C300.683 24.165 300.893 24.1162 301.072 24.0186C301.255 23.9176 301.398 23.7956 301.502 23.6523C301.606 23.5059 301.661 23.3675 301.668 23.2373L302.049 23.7598C302.01 23.8932 301.943 24.0365 301.849 24.1895C301.754 24.3424 301.631 24.4889 301.478 24.6289C301.328 24.7656 301.147 24.8779 300.936 24.9658C300.727 25.0537 300.486 25.0977 300.213 25.0977C299.868 25.0977 299.56 25.0293 299.29 24.8926C299.02 24.7526 298.808 24.5654 298.655 24.3311C298.502 24.0934 298.426 23.8249 298.426 23.5254C298.426 23.2454 298.478 22.998 298.582 22.7832C298.689 22.5651 298.846 22.3828 299.051 22.2363C299.259 22.0898 299.513 21.9792 299.812 21.9043C300.112 21.8262 300.454 21.7871 300.838 21.7871H301.761ZM300.174 18.9697L301.126 17.5H302.454L301.126 18.9697H300.174Z" fill="white"/>
<path d="M158.788 25H157.27L157.279 24.0283H158.788C159.228 24.0283 159.595 23.9323 159.892 23.7402C160.191 23.5482 160.416 23.2731 160.565 22.915C160.718 22.557 160.795 22.1305 160.795 21.6357V21.25C160.795 20.8659 160.751 20.5257 160.663 20.2295C160.578 19.9333 160.451 19.6842 160.282 19.4824C160.116 19.2806 159.911 19.1276 159.667 19.0234C159.426 18.9193 159.148 18.8672 158.832 18.8672H157.24V17.8906H158.832C159.304 17.8906 159.735 17.9704 160.126 18.1299C160.517 18.2861 160.854 18.5124 161.137 18.8086C161.423 19.1048 161.643 19.4596 161.796 19.873C161.949 20.2865 162.025 20.7487 162.025 21.2598V21.6357C162.025 22.1468 161.949 22.609 161.796 23.0225C161.643 23.4359 161.423 23.7907 161.137 24.0869C160.85 24.3799 160.508 24.6061 160.111 24.7656C159.717 24.9219 159.276 25 158.788 25ZM157.948 17.8906V25H156.723V17.8906H157.948ZM162.914 22.417V22.3047C162.914 21.9238 162.969 21.5706 163.08 21.2451C163.191 20.9163 163.35 20.6315 163.559 20.3906C163.77 20.1465 164.027 19.9577 164.33 19.8242C164.636 19.6875 164.981 19.6191 165.365 19.6191C165.753 19.6191 166.098 19.6875 166.4 19.8242C166.706 19.9577 166.965 20.1465 167.177 20.3906C167.388 20.6315 167.549 20.9163 167.66 21.2451C167.771 21.5706 167.826 21.9238 167.826 22.3047V22.417C167.826 22.7979 167.771 23.151 167.66 23.4766C167.549 23.8021 167.388 24.0869 167.177 24.3311C166.965 24.5719 166.708 24.7607 166.405 24.8975C166.103 25.0309 165.759 25.0977 165.375 25.0977C164.988 25.0977 164.641 25.0309 164.335 24.8975C164.032 24.7607 163.775 24.5719 163.563 24.3311C163.352 24.0869 163.191 23.8021 163.08 23.4766C162.969 23.151 162.914 22.7979 162.914 22.417ZM164.091 22.3047V22.417C164.091 22.6546 164.115 22.8792 164.164 23.0908C164.213 23.3024 164.289 23.488 164.394 23.6475C164.498 23.807 164.631 23.9323 164.794 24.0234C164.957 24.1146 165.15 24.1602 165.375 24.1602C165.593 24.1602 165.782 24.1146 165.941 24.0234C166.104 23.9323 166.238 23.807 166.342 23.6475C166.446 23.488 166.522 23.3024 166.571 23.0908C166.623 22.8792 166.649 22.6546 166.649 22.417V22.3047C166.649 22.0703 166.623 21.849 166.571 21.6406C166.522 21.429 166.444 21.2419 166.337 21.0791C166.233 20.9163 166.099 20.7894 165.937 20.6982C165.777 20.6038 165.587 20.5566 165.365 20.5566C165.144 20.5566 164.952 20.6038 164.789 20.6982C164.63 20.7894 164.498 20.9163 164.394 21.0791C164.289 21.2419 164.213 21.429 164.164 21.6406C164.115 21.849 164.091 22.0703 164.091 22.3047ZM168.817 17.5H169.994V23.8721L169.882 25H168.817V17.5ZM173.441 22.3096V22.4121C173.441 22.8027 173.397 23.1624 173.31 23.4912C173.225 23.8167 173.095 24.0999 172.919 24.3408C172.746 24.5817 172.532 24.7689 172.274 24.9023C172.021 25.0326 171.726 25.0977 171.391 25.0977C171.062 25.0977 170.775 25.0358 170.531 24.9121C170.287 24.7884 170.082 24.6126 169.916 24.3848C169.753 24.1569 169.621 23.8851 169.521 23.5693C169.42 23.2536 169.348 22.9053 169.306 22.5244V22.1973C169.348 21.8132 169.42 21.4648 169.521 21.1523C169.621 20.8366 169.753 20.5648 169.916 20.3369C170.082 20.1058 170.285 19.9284 170.526 19.8047C170.771 19.681 171.055 19.6191 171.381 19.6191C171.719 19.6191 172.017 19.6842 172.274 19.8145C172.535 19.9447 172.751 20.1302 172.924 20.3711C173.096 20.6087 173.225 20.8919 173.31 21.2207C173.397 21.5495 173.441 21.9124 173.441 22.3096ZM172.265 22.4121V22.3096C172.265 22.0719 172.245 21.849 172.206 21.6406C172.167 21.429 172.102 21.2435 172.011 21.084C171.923 20.9245 171.802 20.7992 171.649 20.708C171.5 20.6136 171.312 20.5664 171.088 20.5664C170.88 20.5664 170.701 20.6022 170.551 20.6738C170.401 20.7454 170.276 20.8431 170.175 20.9668C170.074 21.0905 169.994 21.2337 169.936 21.3965C169.88 21.5592 169.843 21.735 169.823 21.9238V22.8076C169.853 23.0518 169.914 23.2764 170.009 23.4814C170.106 23.6833 170.243 23.846 170.419 23.9697C170.595 24.0902 170.821 24.1504 171.098 24.1504C171.316 24.1504 171.5 24.1064 171.649 24.0186C171.799 23.9307 171.918 23.8086 172.006 23.6523C172.097 23.4928 172.162 23.3073 172.201 23.0957C172.243 22.8841 172.265 22.6562 172.265 22.4121ZM175.619 20.7227V25H174.442V19.7168H175.565L175.619 20.7227ZM177.235 19.6826L177.226 20.7764C177.154 20.7633 177.076 20.7536 176.991 20.7471C176.91 20.7406 176.828 20.7373 176.747 20.7373C176.545 20.7373 176.368 20.7666 176.215 20.8252C176.062 20.8805 175.933 20.9619 175.829 21.0693C175.728 21.1735 175.65 21.3005 175.595 21.4502C175.539 21.5999 175.507 21.7676 175.497 21.9531L175.229 21.9727C175.229 21.6406 175.261 21.333 175.326 21.0498C175.391 20.7666 175.489 20.5176 175.619 20.3027C175.753 20.0879 175.919 19.9202 176.117 19.7998C176.319 19.6794 176.552 19.6191 176.815 19.6191C176.887 19.6191 176.964 19.6257 177.045 19.6387C177.13 19.6517 177.193 19.6663 177.235 19.6826ZM180.775 23.9404V21.4209C180.775 21.2321 180.741 21.0693 180.673 20.9326C180.604 20.7959 180.5 20.6901 180.36 20.6152C180.224 20.5404 180.051 20.5029 179.843 20.5029C179.651 20.5029 179.485 20.5355 179.345 20.6006C179.205 20.6657 179.096 20.7536 179.018 20.8643C178.939 20.9749 178.9 21.1003 178.9 21.2402H177.729C177.729 21.0319 177.779 20.8301 177.88 20.6348C177.981 20.4395 178.127 20.2653 178.319 20.1123C178.511 19.9593 178.741 19.8389 179.008 19.751C179.275 19.6631 179.574 19.6191 179.906 19.6191C180.303 19.6191 180.655 19.6859 180.961 19.8193C181.27 19.9528 181.513 20.1546 181.688 20.4248C181.868 20.6917 181.957 21.027 181.957 21.4307V23.7793C181.957 24.0202 181.973 24.2367 182.006 24.4287C182.042 24.6175 182.092 24.7819 182.157 24.9219V25H180.951C180.896 24.873 180.852 24.7119 180.819 24.5166C180.79 24.318 180.775 24.126 180.775 23.9404ZM180.946 21.7871L180.956 22.5146H180.111C179.893 22.5146 179.701 22.5358 179.535 22.5781C179.369 22.6172 179.231 22.6758 179.12 22.7539C179.009 22.832 178.926 22.9264 178.871 23.0371C178.816 23.1478 178.788 23.2731 178.788 23.4131C178.788 23.5531 178.821 23.6816 178.886 23.7988C178.951 23.9128 179.045 24.0023 179.169 24.0674C179.296 24.1325 179.449 24.165 179.628 24.165C179.869 24.165 180.079 24.1162 180.258 24.0186C180.44 23.9176 180.583 23.7956 180.688 23.6523C180.792 23.5059 180.847 23.3675 180.854 23.2373L181.234 23.7598C181.195 23.8932 181.129 24.0365 181.034 24.1895C180.94 24.3424 180.816 24.4889 180.663 24.6289C180.513 24.7656 180.333 24.8779 180.121 24.9658C179.913 25.0537 179.672 25.0977 179.398 25.0977C179.053 25.0977 178.746 25.0293 178.476 24.8926C178.205 24.7526 177.994 24.5654 177.841 24.3311C177.688 24.0934 177.611 23.8249 177.611 23.5254C177.611 23.2454 177.663 22.998 177.768 22.7832C177.875 22.5651 178.031 22.3828 178.236 22.2363C178.445 22.0898 178.699 21.9792 178.998 21.9043C179.298 21.8262 179.639 21.7871 180.023 21.7871H180.946ZM179.359 18.9697L180.312 17.5H181.64L180.312 18.9697H179.359Z" fill="white"/>
<path d="M481.159 23.7012L483.029 17.8906H484.382L481.833 25H480.92L481.159 23.7012ZM479.431 17.8906L481.286 23.7012L481.54 25H480.622L478.083 17.8906H479.431ZM487.175 25.0977C486.784 25.0977 486.431 25.0342 486.115 24.9072C485.803 24.777 485.536 24.5964 485.314 24.3652C485.096 24.1341 484.929 23.8623 484.812 23.5498C484.694 23.2373 484.636 22.9004 484.636 22.5391V22.3438C484.636 21.9303 484.696 21.556 484.816 21.2207C484.937 20.8854 485.104 20.599 485.319 20.3613C485.534 20.1204 485.788 19.9365 486.081 19.8096C486.374 19.6826 486.691 19.6191 487.033 19.6191C487.411 19.6191 487.741 19.6826 488.024 19.8096C488.308 19.9365 488.542 20.1156 488.728 20.3467C488.916 20.5745 489.056 20.8464 489.147 21.1621C489.242 21.4779 489.289 21.8262 489.289 22.207V22.71H485.207V21.8652H488.127V21.7725C488.12 21.5609 488.078 21.3623 488 21.1768C487.925 20.9912 487.81 20.8415 487.653 20.7275C487.497 20.6136 487.289 20.5566 487.028 20.5566C486.833 20.5566 486.659 20.599 486.506 20.6836C486.356 20.765 486.231 20.8838 486.13 21.04C486.029 21.1963 485.951 21.3851 485.896 21.6064C485.843 21.8245 485.817 22.0703 485.817 22.3438V22.5391C485.817 22.7702 485.848 22.985 485.91 23.1836C485.975 23.3789 486.07 23.5498 486.193 23.6963C486.317 23.8428 486.467 23.9583 486.643 24.043C486.818 24.1243 487.019 24.165 487.243 24.165C487.526 24.165 487.779 24.1081 488 23.9941C488.221 23.8802 488.413 23.7191 488.576 23.5107L489.196 24.1113C489.082 24.2773 488.934 24.4368 488.752 24.5898C488.57 24.7396 488.347 24.8617 488.083 24.9561C487.823 25.0505 487.52 25.0977 487.175 25.0977ZM491.467 17.5V25H490.285V17.5H491.467ZM493.195 17.4902V17.8564C493.195 18.1396 493.132 18.4342 493.005 18.7402C492.881 19.0462 492.71 19.3001 492.492 19.502L491.882 19.1357C491.999 18.9535 492.089 18.7646 492.15 18.5693C492.215 18.374 492.248 18.151 492.248 17.9004V17.4902H493.195ZM494.665 20.791V25H493.488V19.7168H494.597L494.665 20.791ZM494.475 22.1631L494.074 22.1582C494.074 21.7936 494.12 21.4567 494.211 21.1475C494.302 20.8382 494.436 20.5697 494.611 20.3418C494.787 20.1107 495.005 19.9333 495.266 19.8096C495.529 19.6826 495.834 19.6191 496.179 19.6191C496.42 19.6191 496.639 19.6549 496.838 19.7266C497.04 19.7949 497.214 19.904 497.36 20.0537C497.51 20.2035 497.624 20.3955 497.702 20.6299C497.784 20.8643 497.824 21.1475 497.824 21.4795V25H496.647V21.582C496.647 21.3249 496.608 21.123 496.53 20.9766C496.455 20.8301 496.346 20.7259 496.203 20.6641C496.063 20.599 495.896 20.5664 495.7 20.5664C495.479 20.5664 495.29 20.6087 495.134 20.6934C494.981 20.778 494.855 20.8936 494.758 21.04C494.66 21.1865 494.589 21.3558 494.543 21.5479C494.497 21.7399 494.475 21.945 494.475 22.1631ZM497.751 21.8506L497.199 21.9727C497.199 21.6536 497.243 21.3525 497.331 21.0693C497.422 20.7829 497.554 20.5322 497.727 20.3174C497.902 20.0993 498.119 19.9284 498.376 19.8047C498.633 19.681 498.928 19.6191 499.26 19.6191C499.53 19.6191 499.771 19.6566 499.982 19.7314C500.197 19.8031 500.38 19.917 500.529 20.0732C500.679 20.2295 500.793 20.4329 500.871 20.6836C500.949 20.931 500.988 21.2305 500.988 21.582V25H499.807V21.5771C499.807 21.3102 499.768 21.1035 499.689 20.957C499.615 20.8105 499.507 20.7096 499.367 20.6543C499.227 20.5957 499.06 20.5664 498.864 20.5664C498.682 20.5664 498.521 20.6006 498.381 20.6689C498.244 20.734 498.129 20.8268 498.034 20.9473C497.94 21.0645 497.868 21.1995 497.819 21.3525C497.774 21.5055 497.751 21.6715 497.751 21.8506ZM503.459 19.7168V25H502.277V19.7168H503.459ZM502.199 18.3301C502.199 18.151 502.258 18.0029 502.375 17.8857C502.495 17.7653 502.661 17.7051 502.873 17.7051C503.081 17.7051 503.246 17.7653 503.366 17.8857C503.487 18.0029 503.547 18.151 503.547 18.3301C503.547 18.5059 503.487 18.6523 503.366 18.7695C503.246 18.8867 503.081 18.9453 502.873 18.9453C502.661 18.9453 502.495 18.8867 502.375 18.7695C502.258 18.6523 502.199 18.5059 502.199 18.3301ZM511.325 24.0625V25H507.39V24.0625H511.325ZM511.218 20.4492L507.79 25H507.028V24.2432L510.437 19.7168H511.218V20.4492ZM510.764 19.7168V20.6543H507.087V19.7168H510.764ZM513.527 17.5V25H512.346V17.5H513.527ZM517.795 23.9404V21.4209C517.795 21.2321 517.761 21.0693 517.692 20.9326C517.624 20.7959 517.52 20.6901 517.38 20.6152C517.243 20.5404 517.071 20.5029 516.862 20.5029C516.67 20.5029 516.504 20.5355 516.364 20.6006C516.224 20.6657 516.115 20.7536 516.037 20.8643C515.959 20.9749 515.92 21.1003 515.92 21.2402H514.748C514.748 21.0319 514.799 20.8301 514.899 20.6348C515 20.4395 515.147 20.2653 515.339 20.1123C515.531 19.9593 515.76 19.8389 516.027 19.751C516.294 19.6631 516.594 19.6191 516.926 19.6191C517.323 19.6191 517.674 19.6859 517.98 19.8193C518.29 19.9528 518.532 20.1546 518.708 20.4248C518.887 20.6917 518.977 21.027 518.977 21.4307V23.7793C518.977 24.0202 518.993 24.2367 519.025 24.4287C519.061 24.6175 519.112 24.7819 519.177 24.9219V25H517.971C517.915 24.873 517.871 24.7119 517.839 24.5166C517.81 24.318 517.795 24.126 517.795 23.9404ZM517.966 21.7871L517.976 22.5146H517.131C516.913 22.5146 516.721 22.5358 516.555 22.5781C516.389 22.6172 516.25 22.6758 516.14 22.7539C516.029 22.832 515.946 22.9264 515.891 23.0371C515.835 23.1478 515.808 23.2731 515.808 23.4131C515.808 23.5531 515.84 23.6816 515.905 23.7988C515.97 23.9128 516.065 24.0023 516.188 24.0674C516.315 24.1325 516.468 24.165 516.647 24.165C516.888 24.165 517.098 24.1162 517.277 24.0186C517.46 23.9176 517.603 23.7956 517.707 23.6523C517.811 23.5059 517.867 23.3675 517.873 23.2373L518.254 23.7598C518.215 23.8932 518.148 24.0365 518.054 24.1895C517.959 24.3424 517.836 24.4889 517.683 24.6289C517.533 24.7656 517.352 24.8779 517.141 24.9658C516.932 25.0537 516.691 25.0977 516.418 25.0977C516.073 25.0977 515.765 25.0293 515.495 24.8926C515.225 24.7526 515.013 24.5654 514.86 24.3311C514.707 24.0934 514.631 23.8249 514.631 23.5254C514.631 23.2454 514.683 22.998 514.787 22.7832C514.895 22.5651 515.051 22.3828 515.256 22.2363C515.464 22.0898 515.718 21.9792 516.018 21.9043C516.317 21.8262 516.659 21.7871 517.043 21.7871H517.966ZM516.379 18.9697L517.331 17.5H518.659L517.331 18.9697H516.379Z" fill="white"/>
<path d="M41.1592 23.7012L43.0293 17.8906H44.3818L41.833 25H40.9199L41.1592 23.7012ZM39.4307 17.8906L41.2861 23.7012L41.54 25H40.6221L38.083 17.8906H39.4307ZM46.5352 24.4238L47.9707 19.7168H49.2305L47.1113 25.8057C47.0625 25.9359 46.999 26.0775 46.9209 26.2305C46.8428 26.3835 46.7402 26.5283 46.6133 26.665C46.4896 26.805 46.335 26.9173 46.1494 27.002C45.9639 27.0898 45.7393 27.1338 45.4756 27.1338C45.3714 27.1338 45.2705 27.124 45.1729 27.1045C45.0785 27.0882 44.9889 27.0703 44.9043 27.0508L44.8994 26.1523C44.932 26.1556 44.971 26.1589 45.0166 26.1621C45.0654 26.1654 45.1045 26.167 45.1338 26.167C45.3291 26.167 45.4919 26.1426 45.6221 26.0938C45.7523 26.0482 45.8581 25.9733 45.9395 25.8691C46.0241 25.765 46.0957 25.625 46.1543 25.4492L46.5352 24.4238ZM45.7246 19.7168L46.9795 23.6719L47.1895 24.9121L46.374 25.1221L44.4551 19.7168H45.7246ZM46.3203 18.9697L47.2725 17.5H48.6006L47.2725 18.9697H46.3203ZM49.9092 17.5H51.0859V23.8721L50.9736 25H49.9092V17.5ZM54.5332 22.3096V22.4121C54.5332 22.8027 54.4893 23.1624 54.4014 23.4912C54.3167 23.8167 54.1865 24.0999 54.0107 24.3408C53.8382 24.5817 53.6234 24.7689 53.3662 24.9023C53.1123 25.0326 52.8177 25.0977 52.4824 25.0977C52.1536 25.0977 51.8672 25.0358 51.623 24.9121C51.3789 24.7884 51.1738 24.6126 51.0078 24.3848C50.8451 24.1569 50.7132 23.8851 50.6123 23.5693C50.5114 23.2536 50.4398 22.9053 50.3975 22.5244V22.1973C50.4398 21.8132 50.5114 21.4648 50.6123 21.1523C50.7132 20.8366 50.8451 20.5648 51.0078 20.3369C51.1738 20.1058 51.3773 19.9284 51.6182 19.8047C51.8623 19.681 52.1471 19.6191 52.4727 19.6191C52.8112 19.6191 53.109 19.6842 53.3662 19.8145C53.6266 19.9447 53.8431 20.1302 54.0156 20.3711C54.1882 20.6087 54.3167 20.8919 54.4014 21.2207C54.4893 21.5495 54.5332 21.9124 54.5332 22.3096ZM53.3564 22.4121V22.3096C53.3564 22.0719 53.3369 21.849 53.2979 21.6406C53.2588 21.429 53.1937 21.2435 53.1025 21.084C53.0146 20.9245 52.8942 20.7992 52.7412 20.708C52.5915 20.6136 52.4043 20.5664 52.1797 20.5664C51.9714 20.5664 51.7923 20.6022 51.6426 20.6738C51.4928 20.7454 51.3675 20.8431 51.2666 20.9668C51.1657 21.0905 51.0859 21.2337 51.0273 21.3965C50.972 21.5592 50.9346 21.735 50.915 21.9238V22.8076C50.9443 23.0518 51.0062 23.2764 51.1006 23.4814C51.1982 23.6833 51.335 23.846 51.5107 23.9697C51.6865 24.0902 51.9128 24.1504 52.1895 24.1504C52.4076 24.1504 52.5915 24.1064 52.7412 24.0186C52.891 23.9307 53.0098 23.8086 53.0977 23.6523C53.1888 23.4928 53.2539 23.3073 53.293 23.0957C53.3353 22.8841 53.3564 22.6562 53.3564 22.4121ZM55.3047 22.417V22.3047C55.3047 21.9238 55.36 21.5706 55.4707 21.2451C55.5814 20.9163 55.7409 20.6315 55.9492 20.3906C56.1608 20.1465 56.418 19.9577 56.7207 19.8242C57.0267 19.6875 57.3717 19.6191 57.7559 19.6191C58.1432 19.6191 58.4883 19.6875 58.791 19.8242C59.097 19.9577 59.3558 20.1465 59.5674 20.3906C59.779 20.6315 59.9401 20.9163 60.0508 21.2451C60.1615 21.5706 60.2168 21.9238 60.2168 22.3047V22.417C60.2168 22.7979 60.1615 23.151 60.0508 23.4766C59.9401 23.8021 59.779 24.0869 59.5674 24.3311C59.3558 24.5719 59.0986 24.7607 58.7959 24.8975C58.4932 25.0309 58.1497 25.0977 57.7656 25.0977C57.3783 25.0977 57.0316 25.0309 56.7256 24.8975C56.4229 24.7607 56.1657 24.5719 55.9541 24.3311C55.7425 24.0869 55.5814 23.8021 55.4707 23.4766C55.36 23.151 55.3047 22.7979 55.3047 22.417ZM56.4814 22.3047V22.417C56.4814 22.6546 56.5059 22.8792 56.5547 23.0908C56.6035 23.3024 56.68 23.488 56.7842 23.6475C56.8883 23.807 57.0218 23.9323 57.1846 24.0234C57.3473 24.1146 57.541 24.1602 57.7656 24.1602C57.9837 24.1602 58.1725 24.1146 58.332 24.0234C58.4948 23.9323 58.6283 23.807 58.7324 23.6475C58.8366 23.488 58.9131 23.3024 58.9619 23.0908C59.014 22.8792 59.04 22.6546 59.04 22.417V22.3047C59.04 22.0703 59.014 21.849 58.9619 21.6406C58.9131 21.429 58.835 21.2419 58.7275 21.0791C58.6234 20.9163 58.4899 20.7894 58.3271 20.6982C58.1676 20.6038 57.9772 20.5566 57.7559 20.5566C57.5345 20.5566 57.3424 20.6038 57.1797 20.6982C57.0202 20.7894 56.8883 20.9163 56.7842 21.0791C56.68 21.2419 56.6035 21.429 56.5547 21.6406C56.5059 21.849 56.4814 22.0703 56.4814 22.3047ZM62.3848 20.7227V25H61.208V19.7168H62.3311L62.3848 20.7227ZM64.001 19.6826L63.9912 20.7764C63.9196 20.7633 63.8415 20.7536 63.7568 20.7471C63.6755 20.7406 63.5941 20.7373 63.5127 20.7373C63.3109 20.7373 63.1335 20.7666 62.9805 20.8252C62.8275 20.8805 62.6989 20.9619 62.5947 21.0693C62.4938 21.1735 62.4157 21.3005 62.3604 21.4502C62.305 21.5999 62.2725 21.7676 62.2627 21.9531L61.9941 21.9727C61.9941 21.6406 62.0267 21.333 62.0918 21.0498C62.1569 20.7666 62.2546 20.5176 62.3848 20.3027C62.5182 20.0879 62.6842 19.9202 62.8828 19.7998C63.0846 19.6794 63.3174 19.6191 63.5811 19.6191C63.6527 19.6191 63.7292 19.6257 63.8105 19.6387C63.8952 19.6517 63.9587 19.6663 64.001 19.6826ZM65.9053 20.8447V25H64.7285V19.7168H65.8369L65.9053 20.8447ZM65.6953 22.1631L65.3145 22.1582C65.3177 21.7839 65.3698 21.4404 65.4707 21.1279C65.5749 20.8154 65.7181 20.5469 65.9004 20.3223C66.0859 20.0977 66.3073 19.9251 66.5645 19.8047C66.8216 19.681 67.1081 19.6191 67.4238 19.6191C67.6777 19.6191 67.9072 19.6549 68.1123 19.7266C68.3206 19.7949 68.498 19.9072 68.6445 20.0635C68.7943 20.2197 68.9082 20.4232 68.9863 20.6738C69.0645 20.9212 69.1035 21.2256 69.1035 21.5869V25H67.9219V21.582C67.9219 21.3281 67.8844 21.1279 67.8096 20.9814C67.738 20.8317 67.6322 20.7259 67.4922 20.6641C67.3555 20.599 67.1846 20.5664 66.9795 20.5664C66.7777 20.5664 66.597 20.6087 66.4375 20.6934C66.278 20.778 66.1429 20.8936 66.0322 21.04C65.9248 21.1865 65.8418 21.3558 65.7832 21.5479C65.7246 21.7399 65.6953 21.945 65.6953 22.1631ZM73.2832 23.9404V21.4209C73.2832 21.2321 73.249 21.0693 73.1807 20.9326C73.1123 20.7959 73.0081 20.6901 72.8682 20.6152C72.7314 20.5404 72.5589 20.5029 72.3506 20.5029C72.1585 20.5029 71.9925 20.5355 71.8525 20.6006C71.7126 20.6657 71.6035 20.7536 71.5254 20.8643C71.4473 20.9749 71.4082 21.1003 71.4082 21.2402H70.2363C70.2363 21.0319 70.2868 20.8301 70.3877 20.6348C70.4886 20.4395 70.6351 20.2653 70.8271 20.1123C71.0192 19.9593 71.2487 19.8389 71.5156 19.751C71.7826 19.6631 72.082 19.6191 72.4141 19.6191C72.8112 19.6191 73.1628 19.6859 73.4688 19.8193C73.778 19.9528 74.0205 20.1546 74.1963 20.4248C74.3753 20.6917 74.4648 21.027 74.4648 21.4307V23.7793C74.4648 24.0202 74.4811 24.2367 74.5137 24.4287C74.5495 24.6175 74.5999 24.7819 74.665 24.9219V25H73.459C73.4036 24.873 73.3597 24.7119 73.3271 24.5166C73.2979 24.318 73.2832 24.126 73.2832 23.9404ZM73.4541 21.7871L73.4639 22.5146H72.6191C72.401 22.5146 72.209 22.5358 72.043 22.5781C71.877 22.6172 71.7386 22.6758 71.6279 22.7539C71.5173 22.832 71.4342 22.9264 71.3789 23.0371C71.3236 23.1478 71.2959 23.2731 71.2959 23.4131C71.2959 23.5531 71.3285 23.6816 71.3936 23.7988C71.4587 23.9128 71.5531 24.0023 71.6768 24.0674C71.8037 24.1325 71.9567 24.165 72.1357 24.165C72.3766 24.165 72.5866 24.1162 72.7656 24.0186C72.9479 23.9176 73.0911 23.7956 73.1953 23.6523C73.2995 23.5059 73.3548 23.3675 73.3613 23.2373L73.7422 23.7598C73.7031 23.8932 73.6364 24.0365 73.542 24.1895C73.4476 24.3424 73.3239 24.4889 73.1709 24.6289C73.0212 24.7656 72.8405 24.8779 72.6289 24.9658C72.4206 25.0537 72.1797 25.0977 71.9062 25.0977C71.5612 25.0977 71.2536 25.0293 70.9834 24.8926C70.7132 24.7526 70.5016 24.5654 70.3486 24.3311C70.1956 24.0934 70.1191 23.8249 70.1191 23.5254C70.1191 23.2454 70.1712 22.998 70.2754 22.7832C70.3828 22.5651 70.5391 22.3828 70.7441 22.2363C70.9525 22.0898 71.2064 21.9792 71.5059 21.9043C71.8053 21.8262 72.1471 21.7871 72.5312 21.7871H73.4541ZM71.8672 18.9697L72.8193 17.5H74.1475L72.8193 18.9697H71.8672Z" fill="white"/>
</svg>
