<svg width="420" height="28" viewBox="0 0 420 28" fill="none" xmlns="http://www.w3.org/2000/svg">
<line x1="4" y1="8" x2="84" y2="8" stroke="white" stroke-width="4"/>
<line x1="85" y1="2" x2="85" y2="14" stroke="white" stroke-width="4" stroke-linecap="round"/>
<line x1="168" y1="2" x2="168" y2="14" stroke="white" stroke-width="4" stroke-linecap="round"/>
<line x1="251" y1="2" x2="251" y2="14" stroke="white" stroke-width="4" stroke-linecap="round"/>
<line x1="334" y1="2" x2="334" y2="14" stroke="white" stroke-width="4" stroke-linecap="round"/>
<line x1="418" y1="2" x2="418" y2="14" stroke="white" stroke-width="4" stroke-linecap="round"/>
<line x1="2" y1="2" x2="2" y2="14" stroke="white" stroke-width="4" stroke-linecap="round"/>
<line x1="87" y1="8" x2="167" y2="8" stroke="white" stroke-width="4"/>
<line x1="253" y1="8" x2="333" y2="8" stroke="white" stroke-width="4"/>
<line x1="170" y1="8" x2="250" y2="8" stroke="white" stroke-width="4"/>
<line x1="336" y1="8" x2="416" y2="8" stroke="white" stroke-width="4"/>
<path d="M291.864 23.6816V25H286.718V23.6816H291.864ZM291.83 18.7695L287.567 25H286.327V24.0967L290.639 17.8906H291.83V18.7695ZM291.278 17.8906V19.2139H286.303V17.8906H291.278ZM294.306 17.5V25H292.655V17.5H294.306ZM298.065 23.6719V21.4941C298.065 21.3444 298.044 21.2158 298.002 21.1084C297.96 21.001 297.893 20.918 297.802 20.8594C297.711 20.7975 297.589 20.7666 297.436 20.7666C297.312 20.7666 297.206 20.7878 297.118 20.8301C297.03 20.8724 296.964 20.9359 296.918 21.0205C296.872 21.1051 296.85 21.2126 296.85 21.3428H295.204C295.204 21.0986 295.258 20.8724 295.365 20.6641C295.476 20.4525 295.632 20.2686 295.834 20.1123C296.039 19.9561 296.283 19.8356 296.566 19.751C296.853 19.6631 297.172 19.6191 297.523 19.6191C297.943 19.6191 298.318 19.6891 298.646 19.8291C298.979 19.9691 299.241 20.179 299.433 20.459C299.625 20.7357 299.721 21.084 299.721 21.5039V23.667C299.721 24.012 299.74 24.2741 299.779 24.4531C299.818 24.6289 299.874 24.7835 299.945 24.917V25H298.295C298.217 24.8372 298.158 24.6387 298.119 24.4043C298.083 24.1667 298.065 23.9225 298.065 23.6719ZM298.266 21.7725L298.275 22.6514H297.548C297.395 22.6514 297.265 22.6725 297.157 22.7148C297.053 22.7572 296.968 22.8158 296.903 22.8906C296.841 22.9622 296.796 23.0436 296.767 23.1348C296.741 23.2259 296.728 23.3219 296.728 23.4229C296.728 23.5205 296.75 23.6084 296.796 23.6865C296.845 23.7614 296.91 23.82 296.991 23.8623C297.073 23.9046 297.164 23.9258 297.265 23.9258C297.447 23.9258 297.602 23.8916 297.729 23.8232C297.859 23.7516 297.958 23.6654 298.026 23.5645C298.095 23.4635 298.129 23.3691 298.129 23.2812L298.49 23.9551C298.425 24.0853 298.35 24.2171 298.266 24.3506C298.184 24.484 298.082 24.6077 297.958 24.7217C297.838 24.8324 297.689 24.9235 297.514 24.9951C297.338 25.0635 297.125 25.0977 296.874 25.0977C296.549 25.0977 296.249 25.0309 295.976 24.8975C295.705 24.764 295.489 24.5785 295.326 24.3408C295.163 24.0999 295.082 23.8232 295.082 23.5107C295.082 23.2373 295.131 22.9932 295.229 22.7783C295.329 22.5635 295.481 22.3812 295.683 22.2314C295.884 22.0817 296.142 21.9678 296.454 21.8896C296.767 21.8115 297.134 21.7725 297.558 21.7725H298.266ZM296.718 19.0332L297.685 17.5H299.423L298.061 19.0332H296.718Z" fill="white"/>
<path d="M190.379 22.5879H188.611V21.2646H190.379C190.62 21.2646 190.815 21.224 190.965 21.1426C191.115 21.0612 191.224 20.9489 191.292 20.8057C191.364 20.6592 191.399 20.4948 191.399 20.3125C191.399 20.1172 191.364 19.9365 191.292 19.7705C191.224 19.6045 191.115 19.471 190.965 19.3701C190.815 19.266 190.62 19.2139 190.379 19.2139H189.256V25H187.542V17.8906H190.379C190.949 17.8906 191.438 17.9948 191.849 18.2031C192.262 18.4115 192.579 18.6979 192.801 19.0625C193.022 19.4238 193.133 19.8372 193.133 20.3027C193.133 20.7617 193.022 21.1621 192.801 21.5039C192.579 21.8457 192.262 22.1126 191.849 22.3047C191.438 22.4935 190.949 22.5879 190.379 22.5879ZM195.638 21.0254V25H193.992V19.7168H195.53L195.638 21.0254ZM197.2 19.6777L197.171 21.2061C197.106 21.1995 197.018 21.1914 196.907 21.1816C196.797 21.1719 196.704 21.167 196.629 21.167C196.437 21.167 196.271 21.1898 196.131 21.2354C195.994 21.2777 195.88 21.3428 195.789 21.4307C195.701 21.5153 195.636 21.6227 195.594 21.7529C195.555 21.8831 195.537 22.0345 195.54 22.207L195.242 22.0117C195.242 21.6569 195.276 21.3346 195.345 21.0449C195.416 20.752 195.517 20.4997 195.647 20.2881C195.778 20.0732 195.936 19.9089 196.121 19.7949C196.307 19.6777 196.515 19.6191 196.746 19.6191C196.827 19.6191 196.907 19.624 196.985 19.6338C197.067 19.6436 197.138 19.6582 197.2 19.6777ZM199.505 19.7168V25H197.854V19.7168H199.505ZM197.757 18.3545C197.757 18.1201 197.841 17.9281 198.011 17.7783C198.18 17.6286 198.4 17.5537 198.67 17.5537C198.94 17.5537 199.16 17.6286 199.329 17.7783C199.498 17.9281 199.583 18.1201 199.583 18.3545C199.583 18.5889 199.498 18.7809 199.329 18.9307C199.16 19.0804 198.94 19.1553 198.67 19.1553C198.4 19.1553 198.18 19.0804 198.011 18.9307C197.841 18.7809 197.757 18.5889 197.757 18.3545ZM203.079 25.0977C202.649 25.0977 202.265 25.0309 201.927 24.8975C201.588 24.7607 201.302 24.5736 201.067 24.3359C200.836 24.0983 200.659 23.8249 200.535 23.5156C200.415 23.2064 200.354 22.8792 200.354 22.5342V22.3486C200.354 21.9613 200.408 21.6032 200.516 21.2744C200.623 20.9424 200.783 20.6527 200.994 20.4053C201.206 20.1579 201.471 19.9658 201.79 19.8291C202.109 19.6891 202.48 19.6191 202.903 19.6191C203.278 19.6191 203.613 19.6794 203.909 19.7998C204.205 19.9202 204.456 20.0928 204.661 20.3174C204.869 20.542 205.027 20.8138 205.135 21.1328C205.245 21.4518 205.301 21.8099 205.301 22.207V22.876H200.984V21.8457H203.694V21.7188C203.698 21.543 203.667 21.3932 203.602 21.2695C203.54 21.1458 203.449 21.0514 203.328 20.9863C203.208 20.9212 203.061 20.8887 202.889 20.8887C202.71 20.8887 202.562 20.9277 202.444 21.0059C202.33 21.084 202.241 21.1914 202.176 21.3281C202.114 21.4616 202.07 21.6162 202.044 21.792C202.018 21.9678 202.005 22.1533 202.005 22.3486V22.5342C202.005 22.7295 202.031 22.9069 202.083 23.0664C202.138 23.2259 202.216 23.3626 202.317 23.4766C202.422 23.5872 202.545 23.6735 202.688 23.7354C202.835 23.7972 203.001 23.8281 203.187 23.8281C203.411 23.8281 203.632 23.7858 203.851 23.7012C204.069 23.6165 204.256 23.4766 204.412 23.2812L205.159 24.1699C205.052 24.3229 204.899 24.471 204.7 24.6143C204.505 24.7575 204.271 24.8747 203.997 24.9658C203.724 25.0537 203.418 25.0977 203.079 25.0977ZM207.63 20.835V25H205.984V19.7168H207.527L207.63 20.835ZM207.43 22.1777L207.054 22.1875C207.054 21.8164 207.098 21.4746 207.186 21.1621C207.273 20.8496 207.404 20.5778 207.576 20.3467C207.749 20.1156 207.96 19.9365 208.211 19.8096C208.465 19.6826 208.758 19.6191 209.09 19.6191C209.321 19.6191 209.531 19.6549 209.72 19.7266C209.909 19.7949 210.071 19.904 210.208 20.0537C210.345 20.2002 210.449 20.3923 210.521 20.6299C210.595 20.8643 210.633 21.1458 210.633 21.4746V25H208.987V21.6846C208.987 21.46 208.961 21.2907 208.909 21.1768C208.86 21.0628 208.789 20.9863 208.694 20.9473C208.6 20.9082 208.484 20.8887 208.348 20.8887C208.204 20.8887 208.076 20.9212 207.962 20.9863C207.848 21.0514 207.75 21.1426 207.669 21.2598C207.591 21.3737 207.531 21.5088 207.488 21.665C207.449 21.8213 207.43 21.9922 207.43 22.1777ZM210.447 22.1777L209.988 22.1875C209.988 21.8164 210.029 21.4746 210.11 21.1621C210.195 20.8496 210.32 20.5778 210.486 20.3467C210.656 20.1156 210.866 19.9365 211.116 19.8096C211.367 19.6826 211.658 19.6191 211.99 19.6191C212.231 19.6191 212.452 19.6549 212.654 19.7266C212.856 19.7982 213.03 19.9137 213.177 20.0732C213.323 20.2327 213.437 20.4443 213.519 20.708C213.6 20.9684 213.641 21.2907 213.641 21.6748V25H211.99V21.6748C211.99 21.4567 211.964 21.2923 211.912 21.1816C211.863 21.0677 211.792 20.9912 211.697 20.9521C211.603 20.9098 211.491 20.8887 211.36 20.8887C211.204 20.8887 211.069 20.9212 210.955 20.9863C210.841 21.0514 210.745 21.1426 210.667 21.2598C210.592 21.3737 210.537 21.5088 210.501 21.665C210.465 21.8213 210.447 21.9922 210.447 22.1777ZM217.142 25.0977C216.712 25.0977 216.328 25.0309 215.989 24.8975C215.651 24.7607 215.364 24.5736 215.13 24.3359C214.899 24.0983 214.721 23.8249 214.598 23.5156C214.477 23.2064 214.417 22.8792 214.417 22.5342V22.3486C214.417 21.9613 214.471 21.6032 214.578 21.2744C214.686 20.9424 214.845 20.6527 215.057 20.4053C215.268 20.1579 215.534 19.9658 215.853 19.8291C216.172 19.6891 216.543 19.6191 216.966 19.6191C217.34 19.6191 217.675 19.6794 217.972 19.7998C218.268 19.9202 218.519 20.0928 218.724 20.3174C218.932 20.542 219.09 20.8138 219.197 21.1328C219.308 21.4518 219.363 21.8099 219.363 22.207V22.876H215.047V21.8457H217.757V21.7188C217.76 21.543 217.729 21.3932 217.664 21.2695C217.602 21.1458 217.511 21.0514 217.391 20.9863C217.27 20.9212 217.124 20.8887 216.951 20.8887C216.772 20.8887 216.624 20.9277 216.507 21.0059C216.393 21.084 216.303 21.1914 216.238 21.3281C216.176 21.4616 216.132 21.6162 216.106 21.792C216.08 21.9678 216.067 22.1533 216.067 22.3486V22.5342C216.067 22.7295 216.093 22.9069 216.146 23.0664C216.201 23.2259 216.279 23.3626 216.38 23.4766C216.484 23.5872 216.608 23.6735 216.751 23.7354C216.897 23.7972 217.063 23.8281 217.249 23.8281C217.474 23.8281 217.695 23.7858 217.913 23.7012C218.131 23.6165 218.318 23.4766 218.475 23.2812L219.222 24.1699C219.114 24.3229 218.961 24.471 218.763 24.6143C218.567 24.7575 218.333 24.8747 218.06 24.9658C217.786 25.0537 217.48 25.0977 217.142 25.0977ZM221.692 21.0254V25H220.047V19.7168H221.585L221.692 21.0254ZM223.255 19.6777L223.226 21.2061C223.16 21.1995 223.073 21.1914 222.962 21.1816C222.851 21.1719 222.758 21.167 222.684 21.167C222.492 21.167 222.326 21.1898 222.186 21.2354C222.049 21.2777 221.935 21.3428 221.844 21.4307C221.756 21.5153 221.691 21.6227 221.648 21.7529C221.609 21.8831 221.591 22.0345 221.595 22.207L221.297 22.0117C221.297 21.6569 221.331 21.3346 221.399 21.0449C221.471 20.752 221.572 20.4997 221.702 20.2881C221.832 20.0732 221.99 19.9089 222.176 19.7949C222.361 19.6777 222.57 19.6191 222.801 19.6191C222.882 19.6191 222.962 19.624 223.04 19.6338C223.121 19.6436 223.193 19.6582 223.255 19.6777ZM225.438 20.8447V25H223.792V19.7168H225.335L225.438 20.8447ZM225.242 22.1777L224.856 22.1875C224.856 21.7839 224.905 21.4242 225.003 21.1084C225.101 20.7894 225.239 20.5192 225.418 20.2979C225.597 20.0765 225.81 19.9089 226.058 19.7949C226.308 19.6777 226.587 19.6191 226.893 19.6191C227.137 19.6191 227.36 19.6549 227.562 19.7266C227.767 19.7982 227.942 19.9137 228.089 20.0732C228.239 20.2327 228.353 20.4443 228.431 20.708C228.512 20.9684 228.553 21.2907 228.553 21.6748V25H226.897V21.6699C226.897 21.4583 226.868 21.2972 226.81 21.1865C226.751 21.0726 226.666 20.9945 226.556 20.9521C226.445 20.9098 226.31 20.8887 226.15 20.8887C225.981 20.8887 225.838 20.9212 225.721 20.9863C225.604 21.0514 225.509 21.1426 225.438 21.2598C225.369 21.3737 225.319 21.5088 225.286 21.665C225.257 21.8213 225.242 21.9922 225.242 22.1777ZM232.21 23.6719V21.4941C232.21 21.3444 232.189 21.2158 232.146 21.1084C232.104 21.001 232.037 20.918 231.946 20.8594C231.855 20.7975 231.733 20.7666 231.58 20.7666C231.456 20.7666 231.351 20.7878 231.263 20.8301C231.175 20.8724 231.108 20.9359 231.062 21.0205C231.017 21.1051 230.994 21.2126 230.994 21.3428H229.349C229.349 21.0986 229.402 20.8724 229.51 20.6641C229.62 20.4525 229.777 20.2686 229.979 20.1123C230.184 19.9561 230.428 19.8356 230.711 19.751C230.997 19.6631 231.316 19.6191 231.668 19.6191C232.088 19.6191 232.462 19.6891 232.791 19.8291C233.123 19.9691 233.385 20.179 233.577 20.459C233.769 20.7357 233.865 21.084 233.865 21.5039V23.667C233.865 24.012 233.885 24.2741 233.924 24.4531C233.963 24.6289 234.018 24.7835 234.09 24.917V25H232.439C232.361 24.8372 232.303 24.6387 232.264 24.4043C232.228 24.1667 232.21 23.9225 232.21 23.6719ZM232.41 21.7725L232.42 22.6514H231.692C231.539 22.6514 231.409 22.6725 231.302 22.7148C231.198 22.7572 231.113 22.8158 231.048 22.8906C230.986 22.9622 230.94 23.0436 230.911 23.1348C230.885 23.2259 230.872 23.3219 230.872 23.4229C230.872 23.5205 230.895 23.6084 230.94 23.6865C230.989 23.7614 231.054 23.82 231.136 23.8623C231.217 23.9046 231.308 23.9258 231.409 23.9258C231.591 23.9258 231.746 23.8916 231.873 23.8232C232.003 23.7516 232.103 23.6654 232.171 23.5645C232.239 23.4635 232.273 23.3691 232.273 23.2812L232.635 23.9551C232.57 24.0853 232.495 24.2171 232.41 24.3506C232.329 24.484 232.226 24.6077 232.103 24.7217C231.982 24.8324 231.834 24.9235 231.658 24.9951C231.482 25.0635 231.269 25.0977 231.019 25.0977C230.693 25.0977 230.394 25.0309 230.12 24.8975C229.85 24.764 229.633 24.5785 229.471 24.3408C229.308 24.0999 229.227 23.8232 229.227 23.5107C229.227 23.2373 229.275 22.9932 229.373 22.7783C229.474 22.5635 229.625 22.3812 229.827 22.2314C230.029 22.0817 230.286 21.9678 230.599 21.8896C230.911 21.8115 231.279 21.7725 231.702 21.7725H232.41ZM230.862 19.0332L231.829 17.5H233.567L232.205 19.0332H230.862Z" fill="white"/>
<path d="M117.852 25H116.274L116.284 23.6816H117.852C118.177 23.6816 118.452 23.6035 118.677 23.4473C118.905 23.291 119.077 23.0583 119.194 22.749C119.315 22.4365 119.375 22.0524 119.375 21.5967V21.2891C119.375 20.9473 119.341 20.6478 119.272 20.3906C119.207 20.1302 119.11 19.9137 118.979 19.7412C118.849 19.5654 118.687 19.4336 118.491 19.3457C118.299 19.2578 118.078 19.2139 117.827 19.2139H116.245V17.8906H117.827C118.309 17.8906 118.75 17.9736 119.15 18.1396C119.554 18.3024 119.902 18.5368 120.195 18.8428C120.492 19.1455 120.719 19.5052 120.879 19.9219C121.042 20.3353 121.123 20.7943 121.123 21.2988V21.5967C121.123 22.098 121.042 22.557 120.879 22.9736C120.719 23.3903 120.493 23.75 120.2 24.0527C119.907 24.3555 119.561 24.5898 119.16 24.7559C118.763 24.9186 118.327 25 117.852 25ZM117.256 17.8906V25H115.542V17.8906H117.256ZM121.733 22.4121V22.3096C121.733 21.9222 121.789 21.5658 121.899 21.2402C122.01 20.9115 122.173 20.6266 122.388 20.3857C122.603 20.1449 122.868 19.9577 123.184 19.8242C123.499 19.6875 123.864 19.6191 124.277 19.6191C124.694 19.6191 125.06 19.6875 125.376 19.8242C125.695 19.9577 125.962 20.1449 126.177 20.3857C126.392 20.6266 126.554 20.9115 126.665 21.2402C126.776 21.5658 126.831 21.9222 126.831 22.3096V22.4121C126.831 22.7962 126.776 23.1527 126.665 23.4814C126.554 23.807 126.392 24.0918 126.177 24.3359C125.962 24.5768 125.697 24.764 125.381 24.8975C125.065 25.0309 124.701 25.0977 124.287 25.0977C123.874 25.0977 123.507 25.0309 123.188 24.8975C122.869 24.764 122.603 24.5768 122.388 24.3359C122.173 24.0918 122.01 23.807 121.899 23.4814C121.789 23.1527 121.733 22.7962 121.733 22.4121ZM123.379 22.3096V22.4121C123.379 22.6107 123.394 22.7962 123.423 22.9688C123.452 23.1413 123.501 23.2926 123.569 23.4229C123.638 23.5498 123.73 23.6491 123.848 23.7207C123.965 23.7923 124.111 23.8281 124.287 23.8281C124.46 23.8281 124.603 23.7923 124.717 23.7207C124.834 23.6491 124.927 23.5498 124.995 23.4229C125.063 23.2926 125.112 23.1413 125.142 22.9688C125.171 22.7962 125.186 22.6107 125.186 22.4121V22.3096C125.186 22.1175 125.171 21.9368 125.142 21.7676C125.112 21.5951 125.063 21.4437 124.995 21.3135C124.927 21.18 124.834 21.0758 124.717 21.001C124.6 20.9261 124.453 20.8887 124.277 20.8887C124.105 20.8887 123.96 20.9261 123.843 21.001C123.729 21.0758 123.638 21.18 123.569 21.3135C123.501 21.4437 123.452 21.5951 123.423 21.7676C123.394 21.9368 123.379 22.1175 123.379 22.3096ZM127.578 17.5H129.224V23.7012L129.053 25H127.578V17.5ZM132.466 22.2998V22.4023C132.466 22.8027 132.425 23.1673 132.344 23.4961C132.262 23.8249 132.137 24.1097 131.968 24.3506C131.799 24.5882 131.585 24.7721 131.328 24.9023C131.071 25.0326 130.767 25.0977 130.415 25.0977C130.096 25.0977 129.823 25.0293 129.595 24.8926C129.367 24.7526 129.176 24.5605 129.023 24.3164C128.87 24.069 128.747 23.7842 128.652 23.4619C128.558 23.1364 128.483 22.7881 128.428 22.417V22.2949C128.483 21.9271 128.558 21.582 128.652 21.2598C128.747 20.9342 128.87 20.6494 129.023 20.4053C129.176 20.1579 129.365 19.9658 129.59 19.8291C129.818 19.6891 130.09 19.6191 130.405 19.6191C130.76 19.6191 131.066 19.6859 131.323 19.8193C131.584 19.9528 131.799 20.14 131.968 20.3809C132.137 20.6217 132.262 20.9049 132.344 21.2305C132.425 21.556 132.466 21.9124 132.466 22.2998ZM130.82 22.4023V22.2998C130.82 22.1077 130.809 21.9271 130.786 21.7578C130.763 21.5885 130.723 21.4388 130.664 21.3086C130.605 21.1784 130.522 21.0758 130.415 21.001C130.308 20.9261 130.168 20.8887 129.995 20.8887C129.819 20.8887 129.671 20.918 129.551 20.9766C129.434 21.0352 129.339 21.1198 129.268 21.2305C129.199 21.3379 129.15 21.4714 129.121 21.6309C129.092 21.7871 129.079 21.9645 129.082 22.1631V22.5488C129.076 22.819 129.1 23.0501 129.155 23.2422C129.211 23.4342 129.307 23.5807 129.443 23.6816C129.58 23.7826 129.767 23.833 130.005 23.833C130.181 23.833 130.322 23.7988 130.43 23.7305C130.54 23.6621 130.623 23.5645 130.679 23.4375C130.734 23.3105 130.771 23.1592 130.791 22.9834C130.811 22.8076 130.82 22.6139 130.82 22.4023ZM134.858 21.0254V25H133.213V19.7168H134.751L134.858 21.0254ZM136.421 19.6777L136.392 21.2061C136.326 21.1995 136.239 21.1914 136.128 21.1816C136.017 21.1719 135.924 21.167 135.85 21.167C135.658 21.167 135.492 21.1898 135.352 21.2354C135.215 21.2777 135.101 21.3428 135.01 21.4307C134.922 21.5153 134.857 21.6227 134.814 21.7529C134.775 21.8831 134.757 22.0345 134.761 22.207L134.463 22.0117C134.463 21.6569 134.497 21.3346 134.565 21.0449C134.637 20.752 134.738 20.4997 134.868 20.2881C134.998 20.0732 135.156 19.9089 135.342 19.7949C135.527 19.6777 135.736 19.6191 135.967 19.6191C136.048 19.6191 136.128 19.624 136.206 19.6338C136.287 19.6436 136.359 19.6582 136.421 19.6777ZM139.585 23.6719V21.4941C139.585 21.3444 139.564 21.2158 139.521 21.1084C139.479 21.001 139.412 20.918 139.321 20.8594C139.23 20.7975 139.108 20.7666 138.955 20.7666C138.831 20.7666 138.726 20.7878 138.638 20.8301C138.55 20.8724 138.483 20.9359 138.438 21.0205C138.392 21.1051 138.369 21.2126 138.369 21.3428H136.724C136.724 21.0986 136.777 20.8724 136.885 20.6641C136.995 20.4525 137.152 20.2686 137.354 20.1123C137.559 19.9561 137.803 19.8356 138.086 19.751C138.372 19.6631 138.691 19.6191 139.043 19.6191C139.463 19.6191 139.837 19.6891 140.166 19.8291C140.498 19.9691 140.76 20.179 140.952 20.459C141.144 20.7357 141.24 21.084 141.24 21.5039V23.667C141.24 24.012 141.26 24.2741 141.299 24.4531C141.338 24.6289 141.393 24.7835 141.465 24.917V25H139.814C139.736 24.8372 139.678 24.6387 139.639 24.4043C139.603 24.1667 139.585 23.9225 139.585 23.6719ZM139.785 21.7725L139.795 22.6514H139.067C138.914 22.6514 138.784 22.6725 138.677 22.7148C138.573 22.7572 138.488 22.8158 138.423 22.8906C138.361 22.9622 138.315 23.0436 138.286 23.1348C138.26 23.2259 138.247 23.3219 138.247 23.4229C138.247 23.5205 138.27 23.6084 138.315 23.6865C138.364 23.7614 138.429 23.82 138.511 23.8623C138.592 23.9046 138.683 23.9258 138.784 23.9258C138.966 23.9258 139.121 23.8916 139.248 23.8232C139.378 23.7516 139.478 23.6654 139.546 23.5645C139.614 23.4635 139.648 23.3691 139.648 23.2812L140.01 23.9551C139.945 24.0853 139.87 24.2171 139.785 24.3506C139.704 24.484 139.601 24.6077 139.478 24.7217C139.357 24.8324 139.209 24.9235 139.033 24.9951C138.857 25.0635 138.644 25.0977 138.394 25.0977C138.068 25.0977 137.769 25.0309 137.495 24.8975C137.225 24.764 137.008 24.5785 136.846 24.3408C136.683 24.0999 136.602 23.8232 136.602 23.5107C136.602 23.2373 136.65 22.9932 136.748 22.7783C136.849 22.5635 137 22.3812 137.202 22.2314C137.404 22.0817 137.661 21.9678 137.974 21.8896C138.286 21.8115 138.654 21.7725 139.077 21.7725H139.785ZM138.237 19.0332L139.204 17.5H140.942L139.58 19.0332H138.237Z" fill="white"/>
<path d="M358.232 24.3252L359.712 18.8906H361.631L359.233 26H357.993L358.232 24.3252ZM356.89 18.8906L358.369 24.3252L358.618 26H357.363L354.98 18.8906H356.89ZM364.419 26.0977C363.989 26.0977 363.605 26.0309 363.267 25.8975C362.928 25.7607 362.642 25.5736 362.407 25.3359C362.176 25.0983 361.999 24.8249 361.875 24.5156C361.755 24.2064 361.694 23.8792 361.694 23.5342V23.3486C361.694 22.9613 361.748 22.6032 361.855 22.2744C361.963 21.9424 362.122 21.6527 362.334 21.4053C362.546 21.1579 362.811 20.9658 363.13 20.8291C363.449 20.6891 363.82 20.6191 364.243 20.6191C364.618 20.6191 364.953 20.6794 365.249 20.7998C365.545 20.9202 365.796 21.0928 366.001 21.3174C366.209 21.542 366.367 21.8138 366.475 22.1328C366.585 22.4518 366.641 22.8099 366.641 23.207V23.876H362.324V22.8457H365.034V22.7188C365.037 22.543 365.007 22.3932 364.941 22.2695C364.88 22.1458 364.788 22.0514 364.668 21.9863C364.548 21.9212 364.401 21.8887 364.229 21.8887C364.049 21.8887 363.901 21.9277 363.784 22.0059C363.67 22.084 363.581 22.1914 363.516 22.3281C363.454 22.4616 363.41 22.6162 363.384 22.792C363.358 22.9678 363.345 23.1533 363.345 23.3486V23.5342C363.345 23.7295 363.371 23.9069 363.423 24.0664C363.478 24.2259 363.556 24.3626 363.657 24.4766C363.761 24.5872 363.885 24.6735 364.028 24.7354C364.175 24.7972 364.341 24.8281 364.526 24.8281C364.751 24.8281 364.972 24.7858 365.19 24.7012C365.409 24.6165 365.596 24.4766 365.752 24.2812L366.499 25.1699C366.392 25.3229 366.239 25.471 366.04 25.6143C365.845 25.7575 365.61 25.8747 365.337 25.9658C365.063 26.0537 364.757 26.0977 364.419 26.0977ZM369.048 18.5V26H367.397V18.5H369.048ZM370.874 18.4951V18.832C370.874 19.1576 370.802 19.4831 370.659 19.8086C370.519 20.1309 370.36 20.3945 370.181 20.5996L369.404 20.209C369.512 20.0365 369.6 19.8542 369.668 19.6621C369.74 19.4668 369.775 19.221 369.775 18.9248V18.4951H370.874ZM372.456 21.835V26H370.811V20.7168H372.354L372.456 21.835ZM372.256 23.1777L371.88 23.1875C371.88 22.8164 371.924 22.4746 372.012 22.1621C372.1 21.8496 372.23 21.5778 372.402 21.3467C372.575 21.1156 372.786 20.9365 373.037 20.8096C373.291 20.6826 373.584 20.6191 373.916 20.6191C374.147 20.6191 374.357 20.6549 374.546 20.7266C374.735 20.7949 374.897 20.904 375.034 21.0537C375.171 21.2002 375.275 21.3923 375.347 21.6299C375.422 21.8643 375.459 22.1458 375.459 22.4746V26H373.813V22.6846C373.813 22.46 373.787 22.2907 373.735 22.1768C373.687 22.0628 373.615 21.9863 373.521 21.9473C373.426 21.9082 373.311 21.8887 373.174 21.8887C373.031 21.8887 372.902 21.9212 372.788 21.9863C372.674 22.0514 372.576 22.1426 372.495 22.2598C372.417 22.3737 372.357 22.5088 372.314 22.665C372.275 22.8213 372.256 22.9922 372.256 23.1777ZM375.273 23.1777L374.814 23.1875C374.814 22.8164 374.855 22.4746 374.937 22.1621C375.021 21.8496 375.146 21.5778 375.312 21.3467C375.482 21.1156 375.692 20.9365 375.942 20.8096C376.193 20.6826 376.484 20.6191 376.816 20.6191C377.057 20.6191 377.279 20.6549 377.48 20.7266C377.682 20.7982 377.856 20.9137 378.003 21.0732C378.149 21.2327 378.263 21.4443 378.345 21.708C378.426 21.9684 378.467 22.2907 378.467 22.6748V26H376.816V22.6748C376.816 22.4567 376.79 22.2923 376.738 22.1816C376.689 22.0677 376.618 21.9912 376.523 21.9521C376.429 21.9098 376.317 21.8887 376.187 21.8887C376.03 21.8887 375.895 21.9212 375.781 21.9863C375.667 22.0514 375.571 22.1426 375.493 22.2598C375.418 22.3737 375.363 22.5088 375.327 22.665C375.291 22.8213 375.273 22.9922 375.273 23.1777ZM381.147 20.7168V26H379.497V20.7168H381.147ZM379.399 19.3545C379.399 19.1201 379.484 18.9281 379.653 18.7783C379.823 18.6286 380.042 18.5537 380.312 18.5537C380.583 18.5537 380.802 18.6286 380.972 18.7783C381.141 18.9281 381.226 19.1201 381.226 19.3545C381.226 19.5889 381.141 19.7809 380.972 19.9307C380.802 20.0804 380.583 20.1553 380.312 20.1553C380.042 20.1553 379.823 20.0804 379.653 19.9307C379.484 19.7809 379.399 19.5889 379.399 19.3545ZM388.999 24.7305V26H384.907V24.7305H388.999ZM388.95 21.6055L385.645 26H384.517V25.082L387.817 20.7168H388.95V21.6055ZM388.408 20.7168V21.9863H384.614V20.7168H388.408ZM391.548 18.5V26H389.897V18.5H391.548ZM395.308 24.6719V22.4941C395.308 22.3444 395.286 22.2158 395.244 22.1084C395.202 22.001 395.135 21.918 395.044 21.8594C394.953 21.7975 394.831 21.7666 394.678 21.7666C394.554 21.7666 394.448 21.7878 394.36 21.8301C394.272 21.8724 394.206 21.9359 394.16 22.0205C394.115 22.1051 394.092 22.2126 394.092 22.3428H392.446C392.446 22.0986 392.5 21.8724 392.607 21.6641C392.718 21.4525 392.874 21.2686 393.076 21.1123C393.281 20.9561 393.525 20.8356 393.809 20.751C394.095 20.6631 394.414 20.6191 394.766 20.6191C395.186 20.6191 395.56 20.6891 395.889 20.8291C396.221 20.9691 396.483 21.179 396.675 21.459C396.867 21.7357 396.963 22.084 396.963 22.5039V24.667C396.963 25.012 396.982 25.2741 397.021 25.4531C397.061 25.6289 397.116 25.7835 397.188 25.917V26H395.537C395.459 25.8372 395.4 25.6387 395.361 25.4043C395.326 25.1667 395.308 24.9225 395.308 24.6719ZM395.508 22.7725L395.518 23.6514H394.79C394.637 23.6514 394.507 23.6725 394.399 23.7148C394.295 23.7572 394.211 23.8158 394.146 23.8906C394.084 23.9622 394.038 24.0436 394.009 24.1348C393.983 24.2259 393.97 24.3219 393.97 24.4229C393.97 24.5205 393.993 24.6084 394.038 24.6865C394.087 24.7614 394.152 24.82 394.233 24.8623C394.315 24.9046 394.406 24.9258 394.507 24.9258C394.689 24.9258 394.844 24.8916 394.971 24.8232C395.101 24.7516 395.2 24.6654 395.269 24.5645C395.337 24.4635 395.371 24.3691 395.371 24.2812L395.732 24.9551C395.667 25.0853 395.592 25.2171 395.508 25.3506C395.426 25.484 395.324 25.6077 395.2 25.7217C395.08 25.8324 394.932 25.9235 394.756 25.9951C394.58 26.0635 394.367 26.0977 394.116 26.0977C393.791 26.0977 393.491 26.0309 393.218 25.8975C392.948 25.764 392.731 25.5785 392.568 25.3408C392.406 25.0999 392.324 24.8232 392.324 24.5107C392.324 24.2373 392.373 23.9932 392.471 23.7783C392.572 23.5635 392.723 23.3812 392.925 23.2314C393.127 23.0817 393.384 22.9678 393.696 22.8896C394.009 22.8115 394.377 22.7725 394.8 22.7725H395.508ZM393.96 20.0332L394.927 18.5H396.665L395.303 20.0332H393.96Z" fill="white"/>
<path d="M28.2324 23.3252L29.7119 17.8906H31.6309L29.2334 25H27.9932L28.2324 23.3252ZM26.8896 17.8906L28.3691 23.3252L28.6182 25H27.3633L24.9805 17.8906H26.8896ZM33.6377 24.3799L35.0049 19.7168H36.7725L34.6484 25.7861C34.6029 25.9196 34.5426 26.0628 34.4678 26.2158C34.3929 26.3721 34.2904 26.5202 34.1602 26.6602C34.0299 26.8001 33.8623 26.9141 33.6572 27.002C33.4554 27.0898 33.2048 27.1338 32.9053 27.1338C32.7458 27.1338 32.6286 27.1257 32.5537 27.1094C32.4821 27.0964 32.3714 27.0719 32.2217 27.0361V25.8594C32.264 25.8594 32.2998 25.8594 32.3291 25.8594C32.3617 25.8594 32.3975 25.8594 32.4365 25.8594C32.6123 25.8594 32.7523 25.8415 32.8564 25.8057C32.9639 25.7699 33.0452 25.7178 33.1006 25.6494C33.1592 25.5811 33.2048 25.498 33.2373 25.4004L33.6377 24.3799ZM33.291 19.7168L34.3311 23.4131L34.5117 25.1562H33.4082L31.5283 19.7168H33.291ZM33.374 19.0332L34.3408 17.5H36.0791L34.7168 19.0332H33.374ZM37.2168 17.5H38.8623V23.7012L38.6914 25H37.2168V17.5ZM42.1045 22.2998V22.4023C42.1045 22.8027 42.0638 23.1673 41.9824 23.4961C41.901 23.8249 41.7757 24.1097 41.6064 24.3506C41.4372 24.5882 41.224 24.7721 40.9668 24.9023C40.7096 25.0326 40.4053 25.0977 40.0537 25.0977C39.7347 25.0977 39.4613 25.0293 39.2334 24.8926C39.0055 24.7526 38.8151 24.5605 38.6621 24.3164C38.5091 24.069 38.3854 23.7842 38.291 23.4619C38.1966 23.1364 38.1217 22.7881 38.0664 22.417V22.2949C38.1217 21.9271 38.1966 21.582 38.291 21.2598C38.3854 20.9342 38.5091 20.6494 38.6621 20.4053C38.8151 20.1579 39.0039 19.9658 39.2285 19.8291C39.4564 19.6891 39.7282 19.6191 40.0439 19.6191C40.3988 19.6191 40.7048 19.6859 40.9619 19.8193C41.2223 19.9528 41.4372 20.14 41.6064 20.3809C41.7757 20.6217 41.901 20.9049 41.9824 21.2305C42.0638 21.556 42.1045 21.9124 42.1045 22.2998ZM40.459 22.4023V22.2998C40.459 22.1077 40.4476 21.9271 40.4248 21.7578C40.402 21.5885 40.3613 21.4388 40.3027 21.3086C40.2441 21.1784 40.1611 21.0758 40.0537 21.001C39.9463 20.9261 39.8063 20.8887 39.6338 20.8887C39.458 20.8887 39.3099 20.918 39.1895 20.9766C39.0723 21.0352 38.9779 21.1198 38.9062 21.2305C38.8379 21.3379 38.7891 21.4714 38.7598 21.6309C38.7305 21.7871 38.7174 21.9645 38.7207 22.1631V22.5488C38.7142 22.819 38.7386 23.0501 38.7939 23.2422C38.8493 23.4342 38.9453 23.5807 39.082 23.6816C39.2188 23.7826 39.4059 23.833 39.6436 23.833C39.8193 23.833 39.9609 23.7988 40.0684 23.7305C40.179 23.6621 40.262 23.5645 40.3174 23.4375C40.3727 23.3105 40.4102 23.1592 40.4297 22.9834C40.4492 22.8076 40.459 22.6139 40.459 22.4023ZM42.6318 22.4121V22.3096C42.6318 21.9222 42.6872 21.5658 42.7979 21.2402C42.9085 20.9115 43.0713 20.6266 43.2861 20.3857C43.501 20.1449 43.7663 19.9577 44.082 19.8242C44.3978 19.6875 44.7624 19.6191 45.1758 19.6191C45.5924 19.6191 45.9587 19.6875 46.2744 19.8242C46.5934 19.9577 46.8604 20.1449 47.0752 20.3857C47.29 20.6266 47.4528 20.9115 47.5635 21.2402C47.6742 21.5658 47.7295 21.9222 47.7295 22.3096V22.4121C47.7295 22.7962 47.6742 23.1527 47.5635 23.4814C47.4528 23.807 47.29 24.0918 47.0752 24.3359C46.8604 24.5768 46.5951 24.764 46.2793 24.8975C45.9635 25.0309 45.599 25.0977 45.1855 25.0977C44.7721 25.0977 44.4059 25.0309 44.0869 24.8975C43.7679 24.764 43.501 24.5768 43.2861 24.3359C43.0713 24.0918 42.9085 23.807 42.7979 23.4814C42.6872 23.1527 42.6318 22.7962 42.6318 22.4121ZM44.2773 22.3096V22.4121C44.2773 22.6107 44.292 22.7962 44.3213 22.9688C44.3506 23.1413 44.3994 23.2926 44.4678 23.4229C44.5361 23.5498 44.6289 23.6491 44.7461 23.7207C44.8633 23.7923 45.0098 23.8281 45.1855 23.8281C45.3581 23.8281 45.5013 23.7923 45.6152 23.7207C45.7324 23.6491 45.8252 23.5498 45.8936 23.4229C45.9619 23.2926 46.0107 23.1413 46.04 22.9688C46.0693 22.7962 46.084 22.6107 46.084 22.4121V22.3096C46.084 22.1175 46.0693 21.9368 46.04 21.7676C46.0107 21.5951 45.9619 21.4437 45.8936 21.3135C45.8252 21.18 45.7324 21.0758 45.6152 21.001C45.498 20.9261 45.3516 20.8887 45.1758 20.8887C45.0033 20.8887 44.8584 20.9261 44.7412 21.001C44.6273 21.0758 44.5361 21.18 44.4678 21.3135C44.3994 21.4437 44.3506 21.5951 44.3213 21.7676C44.292 21.9368 44.2773 22.1175 44.2773 22.3096ZM50.1221 21.0254V25H48.4766V19.7168H50.0146L50.1221 21.0254ZM51.6846 19.6777L51.6553 21.2061C51.5902 21.1995 51.5023 21.1914 51.3916 21.1816C51.2809 21.1719 51.1882 21.167 51.1133 21.167C50.9212 21.167 50.7552 21.1898 50.6152 21.2354C50.4785 21.2777 50.3646 21.3428 50.2734 21.4307C50.1855 21.5153 50.1204 21.6227 50.0781 21.7529C50.0391 21.8831 50.0212 22.0345 50.0244 22.207L49.7266 22.0117C49.7266 21.6569 49.7607 21.3346 49.8291 21.0449C49.9007 20.752 50.0016 20.4997 50.1318 20.2881C50.262 20.0732 50.4199 19.9089 50.6055 19.7949C50.791 19.6777 50.9993 19.6191 51.2305 19.6191C51.3118 19.6191 51.3916 19.624 51.4697 19.6338C51.5511 19.6436 51.6227 19.6582 51.6846 19.6777ZM53.8672 20.8447V25H52.2217V19.7168H53.7646L53.8672 20.8447ZM53.6719 22.1777L53.2861 22.1875C53.2861 21.7839 53.335 21.4242 53.4326 21.1084C53.5303 20.7894 53.6686 20.5192 53.8477 20.2979C54.0267 20.0765 54.2399 19.9089 54.4873 19.7949C54.738 19.6777 55.0163 19.6191 55.3223 19.6191C55.5664 19.6191 55.7894 19.6549 55.9912 19.7266C56.1963 19.7982 56.3721 19.9137 56.5186 20.0732C56.6683 20.2327 56.7822 20.4443 56.8604 20.708C56.9417 20.9684 56.9824 21.2907 56.9824 21.6748V25H55.3271V21.6699C55.3271 21.4583 55.2979 21.2972 55.2393 21.1865C55.1807 21.0726 55.096 20.9945 54.9854 20.9521C54.8747 20.9098 54.7396 20.8887 54.5801 20.8887C54.4108 20.8887 54.2676 20.9212 54.1504 20.9863C54.0332 21.0514 53.9388 21.1426 53.8672 21.2598C53.7988 21.3737 53.7484 21.5088 53.7158 21.665C53.6865 21.8213 53.6719 21.9922 53.6719 22.1777ZM60.6396 23.6719V21.4941C60.6396 21.3444 60.6185 21.2158 60.5762 21.1084C60.5339 21.001 60.4671 20.918 60.376 20.8594C60.2848 20.7975 60.1628 20.7666 60.0098 20.7666C59.8861 20.7666 59.7803 20.7878 59.6924 20.8301C59.6045 20.8724 59.5378 20.9359 59.4922 21.0205C59.4466 21.1051 59.4238 21.2126 59.4238 21.3428H57.7783C57.7783 21.0986 57.832 20.8724 57.9395 20.6641C58.0501 20.4525 58.2064 20.2686 58.4082 20.1123C58.6133 19.9561 58.8574 19.8356 59.1406 19.751C59.4271 19.6631 59.7461 19.6191 60.0977 19.6191C60.5176 19.6191 60.8919 19.6891 61.2207 19.8291C61.5527 19.9691 61.8148 20.179 62.0068 20.459C62.1989 20.7357 62.2949 21.084 62.2949 21.5039V23.667C62.2949 24.012 62.3145 24.2741 62.3535 24.4531C62.3926 24.6289 62.4479 24.7835 62.5195 24.917V25H60.8691C60.791 24.8372 60.7324 24.6387 60.6934 24.4043C60.6576 24.1667 60.6396 23.9225 60.6396 23.6719ZM60.8398 21.7725L60.8496 22.6514H60.1221C59.9691 22.6514 59.8389 22.6725 59.7314 22.7148C59.6273 22.7572 59.5426 22.8158 59.4775 22.8906C59.4157 22.9622 59.3701 23.0436 59.3408 23.1348C59.3148 23.2259 59.3018 23.3219 59.3018 23.4229C59.3018 23.5205 59.3245 23.6084 59.3701 23.6865C59.4189 23.7614 59.484 23.82 59.5654 23.8623C59.6468 23.9046 59.738 23.9258 59.8389 23.9258C60.0212 23.9258 60.1758 23.8916 60.3027 23.8232C60.4329 23.7516 60.5322 23.6654 60.6006 23.5645C60.6689 23.4635 60.7031 23.3691 60.7031 23.2812L61.0645 23.9551C60.9993 24.0853 60.9245 24.2171 60.8398 24.3506C60.7585 24.484 60.6559 24.6077 60.5322 24.7217C60.4118 24.8324 60.2637 24.9235 60.0879 24.9951C59.9121 25.0635 59.6989 25.0977 59.4482 25.0977C59.1227 25.0977 58.8232 25.0309 58.5498 24.8975C58.2796 24.764 58.0632 24.5785 57.9004 24.3408C57.7376 24.0999 57.6562 23.8232 57.6562 23.5107C57.6562 23.2373 57.7051 22.9932 57.8027 22.7783C57.9036 22.5635 58.055 22.3812 58.2568 22.2314C58.4587 22.0817 58.7158 21.9678 59.0283 21.8896C59.3408 21.8115 59.7087 21.7725 60.1318 21.7725H60.8398ZM59.292 19.0332L60.2588 17.5H61.9971L60.6348 19.0332H59.292Z" fill="white"/>
</svg>
