<svg xmlns="http://www.w3.org/2000/svg" xmlns:xlink="http://www.w3.org/1999/xlink" width="189" zoomAndPan="magnify" viewBox="0 0 141.75 141.749996" height="189" preserveAspectRatio="xMidYMid meet" version="1.0"><defs><g/><clipPath id="id1"><path d="M 14.171875 55.273438 L 37.421875 55.273438 L 37.421875 82.273438 L 14.171875 82.273438 Z M 14.171875 55.273438 " clip-rule="nonzero"/></clipPath></defs><path fill="#009ea6" d="M 28.703125 62.988281 C 28.703125 61.394531 27.398438 60.09375 25.796875 60.09375 C 24.195312 60.09375 22.894531 61.394531 22.894531 62.988281 C 22.894531 64.582031 24.195312 65.882812 25.796875 65.882812 C 27.398438 65.882812 28.703125 64.582031 28.703125 62.988281 Z M 24.828125 62.988281 C 24.832031 62.722656 24.925781 62.492188 25.117188 62.304688 C 25.304688 62.117188 25.535156 62.023438 25.800781 62.023438 C 26.070312 62.023438 26.296875 62.121094 26.488281 62.308594 C 26.675781 62.496094 26.769531 62.726562 26.769531 62.992188 C 26.769531 63.257812 26.675781 63.488281 26.484375 63.675781 C 26.296875 63.863281 26.066406 63.957031 25.796875 63.957031 C 25.53125 63.957031 25.300781 63.859375 25.113281 63.671875 C 24.921875 63.484375 24.828125 63.253906 24.828125 62.988281 Z M 24.828125 62.988281 " fill-opacity="1" fill-rule="nonzero"/><g clip-path="url(#id1)"><path fill="#009ea6" d="M 29.988281 72.9375 C 31.757812 69.921875 33.542969 66.113281 33.542969 62.988281 C 33.542969 58.734375 30.070312 55.273438 25.796875 55.273438 C 21.527344 55.273438 18.050781 58.734375 18.050781 62.988281 C 18.050781 66.160156 19.820312 69.949219 21.582031 72.9375 C 17.890625 73.503906 14.179688 74.933594 14.179688 77.453125 C 14.179688 80.617188 20.027344 82.273438 25.796875 82.273438 C 31.570312 82.273438 37.417969 80.617188 37.417969 77.453125 C 37.417969 74.929688 33.691406 73.5 29.988281 72.9375 Z M 25.796875 57.203125 C 29 57.203125 31.609375 59.796875 31.609375 62.988281 C 31.609375 67.253906 27.523438 73.414062 25.792969 75.832031 C 24.0625 73.4375 19.988281 67.347656 19.988281 62.988281 C 19.988281 59.796875 22.59375 57.203125 25.796875 57.203125 Z M 25.796875 80.34375 C 19.976562 80.34375 16.117188 78.605469 16.117188 77.453125 C 16.117188 76.601562 18.414062 75.238281 22.695312 74.742188 C 23.429688 75.878906 24.207031 76.980469 25.039062 78.046875 C 25.230469 78.292969 25.484375 78.417969 25.796875 78.417969 C 26.039062 78.484375 26.378906 78.28125 26.5625 78.042969 C 26.667969 77.90625 27.667969 76.621094 28.878906 74.742188 C 33.175781 75.238281 35.480469 76.601562 35.480469 77.453125 C 35.480469 78.605469 31.621094 80.34375 25.796875 80.34375 Z M 25.796875 80.34375 " fill-opacity="1" fill-rule="nonzero"/></g><g fill="#737373" fill-opacity="1"><g transform="translate(49.321061, 57.067256)"><g><path d="M 3.796875 -1.3125 C 3.796875 -1.050781 3.75 -0.828125 3.65625 -0.640625 C 3.570312 -0.460938 3.445312 -0.316406 3.28125 -0.203125 C 3.125 -0.0976562 2.9375 -0.0234375 2.71875 0.015625 C 2.507812 0.0664062 2.285156 0.09375 2.046875 0.09375 C 1.796875 0.09375 1.578125 0.0664062 1.390625 0.015625 C 1.203125 -0.0234375 1.035156 -0.0820312 0.890625 -0.15625 C 0.753906 -0.238281 0.632812 -0.332031 0.53125 -0.4375 C 0.425781 -0.550781 0.335938 -0.671875 0.265625 -0.796875 L 0.890625 -1.25 C 0.941406 -1.15625 1.003906 -1.066406 1.078125 -0.984375 C 1.148438 -0.910156 1.226562 -0.84375 1.3125 -0.78125 C 1.40625 -0.726562 1.507812 -0.679688 1.625 -0.640625 C 1.75 -0.609375 1.894531 -0.59375 2.0625 -0.59375 C 2.175781 -0.59375 2.289062 -0.601562 2.40625 -0.625 C 2.519531 -0.65625 2.617188 -0.695312 2.703125 -0.75 C 2.796875 -0.800781 2.867188 -0.867188 2.921875 -0.953125 C 2.972656 -1.035156 3 -1.140625 3 -1.265625 C 3 -1.378906 2.972656 -1.472656 2.921875 -1.546875 C 2.867188 -1.628906 2.800781 -1.695312 2.71875 -1.75 C 2.632812 -1.800781 2.535156 -1.84375 2.421875 -1.875 C 2.304688 -1.914062 2.179688 -1.953125 2.046875 -1.984375 C 1.804688 -2.046875 1.582031 -2.109375 1.375 -2.171875 C 1.175781 -2.234375 1 -2.3125 0.84375 -2.40625 C 0.695312 -2.507812 0.582031 -2.640625 0.5 -2.796875 C 0.414062 -2.953125 0.375 -3.148438 0.375 -3.390625 C 0.375 -3.597656 0.40625 -3.785156 0.46875 -3.953125 C 0.539062 -4.128906 0.644531 -4.273438 0.78125 -4.390625 C 0.925781 -4.515625 1.101562 -4.609375 1.3125 -4.671875 C 1.519531 -4.734375 1.757812 -4.765625 2.03125 -4.765625 C 2.226562 -4.765625 2.410156 -4.742188 2.578125 -4.703125 C 2.753906 -4.671875 2.910156 -4.617188 3.046875 -4.546875 C 3.179688 -4.472656 3.300781 -4.382812 3.40625 -4.28125 C 3.507812 -4.175781 3.601562 -4.054688 3.6875 -3.921875 L 3.078125 -3.46875 C 2.953125 -3.664062 2.804688 -3.8125 2.640625 -3.90625 C 2.472656 -4.007812 2.265625 -4.0625 2.015625 -4.0625 C 1.753906 -4.0625 1.546875 -4.007812 1.390625 -3.90625 C 1.242188 -3.800781 1.171875 -3.648438 1.171875 -3.453125 C 1.171875 -3.347656 1.191406 -3.257812 1.234375 -3.1875 C 1.273438 -3.125 1.335938 -3.066406 1.421875 -3.015625 C 1.503906 -2.972656 1.613281 -2.929688 1.75 -2.890625 C 1.882812 -2.847656 2.039062 -2.804688 2.21875 -2.765625 C 2.351562 -2.734375 2.484375 -2.695312 2.609375 -2.65625 C 2.742188 -2.625 2.867188 -2.582031 2.984375 -2.53125 C 3.109375 -2.476562 3.21875 -2.414062 3.3125 -2.34375 C 3.414062 -2.28125 3.503906 -2.195312 3.578125 -2.09375 C 3.648438 -2 3.703125 -1.882812 3.734375 -1.75 C 3.773438 -1.625 3.796875 -1.476562 3.796875 -1.3125 Z M 3.796875 -1.3125 "/></g></g><g transform="translate(53.45466, 57.067256)"><g><path d="M 1.09375 -1.609375 C 1.101562 -1.429688 1.125 -1.273438 1.15625 -1.140625 C 1.1875 -1.003906 1.238281 -0.890625 1.3125 -0.796875 C 1.394531 -0.710938 1.492188 -0.644531 1.609375 -0.59375 C 1.722656 -0.550781 1.867188 -0.53125 2.046875 -0.53125 C 2.203125 -0.53125 2.34375 -0.554688 2.46875 -0.609375 C 2.59375 -0.660156 2.707031 -0.753906 2.8125 -0.890625 L 3.375 -0.515625 C 3.3125 -0.410156 3.238281 -0.316406 3.15625 -0.234375 C 3.070312 -0.160156 2.972656 -0.0976562 2.859375 -0.046875 C 2.742188 0.00390625 2.613281 0.0390625 2.46875 0.0625 C 2.332031 0.09375 2.175781 0.109375 2 0.109375 C 1.4375 0.109375 1.019531 -0.046875 0.75 -0.359375 C 0.476562 -0.671875 0.34375 -1.128906 0.34375 -1.734375 C 0.34375 -2.023438 0.367188 -2.285156 0.421875 -2.515625 C 0.484375 -2.742188 0.578125 -2.941406 0.703125 -3.109375 C 0.835938 -3.273438 1.003906 -3.40625 1.203125 -3.5 C 1.410156 -3.59375 1.664062 -3.640625 1.96875 -3.640625 C 2.226562 -3.640625 2.445312 -3.597656 2.625 -3.515625 C 2.8125 -3.441406 2.960938 -3.332031 3.078125 -3.1875 C 3.203125 -3.039062 3.289062 -2.863281 3.34375 -2.65625 C 3.394531 -2.457031 3.421875 -2.238281 3.421875 -2 L 3.421875 -1.609375 Z M 2.703125 -2.140625 C 2.703125 -2.441406 2.640625 -2.664062 2.515625 -2.8125 C 2.398438 -2.96875 2.207031 -3.046875 1.9375 -3.046875 C 1.800781 -3.046875 1.6875 -3.023438 1.59375 -2.984375 C 1.5 -2.953125 1.421875 -2.894531 1.359375 -2.8125 C 1.296875 -2.738281 1.242188 -2.644531 1.203125 -2.53125 C 1.160156 -2.425781 1.128906 -2.296875 1.109375 -2.140625 Z M 2.703125 -2.140625 "/></g></g><g transform="translate(57.200838, 57.067256)"><g><path d="M 2.78125 0 L 2.78125 -2.015625 C 2.78125 -2.191406 2.773438 -2.335938 2.765625 -2.453125 C 2.753906 -2.578125 2.726562 -2.675781 2.6875 -2.75 C 2.65625 -2.832031 2.601562 -2.890625 2.53125 -2.921875 C 2.46875 -2.960938 2.378906 -2.984375 2.265625 -2.984375 C 2.191406 -2.984375 2.113281 -2.96875 2.03125 -2.9375 C 1.945312 -2.90625 1.859375 -2.863281 1.765625 -2.8125 C 1.679688 -2.757812 1.59375 -2.703125 1.5 -2.640625 C 1.414062 -2.578125 1.335938 -2.507812 1.265625 -2.4375 L 1.265625 0 L 0.53125 0 L 0.53125 -3.53125 L 1.265625 -3.53125 L 1.265625 -3.046875 C 1.335938 -3.117188 1.421875 -3.191406 1.515625 -3.265625 C 1.609375 -3.335938 1.707031 -3.398438 1.8125 -3.453125 C 1.914062 -3.515625 2.019531 -3.5625 2.125 -3.59375 C 2.238281 -3.625 2.351562 -3.640625 2.46875 -3.640625 C 2.664062 -3.640625 2.832031 -3.609375 2.96875 -3.546875 C 3.101562 -3.492188 3.207031 -3.410156 3.28125 -3.296875 C 3.363281 -3.191406 3.421875 -3.0625 3.453125 -2.90625 C 3.484375 -2.75 3.5 -2.566406 3.5 -2.359375 L 3.5 0 Z M 2.78125 0 "/></g></g><g transform="translate(61.209789, 57.067256)"><g><path d="M 3.078125 -0.984375 C 3.078125 -0.785156 3.039062 -0.617188 2.96875 -0.484375 C 2.894531 -0.347656 2.796875 -0.234375 2.671875 -0.140625 C 2.546875 -0.0546875 2.398438 0.00390625 2.234375 0.046875 C 2.066406 0.0859375 1.890625 0.109375 1.703125 0.109375 C 1.523438 0.109375 1.359375 0.09375 1.203125 0.0625 C 1.054688 0.03125 0.921875 -0.0078125 0.796875 -0.0625 C 0.679688 -0.125 0.582031 -0.191406 0.5 -0.265625 C 0.414062 -0.347656 0.347656 -0.429688 0.296875 -0.515625 L 0.84375 -0.890625 C 0.945312 -0.742188 1.066406 -0.640625 1.203125 -0.578125 C 1.347656 -0.523438 1.507812 -0.5 1.6875 -0.5 C 1.769531 -0.5 1.851562 -0.503906 1.9375 -0.515625 C 2.019531 -0.523438 2.09375 -0.546875 2.15625 -0.578125 C 2.226562 -0.617188 2.28125 -0.664062 2.3125 -0.71875 C 2.351562 -0.78125 2.375 -0.859375 2.375 -0.953125 C 2.375 -1.015625 2.359375 -1.066406 2.328125 -1.109375 C 2.304688 -1.160156 2.257812 -1.203125 2.1875 -1.234375 C 2.125 -1.273438 2.039062 -1.3125 1.9375 -1.34375 C 1.84375 -1.382812 1.726562 -1.421875 1.59375 -1.453125 C 1.425781 -1.492188 1.269531 -1.539062 1.125 -1.59375 C 0.976562 -1.644531 0.847656 -1.710938 0.734375 -1.796875 C 0.628906 -1.878906 0.539062 -1.984375 0.46875 -2.109375 C 0.40625 -2.234375 0.375 -2.390625 0.375 -2.578125 C 0.375 -2.734375 0.398438 -2.875 0.453125 -3 C 0.515625 -3.125 0.601562 -3.234375 0.71875 -3.328125 C 0.832031 -3.429688 0.972656 -3.507812 1.140625 -3.5625 C 1.304688 -3.613281 1.5 -3.640625 1.71875 -3.640625 C 1.875 -3.640625 2.019531 -3.625 2.15625 -3.59375 C 2.289062 -3.5625 2.410156 -3.519531 2.515625 -3.46875 C 2.628906 -3.414062 2.726562 -3.347656 2.8125 -3.265625 C 2.90625 -3.191406 2.976562 -3.113281 3.03125 -3.03125 L 2.484375 -2.65625 C 2.441406 -2.695312 2.394531 -2.738281 2.34375 -2.78125 C 2.300781 -2.832031 2.25 -2.875 2.1875 -2.90625 C 2.125 -2.945312 2.050781 -2.976562 1.96875 -3 C 1.894531 -3.019531 1.804688 -3.03125 1.703125 -3.03125 C 1.515625 -3.03125 1.363281 -2.992188 1.25 -2.921875 C 1.132812 -2.847656 1.078125 -2.742188 1.078125 -2.609375 C 1.078125 -2.546875 1.085938 -2.488281 1.109375 -2.4375 C 1.140625 -2.394531 1.179688 -2.351562 1.234375 -2.3125 C 1.285156 -2.28125 1.351562 -2.25 1.4375 -2.21875 C 1.53125 -2.195312 1.632812 -2.171875 1.75 -2.140625 C 1.957031 -2.085938 2.144531 -2.03125 2.3125 -1.96875 C 2.476562 -1.914062 2.617188 -1.84375 2.734375 -1.75 C 2.847656 -1.664062 2.929688 -1.5625 2.984375 -1.4375 C 3.046875 -1.320312 3.078125 -1.171875 3.078125 -0.984375 Z M 3.078125 -0.984375 "/></g></g><g transform="translate(64.605606, 57.067256)"><g><path d="M 1.09375 -1.609375 C 1.101562 -1.429688 1.125 -1.273438 1.15625 -1.140625 C 1.1875 -1.003906 1.238281 -0.890625 1.3125 -0.796875 C 1.394531 -0.710938 1.492188 -0.644531 1.609375 -0.59375 C 1.722656 -0.550781 1.867188 -0.53125 2.046875 -0.53125 C 2.203125 -0.53125 2.34375 -0.554688 2.46875 -0.609375 C 2.59375 -0.660156 2.707031 -0.753906 2.8125 -0.890625 L 3.375 -0.515625 C 3.3125 -0.410156 3.238281 -0.316406 3.15625 -0.234375 C 3.070312 -0.160156 2.972656 -0.0976562 2.859375 -0.046875 C 2.742188 0.00390625 2.613281 0.0390625 2.46875 0.0625 C 2.332031 0.09375 2.175781 0.109375 2 0.109375 C 1.4375 0.109375 1.019531 -0.046875 0.75 -0.359375 C 0.476562 -0.671875 0.34375 -1.128906 0.34375 -1.734375 C 0.34375 -2.023438 0.367188 -2.285156 0.421875 -2.515625 C 0.484375 -2.742188 0.578125 -2.941406 0.703125 -3.109375 C 0.835938 -3.273438 1.003906 -3.40625 1.203125 -3.5 C 1.410156 -3.59375 1.664062 -3.640625 1.96875 -3.640625 C 2.226562 -3.640625 2.445312 -3.597656 2.625 -3.515625 C 2.8125 -3.441406 2.960938 -3.332031 3.078125 -3.1875 C 3.203125 -3.039062 3.289062 -2.863281 3.34375 -2.65625 C 3.394531 -2.457031 3.421875 -2.238281 3.421875 -2 L 3.421875 -1.609375 Z M 2.703125 -2.140625 C 2.703125 -2.441406 2.640625 -2.664062 2.515625 -2.8125 C 2.398438 -2.96875 2.207031 -3.046875 1.9375 -3.046875 C 1.800781 -3.046875 1.6875 -3.023438 1.59375 -2.984375 C 1.5 -2.953125 1.421875 -2.894531 1.359375 -2.8125 C 1.296875 -2.738281 1.242188 -2.644531 1.203125 -2.53125 C 1.160156 -2.425781 1.128906 -2.296875 1.109375 -2.140625 Z M 2.703125 -2.140625 "/></g></g><g transform="translate(68.351784, 57.067256)"><g/></g><g transform="translate(70.110332, 57.067256)"><g><path d="M 3.796875 -1.3125 C 3.796875 -1.050781 3.75 -0.828125 3.65625 -0.640625 C 3.570312 -0.460938 3.445312 -0.316406 3.28125 -0.203125 C 3.125 -0.0976562 2.9375 -0.0234375 2.71875 0.015625 C 2.507812 0.0664062 2.285156 0.09375 2.046875 0.09375 C 1.796875 0.09375 1.578125 0.0664062 1.390625 0.015625 C 1.203125 -0.0234375 1.035156 -0.0820312 0.890625 -0.15625 C 0.753906 -0.238281 0.632812 -0.332031 0.53125 -0.4375 C 0.425781 -0.550781 0.335938 -0.671875 0.265625 -0.796875 L 0.890625 -1.25 C 0.941406 -1.15625 1.003906 -1.066406 1.078125 -0.984375 C 1.148438 -0.910156 1.226562 -0.84375 1.3125 -0.78125 C 1.40625 -0.726562 1.507812 -0.679688 1.625 -0.640625 C 1.75 -0.609375 1.894531 -0.59375 2.0625 -0.59375 C 2.175781 -0.59375 2.289062 -0.601562 2.40625 -0.625 C 2.519531 -0.65625 2.617188 -0.695312 2.703125 -0.75 C 2.796875 -0.800781 2.867188 -0.867188 2.921875 -0.953125 C 2.972656 -1.035156 3 -1.140625 3 -1.265625 C 3 -1.378906 2.972656 -1.472656 2.921875 -1.546875 C 2.867188 -1.628906 2.800781 -1.695312 2.71875 -1.75 C 2.632812 -1.800781 2.535156 -1.84375 2.421875 -1.875 C 2.304688 -1.914062 2.179688 -1.953125 2.046875 -1.984375 C 1.804688 -2.046875 1.582031 -2.109375 1.375 -2.171875 C 1.175781 -2.234375 1 -2.3125 0.84375 -2.40625 C 0.695312 -2.507812 0.582031 -2.640625 0.5 -2.796875 C 0.414062 -2.953125 0.375 -3.148438 0.375 -3.390625 C 0.375 -3.597656 0.40625 -3.785156 0.46875 -3.953125 C 0.539062 -4.128906 0.644531 -4.273438 0.78125 -4.390625 C 0.925781 -4.515625 1.101562 -4.609375 1.3125 -4.671875 C 1.519531 -4.734375 1.757812 -4.765625 2.03125 -4.765625 C 2.226562 -4.765625 2.410156 -4.742188 2.578125 -4.703125 C 2.753906 -4.671875 2.910156 -4.617188 3.046875 -4.546875 C 3.179688 -4.472656 3.300781 -4.382812 3.40625 -4.28125 C 3.507812 -4.175781 3.601562 -4.054688 3.6875 -3.921875 L 3.078125 -3.46875 C 2.953125 -3.664062 2.804688 -3.8125 2.640625 -3.90625 C 2.472656 -4.007812 2.265625 -4.0625 2.015625 -4.0625 C 1.753906 -4.0625 1.546875 -4.007812 1.390625 -3.90625 C 1.242188 -3.800781 1.171875 -3.648438 1.171875 -3.453125 C 1.171875 -3.347656 1.191406 -3.257812 1.234375 -3.1875 C 1.273438 -3.125 1.335938 -3.066406 1.421875 -3.015625 C 1.503906 -2.972656 1.613281 -2.929688 1.75 -2.890625 C 1.882812 -2.847656 2.039062 -2.804688 2.21875 -2.765625 C 2.351562 -2.734375 2.484375 -2.695312 2.609375 -2.65625 C 2.742188 -2.625 2.867188 -2.582031 2.984375 -2.53125 C 3.109375 -2.476562 3.21875 -2.414062 3.3125 -2.34375 C 3.414062 -2.28125 3.503906 -2.195312 3.578125 -2.09375 C 3.648438 -2 3.703125 -1.882812 3.734375 -1.75 C 3.773438 -1.625 3.796875 -1.476562 3.796875 -1.3125 Z M 3.796875 -1.3125 "/></g></g><g transform="translate(74.243931, 57.067256)"><g><path d="M 3.609375 -1.765625 C 3.609375 -1.472656 3.578125 -1.210938 3.515625 -0.984375 C 3.453125 -0.753906 3.351562 -0.554688 3.21875 -0.390625 C 3.09375 -0.234375 2.925781 -0.109375 2.71875 -0.015625 C 2.507812 0.0664062 2.265625 0.109375 1.984375 0.109375 C 1.691406 0.109375 1.441406 0.0664062 1.234375 -0.015625 C 1.035156 -0.109375 0.867188 -0.234375 0.734375 -0.390625 C 0.597656 -0.554688 0.5 -0.753906 0.4375 -0.984375 C 0.375 -1.210938 0.34375 -1.472656 0.34375 -1.765625 C 0.34375 -2.046875 0.375 -2.300781 0.4375 -2.53125 C 0.507812 -2.769531 0.609375 -2.96875 0.734375 -3.125 C 0.867188 -3.289062 1.035156 -3.414062 1.234375 -3.5 C 1.441406 -3.59375 1.691406 -3.640625 1.984375 -3.640625 C 2.265625 -3.640625 2.507812 -3.59375 2.71875 -3.5 C 2.925781 -3.414062 3.09375 -3.289062 3.21875 -3.125 C 3.351562 -2.96875 3.453125 -2.769531 3.515625 -2.53125 C 3.578125 -2.300781 3.609375 -2.046875 3.609375 -1.765625 Z M 2.859375 -1.765625 C 2.859375 -2.179688 2.785156 -2.488281 2.640625 -2.6875 C 2.503906 -2.894531 2.285156 -3 1.984375 -3 C 1.671875 -3 1.441406 -2.894531 1.296875 -2.6875 C 1.160156 -2.488281 1.09375 -2.179688 1.09375 -1.765625 C 1.09375 -1.347656 1.160156 -1.035156 1.296875 -0.828125 C 1.441406 -0.628906 1.671875 -0.53125 1.984375 -0.53125 C 2.285156 -0.53125 2.503906 -0.628906 2.640625 -0.828125 C 2.785156 -1.035156 2.859375 -1.347656 2.859375 -1.765625 Z M 2.859375 -1.765625 "/></g></g><g transform="translate(78.198979, 57.067256)"><g><path d="M 0.546875 0 L 0.546875 -5.015625 L 1.265625 -5.015625 L 1.265625 0 Z M 0.546875 0 "/></g></g><g transform="translate(80.014798, 57.067256)"><g><path d="M 2.75 0 L 2.75 -0.484375 C 2.675781 -0.410156 2.59375 -0.335938 2.5 -0.265625 C 2.40625 -0.191406 2.304688 -0.128906 2.203125 -0.078125 C 2.097656 -0.0234375 1.988281 0.015625 1.875 0.046875 C 1.757812 0.0859375 1.648438 0.109375 1.546875 0.109375 C 1.347656 0.109375 1.179688 0.078125 1.046875 0.015625 C 0.910156 -0.0351562 0.800781 -0.113281 0.71875 -0.21875 C 0.644531 -0.332031 0.585938 -0.46875 0.546875 -0.625 C 0.515625 -0.78125 0.5 -0.960938 0.5 -1.171875 L 0.5 -3.53125 L 1.234375 -3.53125 L 1.234375 -1.515625 C 1.234375 -1.335938 1.238281 -1.1875 1.25 -1.0625 C 1.257812 -0.945312 1.28125 -0.847656 1.3125 -0.765625 C 1.351562 -0.691406 1.40625 -0.640625 1.46875 -0.609375 C 1.539062 -0.578125 1.628906 -0.5625 1.734375 -0.5625 C 1.804688 -0.5625 1.882812 -0.570312 1.96875 -0.59375 C 2.0625 -0.625 2.148438 -0.664062 2.234375 -0.71875 C 2.328125 -0.769531 2.414062 -0.828125 2.5 -0.890625 C 2.59375 -0.960938 2.675781 -1.035156 2.75 -1.109375 L 2.75 -3.53125 L 3.484375 -3.53125 L 3.484375 0 Z M 2.75 0 "/></g></g><g transform="translate(84.023748, 57.067256)"><g><path d="M 2.390625 0 C 2.285156 0.03125 2.171875 0.0546875 2.046875 0.078125 C 1.921875 0.0976562 1.800781 0.109375 1.6875 0.109375 C 1.488281 0.109375 1.320312 0.0820312 1.1875 0.03125 C 1.050781 -0.0078125 0.941406 -0.078125 0.859375 -0.171875 C 0.773438 -0.273438 0.710938 -0.398438 0.671875 -0.546875 C 0.628906 -0.691406 0.609375 -0.863281 0.609375 -1.0625 L 0.609375 -2.953125 L 0.125 -2.953125 L 0.125 -3.53125 L 0.609375 -3.53125 L 0.609375 -4.515625 L 1.328125 -4.515625 L 1.328125 -3.53125 L 2.1875 -3.53125 L 2.1875 -2.953125 L 1.328125 -2.953125 L 1.328125 -1.1875 C 1.328125 -1.050781 1.332031 -0.941406 1.34375 -0.859375 C 1.363281 -0.773438 1.390625 -0.703125 1.421875 -0.640625 C 1.460938 -0.585938 1.507812 -0.550781 1.5625 -0.53125 C 1.613281 -0.507812 1.679688 -0.5 1.765625 -0.5 C 1.835938 -0.5 1.914062 -0.503906 2 -0.515625 C 2.09375 -0.535156 2.171875 -0.5625 2.234375 -0.59375 Z M 2.390625 0 "/></g></g><g transform="translate(86.493127, 57.067256)"><g><path d="M 1.328125 -4.46875 C 1.328125 -4.320312 1.289062 -4.21875 1.21875 -4.15625 C 1.144531 -4.101562 1.035156 -4.078125 0.890625 -4.078125 C 0.722656 -4.078125 0.609375 -4.109375 0.546875 -4.171875 C 0.492188 -4.242188 0.46875 -4.34375 0.46875 -4.46875 C 0.46875 -4.601562 0.5 -4.703125 0.5625 -4.765625 C 0.625 -4.828125 0.734375 -4.859375 0.890625 -4.859375 C 1.046875 -4.859375 1.15625 -4.828125 1.21875 -4.765625 C 1.289062 -4.710938 1.328125 -4.613281 1.328125 -4.46875 Z M 0.53125 0 L 0.53125 -3.53125 L 1.265625 -3.53125 L 1.265625 0 Z M 0.53125 0 "/></g></g><g transform="translate(88.278626, 57.067256)"><g><path d="M 3.609375 -1.765625 C 3.609375 -1.472656 3.578125 -1.210938 3.515625 -0.984375 C 3.453125 -0.753906 3.351562 -0.554688 3.21875 -0.390625 C 3.09375 -0.234375 2.925781 -0.109375 2.71875 -0.015625 C 2.507812 0.0664062 2.265625 0.109375 1.984375 0.109375 C 1.691406 0.109375 1.441406 0.0664062 1.234375 -0.015625 C 1.035156 -0.109375 0.867188 -0.234375 0.734375 -0.390625 C 0.597656 -0.554688 0.5 -0.753906 0.4375 -0.984375 C 0.375 -1.210938 0.34375 -1.472656 0.34375 -1.765625 C 0.34375 -2.046875 0.375 -2.300781 0.4375 -2.53125 C 0.507812 -2.769531 0.609375 -2.96875 0.734375 -3.125 C 0.867188 -3.289062 1.035156 -3.414062 1.234375 -3.5 C 1.441406 -3.59375 1.691406 -3.640625 1.984375 -3.640625 C 2.265625 -3.640625 2.507812 -3.59375 2.71875 -3.5 C 2.925781 -3.414062 3.09375 -3.289062 3.21875 -3.125 C 3.351562 -2.96875 3.453125 -2.769531 3.515625 -2.53125 C 3.578125 -2.300781 3.609375 -2.046875 3.609375 -1.765625 Z M 2.859375 -1.765625 C 2.859375 -2.179688 2.785156 -2.488281 2.640625 -2.6875 C 2.503906 -2.894531 2.285156 -3 1.984375 -3 C 1.671875 -3 1.441406 -2.894531 1.296875 -2.6875 C 1.160156 -2.488281 1.09375 -2.179688 1.09375 -1.765625 C 1.09375 -1.347656 1.160156 -1.035156 1.296875 -0.828125 C 1.441406 -0.628906 1.671875 -0.53125 1.984375 -0.53125 C 2.285156 -0.53125 2.503906 -0.628906 2.640625 -0.828125 C 2.785156 -1.035156 2.859375 -1.347656 2.859375 -1.765625 Z M 2.859375 -1.765625 "/></g></g><g transform="translate(92.233674, 57.067256)"><g><path d="M 2.78125 0 L 2.78125 -2.015625 C 2.78125 -2.191406 2.773438 -2.335938 2.765625 -2.453125 C 2.753906 -2.578125 2.726562 -2.675781 2.6875 -2.75 C 2.65625 -2.832031 2.601562 -2.890625 2.53125 -2.921875 C 2.46875 -2.960938 2.378906 -2.984375 2.265625 -2.984375 C 2.191406 -2.984375 2.113281 -2.96875 2.03125 -2.9375 C 1.945312 -2.90625 1.859375 -2.863281 1.765625 -2.8125 C 1.679688 -2.757812 1.59375 -2.703125 1.5 -2.640625 C 1.414062 -2.578125 1.335938 -2.507812 1.265625 -2.4375 L 1.265625 0 L 0.53125 0 L 0.53125 -3.53125 L 1.265625 -3.53125 L 1.265625 -3.046875 C 1.335938 -3.117188 1.421875 -3.191406 1.515625 -3.265625 C 1.609375 -3.335938 1.707031 -3.398438 1.8125 -3.453125 C 1.914062 -3.515625 2.019531 -3.5625 2.125 -3.59375 C 2.238281 -3.625 2.351562 -3.640625 2.46875 -3.640625 C 2.664062 -3.640625 2.832031 -3.609375 2.96875 -3.546875 C 3.101562 -3.492188 3.207031 -3.410156 3.28125 -3.296875 C 3.363281 -3.191406 3.421875 -3.0625 3.453125 -2.90625 C 3.484375 -2.75 3.5 -2.566406 3.5 -2.359375 L 3.5 0 Z M 2.78125 0 "/></g></g><g transform="translate(96.242625, 57.067256)"><g><path d="M 3.078125 -0.984375 C 3.078125 -0.785156 3.039062 -0.617188 2.96875 -0.484375 C 2.894531 -0.347656 2.796875 -0.234375 2.671875 -0.140625 C 2.546875 -0.0546875 2.398438 0.00390625 2.234375 0.046875 C 2.066406 0.0859375 1.890625 0.109375 1.703125 0.109375 C 1.523438 0.109375 1.359375 0.09375 1.203125 0.0625 C 1.054688 0.03125 0.921875 -0.0078125 0.796875 -0.0625 C 0.679688 -0.125 0.582031 -0.191406 0.5 -0.265625 C 0.414062 -0.347656 0.347656 -0.429688 0.296875 -0.515625 L 0.84375 -0.890625 C 0.945312 -0.742188 1.066406 -0.640625 1.203125 -0.578125 C 1.347656 -0.523438 1.507812 -0.5 1.6875 -0.5 C 1.769531 -0.5 1.851562 -0.503906 1.9375 -0.515625 C 2.019531 -0.523438 2.09375 -0.546875 2.15625 -0.578125 C 2.226562 -0.617188 2.28125 -0.664062 2.3125 -0.71875 C 2.351562 -0.78125 2.375 -0.859375 2.375 -0.953125 C 2.375 -1.015625 2.359375 -1.066406 2.328125 -1.109375 C 2.304688 -1.160156 2.257812 -1.203125 2.1875 -1.234375 C 2.125 -1.273438 2.039062 -1.3125 1.9375 -1.34375 C 1.84375 -1.382812 1.726562 -1.421875 1.59375 -1.453125 C 1.425781 -1.492188 1.269531 -1.539062 1.125 -1.59375 C 0.976562 -1.644531 0.847656 -1.710938 0.734375 -1.796875 C 0.628906 -1.878906 0.539062 -1.984375 0.46875 -2.109375 C 0.40625 -2.234375 0.375 -2.390625 0.375 -2.578125 C 0.375 -2.734375 0.398438 -2.875 0.453125 -3 C 0.515625 -3.125 0.601562 -3.234375 0.71875 -3.328125 C 0.832031 -3.429688 0.972656 -3.507812 1.140625 -3.5625 C 1.304688 -3.613281 1.5 -3.640625 1.71875 -3.640625 C 1.875 -3.640625 2.019531 -3.625 2.15625 -3.59375 C 2.289062 -3.5625 2.410156 -3.519531 2.515625 -3.46875 C 2.628906 -3.414062 2.726562 -3.347656 2.8125 -3.265625 C 2.90625 -3.191406 2.976562 -3.113281 3.03125 -3.03125 L 2.484375 -2.65625 C 2.441406 -2.695312 2.394531 -2.738281 2.34375 -2.78125 C 2.300781 -2.832031 2.25 -2.875 2.1875 -2.90625 C 2.125 -2.945312 2.050781 -2.976562 1.96875 -3 C 1.894531 -3.019531 1.804688 -3.03125 1.703125 -3.03125 C 1.515625 -3.03125 1.363281 -2.992188 1.25 -2.921875 C 1.132812 -2.847656 1.078125 -2.742188 1.078125 -2.609375 C 1.078125 -2.546875 1.085938 -2.488281 1.109375 -2.4375 C 1.140625 -2.394531 1.179688 -2.351562 1.234375 -2.3125 C 1.285156 -2.28125 1.351562 -2.25 1.4375 -2.21875 C 1.53125 -2.195312 1.632812 -2.171875 1.75 -2.140625 C 1.957031 -2.085938 2.144531 -2.03125 2.3125 -1.96875 C 2.476562 -1.914062 2.617188 -1.84375 2.734375 -1.75 C 2.847656 -1.664062 2.929688 -1.5625 2.984375 -1.4375 C 3.046875 -1.320312 3.078125 -1.171875 3.078125 -0.984375 Z M 3.078125 -0.984375 "/></g></g><g transform="translate(99.638441, 57.067256)"><g/></g><g transform="translate(101.396989, 57.067256)"><g><path d="M 2.578125 0 L 2.578125 -0.40625 C 2.410156 -0.25 2.234375 -0.125 2.046875 -0.03125 C 1.859375 0.0625 1.65625 0.109375 1.4375 0.109375 C 1.257812 0.109375 1.097656 0.078125 0.953125 0.015625 C 0.816406 -0.0351562 0.703125 -0.109375 0.609375 -0.203125 C 0.515625 -0.296875 0.441406 -0.410156 0.390625 -0.546875 C 0.347656 -0.679688 0.328125 -0.832031 0.328125 -1 C 0.328125 -1.207031 0.359375 -1.382812 0.421875 -1.53125 C 0.492188 -1.675781 0.59375 -1.789062 0.71875 -1.875 C 0.84375 -1.96875 0.988281 -2.035156 1.15625 -2.078125 C 1.332031 -2.128906 1.523438 -2.164062 1.734375 -2.1875 L 2.546875 -2.265625 L 2.546875 -2.4375 C 2.546875 -2.550781 2.523438 -2.644531 2.484375 -2.71875 C 2.453125 -2.800781 2.398438 -2.863281 2.328125 -2.90625 C 2.265625 -2.957031 2.1875 -2.988281 2.09375 -3 C 2 -3.019531 1.890625 -3.03125 1.765625 -3.03125 C 1.640625 -3.03125 1.53125 -3.019531 1.4375 -3 C 1.351562 -2.976562 1.28125 -2.945312 1.21875 -2.90625 C 1.15625 -2.875 1.097656 -2.832031 1.046875 -2.78125 C 1.003906 -2.738281 0.972656 -2.695312 0.953125 -2.65625 L 0.375 -3.03125 C 0.414062 -3.101562 0.472656 -3.175781 0.546875 -3.25 C 0.628906 -3.320312 0.726562 -3.382812 0.84375 -3.4375 C 0.957031 -3.5 1.085938 -3.546875 1.234375 -3.578125 C 1.390625 -3.617188 1.570312 -3.640625 1.78125 -3.640625 C 2.019531 -3.640625 2.234375 -3.617188 2.421875 -3.578125 C 2.609375 -3.535156 2.765625 -3.46875 2.890625 -3.375 C 3.015625 -3.28125 3.109375 -3.15625 3.171875 -3 C 3.234375 -2.84375 3.265625 -2.644531 3.265625 -2.40625 L 3.265625 0 Z M 2.546875 -1.71875 L 2.03125 -1.671875 C 1.875 -1.660156 1.734375 -1.640625 1.609375 -1.609375 C 1.492188 -1.578125 1.394531 -1.535156 1.3125 -1.484375 C 1.238281 -1.429688 1.175781 -1.363281 1.125 -1.28125 C 1.082031 -1.207031 1.0625 -1.117188 1.0625 -1.015625 C 1.0625 -0.828125 1.109375 -0.691406 1.203125 -0.609375 C 1.304688 -0.535156 1.453125 -0.5 1.640625 -0.5 C 1.703125 -0.5 1.769531 -0.507812 1.84375 -0.53125 C 1.925781 -0.550781 2.003906 -0.582031 2.078125 -0.625 C 2.160156 -0.664062 2.238281 -0.710938 2.3125 -0.765625 C 2.394531 -0.828125 2.472656 -0.890625 2.546875 -0.953125 Z M 2.546875 -1.71875 "/></g></g><g transform="translate(105.163381, 57.067256)"><g><path d="M 1.4375 -0.40625 C 1.4375 -0.238281 1.394531 -0.117188 1.3125 -0.046875 C 1.238281 0.015625 1.117188 0.046875 0.953125 0.046875 C 0.859375 0.046875 0.78125 0.0351562 0.71875 0.015625 C 0.664062 -0.00390625 0.617188 -0.03125 0.578125 -0.0625 C 0.535156 -0.101562 0.503906 -0.148438 0.484375 -0.203125 C 0.472656 -0.265625 0.46875 -0.332031 0.46875 -0.40625 C 0.46875 -0.5625 0.503906 -0.675781 0.578125 -0.75 C 0.648438 -0.832031 0.773438 -0.875 0.953125 -0.875 C 1.128906 -0.875 1.253906 -0.835938 1.328125 -0.765625 C 1.398438 -0.691406 1.4375 -0.570312 1.4375 -0.40625 Z M 1.4375 -0.40625 "/></g></g><g transform="translate(107.080266, 57.067256)"><g/></g><g transform="translate(108.838814, 57.067256)"><g><path d="M 3.078125 -0.984375 C 3.078125 -0.785156 3.039062 -0.617188 2.96875 -0.484375 C 2.894531 -0.347656 2.796875 -0.234375 2.671875 -0.140625 C 2.546875 -0.0546875 2.398438 0.00390625 2.234375 0.046875 C 2.066406 0.0859375 1.890625 0.109375 1.703125 0.109375 C 1.523438 0.109375 1.359375 0.09375 1.203125 0.0625 C 1.054688 0.03125 0.921875 -0.0078125 0.796875 -0.0625 C 0.679688 -0.125 0.582031 -0.191406 0.5 -0.265625 C 0.414062 -0.347656 0.347656 -0.429688 0.296875 -0.515625 L 0.84375 -0.890625 C 0.945312 -0.742188 1.066406 -0.640625 1.203125 -0.578125 C 1.347656 -0.523438 1.507812 -0.5 1.6875 -0.5 C 1.769531 -0.5 1.851562 -0.503906 1.9375 -0.515625 C 2.019531 -0.523438 2.09375 -0.546875 2.15625 -0.578125 C 2.226562 -0.617188 2.28125 -0.664062 2.3125 -0.71875 C 2.351562 -0.78125 2.375 -0.859375 2.375 -0.953125 C 2.375 -1.015625 2.359375 -1.066406 2.328125 -1.109375 C 2.304688 -1.160156 2.257812 -1.203125 2.1875 -1.234375 C 2.125 -1.273438 2.039062 -1.3125 1.9375 -1.34375 C 1.84375 -1.382812 1.726562 -1.421875 1.59375 -1.453125 C 1.425781 -1.492188 1.269531 -1.539062 1.125 -1.59375 C 0.976562 -1.644531 0.847656 -1.710938 0.734375 -1.796875 C 0.628906 -1.878906 0.539062 -1.984375 0.46875 -2.109375 C 0.40625 -2.234375 0.375 -2.390625 0.375 -2.578125 C 0.375 -2.734375 0.398438 -2.875 0.453125 -3 C 0.515625 -3.125 0.601562 -3.234375 0.71875 -3.328125 C 0.832031 -3.429688 0.972656 -3.507812 1.140625 -3.5625 C 1.304688 -3.613281 1.5 -3.640625 1.71875 -3.640625 C 1.875 -3.640625 2.019531 -3.625 2.15625 -3.59375 C 2.289062 -3.5625 2.410156 -3.519531 2.515625 -3.46875 C 2.628906 -3.414062 2.726562 -3.347656 2.8125 -3.265625 C 2.90625 -3.191406 2.976562 -3.113281 3.03125 -3.03125 L 2.484375 -2.65625 C 2.441406 -2.695312 2.394531 -2.738281 2.34375 -2.78125 C 2.300781 -2.832031 2.25 -2.875 2.1875 -2.90625 C 2.125 -2.945312 2.050781 -2.976562 1.96875 -3 C 1.894531 -3.019531 1.804688 -3.03125 1.703125 -3.03125 C 1.515625 -3.03125 1.363281 -2.992188 1.25 -2.921875 C 1.132812 -2.847656 1.078125 -2.742188 1.078125 -2.609375 C 1.078125 -2.546875 1.085938 -2.488281 1.109375 -2.4375 C 1.140625 -2.394531 1.179688 -2.351562 1.234375 -2.3125 C 1.285156 -2.28125 1.351562 -2.25 1.4375 -2.21875 C 1.53125 -2.195312 1.632812 -2.171875 1.75 -2.140625 C 1.957031 -2.085938 2.144531 -2.03125 2.3125 -1.96875 C 2.476562 -1.914062 2.617188 -1.84375 2.734375 -1.75 C 2.847656 -1.664062 2.929688 -1.5625 2.984375 -1.4375 C 3.046875 -1.320312 3.078125 -1.171875 3.078125 -0.984375 Z M 3.078125 -0.984375 "/></g></g><g transform="translate(112.234631, 57.067256)"><g><path d="M 1.4375 -0.40625 C 1.4375 -0.238281 1.394531 -0.117188 1.3125 -0.046875 C 1.238281 0.015625 1.117188 0.046875 0.953125 0.046875 C 0.859375 0.046875 0.78125 0.0351562 0.71875 0.015625 C 0.664062 -0.00390625 0.617188 -0.03125 0.578125 -0.0625 C 0.535156 -0.101562 0.503906 -0.148438 0.484375 -0.203125 C 0.472656 -0.265625 0.46875 -0.332031 0.46875 -0.40625 C 0.46875 -0.5625 0.503906 -0.675781 0.578125 -0.75 C 0.648438 -0.832031 0.773438 -0.875 0.953125 -0.875 C 1.128906 -0.875 1.253906 -0.835938 1.328125 -0.765625 C 1.398438 -0.691406 1.4375 -0.570312 1.4375 -0.40625 Z M 1.4375 -0.40625 "/></g></g></g><g fill="#737373" fill-opacity="1"><g transform="translate(49.321061, 67.991365)"><g><path d="M 4.171875 0 L 4.171875 -3.875 L 2.875 -1.265625 L 2.484375 -1.265625 L 1.203125 -3.875 L 1.203125 0 L 0.609375 0 L 0.609375 -4.671875 L 1.453125 -4.671875 L 2.6875 -2.125 L 3.9375 -4.671875 L 4.765625 -4.671875 L 4.765625 0 Z M 4.171875 0 "/></g></g><g transform="translate(54.687665, 67.991365)"><g><path d="M 0.59375 0 L 0.59375 -5.015625 L 1.1875 -5.015625 L 1.1875 0 Z M 0.59375 0 "/></g></g><g transform="translate(56.466426, 67.991365)"><g><path d="M 0.125 0.75 C 0.269531 0.8125 0.441406 0.84375 0.640625 0.84375 C 0.910156 0.84375 1.140625 0.597656 1.328125 0.109375 L 1.453125 -0.1875 L 0.15625 -3.53125 L 0.78125 -3.53125 L 1.765625 -0.953125 L 2.734375 -3.53125 L 3.34375 -3.53125 L 1.84375 0.265625 C 1.675781 0.660156 1.5 0.9375 1.3125 1.09375 C 1.132812 1.25 0.898438 1.328125 0.609375 1.328125 C 0.503906 1.328125 0.390625 1.316406 0.265625 1.296875 C 0.148438 1.273438 0.0546875 1.253906 -0.015625 1.234375 Z M 0.125 0.75 "/></g></g><g transform="translate(59.970046, 67.991365)"><g><path d="M 2.796875 0 L 2.796875 -2.078125 C 2.796875 -2.421875 2.773438 -2.644531 2.734375 -2.75 C 2.703125 -2.863281 2.648438 -2.945312 2.578125 -3 C 2.503906 -3.050781 2.394531 -3.078125 2.25 -3.078125 C 2.09375 -3.078125 1.914062 -3.019531 1.71875 -2.90625 C 1.53125 -2.789062 1.34375 -2.65625 1.15625 -2.5 L 1.15625 0 L 0.578125 0 L 0.578125 -3.53125 L 1.15625 -3.53125 L 1.15625 -3.015625 C 1.320312 -3.171875 1.507812 -3.3125 1.71875 -3.4375 C 1.9375 -3.570312 2.160156 -3.640625 2.390625 -3.640625 C 2.722656 -3.640625 2.96875 -3.539062 3.125 -3.34375 C 3.289062 -3.15625 3.375 -2.828125 3.375 -2.359375 L 3.375 0 Z M 2.796875 0 "/></g></g><g transform="translate(63.888037, 67.991365)"><g><path d="M 2.984375 -0.953125 C 2.984375 -0.617188 2.867188 -0.359375 2.640625 -0.171875 C 2.410156 0.015625 2.078125 0.109375 1.640625 0.109375 C 1.347656 0.109375 1.082031 0.0507812 0.84375 -0.0625 C 0.613281 -0.175781 0.445312 -0.332031 0.34375 -0.53125 L 0.796875 -0.8125 C 0.972656 -0.53125 1.257812 -0.390625 1.65625 -0.390625 C 1.914062 -0.390625 2.109375 -0.4375 2.234375 -0.53125 C 2.359375 -0.632812 2.421875 -0.769531 2.421875 -0.9375 C 2.421875 -1.03125 2.398438 -1.109375 2.359375 -1.171875 C 2.316406 -1.234375 2.242188 -1.285156 2.140625 -1.328125 C 2.046875 -1.378906 1.851562 -1.441406 1.5625 -1.515625 C 1.144531 -1.617188 0.847656 -1.753906 0.671875 -1.921875 C 0.503906 -2.085938 0.421875 -2.316406 0.421875 -2.609375 C 0.421875 -2.921875 0.53125 -3.171875 0.75 -3.359375 C 0.976562 -3.546875 1.289062 -3.640625 1.6875 -3.640625 C 2 -3.640625 2.257812 -3.578125 2.46875 -3.453125 C 2.675781 -3.335938 2.828125 -3.191406 2.921875 -3.015625 L 2.46875 -2.734375 C 2.28125 -3.015625 2.015625 -3.15625 1.671875 -3.15625 C 1.484375 -3.15625 1.320312 -3.109375 1.1875 -3.015625 C 1.050781 -2.929688 0.984375 -2.800781 0.984375 -2.625 C 0.984375 -2.46875 1.039062 -2.351562 1.15625 -2.28125 C 1.28125 -2.207031 1.46875 -2.140625 1.71875 -2.078125 C 2.113281 -1.972656 2.382812 -1.875 2.53125 -1.78125 C 2.6875 -1.695312 2.800781 -1.585938 2.875 -1.453125 C 2.945312 -1.328125 2.984375 -1.160156 2.984375 -0.953125 Z M 2.984375 -0.953125 "/></g></g><g transform="translate(67.226583, 67.991365)"><g><path d="M 2.65625 0 L 1.53125 -1.59375 L 1.15625 -1.171875 L 1.15625 0 L 0.578125 0 L 0.578125 -5.015625 L 1.15625 -5.015625 L 1.15625 -1.890625 L 2.59375 -3.53125 L 3.296875 -3.53125 L 1.890625 -1.984375 L 3.375 0 Z M 2.65625 0 "/></g></g><g transform="translate(70.760523, 67.991365)"><g><path d="M 1 -1.703125 C 1 -1.234375 1.078125 -0.898438 1.234375 -0.703125 C 1.390625 -0.503906 1.644531 -0.40625 2 -0.40625 C 2.15625 -0.40625 2.289062 -0.4375 2.40625 -0.5 C 2.53125 -0.5625 2.648438 -0.671875 2.765625 -0.828125 L 3.234375 -0.53125 C 3.097656 -0.320312 2.929688 -0.160156 2.734375 -0.046875 C 2.546875 0.0546875 2.289062 0.109375 1.96875 0.109375 C 1.4375 0.109375 1.039062 -0.0390625 0.78125 -0.34375 C 0.519531 -0.65625 0.390625 -1.117188 0.390625 -1.734375 C 0.390625 -2.390625 0.515625 -2.867188 0.765625 -3.171875 C 1.023438 -3.484375 1.410156 -3.640625 1.921875 -3.640625 C 2.378906 -3.640625 2.722656 -3.503906 2.953125 -3.234375 C 3.179688 -2.972656 3.296875 -2.566406 3.296875 -2.015625 L 3.296875 -1.703125 Z M 2.734375 -2.15625 C 2.722656 -2.46875 2.648438 -2.710938 2.515625 -2.890625 C 2.390625 -3.066406 2.1875 -3.15625 1.90625 -3.15625 C 1.625 -3.15625 1.410156 -3.078125 1.265625 -2.921875 C 1.128906 -2.765625 1.039062 -2.507812 1 -2.15625 Z M 2.09375 -4.078125 L 1.625 -4.078125 L 2.21875 -5.296875 L 3.015625 -5.296875 Z M 2.09375 -4.078125 "/></g></g><g transform="translate(74.402267, 67.991365)"><g/></g><g transform="translate(76.26525, 67.991365)"><g><path d="M 2.796875 0 L 2.796875 -2.078125 C 2.796875 -2.421875 2.773438 -2.644531 2.734375 -2.75 C 2.703125 -2.863281 2.648438 -2.945312 2.578125 -3 C 2.503906 -3.050781 2.394531 -3.078125 2.25 -3.078125 C 2.09375 -3.078125 1.914062 -3.019531 1.71875 -2.90625 C 1.53125 -2.789062 1.34375 -2.65625 1.15625 -2.5 L 1.15625 0 L 0.578125 0 L 0.578125 -3.53125 L 1.15625 -3.53125 L 1.15625 -3.015625 C 1.320312 -3.171875 1.507812 -3.3125 1.71875 -3.4375 C 1.9375 -3.570312 2.160156 -3.640625 2.390625 -3.640625 C 2.722656 -3.640625 2.96875 -3.539062 3.125 -3.34375 C 3.289062 -3.15625 3.375 -2.828125 3.375 -2.359375 L 3.375 0 Z M 2.796875 0 "/></g></g><g transform="translate(80.183241, 67.991365)"><g><path d="M 1.25 -4.4375 C 1.25 -4.300781 1.21875 -4.207031 1.15625 -4.15625 C 1.09375 -4.113281 0.992188 -4.09375 0.859375 -4.09375 C 0.722656 -4.09375 0.625 -4.117188 0.5625 -4.171875 C 0.507812 -4.234375 0.484375 -4.320312 0.484375 -4.4375 C 0.484375 -4.550781 0.515625 -4.632812 0.578125 -4.6875 C 0.640625 -4.75 0.734375 -4.78125 0.859375 -4.78125 C 0.992188 -4.78125 1.09375 -4.753906 1.15625 -4.703125 C 1.21875 -4.648438 1.25 -4.5625 1.25 -4.4375 Z M 0.578125 0 L 0.578125 -3.53125 L 1.15625 -3.53125 L 1.15625 0 Z M 0.578125 0 "/></g></g><g transform="translate(81.9081, 67.991365)"><g><path d="M 1.984375 0 L 1.40625 0 L 0.171875 -3.53125 L 0.796875 -3.53125 L 1.71875 -0.765625 L 2.625 -3.53125 L 3.21875 -3.53125 Z M 1.984375 0 "/></g></g><g transform="translate(85.303917, 67.991365)"><g><path d="M 0.125 0.75 C 0.269531 0.8125 0.441406 0.84375 0.640625 0.84375 C 0.910156 0.84375 1.140625 0.597656 1.328125 0.109375 L 1.453125 -0.1875 L 0.15625 -3.53125 L 0.78125 -3.53125 L 1.765625 -0.953125 L 2.734375 -3.53125 L 3.34375 -3.53125 L 1.84375 0.265625 C 1.675781 0.660156 1.5 0.9375 1.3125 1.09375 C 1.132812 1.25 0.898438 1.328125 0.609375 1.328125 C 0.503906 1.328125 0.390625 1.316406 0.265625 1.296875 C 0.148438 1.273438 0.0546875 1.253906 -0.015625 1.234375 Z M 0.125 0.75 "/></g></g><g transform="translate(88.807538, 67.991365)"><g/></g><g transform="translate(90.67052, 67.991365)"><g><path d="M 1.953125 0 L 1.265625 0 L 3.109375 -4.109375 L 0.46875 -4.109375 L 0.46875 -4.671875 L 3.734375 -4.671875 L 3.734375 -4.09375 Z M 1.953125 0 "/></g></g><g transform="translate(94.928767, 67.991365)"><g><path d="M 3.453125 -1.328125 C 3.453125 -0.847656 3.304688 -0.488281 3.015625 -0.25 C 2.722656 -0.0195312 2.3125 0.09375 1.78125 0.09375 C 1.46875 0.09375 1.179688 0.03125 0.921875 -0.09375 C 0.660156 -0.21875 0.46875 -0.382812 0.34375 -0.59375 L 0.859375 -0.921875 C 0.941406 -0.785156 1.0625 -0.671875 1.21875 -0.578125 C 1.382812 -0.492188 1.570312 -0.453125 1.78125 -0.453125 C 2.132812 -0.453125 2.390625 -0.523438 2.546875 -0.671875 C 2.710938 -0.816406 2.796875 -1.050781 2.796875 -1.375 C 2.796875 -1.925781 2.441406 -2.203125 1.734375 -2.203125 L 1.375 -2.203125 L 1.375 -2.75 L 1.671875 -2.75 C 1.992188 -2.75 2.25 -2.816406 2.4375 -2.953125 C 2.625 -3.085938 2.71875 -3.285156 2.71875 -3.546875 C 2.71875 -3.773438 2.640625 -3.941406 2.484375 -4.046875 C 2.335938 -4.160156 2.140625 -4.21875 1.890625 -4.21875 C 1.460938 -4.21875 1.132812 -4.046875 0.90625 -3.703125 L 0.390625 -4.03125 C 0.523438 -4.28125 0.722656 -4.460938 0.984375 -4.578125 C 1.253906 -4.703125 1.566406 -4.765625 1.921875 -4.765625 C 2.222656 -4.765625 2.484375 -4.71875 2.703125 -4.625 C 2.921875 -4.53125 3.085938 -4.398438 3.203125 -4.234375 C 3.316406 -4.066406 3.375 -3.867188 3.375 -3.640625 C 3.375 -3.328125 3.296875 -3.078125 3.140625 -2.890625 C 2.984375 -2.710938 2.75 -2.585938 2.4375 -2.515625 C 2.726562 -2.492188 2.96875 -2.382812 3.15625 -2.1875 C 3.351562 -1.988281 3.453125 -1.703125 3.453125 -1.328125 Z M 3.453125 -1.328125 "/></g></g></g><g fill="#737373" fill-opacity="1"><g transform="translate(49.321061, 78.915474)"><g><path d="M 3.640625 -1.203125 C 3.640625 -0.765625 3.488281 -0.4375 3.1875 -0.21875 C 2.894531 -0.0078125 2.503906 0.09375 2.015625 0.09375 C 1.472656 0.09375 1.0625 -0.015625 0.78125 -0.234375 C 0.507812 -0.453125 0.375 -0.773438 0.375 -1.203125 C 0.375 -1.796875 0.707031 -2.222656 1.375 -2.484375 C 1.113281 -2.609375 0.929688 -2.71875 0.828125 -2.8125 C 0.722656 -2.90625 0.640625 -3.015625 0.578125 -3.140625 C 0.515625 -3.265625 0.484375 -3.410156 0.484375 -3.578125 C 0.484375 -3.953125 0.613281 -4.242188 0.875 -4.453125 C 1.132812 -4.660156 1.515625 -4.765625 2.015625 -4.765625 C 2.503906 -4.765625 2.878906 -4.660156 3.140625 -4.453125 C 3.398438 -4.253906 3.53125 -3.960938 3.53125 -3.578125 C 3.53125 -3.410156 3.492188 -3.265625 3.421875 -3.140625 C 3.359375 -3.015625 3.269531 -2.898438 3.15625 -2.796875 C 3.039062 -2.703125 2.863281 -2.597656 2.625 -2.484375 C 2.976562 -2.328125 3.234375 -2.144531 3.390625 -1.9375 C 3.554688 -1.738281 3.640625 -1.492188 3.640625 -1.203125 Z M 2.90625 -3.5625 C 2.90625 -3.769531 2.828125 -3.9375 2.671875 -4.0625 C 2.523438 -4.195312 2.304688 -4.265625 2.015625 -4.265625 C 1.691406 -4.265625 1.457031 -4.195312 1.3125 -4.0625 C 1.175781 -3.9375 1.109375 -3.773438 1.109375 -3.578125 C 1.109375 -3.460938 1.132812 -3.363281 1.1875 -3.28125 C 1.25 -3.195312 1.335938 -3.113281 1.453125 -3.03125 C 1.578125 -2.945312 1.765625 -2.847656 2.015625 -2.734375 C 2.296875 -2.847656 2.515625 -2.96875 2.671875 -3.09375 C 2.828125 -3.226562 2.90625 -3.382812 2.90625 -3.5625 Z M 3.015625 -1.203125 C 3.015625 -1.335938 2.984375 -1.457031 2.921875 -1.5625 C 2.859375 -1.675781 2.765625 -1.78125 2.640625 -1.875 C 2.515625 -1.96875 2.304688 -2.082031 2.015625 -2.21875 C 1.722656 -2.101562 1.515625 -2 1.390625 -1.90625 C 1.265625 -1.8125 1.164062 -1.707031 1.09375 -1.59375 C 1.03125 -1.476562 1 -1.34375 1 -1.1875 C 1 -0.957031 1.078125 -0.769531 1.234375 -0.625 C 1.398438 -0.476562 1.660156 -0.40625 2.015625 -0.40625 C 2.359375 -0.40625 2.609375 -0.476562 2.765625 -0.625 C 2.929688 -0.769531 3.015625 -0.960938 3.015625 -1.203125 Z M 3.015625 -1.203125 "/></g></g><g transform="translate(53.323274, 78.915474)"><g><path d="M 0.46875 0 L 0.46875 -0.65625 C 1.019531 -1.125 1.414062 -1.472656 1.65625 -1.703125 C 1.90625 -1.941406 2.109375 -2.148438 2.265625 -2.328125 C 2.429688 -2.515625 2.554688 -2.695312 2.640625 -2.875 C 2.734375 -3.050781 2.78125 -3.242188 2.78125 -3.453125 C 2.78125 -3.679688 2.703125 -3.863281 2.546875 -4 C 2.398438 -4.144531 2.203125 -4.21875 1.953125 -4.21875 C 1.710938 -4.21875 1.515625 -4.160156 1.359375 -4.046875 C 1.210938 -3.941406 1.082031 -3.804688 0.96875 -3.640625 L 0.453125 -3.96875 C 0.617188 -4.25 0.828125 -4.453125 1.078125 -4.578125 C 1.328125 -4.703125 1.625 -4.765625 1.96875 -4.765625 C 2.425781 -4.765625 2.785156 -4.648438 3.046875 -4.421875 C 3.316406 -4.203125 3.453125 -3.890625 3.453125 -3.484375 C 3.453125 -3.273438 3.421875 -3.078125 3.359375 -2.890625 C 3.296875 -2.710938 3.203125 -2.539062 3.078125 -2.375 C 2.953125 -2.21875 2.785156 -2.03125 2.578125 -1.8125 C 2.367188 -1.601562 1.898438 -1.1875 1.171875 -0.5625 L 3.59375 -0.5625 L 3.59375 0 Z M 0.46875 0 "/></g></g><g transform="translate(57.325487, 78.915474)"><g><path d="M 2.078125 0 L 2.078125 -3.328125 L 0.953125 -3.328125 L 0.953125 -3.765625 C 1.253906 -3.785156 1.484375 -3.820312 1.640625 -3.875 C 1.796875 -3.925781 1.914062 -4.007812 2 -4.125 C 2.09375 -4.238281 2.171875 -4.421875 2.234375 -4.671875 L 2.6875 -4.671875 L 2.6875 0 Z M 2.078125 0 "/></g></g><g transform="translate(61.583733, 78.915474)"><g/></g><g transform="translate(63.446716, 78.915474)"><g><path d="M 3.84375 -2.328125 C 3.84375 -1.492188 3.703125 -0.878906 3.421875 -0.484375 C 3.140625 -0.0859375 2.707031 0.109375 2.125 0.109375 C 1.539062 0.109375 1.109375 -0.0820312 0.828125 -0.46875 C 0.554688 -0.863281 0.421875 -1.476562 0.421875 -2.3125 C 0.421875 -3.15625 0.554688 -3.769531 0.828125 -4.15625 C 1.109375 -4.550781 1.539062 -4.75 2.125 -4.75 C 2.71875 -4.75 3.148438 -4.550781 3.421875 -4.15625 C 3.703125 -3.769531 3.84375 -3.160156 3.84375 -2.328125 Z M 3.1875 -2.328125 C 3.1875 -2.972656 3.097656 -3.445312 2.921875 -3.75 C 2.753906 -4.050781 2.488281 -4.203125 2.125 -4.203125 C 1.769531 -4.203125 1.503906 -4.050781 1.328125 -3.75 C 1.160156 -3.445312 1.078125 -2.96875 1.078125 -2.3125 C 1.078125 -1.664062 1.160156 -1.191406 1.328125 -0.890625 C 1.503906 -0.585938 1.769531 -0.4375 2.125 -0.4375 C 2.488281 -0.4375 2.753906 -0.585938 2.921875 -0.890625 C 3.097656 -1.191406 3.1875 -1.671875 3.1875 -2.328125 Z M 3.1875 -2.328125 "/></g></g><g transform="translate(67.704962, 78.915474)"><g><path d="M 3.515625 -1.484375 C 3.515625 -1.003906 3.375 -0.617188 3.09375 -0.328125 C 2.8125 -0.046875 2.394531 0.09375 1.84375 0.09375 C 1.476562 0.09375 1.171875 0.03125 0.921875 -0.09375 C 0.671875 -0.226562 0.488281 -0.394531 0.375 -0.59375 L 0.890625 -0.921875 C 0.972656 -0.796875 1.09375 -0.6875 1.25 -0.59375 C 1.40625 -0.5 1.597656 -0.453125 1.828125 -0.453125 C 2.171875 -0.453125 2.429688 -0.546875 2.609375 -0.734375 C 2.785156 -0.921875 2.875 -1.171875 2.875 -1.484375 C 2.875 -1.765625 2.78125 -1.988281 2.59375 -2.15625 C 2.414062 -2.320312 2.160156 -2.40625 1.828125 -2.40625 C 1.492188 -2.40625 1.207031 -2.320312 0.96875 -2.15625 L 0.65625 -2.15625 L 0.90625 -4.671875 L 3.359375 -4.671875 L 3.359375 -4.109375 L 1.421875 -4.109375 L 1.28125 -2.765625 C 1.375 -2.816406 1.488281 -2.851562 1.625 -2.875 C 1.757812 -2.90625 1.890625 -2.921875 2.015625 -2.921875 C 2.492188 -2.921875 2.863281 -2.800781 3.125 -2.5625 C 3.382812 -2.320312 3.515625 -1.960938 3.515625 -1.484375 Z M 3.515625 -1.484375 "/></g></g><g transform="translate(71.707175, 78.915474)"><g/></g><g transform="translate(73.570158, 78.915474)"><g><path d="M 3.90625 -1.375 C 3.90625 -0.894531 3.75 -0.546875 3.4375 -0.328125 C 3.132812 -0.109375 2.703125 0 2.140625 0 L 0.609375 0 L 0.609375 -4.671875 L 2 -4.671875 C 2.570312 -4.671875 2.984375 -4.585938 3.234375 -4.421875 C 3.484375 -4.253906 3.609375 -3.984375 3.609375 -3.609375 C 3.609375 -3.296875 3.539062 -3.054688 3.40625 -2.890625 C 3.269531 -2.722656 3.097656 -2.609375 2.890625 -2.546875 C 3.191406 -2.503906 3.4375 -2.390625 3.625 -2.203125 C 3.8125 -2.023438 3.90625 -1.75 3.90625 -1.375 Z M 2.96875 -3.46875 C 2.96875 -3.707031 2.894531 -3.875 2.75 -3.96875 C 2.601562 -4.070312 2.335938 -4.125 1.953125 -4.125 L 1.234375 -4.125 L 1.234375 -2.734375 L 1.921875 -2.734375 C 2.296875 -2.734375 2.5625 -2.789062 2.71875 -2.90625 C 2.882812 -3.019531 2.96875 -3.207031 2.96875 -3.46875 Z M 3.25 -1.390625 C 3.25 -1.585938 3.210938 -1.738281 3.140625 -1.84375 C 3.066406 -1.957031 2.953125 -2.039062 2.796875 -2.09375 C 2.640625 -2.144531 2.382812 -2.171875 2.03125 -2.171875 L 1.234375 -2.171875 L 1.234375 -0.5625 L 1.875 -0.5625 C 2.269531 -0.5625 2.554688 -0.585938 2.734375 -0.640625 C 2.910156 -0.691406 3.039062 -0.773438 3.125 -0.890625 C 3.207031 -1.015625 3.25 -1.179688 3.25 -1.390625 Z M 3.25 -1.390625 "/></g></g><g transform="translate(77.855355, 78.915474)"><g><path d="M 2.484375 -2.96875 C 2.421875 -2.988281 2.332031 -3 2.21875 -3 C 2.039062 -3 1.867188 -2.957031 1.703125 -2.875 C 1.546875 -2.800781 1.363281 -2.65625 1.15625 -2.4375 L 1.15625 0 L 0.578125 0 L 0.578125 -3.53125 L 1.15625 -3.53125 L 1.15625 -2.96875 C 1.3125 -3.125 1.476562 -3.265625 1.65625 -3.390625 C 1.84375 -3.523438 2.046875 -3.59375 2.265625 -3.59375 C 2.410156 -3.59375 2.523438 -3.566406 2.609375 -3.515625 Z M 2.484375 -2.96875 "/></g></g><g transform="translate(80.587505, 78.915474)"><g><path d="M 2.578125 0 L 2.578125 -0.4375 C 2.398438 -0.28125 2.21875 -0.148438 2.03125 -0.046875 C 1.851562 0.0546875 1.648438 0.109375 1.421875 0.109375 C 1.085938 0.109375 0.828125 0.00390625 0.640625 -0.203125 C 0.460938 -0.410156 0.375 -0.675781 0.375 -1 C 0.375 -1.238281 0.421875 -1.4375 0.515625 -1.59375 C 0.609375 -1.757812 0.742188 -1.890625 0.921875 -1.984375 C 1.109375 -2.078125 1.375 -2.144531 1.71875 -2.1875 L 2.578125 -2.265625 L 2.578125 -2.4375 C 2.578125 -2.707031 2.5 -2.890625 2.34375 -2.984375 C 2.195312 -3.085938 1.992188 -3.140625 1.734375 -3.140625 C 1.492188 -3.140625 1.304688 -3.097656 1.171875 -3.015625 C 1.046875 -2.929688 0.953125 -2.835938 0.890625 -2.734375 L 0.421875 -3.03125 C 0.523438 -3.226562 0.6875 -3.378906 0.90625 -3.484375 C 1.132812 -3.585938 1.410156 -3.640625 1.734375 -3.640625 C 2.242188 -3.640625 2.609375 -3.546875 2.828125 -3.359375 C 3.046875 -3.171875 3.15625 -2.851562 3.15625 -2.40625 L 3.15625 0 Z M 2.578125 -1.796875 L 2.015625 -1.734375 C 1.628906 -1.703125 1.359375 -1.628906 1.203125 -1.515625 C 1.046875 -1.398438 0.96875 -1.234375 0.96875 -1.015625 C 0.96875 -0.796875 1.019531 -0.640625 1.125 -0.546875 C 1.226562 -0.460938 1.390625 -0.421875 1.609375 -0.421875 C 1.691406 -0.421875 1.773438 -0.4375 1.859375 -0.46875 C 1.941406 -0.5 2.023438 -0.535156 2.109375 -0.578125 C 2.191406 -0.628906 2.269531 -0.6875 2.34375 -0.75 C 2.425781 -0.8125 2.503906 -0.875 2.578125 -0.9375 Z M 2.578125 -1.796875 "/></g></g><g transform="translate(84.293258, 78.915474)"><g><path d="M 2.34375 0 C 2.113281 0.0703125 1.890625 0.109375 1.671875 0.109375 C 1.316406 0.109375 1.0625 0.015625 0.90625 -0.171875 C 0.75 -0.367188 0.671875 -0.664062 0.671875 -1.0625 L 0.671875 -3.046875 L 0.15625 -3.046875 L 0.15625 -3.53125 L 0.671875 -3.53125 L 0.671875 -4.515625 L 1.25 -4.515625 L 1.25 -3.53125 L 2.140625 -3.53125 L 2.140625 -3.046875 L 1.25 -3.046875 L 1.25 -1.1875 C 1.25 -0.894531 1.273438 -0.6875 1.328125 -0.5625 C 1.390625 -0.4375 1.519531 -0.375 1.71875 -0.375 C 1.882812 -0.375 2.039062 -0.40625 2.1875 -0.46875 Z M 2.34375 0 "/></g></g><g transform="translate(86.749161, 78.915474)"><g><path d="M 1.25 -4.4375 C 1.25 -4.300781 1.21875 -4.207031 1.15625 -4.15625 C 1.09375 -4.113281 0.992188 -4.09375 0.859375 -4.09375 C 0.722656 -4.09375 0.625 -4.117188 0.5625 -4.171875 C 0.507812 -4.234375 0.484375 -4.320312 0.484375 -4.4375 C 0.484375 -4.550781 0.515625 -4.632812 0.578125 -4.6875 C 0.640625 -4.75 0.734375 -4.78125 0.859375 -4.78125 C 0.992188 -4.78125 1.09375 -4.753906 1.15625 -4.703125 C 1.21875 -4.648438 1.25 -4.5625 1.25 -4.4375 Z M 0.578125 0 L 0.578125 -3.53125 L 1.15625 -3.53125 L 1.15625 0 Z M 0.578125 0 "/></g></g><g transform="translate(88.47402, 78.915474)"><g><path d="M 2.984375 -0.953125 C 2.984375 -0.617188 2.867188 -0.359375 2.640625 -0.171875 C 2.410156 0.015625 2.078125 0.109375 1.640625 0.109375 C 1.347656 0.109375 1.082031 0.0507812 0.84375 -0.0625 C 0.613281 -0.175781 0.445312 -0.332031 0.34375 -0.53125 L 0.796875 -0.8125 C 0.972656 -0.53125 1.257812 -0.390625 1.65625 -0.390625 C 1.914062 -0.390625 2.109375 -0.4375 2.234375 -0.53125 C 2.359375 -0.632812 2.421875 -0.769531 2.421875 -0.9375 C 2.421875 -1.03125 2.398438 -1.109375 2.359375 -1.171875 C 2.316406 -1.234375 2.242188 -1.285156 2.140625 -1.328125 C 2.046875 -1.378906 1.851562 -1.441406 1.5625 -1.515625 C 1.144531 -1.617188 0.847656 -1.753906 0.671875 -1.921875 C 0.503906 -2.085938 0.421875 -2.316406 0.421875 -2.609375 C 0.421875 -2.921875 0.53125 -3.171875 0.75 -3.359375 C 0.976562 -3.546875 1.289062 -3.640625 1.6875 -3.640625 C 2 -3.640625 2.257812 -3.578125 2.46875 -3.453125 C 2.675781 -3.335938 2.828125 -3.191406 2.921875 -3.015625 L 2.46875 -2.734375 C 2.28125 -3.015625 2.015625 -3.15625 1.671875 -3.15625 C 1.484375 -3.15625 1.320312 -3.109375 1.1875 -3.015625 C 1.050781 -2.929688 0.984375 -2.800781 0.984375 -2.625 C 0.984375 -2.46875 1.039062 -2.351562 1.15625 -2.28125 C 1.28125 -2.207031 1.46875 -2.140625 1.71875 -2.078125 C 2.113281 -1.972656 2.382812 -1.875 2.53125 -1.78125 C 2.6875 -1.695312 2.800781 -1.585938 2.875 -1.453125 C 2.945312 -1.328125 2.984375 -1.160156 2.984375 -0.953125 Z M 2.984375 -0.953125 "/></g></g><g transform="translate(91.812566, 78.915474)"><g><path d="M 0.59375 0 L 0.59375 -5.015625 L 1.1875 -5.015625 L 1.1875 0 Z M 0.59375 0 "/></g></g><g transform="translate(93.591327, 78.915474)"><g><path d="M 2.578125 0 L 2.578125 -0.4375 C 2.398438 -0.28125 2.21875 -0.148438 2.03125 -0.046875 C 1.851562 0.0546875 1.648438 0.109375 1.421875 0.109375 C 1.085938 0.109375 0.828125 0.00390625 0.640625 -0.203125 C 0.460938 -0.410156 0.375 -0.675781 0.375 -1 C 0.375 -1.238281 0.421875 -1.4375 0.515625 -1.59375 C 0.609375 -1.757812 0.742188 -1.890625 0.921875 -1.984375 C 1.109375 -2.078125 1.375 -2.144531 1.71875 -2.1875 L 2.578125 -2.265625 L 2.578125 -2.4375 C 2.578125 -2.707031 2.5 -2.890625 2.34375 -2.984375 C 2.195312 -3.085938 1.992188 -3.140625 1.734375 -3.140625 C 1.492188 -3.140625 1.304688 -3.097656 1.171875 -3.015625 C 1.046875 -2.929688 0.953125 -2.835938 0.890625 -2.734375 L 0.421875 -3.03125 C 0.523438 -3.226562 0.6875 -3.378906 0.90625 -3.484375 C 1.132812 -3.585938 1.410156 -3.640625 1.734375 -3.640625 C 2.242188 -3.640625 2.609375 -3.546875 2.828125 -3.359375 C 3.046875 -3.171875 3.15625 -2.851562 3.15625 -2.40625 L 3.15625 0 Z M 2.578125 -1.796875 L 2.015625 -1.734375 C 1.628906 -1.703125 1.359375 -1.628906 1.203125 -1.515625 C 1.046875 -1.398438 0.96875 -1.234375 0.96875 -1.015625 C 0.96875 -0.796875 1.019531 -0.640625 1.125 -0.546875 C 1.226562 -0.460938 1.390625 -0.421875 1.609375 -0.421875 C 1.691406 -0.421875 1.773438 -0.4375 1.859375 -0.46875 C 1.941406 -0.5 2.023438 -0.535156 2.109375 -0.578125 C 2.191406 -0.628906 2.269531 -0.6875 2.34375 -0.75 C 2.425781 -0.8125 2.503906 -0.875 2.578125 -0.9375 Z M 2.578125 -1.796875 "/></g></g><g transform="translate(97.29708, 78.915474)"><g><path d="M 1.984375 0 L 1.40625 0 L 0.171875 -3.53125 L 0.796875 -3.53125 L 1.71875 -0.765625 L 2.625 -3.53125 L 3.21875 -3.53125 Z M 1.984375 0 "/></g></g><g transform="translate(100.692896, 78.915474)"><g><path d="M 2.578125 0 L 2.578125 -0.4375 C 2.398438 -0.28125 2.21875 -0.148438 2.03125 -0.046875 C 1.851562 0.0546875 1.648438 0.109375 1.421875 0.109375 C 1.085938 0.109375 0.828125 0.00390625 0.640625 -0.203125 C 0.460938 -0.410156 0.375 -0.675781 0.375 -1 C 0.375 -1.238281 0.421875 -1.4375 0.515625 -1.59375 C 0.609375 -1.757812 0.742188 -1.890625 0.921875 -1.984375 C 1.109375 -2.078125 1.375 -2.144531 1.71875 -2.1875 L 2.578125 -2.265625 L 2.578125 -2.4375 C 2.578125 -2.707031 2.5 -2.890625 2.34375 -2.984375 C 2.195312 -3.085938 1.992188 -3.140625 1.734375 -3.140625 C 1.492188 -3.140625 1.304688 -3.097656 1.171875 -3.015625 C 1.046875 -2.929688 0.953125 -2.835938 0.890625 -2.734375 L 0.421875 -3.03125 C 0.523438 -3.226562 0.6875 -3.378906 0.90625 -3.484375 C 1.132812 -3.585938 1.410156 -3.640625 1.734375 -3.640625 C 2.242188 -3.640625 2.609375 -3.546875 2.828125 -3.359375 C 3.046875 -3.171875 3.15625 -2.851562 3.15625 -2.40625 L 3.15625 0 Z M 2.578125 -1.796875 L 2.015625 -1.734375 C 1.628906 -1.703125 1.359375 -1.628906 1.203125 -1.515625 C 1.046875 -1.398438 0.96875 -1.234375 0.96875 -1.015625 C 0.96875 -0.796875 1.019531 -0.640625 1.125 -0.546875 C 1.226562 -0.460938 1.390625 -0.421875 1.609375 -0.421875 C 1.691406 -0.421875 1.773438 -0.4375 1.859375 -0.46875 C 1.941406 -0.5 2.023438 -0.535156 2.109375 -0.578125 C 2.191406 -0.628906 2.269531 -0.6875 2.34375 -0.75 C 2.425781 -0.8125 2.503906 -0.875 2.578125 -0.9375 Z M 2.578125 -1.796875 "/></g></g></g><g fill="#737373" fill-opacity="1"><g transform="translate(104.390788, 78.915474)"><g/></g></g><g fill="#737373" fill-opacity="1"><g transform="translate(106.250402, 78.915474)"><g/></g></g><g fill="#737373" fill-opacity="1"><g transform="translate(49.321061, 89.839583)"><g><path d="M 3.75 -1.28125 C 3.75 -0.84375 3.601562 -0.503906 3.3125 -0.265625 C 3.03125 -0.0234375 2.613281 0.09375 2.0625 0.09375 C 1.644531 0.09375 1.296875 0.0195312 1.015625 -0.125 C 0.734375 -0.269531 0.503906 -0.5 0.328125 -0.8125 L 0.828125 -1.15625 C 1.085938 -0.6875 1.492188 -0.453125 2.046875 -0.453125 C 2.378906 -0.453125 2.640625 -0.519531 2.828125 -0.65625 C 3.015625 -0.800781 3.109375 -0.992188 3.109375 -1.234375 C 3.109375 -1.367188 3.078125 -1.484375 3.015625 -1.578125 C 2.960938 -1.671875 2.882812 -1.75 2.78125 -1.8125 C 2.6875 -1.875 2.570312 -1.925781 2.4375 -1.96875 C 2.3125 -2.007812 2.179688 -2.046875 2.046875 -2.078125 C 1.816406 -2.140625 1.601562 -2.195312 1.40625 -2.25 C 1.207031 -2.3125 1.035156 -2.390625 0.890625 -2.484375 C 0.742188 -2.578125 0.628906 -2.695312 0.546875 -2.84375 C 0.460938 -3 0.421875 -3.191406 0.421875 -3.421875 C 0.421875 -3.835938 0.550781 -4.164062 0.8125 -4.40625 C 1.082031 -4.644531 1.484375 -4.765625 2.015625 -4.765625 C 2.441406 -4.765625 2.78125 -4.6875 3.03125 -4.53125 C 3.28125 -4.375 3.476562 -4.171875 3.625 -3.921875 L 3.125 -3.578125 C 3.007812 -3.773438 2.863281 -3.929688 2.6875 -4.046875 C 2.507812 -4.160156 2.285156 -4.21875 2.015625 -4.21875 C 1.710938 -4.21875 1.476562 -4.148438 1.3125 -4.015625 C 1.144531 -3.878906 1.0625 -3.695312 1.0625 -3.46875 C 1.0625 -3.351562 1.082031 -3.253906 1.125 -3.171875 C 1.175781 -3.085938 1.25 -3.019531 1.34375 -2.96875 C 1.4375 -2.914062 1.550781 -2.867188 1.6875 -2.828125 C 1.832031 -2.785156 2 -2.742188 2.1875 -2.703125 C 2.394531 -2.640625 2.59375 -2.578125 2.78125 -2.515625 C 2.976562 -2.460938 3.144531 -2.382812 3.28125 -2.28125 C 3.425781 -2.175781 3.539062 -2.046875 3.625 -1.890625 C 3.707031 -1.734375 3.75 -1.53125 3.75 -1.28125 Z M 3.75 -1.28125 "/></g></g><g transform="translate(53.45466, 89.839583)"><g><path d="M 0.59375 0 L 0.59375 -5.015625 L 1.1875 -5.015625 L 1.1875 0 Z M 0.59375 0 "/></g></g><g transform="translate(55.233421, 89.839583)"><g><path d="M 3.5 -1.765625 C 3.5 -1.148438 3.367188 -0.679688 3.109375 -0.359375 C 2.847656 -0.046875 2.460938 0.109375 1.953125 0.109375 C 1.453125 0.109375 1.066406 -0.046875 0.796875 -0.359375 C 0.523438 -0.671875 0.390625 -1.140625 0.390625 -1.765625 C 0.390625 -2.390625 0.523438 -2.859375 0.796875 -3.171875 C 1.066406 -3.484375 1.453125 -3.640625 1.953125 -3.640625 C 2.460938 -3.640625 2.847656 -3.476562 3.109375 -3.15625 C 3.367188 -2.84375 3.5 -2.378906 3.5 -1.765625 Z M 2.90625 -1.765625 C 2.90625 -2.242188 2.828125 -2.59375 2.671875 -2.8125 C 2.515625 -3.03125 2.273438 -3.140625 1.953125 -3.140625 C 1.628906 -3.140625 1.390625 -3.03125 1.234375 -2.8125 C 1.078125 -2.59375 1 -2.242188 1 -1.765625 C 1 -1.296875 1.070312 -0.953125 1.21875 -0.734375 C 1.375 -0.515625 1.617188 -0.40625 1.953125 -0.40625 C 2.273438 -0.40625 2.515625 -0.515625 2.671875 -0.734375 C 2.828125 -0.953125 2.90625 -1.296875 2.90625 -1.765625 Z M 2.90625 -1.765625 "/></g></g><g transform="translate(59.131199, 89.839583)"><g><path d="M 1.984375 0 L 1.40625 0 L 0.171875 -3.53125 L 0.796875 -3.53125 L 1.71875 -0.765625 L 2.625 -3.53125 L 3.21875 -3.53125 Z M 1.984375 0 "/></g></g><g transform="translate(62.527015, 89.839583)"><g><path d="M 1 -1.703125 C 1 -1.234375 1.078125 -0.898438 1.234375 -0.703125 C 1.390625 -0.503906 1.644531 -0.40625 2 -0.40625 C 2.15625 -0.40625 2.289062 -0.4375 2.40625 -0.5 C 2.53125 -0.5625 2.648438 -0.671875 2.765625 -0.828125 L 3.234375 -0.53125 C 3.097656 -0.320312 2.929688 -0.160156 2.734375 -0.046875 C 2.546875 0.0546875 2.289062 0.109375 1.96875 0.109375 C 1.4375 0.109375 1.039062 -0.0390625 0.78125 -0.34375 C 0.519531 -0.65625 0.390625 -1.117188 0.390625 -1.734375 C 0.390625 -2.390625 0.515625 -2.867188 0.765625 -3.171875 C 1.023438 -3.484375 1.410156 -3.640625 1.921875 -3.640625 C 2.378906 -3.640625 2.722656 -3.503906 2.953125 -3.234375 C 3.179688 -2.972656 3.296875 -2.566406 3.296875 -2.015625 L 3.296875 -1.703125 Z M 2.734375 -2.15625 C 2.722656 -2.46875 2.648438 -2.710938 2.515625 -2.890625 C 2.390625 -3.066406 2.1875 -3.15625 1.90625 -3.15625 C 1.625 -3.15625 1.410156 -3.078125 1.265625 -2.921875 C 1.128906 -2.765625 1.039062 -2.507812 1 -2.15625 Z M 2.734375 -2.15625 "/></g></g><g transform="translate(66.168759, 89.839583)"><g><path d="M 2.796875 0 L 2.796875 -2.078125 C 2.796875 -2.421875 2.773438 -2.644531 2.734375 -2.75 C 2.703125 -2.863281 2.648438 -2.945312 2.578125 -3 C 2.503906 -3.050781 2.394531 -3.078125 2.25 -3.078125 C 2.09375 -3.078125 1.914062 -3.019531 1.71875 -2.90625 C 1.53125 -2.789062 1.34375 -2.65625 1.15625 -2.5 L 1.15625 0 L 0.578125 0 L 0.578125 -3.53125 L 1.15625 -3.53125 L 1.15625 -3.015625 C 1.320312 -3.171875 1.507812 -3.3125 1.71875 -3.4375 C 1.9375 -3.570312 2.160156 -3.640625 2.390625 -3.640625 C 2.722656 -3.640625 2.96875 -3.539062 3.125 -3.34375 C 3.289062 -3.15625 3.375 -2.828125 3.375 -2.359375 L 3.375 0 Z M 2.796875 0 "/></g></g><g transform="translate(70.08675, 89.839583)"><g><path d="M 2.984375 -0.953125 C 2.984375 -0.617188 2.867188 -0.359375 2.640625 -0.171875 C 2.410156 0.015625 2.078125 0.109375 1.640625 0.109375 C 1.347656 0.109375 1.082031 0.0507812 0.84375 -0.0625 C 0.613281 -0.175781 0.445312 -0.332031 0.34375 -0.53125 L 0.796875 -0.8125 C 0.972656 -0.53125 1.257812 -0.390625 1.65625 -0.390625 C 1.914062 -0.390625 2.109375 -0.4375 2.234375 -0.53125 C 2.359375 -0.632812 2.421875 -0.769531 2.421875 -0.9375 C 2.421875 -1.03125 2.398438 -1.109375 2.359375 -1.171875 C 2.316406 -1.234375 2.242188 -1.285156 2.140625 -1.328125 C 2.046875 -1.378906 1.851562 -1.441406 1.5625 -1.515625 C 1.144531 -1.617188 0.847656 -1.753906 0.671875 -1.921875 C 0.503906 -2.085938 0.421875 -2.316406 0.421875 -2.609375 C 0.421875 -2.921875 0.53125 -3.171875 0.75 -3.359375 C 0.976562 -3.546875 1.289062 -3.640625 1.6875 -3.640625 C 2 -3.640625 2.257812 -3.578125 2.46875 -3.453125 C 2.675781 -3.335938 2.828125 -3.191406 2.921875 -3.015625 L 2.46875 -2.734375 C 2.28125 -3.015625 2.015625 -3.15625 1.671875 -3.15625 C 1.484375 -3.15625 1.320312 -3.109375 1.1875 -3.015625 C 1.050781 -2.929688 0.984375 -2.800781 0.984375 -2.625 C 0.984375 -2.46875 1.039062 -2.351562 1.15625 -2.28125 C 1.28125 -2.207031 1.46875 -2.140625 1.71875 -2.078125 C 2.113281 -1.972656 2.382812 -1.875 2.53125 -1.78125 C 2.6875 -1.695312 2.800781 -1.585938 2.875 -1.453125 C 2.945312 -1.328125 2.984375 -1.160156 2.984375 -0.953125 Z M 2.984375 -0.953125 "/></g></g><g transform="translate(73.425296, 89.839583)"><g><path d="M 2.65625 0 L 1.53125 -1.59375 L 1.15625 -1.171875 L 1.15625 0 L 0.578125 0 L 0.578125 -5.015625 L 1.15625 -5.015625 L 1.15625 -1.890625 L 2.59375 -3.53125 L 3.296875 -3.53125 L 1.890625 -1.984375 L 3.375 0 Z M 2.65625 0 "/></g></g><g transform="translate(76.959237, 89.839583)"><g><path d="M 3.5 -1.765625 C 3.5 -1.148438 3.367188 -0.679688 3.109375 -0.359375 C 2.847656 -0.046875 2.460938 0.109375 1.953125 0.109375 C 1.453125 0.109375 1.066406 -0.046875 0.796875 -0.359375 C 0.523438 -0.671875 0.390625 -1.140625 0.390625 -1.765625 C 0.390625 -2.390625 0.523438 -2.859375 0.796875 -3.171875 C 1.066406 -3.484375 1.453125 -3.640625 1.953125 -3.640625 C 2.460938 -3.640625 2.847656 -3.476562 3.109375 -3.15625 C 3.367188 -2.84375 3.5 -2.378906 3.5 -1.765625 Z M 2.90625 -1.765625 C 2.90625 -2.242188 2.828125 -2.59375 2.671875 -2.8125 C 2.515625 -3.03125 2.273438 -3.140625 1.953125 -3.140625 C 1.628906 -3.140625 1.390625 -3.03125 1.234375 -2.8125 C 1.078125 -2.59375 1 -2.242188 1 -1.765625 C 1 -1.296875 1.070312 -0.953125 1.21875 -0.734375 C 1.375 -0.515625 1.617188 -0.40625 1.953125 -0.40625 C 2.273438 -0.40625 2.515625 -0.515625 2.671875 -0.734375 C 2.828125 -0.953125 2.90625 -1.296875 2.90625 -1.765625 Z M 2.90625 -1.765625 "/></g></g></g></svg>