<svg width="300" height="22" viewBox="0 0 305 22" fill="none" xmlns="http://www.w3.org/2000/svg">
<line x1="2" y1="5.5" x2="47" y2="5.5" stroke="#737373" stroke-width="3"/>
<line x1="47.5" y1="1.5" x2="47.5" y2="9.5" stroke="#737373" stroke-width="3" stroke-linecap="round"/>
<line x1="92.5" y1="1.5" x2="92.5" y2="9.5" stroke="#737373" stroke-width="3" stroke-linecap="round"/>
<line x1="152.5" y1="1.5" x2="152.5" y2="9.5" stroke="#737373" stroke-width="3" stroke-linecap="round"/>
<line x1="227.5" y1="1.5" x2="227.5" y2="9.5" stroke="#737373" stroke-width="3" stroke-linecap="round"/>
<line x1="303.5" y1="1.5" x2="303.5" y2="9.5" stroke="#737373" stroke-width="3" stroke-linecap="round"/>
<line x1="1.5" y1="1.5" x2="1.5" y2="9.5" stroke="#737373" stroke-width="3" stroke-linecap="round"/>
<line x1="47" y1="5.5" x2="92" y2="5.5" stroke="#737373" stroke-width="3"/>
<line x1="92" y1="5.5" x2="152" y2="5.5" stroke="#737373" stroke-width="3"/>
<line x1="152" y1="5.5" x2="227" y2="5.5" stroke="#737373" stroke-width="3"/>
<line x1="227" y1="5.5" x2="302" y2="5.5" stroke="#737373" stroke-width="3"/>
<path d="M188.555 19.2227V20H184.605V19.2227H188.555ZM188.465 14.918L184.969 20H184.312V19.3789L187.82 14.3125H188.465V14.918ZM188.102 14.3125V15.0938H184.336V14.3125H188.102ZM190.32 14V20H189.375V14H190.32ZM193.734 19.1523V17.1367C193.734 16.9857 193.707 16.8555 193.652 16.7461C193.598 16.6367 193.514 16.5521 193.402 16.4922C193.293 16.4323 193.155 16.4023 192.988 16.4023C192.835 16.4023 192.702 16.4284 192.59 16.4805C192.478 16.5326 192.391 16.6029 192.328 16.6914C192.266 16.7799 192.234 16.8802 192.234 16.9922H191.297C191.297 16.8255 191.337 16.6641 191.418 16.5078C191.499 16.3516 191.616 16.2122 191.77 16.0898C191.923 15.9674 192.107 15.8711 192.32 15.8008C192.534 15.7305 192.773 15.6953 193.039 15.6953C193.357 15.6953 193.638 15.7487 193.883 15.8555C194.13 15.9622 194.324 16.1237 194.465 16.3398C194.608 16.5534 194.68 16.8216 194.68 17.1445V19.0234C194.68 19.2161 194.693 19.3893 194.719 19.543C194.747 19.694 194.788 19.8255 194.84 19.9375V20H193.875C193.831 19.8984 193.796 19.7695 193.77 19.6133C193.746 19.4544 193.734 19.3008 193.734 19.1523ZM193.871 17.4297L193.879 18.0117H193.203C193.029 18.0117 192.875 18.0286 192.742 18.0625C192.609 18.0938 192.499 18.1406 192.41 18.2031C192.322 18.2656 192.255 18.3411 192.211 18.4297C192.167 18.5182 192.145 18.6185 192.145 18.7305C192.145 18.8424 192.171 18.9453 192.223 19.0391C192.275 19.1302 192.35 19.2018 192.449 19.2539C192.551 19.306 192.673 19.332 192.816 19.332C193.009 19.332 193.177 19.293 193.32 19.2148C193.466 19.1341 193.581 19.0365 193.664 18.9219C193.747 18.8047 193.792 18.694 193.797 18.5898L194.102 19.0078C194.07 19.1146 194.017 19.2292 193.941 19.3516C193.866 19.474 193.767 19.5911 193.645 19.7031C193.525 19.8125 193.38 19.9023 193.211 19.9727C193.044 20.043 192.852 20.0781 192.633 20.0781C192.357 20.0781 192.111 20.0234 191.895 19.9141C191.678 19.8021 191.509 19.6523 191.387 19.4648C191.264 19.2747 191.203 19.0599 191.203 18.8203C191.203 18.5964 191.245 18.3984 191.328 18.2266C191.414 18.0521 191.539 17.9062 191.703 17.7891C191.87 17.6719 192.073 17.5833 192.312 17.5234C192.552 17.4609 192.826 17.4297 193.133 17.4297H193.871ZM192.602 15.1758L193.363 14H194.426L193.363 15.1758H192.602Z" fill="black"/>
<path d="M106.738 17.8789H105.258V17.1016H106.738C106.996 17.1016 107.204 17.0599 107.363 16.9766C107.522 16.8932 107.638 16.7786 107.711 16.6328C107.786 16.4844 107.824 16.3151 107.824 16.125C107.824 15.9453 107.786 15.7773 107.711 15.6211C107.638 15.4622 107.522 15.3346 107.363 15.2383C107.204 15.1419 106.996 15.0938 106.738 15.0938H105.559V20H104.578V14.3125H106.738C107.178 14.3125 107.552 14.3906 107.859 14.5469C108.169 14.7005 108.405 14.9141 108.566 15.1875C108.728 15.4583 108.809 15.7682 108.809 16.1172C108.809 16.4844 108.728 16.7995 108.566 17.0625C108.405 17.3255 108.169 17.5273 107.859 17.668C107.552 17.8086 107.178 17.8789 106.738 17.8789ZM110.539 16.5781V20H109.598V15.7734H110.496L110.539 16.5781ZM111.832 15.7461L111.824 16.6211C111.767 16.6107 111.704 16.6029 111.637 16.5977C111.572 16.5924 111.507 16.5898 111.441 16.5898C111.28 16.5898 111.138 16.6133 111.016 16.6602C110.893 16.7044 110.79 16.7695 110.707 16.8555C110.626 16.9388 110.564 17.0404 110.52 17.1602C110.475 17.2799 110.449 17.4141 110.441 17.5625L110.227 17.5781C110.227 17.3125 110.253 17.0664 110.305 16.8398C110.357 16.6133 110.435 16.4141 110.539 16.2422C110.646 16.0703 110.779 15.9362 110.938 15.8398C111.099 15.7435 111.285 15.6953 111.496 15.6953C111.553 15.6953 111.615 15.7005 111.68 15.7109C111.747 15.7214 111.798 15.7331 111.832 15.7461ZM113.43 15.7734V20H112.484V15.7734H113.43ZM112.422 14.6641C112.422 14.5208 112.469 14.4023 112.562 14.3086C112.659 14.2122 112.792 14.1641 112.961 14.1641C113.128 14.1641 113.259 14.2122 113.355 14.3086C113.452 14.4023 113.5 14.5208 113.5 14.6641C113.5 14.8047 113.452 14.9219 113.355 15.0156C113.259 15.1094 113.128 15.1562 112.961 15.1562C112.792 15.1562 112.659 15.1094 112.562 15.0156C112.469 14.9219 112.422 14.8047 112.422 14.6641ZM116.324 20.0781C116.012 20.0781 115.729 20.0273 115.477 19.9258C115.227 19.8216 115.013 19.6771 114.836 19.4922C114.661 19.3073 114.527 19.0898 114.434 18.8398C114.34 18.5898 114.293 18.3203 114.293 18.0312V17.875C114.293 17.5443 114.341 17.2448 114.438 16.9766C114.534 16.7083 114.668 16.4792 114.84 16.2891C115.012 16.0964 115.215 15.9492 115.449 15.8477C115.684 15.7461 115.938 15.6953 116.211 15.6953C116.513 15.6953 116.777 15.7461 117.004 15.8477C117.23 15.9492 117.418 16.0924 117.566 16.2773C117.717 16.4596 117.829 16.6771 117.902 16.9297C117.978 17.1823 118.016 17.4609 118.016 17.7656V18.168H114.75V17.4922H117.086V17.418C117.081 17.2487 117.047 17.0898 116.984 16.9414C116.924 16.793 116.832 16.6732 116.707 16.582C116.582 16.4909 116.415 16.4453 116.207 16.4453C116.051 16.4453 115.911 16.4792 115.789 16.5469C115.669 16.612 115.569 16.707 115.488 16.832C115.408 16.957 115.345 17.1081 115.301 17.2852C115.259 17.4596 115.238 17.6562 115.238 17.875V18.0312C115.238 18.2161 115.263 18.388 115.312 18.5469C115.365 18.7031 115.44 18.8398 115.539 18.957C115.638 19.0742 115.758 19.1667 115.898 19.2344C116.039 19.2995 116.199 19.332 116.379 19.332C116.605 19.332 116.807 19.2865 116.984 19.1953C117.161 19.1042 117.315 18.9753 117.445 18.8086L117.941 19.2891C117.85 19.4219 117.732 19.5495 117.586 19.6719C117.44 19.7917 117.262 19.8893 117.051 19.9648C116.842 20.0404 116.6 20.0781 116.324 20.0781ZM119.691 16.6328V20H118.75V15.7734H119.637L119.691 16.6328ZM119.539 17.7305L119.219 17.7266C119.219 17.4349 119.255 17.1654 119.328 16.918C119.401 16.6706 119.508 16.4557 119.648 16.2734C119.789 16.0885 119.964 15.9466 120.172 15.8477C120.383 15.7461 120.626 15.6953 120.902 15.6953C121.095 15.6953 121.271 15.724 121.43 15.7812C121.591 15.8359 121.73 15.9232 121.848 16.043C121.967 16.1628 122.059 16.3164 122.121 16.5039C122.186 16.6914 122.219 16.918 122.219 17.1836V20H121.277V17.2656C121.277 17.0599 121.246 16.8984 121.184 16.7812C121.124 16.6641 121.036 16.5807 120.922 16.5312C120.81 16.4792 120.676 16.4531 120.52 16.4531C120.342 16.4531 120.191 16.487 120.066 16.5547C119.944 16.6224 119.844 16.7148 119.766 16.832C119.688 16.9492 119.63 17.0846 119.594 17.2383C119.557 17.3919 119.539 17.556 119.539 17.7305ZM122.16 17.4805L121.719 17.5781C121.719 17.3229 121.754 17.082 121.824 16.8555C121.897 16.6263 122.003 16.4258 122.141 16.2539C122.281 16.0794 122.454 15.9427 122.66 15.8438C122.866 15.7448 123.102 15.6953 123.367 15.6953C123.583 15.6953 123.776 15.7253 123.945 15.7852C124.117 15.8424 124.263 15.9336 124.383 16.0586C124.503 16.1836 124.594 16.3464 124.656 16.5469C124.719 16.7448 124.75 16.9844 124.75 17.2656V20H123.805V17.2617C123.805 17.0482 123.773 16.8828 123.711 16.7656C123.651 16.6484 123.565 16.5677 123.453 16.5234C123.341 16.4766 123.207 16.4531 123.051 16.4531C122.905 16.4531 122.776 16.4805 122.664 16.5352C122.555 16.5872 122.462 16.6615 122.387 16.7578C122.311 16.8516 122.254 16.9596 122.215 17.082C122.178 17.2044 122.16 17.3372 122.16 17.4805ZM127.582 20.0781C127.27 20.0781 126.987 20.0273 126.734 19.9258C126.484 19.8216 126.271 19.6771 126.094 19.4922C125.919 19.3073 125.785 19.0898 125.691 18.8398C125.598 18.5898 125.551 18.3203 125.551 18.0312V17.875C125.551 17.5443 125.599 17.2448 125.695 16.9766C125.792 16.7083 125.926 16.4792 126.098 16.2891C126.27 16.0964 126.473 15.9492 126.707 15.8477C126.941 15.7461 127.195 15.6953 127.469 15.6953C127.771 15.6953 128.035 15.7461 128.262 15.8477C128.488 15.9492 128.676 16.0924 128.824 16.2773C128.975 16.4596 129.087 16.6771 129.16 16.9297C129.236 17.1823 129.273 17.4609 129.273 17.7656V18.168H126.008V17.4922H128.344V17.418C128.339 17.2487 128.305 17.0898 128.242 16.9414C128.182 16.793 128.09 16.6732 127.965 16.582C127.84 16.4909 127.673 16.4453 127.465 16.4453C127.309 16.4453 127.169 16.4792 127.047 16.5469C126.927 16.612 126.827 16.707 126.746 16.832C126.665 16.957 126.603 17.1081 126.559 17.2852C126.517 17.4596 126.496 17.6562 126.496 17.875V18.0312C126.496 18.2161 126.521 18.388 126.57 18.5469C126.622 18.7031 126.698 18.8398 126.797 18.957C126.896 19.0742 127.016 19.1667 127.156 19.2344C127.297 19.2995 127.457 19.332 127.637 19.332C127.863 19.332 128.065 19.2865 128.242 19.1953C128.419 19.1042 128.573 18.9753 128.703 18.8086L129.199 19.2891C129.108 19.4219 128.99 19.5495 128.844 19.6719C128.698 19.7917 128.52 19.8893 128.309 19.9648C128.1 20.0404 127.858 20.0781 127.582 20.0781ZM130.953 16.5781V20H130.012V15.7734H130.91L130.953 16.5781ZM132.246 15.7461L132.238 16.6211C132.181 16.6107 132.118 16.6029 132.051 16.5977C131.986 16.5924 131.921 16.5898 131.855 16.5898C131.694 16.5898 131.552 16.6133 131.43 16.6602C131.307 16.7044 131.204 16.7695 131.121 16.8555C131.04 16.9388 130.978 17.0404 130.934 17.1602C130.889 17.2799 130.863 17.4141 130.855 17.5625L130.641 17.5781C130.641 17.3125 130.667 17.0664 130.719 16.8398C130.771 16.6133 130.849 16.4141 130.953 16.2422C131.06 16.0703 131.193 15.9362 131.352 15.8398C131.513 15.7435 131.699 15.6953 131.91 15.6953C131.967 15.6953 132.029 15.7005 132.094 15.7109C132.161 15.7214 132.212 15.7331 132.246 15.7461ZM133.77 16.6758V20H132.828V15.7734H133.715L133.77 16.6758ZM133.602 17.7305L133.297 17.7266C133.299 17.4271 133.341 17.1523 133.422 16.9023C133.505 16.6523 133.62 16.4375 133.766 16.2578C133.914 16.0781 134.091 15.9401 134.297 15.8438C134.503 15.7448 134.732 15.6953 134.984 15.6953C135.188 15.6953 135.371 15.724 135.535 15.7812C135.702 15.8359 135.844 15.9258 135.961 16.0508C136.081 16.1758 136.172 16.3385 136.234 16.5391C136.297 16.737 136.328 16.9805 136.328 17.2695V20H135.383V17.2656C135.383 17.0625 135.353 16.9023 135.293 16.7852C135.236 16.6654 135.151 16.5807 135.039 16.5312C134.93 16.4792 134.793 16.4531 134.629 16.4531C134.467 16.4531 134.323 16.487 134.195 16.5547C134.068 16.6224 133.96 16.7148 133.871 16.832C133.785 16.9492 133.719 17.0846 133.672 17.2383C133.625 17.3919 133.602 17.556 133.602 17.7305ZM139.672 19.1523V17.1367C139.672 16.9857 139.645 16.8555 139.59 16.7461C139.535 16.6367 139.452 16.5521 139.34 16.4922C139.23 16.4323 139.092 16.4023 138.926 16.4023C138.772 16.4023 138.639 16.4284 138.527 16.4805C138.415 16.5326 138.328 16.6029 138.266 16.6914C138.203 16.7799 138.172 16.8802 138.172 16.9922H137.234C137.234 16.8255 137.275 16.6641 137.355 16.5078C137.436 16.3516 137.553 16.2122 137.707 16.0898C137.861 15.9674 138.044 15.8711 138.258 15.8008C138.471 15.7305 138.711 15.6953 138.977 15.6953C139.294 15.6953 139.576 15.7487 139.82 15.8555C140.068 15.9622 140.262 16.1237 140.402 16.3398C140.546 16.5534 140.617 16.8216 140.617 17.1445V19.0234C140.617 19.2161 140.63 19.3893 140.656 19.543C140.685 19.694 140.725 19.8255 140.777 19.9375V20H139.812C139.768 19.8984 139.733 19.7695 139.707 19.6133C139.684 19.4544 139.672 19.3008 139.672 19.1523ZM139.809 17.4297L139.816 18.0117H139.141C138.966 18.0117 138.812 18.0286 138.68 18.0625C138.547 18.0938 138.436 18.1406 138.348 18.2031C138.259 18.2656 138.193 18.3411 138.148 18.4297C138.104 18.5182 138.082 18.6185 138.082 18.7305C138.082 18.8424 138.108 18.9453 138.16 19.0391C138.212 19.1302 138.288 19.2018 138.387 19.2539C138.488 19.306 138.611 19.332 138.754 19.332C138.947 19.332 139.115 19.293 139.258 19.2148C139.404 19.1341 139.518 19.0365 139.602 18.9219C139.685 18.8047 139.729 18.694 139.734 18.5898L140.039 19.0078C140.008 19.1146 139.954 19.2292 139.879 19.3516C139.803 19.474 139.704 19.5911 139.582 19.7031C139.462 19.8125 139.318 19.9023 139.148 19.9727C138.982 20.043 138.789 20.0781 138.57 20.0781C138.294 20.0781 138.048 20.0234 137.832 19.9141C137.616 19.8021 137.447 19.6523 137.324 19.4648C137.202 19.2747 137.141 19.0599 137.141 18.8203C137.141 18.5964 137.182 18.3984 137.266 18.2266C137.352 18.0521 137.477 17.9062 137.641 17.7891C137.807 17.6719 138.01 17.5833 138.25 17.5234C138.49 17.4609 138.763 17.4297 139.07 17.4297H139.809ZM138.539 15.1758L139.301 14H140.363L139.301 15.1758H138.539Z" fill="black"/>
<path d="M61.2305 20H60.0156L60.0234 19.2227H61.2305C61.582 19.2227 61.8763 19.1458 62.1133 18.9922C62.3529 18.8385 62.5326 18.6185 62.6523 18.332C62.7747 18.0456 62.8359 17.7044 62.8359 17.3086V17C62.8359 16.6927 62.8008 16.4206 62.7305 16.1836C62.6628 15.9466 62.5612 15.7474 62.4258 15.5859C62.293 15.4245 62.1289 15.3021 61.9336 15.2188C61.7409 15.1354 61.5182 15.0938 61.2656 15.0938H59.9922V14.3125H61.2656C61.6432 14.3125 61.9883 14.3763 62.3008 14.5039C62.6133 14.6289 62.8828 14.8099 63.1094 15.0469C63.3385 15.2839 63.5143 15.5677 63.6367 15.8984C63.7591 16.2292 63.8203 16.599 63.8203 17.0078V17.3086C63.8203 17.7174 63.7591 18.0872 63.6367 18.418C63.5143 18.7487 63.3385 19.0326 63.1094 19.2695C62.8802 19.5039 62.6068 19.6849 62.2891 19.8125C61.974 19.9375 61.6211 20 61.2305 20ZM60.5586 14.3125V20H59.5781V14.3125H60.5586ZM64.5312 17.9336V17.8438C64.5312 17.5391 64.5755 17.2565 64.6641 16.9961C64.7526 16.7331 64.8802 16.5052 65.0469 16.3125C65.2161 16.1172 65.4219 15.9661 65.6641 15.8594C65.9089 15.75 66.1849 15.6953 66.4922 15.6953C66.8021 15.6953 67.0781 15.75 67.3203 15.8594C67.5651 15.9661 67.7721 16.1172 67.9414 16.3125C68.1107 16.5052 68.2396 16.7331 68.3281 16.9961C68.4167 17.2565 68.4609 17.5391 68.4609 17.8438V17.9336C68.4609 18.2383 68.4167 18.5208 68.3281 18.7812C68.2396 19.0417 68.1107 19.2695 67.9414 19.4648C67.7721 19.6576 67.5664 19.8086 67.3242 19.918C67.082 20.0247 66.8073 20.0781 66.5 20.0781C66.1901 20.0781 65.9128 20.0247 65.668 19.918C65.4258 19.8086 65.2201 19.6576 65.0508 19.4648C64.8815 19.2695 64.7526 19.0417 64.6641 18.7812C64.5755 18.5208 64.5312 18.2383 64.5312 17.9336ZM65.4727 17.8438V17.9336C65.4727 18.1237 65.4922 18.3034 65.5312 18.4727C65.5703 18.6419 65.6315 18.7904 65.7148 18.918C65.7982 19.0456 65.9049 19.1458 66.0352 19.2188C66.1654 19.2917 66.3203 19.3281 66.5 19.3281C66.6745 19.3281 66.8255 19.2917 66.9531 19.2188C67.0833 19.1458 67.1901 19.0456 67.2734 18.918C67.3568 18.7904 67.418 18.6419 67.457 18.4727C67.4987 18.3034 67.5195 18.1237 67.5195 17.9336V17.8438C67.5195 17.6562 67.4987 17.4792 67.457 17.3125C67.418 17.1432 67.3555 16.9935 67.2695 16.8633C67.1862 16.7331 67.0794 16.6315 66.9492 16.5586C66.8216 16.4831 66.6693 16.4453 66.4922 16.4453C66.3151 16.4453 66.1615 16.4831 66.0312 16.5586C65.9036 16.6315 65.7982 16.7331 65.7148 16.8633C65.6315 16.9935 65.5703 17.1432 65.5312 17.3125C65.4922 17.4792 65.4727 17.6562 65.4727 17.8438ZM69.2539 14H70.1953V19.0977L70.1055 20H69.2539V14ZM72.9531 17.8477V17.9297C72.9531 18.2422 72.918 18.5299 72.8477 18.793C72.7799 19.0534 72.6758 19.2799 72.5352 19.4727C72.3971 19.6654 72.2253 19.8151 72.0195 19.9219C71.8164 20.026 71.5807 20.0781 71.3125 20.0781C71.0495 20.0781 70.8203 20.0286 70.625 19.9297C70.4297 19.8307 70.2656 19.6901 70.1328 19.5078C70.0026 19.3255 69.8971 19.1081 69.8164 18.8555C69.7357 18.6029 69.6784 18.3242 69.6445 18.0195V17.7578C69.6784 17.4505 69.7357 17.1719 69.8164 16.9219C69.8971 16.6693 70.0026 16.4518 70.1328 16.2695C70.2656 16.0846 70.4284 15.9427 70.6211 15.8438C70.8164 15.7448 71.0443 15.6953 71.3047 15.6953C71.5755 15.6953 71.8138 15.7474 72.0195 15.8516C72.2279 15.9557 72.401 16.1042 72.5391 16.2969C72.6771 16.487 72.7799 16.7135 72.8477 16.9766C72.918 17.2396 72.9531 17.5299 72.9531 17.8477ZM72.0117 17.9297V17.8477C72.0117 17.6576 71.9961 17.4792 71.9648 17.3125C71.9336 17.1432 71.8815 16.9948 71.8086 16.8672C71.7383 16.7396 71.6419 16.6393 71.5195 16.5664C71.3997 16.4909 71.25 16.4531 71.0703 16.4531C70.9036 16.4531 70.7604 16.4818 70.6406 16.5391C70.5208 16.5964 70.4206 16.6745 70.3398 16.7734C70.2591 16.8724 70.1953 16.987 70.1484 17.1172C70.1042 17.2474 70.0742 17.388 70.0586 17.5391V18.2461C70.082 18.4414 70.1315 18.6211 70.207 18.7852C70.2852 18.9466 70.3945 19.0768 70.5352 19.1758C70.6758 19.2721 70.8568 19.3203 71.0781 19.3203C71.2526 19.3203 71.3997 19.2852 71.5195 19.2148C71.6393 19.1445 71.7344 19.0469 71.8047 18.9219C71.8776 18.7943 71.9297 18.6458 71.9609 18.4766C71.9948 18.3073 72.0117 18.125 72.0117 17.9297ZM74.6953 16.5781V20H73.7539V15.7734H74.6523L74.6953 16.5781ZM75.9883 15.7461L75.9805 16.6211C75.9232 16.6107 75.8607 16.6029 75.793 16.5977C75.7279 16.5924 75.6628 16.5898 75.5977 16.5898C75.4362 16.5898 75.2943 16.6133 75.1719 16.6602C75.0495 16.7044 74.9466 16.7695 74.8633 16.8555C74.7826 16.9388 74.7201 17.0404 74.6758 17.1602C74.6315 17.2799 74.6055 17.4141 74.5977 17.5625L74.3828 17.5781C74.3828 17.3125 74.4089 17.0664 74.4609 16.8398C74.513 16.6133 74.5911 16.4141 74.6953 16.2422C74.8021 16.0703 74.9349 15.9362 75.0938 15.8398C75.2552 15.7435 75.4414 15.6953 75.6523 15.6953C75.7096 15.6953 75.7708 15.7005 75.8359 15.7109C75.9036 15.7214 75.9544 15.7331 75.9883 15.7461ZM78.8203 19.1523V17.1367C78.8203 16.9857 78.793 16.8555 78.7383 16.7461C78.6836 16.6367 78.6003 16.5521 78.4883 16.4922C78.3789 16.4323 78.2409 16.4023 78.0742 16.4023C77.9206 16.4023 77.7878 16.4284 77.6758 16.4805C77.5638 16.5326 77.4766 16.6029 77.4141 16.6914C77.3516 16.7799 77.3203 16.8802 77.3203 16.9922H76.3828C76.3828 16.8255 76.4232 16.6641 76.5039 16.5078C76.5846 16.3516 76.7018 16.2122 76.8555 16.0898C77.0091 15.9674 77.1927 15.8711 77.4062 15.8008C77.6198 15.7305 77.8594 15.6953 78.125 15.6953C78.4427 15.6953 78.724 15.7487 78.9688 15.8555C79.2161 15.9622 79.4102 16.1237 79.5508 16.3398C79.694 16.5534 79.7656 16.8216 79.7656 17.1445V19.0234C79.7656 19.2161 79.7786 19.3893 79.8047 19.543C79.8333 19.694 79.8737 19.8255 79.9258 19.9375V20H78.9609C78.9167 19.8984 78.8815 19.7695 78.8555 19.6133C78.832 19.4544 78.8203 19.3008 78.8203 19.1523ZM78.957 17.4297L78.9648 18.0117H78.2891C78.1146 18.0117 77.9609 18.0286 77.8281 18.0625C77.6953 18.0938 77.5846 18.1406 77.4961 18.2031C77.4076 18.2656 77.3411 18.3411 77.2969 18.4297C77.2526 18.5182 77.2305 18.6185 77.2305 18.7305C77.2305 18.8424 77.2565 18.9453 77.3086 19.0391C77.3607 19.1302 77.4362 19.2018 77.5352 19.2539C77.6367 19.306 77.7591 19.332 77.9023 19.332C78.0951 19.332 78.263 19.293 78.4062 19.2148C78.5521 19.1341 78.6667 19.0365 78.75 18.9219C78.8333 18.8047 78.8776 18.694 78.8828 18.5898L79.1875 19.0078C79.1562 19.1146 79.1029 19.2292 79.0273 19.3516C78.9518 19.474 78.8529 19.5911 78.7305 19.7031C78.6107 19.8125 78.4661 19.9023 78.2969 19.9727C78.1302 20.043 77.9375 20.0781 77.7188 20.0781C77.4427 20.0781 77.1966 20.0234 76.9805 19.9141C76.7643 19.8021 76.5951 19.6523 76.4727 19.4648C76.3503 19.2747 76.2891 19.0599 76.2891 18.8203C76.2891 18.5964 76.3307 18.3984 76.4141 18.2266C76.5 18.0521 76.625 17.9062 76.7891 17.7891C76.9557 17.6719 77.1589 17.5833 77.3984 17.5234C77.638 17.4609 77.9115 17.4297 78.2188 17.4297H78.957ZM77.6875 15.1758L78.4492 14H79.5117L78.4492 15.1758H77.6875Z" fill="black"/>
<path d="M249.527 18.9609L251.023 14.3125H252.105L250.066 20H249.336L249.527 18.9609ZM248.145 14.3125L249.629 18.9609L249.832 20H249.098L247.066 14.3125H248.145ZM254.34 20.0781C254.027 20.0781 253.745 20.0273 253.492 19.9258C253.242 19.8216 253.029 19.6771 252.852 19.4922C252.677 19.3073 252.543 19.0898 252.449 18.8398C252.355 18.5898 252.309 18.3203 252.309 18.0312V17.875C252.309 17.5443 252.357 17.2448 252.453 16.9766C252.549 16.7083 252.684 16.4792 252.855 16.2891C253.027 16.0964 253.23 15.9492 253.465 15.8477C253.699 15.7461 253.953 15.6953 254.227 15.6953C254.529 15.6953 254.793 15.7461 255.02 15.8477C255.246 15.9492 255.434 16.0924 255.582 16.2773C255.733 16.4596 255.845 16.6771 255.918 16.9297C255.993 17.1823 256.031 17.4609 256.031 17.7656V18.168H252.766V17.4922H255.102V17.418C255.096 17.2487 255.062 17.0898 255 16.9414C254.94 16.793 254.848 16.6732 254.723 16.582C254.598 16.4909 254.431 16.4453 254.223 16.4453C254.066 16.4453 253.927 16.4792 253.805 16.5469C253.685 16.612 253.585 16.707 253.504 16.832C253.423 16.957 253.361 17.1081 253.316 17.2852C253.275 17.4596 253.254 17.6562 253.254 17.875V18.0312C253.254 18.2161 253.279 18.388 253.328 18.5469C253.38 18.7031 253.456 18.8398 253.555 18.957C253.654 19.0742 253.773 19.1667 253.914 19.2344C254.055 19.2995 254.215 19.332 254.395 19.332C254.621 19.332 254.823 19.2865 255 19.1953C255.177 19.1042 255.331 18.9753 255.461 18.8086L255.957 19.2891C255.866 19.4219 255.747 19.5495 255.602 19.6719C255.456 19.7917 255.277 19.8893 255.066 19.9648C254.858 20.0404 254.616 20.0781 254.34 20.0781ZM257.773 14V20H256.828V14H257.773ZM259.156 13.9922V14.2852C259.156 14.5117 259.105 14.7474 259.004 14.9922C258.905 15.237 258.768 15.4401 258.594 15.6016L258.105 15.3086C258.199 15.1628 258.271 15.0117 258.32 14.8555C258.372 14.6992 258.398 14.5208 258.398 14.3203V13.9922H259.156ZM260.332 16.6328V20H259.391V15.7734H260.277L260.332 16.6328ZM260.18 17.7305L259.859 17.7266C259.859 17.4349 259.896 17.1654 259.969 16.918C260.042 16.6706 260.148 16.4557 260.289 16.2734C260.43 16.0885 260.604 15.9466 260.812 15.8477C261.023 15.7461 261.267 15.6953 261.543 15.6953C261.736 15.6953 261.911 15.724 262.07 15.7812C262.232 15.8359 262.371 15.9232 262.488 16.043C262.608 16.1628 262.699 16.3164 262.762 16.5039C262.827 16.6914 262.859 16.918 262.859 17.1836V20H261.918V17.2656C261.918 17.0599 261.887 16.8984 261.824 16.7812C261.764 16.6641 261.677 16.5807 261.562 16.5312C261.451 16.4792 261.316 16.4531 261.16 16.4531C260.983 16.4531 260.832 16.487 260.707 16.5547C260.585 16.6224 260.484 16.7148 260.406 16.832C260.328 16.9492 260.271 17.0846 260.234 17.2383C260.198 17.3919 260.18 17.556 260.18 17.7305ZM262.801 17.4805L262.359 17.5781C262.359 17.3229 262.395 17.082 262.465 16.8555C262.538 16.6263 262.643 16.4258 262.781 16.2539C262.922 16.0794 263.095 15.9427 263.301 15.8438C263.507 15.7448 263.742 15.6953 264.008 15.6953C264.224 15.6953 264.417 15.7253 264.586 15.7852C264.758 15.8424 264.904 15.9336 265.023 16.0586C265.143 16.1836 265.234 16.3464 265.297 16.5469C265.359 16.7448 265.391 16.9844 265.391 17.2656V20H264.445V17.2617C264.445 17.0482 264.414 16.8828 264.352 16.7656C264.292 16.6484 264.206 16.5677 264.094 16.5234C263.982 16.4766 263.848 16.4531 263.691 16.4531C263.546 16.4531 263.417 16.4805 263.305 16.5352C263.195 16.5872 263.103 16.6615 263.027 16.7578C262.952 16.8516 262.895 16.9596 262.855 17.082C262.819 17.2044 262.801 17.3372 262.801 17.4805ZM267.367 15.7734V20H266.422V15.7734H267.367ZM266.359 14.6641C266.359 14.5208 266.406 14.4023 266.5 14.3086C266.596 14.2122 266.729 14.1641 266.898 14.1641C267.065 14.1641 267.197 14.2122 267.293 14.3086C267.389 14.4023 267.438 14.5208 267.438 14.6641C267.438 14.8047 267.389 14.9219 267.293 15.0156C267.197 15.1094 267.065 15.1562 266.898 15.1562C266.729 15.1562 266.596 15.1094 266.5 15.0156C266.406 14.9219 266.359 14.8047 266.359 14.6641ZM273.66 19.25V20H270.512V19.25H273.66ZM273.574 16.3594L270.832 20H270.223V19.3945L272.949 15.7734H273.574V16.3594ZM273.211 15.7734V16.5234H270.27V15.7734H273.211ZM275.422 14V20H274.477V14H275.422ZM278.836 19.1523V17.1367C278.836 16.9857 278.809 16.8555 278.754 16.7461C278.699 16.6367 278.616 16.5521 278.504 16.4922C278.395 16.4323 278.257 16.4023 278.09 16.4023C277.936 16.4023 277.803 16.4284 277.691 16.4805C277.579 16.5326 277.492 16.6029 277.43 16.6914C277.367 16.7799 277.336 16.8802 277.336 16.9922H276.398C276.398 16.8255 276.439 16.6641 276.52 16.5078C276.6 16.3516 276.717 16.2122 276.871 16.0898C277.025 15.9674 277.208 15.8711 277.422 15.8008C277.635 15.7305 277.875 15.6953 278.141 15.6953C278.458 15.6953 278.74 15.7487 278.984 15.8555C279.232 15.9622 279.426 16.1237 279.566 16.3398C279.71 16.5534 279.781 16.8216 279.781 17.1445V19.0234C279.781 19.2161 279.794 19.3893 279.82 19.543C279.849 19.694 279.889 19.8255 279.941 19.9375V20H278.977C278.932 19.8984 278.897 19.7695 278.871 19.6133C278.848 19.4544 278.836 19.3008 278.836 19.1523ZM278.973 17.4297L278.98 18.0117H278.305C278.13 18.0117 277.977 18.0286 277.844 18.0625C277.711 18.0938 277.6 18.1406 277.512 18.2031C277.423 18.2656 277.357 18.3411 277.312 18.4297C277.268 18.5182 277.246 18.6185 277.246 18.7305C277.246 18.8424 277.272 18.9453 277.324 19.0391C277.376 19.1302 277.452 19.2018 277.551 19.2539C277.652 19.306 277.775 19.332 277.918 19.332C278.111 19.332 278.279 19.293 278.422 19.2148C278.568 19.1341 278.682 19.0365 278.766 18.9219C278.849 18.8047 278.893 18.694 278.898 18.5898L279.203 19.0078C279.172 19.1146 279.118 19.2292 279.043 19.3516C278.967 19.474 278.868 19.5911 278.746 19.7031C278.626 19.8125 278.482 19.9023 278.312 19.9727C278.146 20.043 277.953 20.0781 277.734 20.0781C277.458 20.0781 277.212 20.0234 276.996 19.9141C276.78 19.8021 276.611 19.6523 276.488 19.4648C276.366 19.2747 276.305 19.0599 276.305 18.8203C276.305 18.5964 276.346 18.3984 276.43 18.2266C276.516 18.0521 276.641 17.9062 276.805 17.7891C276.971 17.6719 277.174 17.5833 277.414 17.5234C277.654 17.4609 277.927 17.4297 278.234 17.4297H278.973ZM277.703 15.1758L278.465 14H279.527L278.465 15.1758H277.703Z" fill="black"/>
<path d="M11.5273 18.9609L13.0234 14.3125H14.1055L12.0664 20H11.3359L11.5273 18.9609ZM10.1445 14.3125L11.6289 18.9609L11.832 20H11.0977L9.06641 14.3125H10.1445ZM15.8281 19.5391L16.9766 15.7734H17.9844L16.2891 20.6445C16.25 20.7487 16.1992 20.862 16.1367 20.9844C16.0742 21.1068 15.9922 21.2227 15.8906 21.332C15.7917 21.444 15.668 21.5339 15.5195 21.6016C15.3711 21.6719 15.1914 21.707 14.9805 21.707C14.8971 21.707 14.8164 21.6992 14.7383 21.6836C14.6628 21.6706 14.5911 21.6562 14.5234 21.6406L14.5195 20.9219C14.5456 20.9245 14.5768 20.9271 14.6133 20.9297C14.6523 20.9323 14.6836 20.9336 14.707 20.9336C14.8633 20.9336 14.9935 20.9141 15.0977 20.875C15.2018 20.8385 15.2865 20.7786 15.3516 20.6953C15.4193 20.612 15.4766 20.5 15.5234 20.3594L15.8281 19.5391ZM15.1797 15.7734L16.1836 18.9375L16.3516 19.9297L15.6992 20.0977L14.1641 15.7734H15.1797ZM15.6562 15.1758L16.418 14H17.4805L16.418 15.1758H15.6562ZM18.5273 14H19.4688V19.0977L19.3789 20H18.5273V14ZM22.2266 17.8477V17.9297C22.2266 18.2422 22.1914 18.5299 22.1211 18.793C22.0534 19.0534 21.9492 19.2799 21.8086 19.4727C21.6706 19.6654 21.4987 19.8151 21.293 19.9219C21.0898 20.026 20.8542 20.0781 20.5859 20.0781C20.3229 20.0781 20.0938 20.0286 19.8984 19.9297C19.7031 19.8307 19.5391 19.6901 19.4062 19.5078C19.276 19.3255 19.1706 19.1081 19.0898 18.8555C19.0091 18.6029 18.9518 18.3242 18.918 18.0195V17.7578C18.9518 17.4505 19.0091 17.1719 19.0898 16.9219C19.1706 16.6693 19.276 16.4518 19.4062 16.2695C19.5391 16.0846 19.7018 15.9427 19.8945 15.8438C20.0898 15.7448 20.3177 15.6953 20.5781 15.6953C20.849 15.6953 21.0872 15.7474 21.293 15.8516C21.5013 15.9557 21.6745 16.1042 21.8125 16.2969C21.9505 16.487 22.0534 16.7135 22.1211 16.9766C22.1914 17.2396 22.2266 17.5299 22.2266 17.8477ZM21.2852 17.9297V17.8477C21.2852 17.6576 21.2695 17.4792 21.2383 17.3125C21.207 17.1432 21.1549 16.9948 21.082 16.8672C21.0117 16.7396 20.9154 16.6393 20.793 16.5664C20.6732 16.4909 20.5234 16.4531 20.3438 16.4531C20.1771 16.4531 20.0339 16.4818 19.9141 16.5391C19.7943 16.5964 19.694 16.6745 19.6133 16.7734C19.5326 16.8724 19.4688 16.987 19.4219 17.1172C19.3776 17.2474 19.3477 17.388 19.332 17.5391V18.2461C19.3555 18.4414 19.4049 18.6211 19.4805 18.7852C19.5586 18.9466 19.668 19.0768 19.8086 19.1758C19.9492 19.2721 20.1302 19.3203 20.3516 19.3203C20.526 19.3203 20.6732 19.2852 20.793 19.2148C20.9128 19.1445 21.0078 19.0469 21.0781 18.9219C21.151 18.7943 21.2031 18.6458 21.2344 18.4766C21.2682 18.3073 21.2852 18.125 21.2852 17.9297ZM22.8438 17.9336V17.8438C22.8438 17.5391 22.888 17.2565 22.9766 16.9961C23.0651 16.7331 23.1927 16.5052 23.3594 16.3125C23.5286 16.1172 23.7344 15.9661 23.9766 15.8594C24.2214 15.75 24.4974 15.6953 24.8047 15.6953C25.1146 15.6953 25.3906 15.75 25.6328 15.8594C25.8776 15.9661 26.0846 16.1172 26.2539 16.3125C26.4232 16.5052 26.5521 16.7331 26.6406 16.9961C26.7292 17.2565 26.7734 17.5391 26.7734 17.8438V17.9336C26.7734 18.2383 26.7292 18.5208 26.6406 18.7812C26.5521 19.0417 26.4232 19.2695 26.2539 19.4648C26.0846 19.6576 25.8789 19.8086 25.6367 19.918C25.3945 20.0247 25.1198 20.0781 24.8125 20.0781C24.5026 20.0781 24.2253 20.0247 23.9805 19.918C23.7383 19.8086 23.5326 19.6576 23.3633 19.4648C23.194 19.2695 23.0651 19.0417 22.9766 18.7812C22.888 18.5208 22.8438 18.2383 22.8438 17.9336ZM23.7852 17.8438V17.9336C23.7852 18.1237 23.8047 18.3034 23.8438 18.4727C23.8828 18.6419 23.944 18.7904 24.0273 18.918C24.1107 19.0456 24.2174 19.1458 24.3477 19.2188C24.4779 19.2917 24.6328 19.3281 24.8125 19.3281C24.987 19.3281 25.138 19.2917 25.2656 19.2188C25.3958 19.1458 25.5026 19.0456 25.5859 18.918C25.6693 18.7904 25.7305 18.6419 25.7695 18.4727C25.8112 18.3034 25.832 18.1237 25.832 17.9336V17.8438C25.832 17.6562 25.8112 17.4792 25.7695 17.3125C25.7305 17.1432 25.668 16.9935 25.582 16.8633C25.4987 16.7331 25.3919 16.6315 25.2617 16.5586C25.1341 16.4831 24.9818 16.4453 24.8047 16.4453C24.6276 16.4453 24.474 16.4831 24.3438 16.5586C24.2161 16.6315 24.1107 16.7331 24.0273 16.8633C23.944 16.9935 23.8828 17.1432 23.8438 17.3125C23.8047 17.4792 23.7852 17.6562 23.7852 17.8438ZM28.5078 16.5781V20H27.5664V15.7734H28.4648L28.5078 16.5781ZM29.8008 15.7461L29.793 16.6211C29.7357 16.6107 29.6732 16.6029 29.6055 16.5977C29.5404 16.5924 29.4753 16.5898 29.4102 16.5898C29.2487 16.5898 29.1068 16.6133 28.9844 16.6602C28.862 16.7044 28.7591 16.7695 28.6758 16.8555C28.5951 16.9388 28.5326 17.0404 28.4883 17.1602C28.444 17.2799 28.418 17.4141 28.4102 17.5625L28.1953 17.5781C28.1953 17.3125 28.2214 17.0664 28.2734 16.8398C28.3255 16.6133 28.4036 16.4141 28.5078 16.2422C28.6146 16.0703 28.7474 15.9362 28.9062 15.8398C29.0677 15.7435 29.2539 15.6953 29.4648 15.6953C29.5221 15.6953 29.5833 15.7005 29.6484 15.7109C29.7161 15.7214 29.7669 15.7331 29.8008 15.7461ZM31.3242 16.6758V20H30.3828V15.7734H31.2695L31.3242 16.6758ZM31.1562 17.7305L30.8516 17.7266C30.8542 17.4271 30.8958 17.1523 30.9766 16.9023C31.0599 16.6523 31.1745 16.4375 31.3203 16.2578C31.4688 16.0781 31.6458 15.9401 31.8516 15.8438C32.0573 15.7448 32.2865 15.6953 32.5391 15.6953C32.7422 15.6953 32.9258 15.724 33.0898 15.7812C33.2565 15.8359 33.3984 15.9258 33.5156 16.0508C33.6354 16.1758 33.7266 16.3385 33.7891 16.5391C33.8516 16.737 33.8828 16.9805 33.8828 17.2695V20H32.9375V17.2656C32.9375 17.0625 32.9076 16.9023 32.8477 16.7852C32.7904 16.6654 32.7057 16.5807 32.5938 16.5312C32.4844 16.4792 32.3477 16.4531 32.1836 16.4531C32.0221 16.4531 31.8776 16.487 31.75 16.5547C31.6224 16.6224 31.5143 16.7148 31.4258 16.832C31.3398 16.9492 31.2734 17.0846 31.2266 17.2383C31.1797 17.3919 31.1562 17.556 31.1562 17.7305ZM37.2266 19.1523V17.1367C37.2266 16.9857 37.1992 16.8555 37.1445 16.7461C37.0898 16.6367 37.0065 16.5521 36.8945 16.4922C36.7852 16.4323 36.6471 16.4023 36.4805 16.4023C36.3268 16.4023 36.194 16.4284 36.082 16.4805C35.9701 16.5326 35.8828 16.6029 35.8203 16.6914C35.7578 16.7799 35.7266 16.8802 35.7266 16.9922H34.7891C34.7891 16.8255 34.8294 16.6641 34.9102 16.5078C34.9909 16.3516 35.1081 16.2122 35.2617 16.0898C35.4154 15.9674 35.599 15.8711 35.8125 15.8008C36.026 15.7305 36.2656 15.6953 36.5312 15.6953C36.849 15.6953 37.1302 15.7487 37.375 15.8555C37.6224 15.9622 37.8164 16.1237 37.957 16.3398C38.1003 16.5534 38.1719 16.8216 38.1719 17.1445V19.0234C38.1719 19.2161 38.1849 19.3893 38.2109 19.543C38.2396 19.694 38.2799 19.8255 38.332 19.9375V20H37.3672C37.3229 19.8984 37.2878 19.7695 37.2617 19.6133C37.2383 19.4544 37.2266 19.3008 37.2266 19.1523ZM37.3633 17.4297L37.3711 18.0117H36.6953C36.5208 18.0117 36.3672 18.0286 36.2344 18.0625C36.1016 18.0938 35.9909 18.1406 35.9023 18.2031C35.8138 18.2656 35.7474 18.3411 35.7031 18.4297C35.6589 18.5182 35.6367 18.6185 35.6367 18.7305C35.6367 18.8424 35.6628 18.9453 35.7148 19.0391C35.7669 19.1302 35.8424 19.2018 35.9414 19.2539C36.043 19.306 36.1654 19.332 36.3086 19.332C36.5013 19.332 36.6693 19.293 36.8125 19.2148C36.9583 19.1341 37.0729 19.0365 37.1562 18.9219C37.2396 18.8047 37.2839 18.694 37.2891 18.5898L37.5938 19.0078C37.5625 19.1146 37.5091 19.2292 37.4336 19.3516C37.3581 19.474 37.2591 19.5911 37.1367 19.7031C37.0169 19.8125 36.8724 19.9023 36.7031 19.9727C36.5365 20.043 36.3438 20.0781 36.125 20.0781C35.849 20.0781 35.6029 20.0234 35.3867 19.9141C35.1706 19.8021 35.0013 19.6523 34.8789 19.4648C34.7565 19.2747 34.6953 19.0599 34.6953 18.8203C34.6953 18.5964 34.737 18.3984 34.8203 18.2266C34.9062 18.0521 35.0312 17.9062 35.1953 17.7891C35.362 17.6719 35.5651 17.5833 35.8047 17.5234C36.0443 17.4609 36.3177 17.4297 36.625 17.4297H37.3633ZM36.0938 15.1758L36.8555 14H37.918L36.8555 15.1758H36.0938Z" fill="black"/>
</svg>
