<svg width="300" height="22" viewBox="0 0 304 22" fill="none" xmlns="http://www.w3.org/2000/svg">
<line x1="1" y1="5.5" x2="91" y2="5.5" stroke="#737373" stroke-width="3"/>
<line x1="91.5" y1="1.5" x2="91.5" y2="9.5" stroke="#737373" stroke-width="3" stroke-linecap="round"/>
<line x1="181.5" y1="1.5" x2="181.5" y2="9.5" stroke="#737373" stroke-width="3" stroke-linecap="round"/>
<line x1="302.5" y1="1.5" x2="302.5" y2="9.5" stroke="#737373" stroke-width="3" stroke-linecap="round"/>
<line x1="1.5" y1="1.5" x2="1.5" y2="9.5" stroke="#737373" stroke-width="3" stroke-linecap="round"/>
<line x1="91" y1="5.5" x2="181" y2="5.5" stroke="#737373" stroke-width="3"/>
<line x1="181" y1="5.5" x2="301" y2="5.5" stroke="#737373" stroke-width="3"/>
<path d="M34.5273 18.9609L36.0234 14.3125H37.1055L35.0664 20H34.3359L34.5273 18.9609ZM33.1445 14.3125L34.6289 18.9609L34.832 20H34.0977L32.0664 14.3125H33.1445ZM38.8281 19.5391L39.9766 15.7734H40.9844L39.2891 20.6445C39.25 20.7487 39.1992 20.862 39.1367 20.9844C39.0742 21.1068 38.9922 21.2227 38.8906 21.332C38.7917 21.444 38.668 21.5339 38.5195 21.6016C38.3711 21.6719 38.1914 21.707 37.9805 21.707C37.8971 21.707 37.8164 21.6992 37.7383 21.6836C37.6628 21.6706 37.5911 21.6562 37.5234 21.6406L37.5195 20.9219C37.5456 20.9245 37.5768 20.9271 37.6133 20.9297C37.6523 20.9323 37.6836 20.9336 37.707 20.9336C37.8633 20.9336 37.9935 20.9141 38.0977 20.875C38.2018 20.8385 38.2865 20.7786 38.3516 20.6953C38.4193 20.612 38.4766 20.5 38.5234 20.3594L38.8281 19.5391ZM38.1797 15.7734L39.1836 18.9375L39.3516 19.9297L38.6992 20.0977L37.1641 15.7734H38.1797ZM38.6562 15.1758L39.418 14H40.4805L39.418 15.1758H38.6562ZM41.5273 14H42.4688V19.0977L42.3789 20H41.5273V14ZM45.2266 17.8477V17.9297C45.2266 18.2422 45.1914 18.5299 45.1211 18.793C45.0534 19.0534 44.9492 19.2799 44.8086 19.4727C44.6706 19.6654 44.4987 19.8151 44.293 19.9219C44.0898 20.026 43.8542 20.0781 43.5859 20.0781C43.3229 20.0781 43.0938 20.0286 42.8984 19.9297C42.7031 19.8307 42.5391 19.6901 42.4062 19.5078C42.276 19.3255 42.1706 19.1081 42.0898 18.8555C42.0091 18.6029 41.9518 18.3242 41.918 18.0195V17.7578C41.9518 17.4505 42.0091 17.1719 42.0898 16.9219C42.1706 16.6693 42.276 16.4518 42.4062 16.2695C42.5391 16.0846 42.7018 15.9427 42.8945 15.8438C43.0898 15.7448 43.3177 15.6953 43.5781 15.6953C43.849 15.6953 44.0872 15.7474 44.293 15.8516C44.5013 15.9557 44.6745 16.1042 44.8125 16.2969C44.9505 16.487 45.0534 16.7135 45.1211 16.9766C45.1914 17.2396 45.2266 17.5299 45.2266 17.8477ZM44.2852 17.9297V17.8477C44.2852 17.6576 44.2695 17.4792 44.2383 17.3125C44.207 17.1432 44.1549 16.9948 44.082 16.8672C44.0117 16.7396 43.9154 16.6393 43.793 16.5664C43.6732 16.4909 43.5234 16.4531 43.3438 16.4531C43.1771 16.4531 43.0339 16.4818 42.9141 16.5391C42.7943 16.5964 42.694 16.6745 42.6133 16.7734C42.5326 16.8724 42.4688 16.987 42.4219 17.1172C42.3776 17.2474 42.3477 17.388 42.332 17.5391V18.2461C42.3555 18.4414 42.4049 18.6211 42.4805 18.7852C42.5586 18.9466 42.668 19.0768 42.8086 19.1758C42.9492 19.2721 43.1302 19.3203 43.3516 19.3203C43.526 19.3203 43.6732 19.2852 43.793 19.2148C43.9128 19.1445 44.0078 19.0469 44.0781 18.9219C44.151 18.7943 44.2031 18.6458 44.2344 18.4766C44.2682 18.3073 44.2852 18.125 44.2852 17.9297ZM45.8438 17.9336V17.8438C45.8438 17.5391 45.888 17.2565 45.9766 16.9961C46.0651 16.7331 46.1927 16.5052 46.3594 16.3125C46.5286 16.1172 46.7344 15.9661 46.9766 15.8594C47.2214 15.75 47.4974 15.6953 47.8047 15.6953C48.1146 15.6953 48.3906 15.75 48.6328 15.8594C48.8776 15.9661 49.0846 16.1172 49.2539 16.3125C49.4232 16.5052 49.5521 16.7331 49.6406 16.9961C49.7292 17.2565 49.7734 17.5391 49.7734 17.8438V17.9336C49.7734 18.2383 49.7292 18.5208 49.6406 18.7812C49.5521 19.0417 49.4232 19.2695 49.2539 19.4648C49.0846 19.6576 48.8789 19.8086 48.6367 19.918C48.3945 20.0247 48.1198 20.0781 47.8125 20.0781C47.5026 20.0781 47.2253 20.0247 46.9805 19.918C46.7383 19.8086 46.5326 19.6576 46.3633 19.4648C46.194 19.2695 46.0651 19.0417 45.9766 18.7812C45.888 18.5208 45.8438 18.2383 45.8438 17.9336ZM46.7852 17.8438V17.9336C46.7852 18.1237 46.8047 18.3034 46.8438 18.4727C46.8828 18.6419 46.944 18.7904 47.0273 18.918C47.1107 19.0456 47.2174 19.1458 47.3477 19.2188C47.4779 19.2917 47.6328 19.3281 47.8125 19.3281C47.987 19.3281 48.138 19.2917 48.2656 19.2188C48.3958 19.1458 48.5026 19.0456 48.5859 18.918C48.6693 18.7904 48.7305 18.6419 48.7695 18.4727C48.8112 18.3034 48.832 18.1237 48.832 17.9336V17.8438C48.832 17.6562 48.8112 17.4792 48.7695 17.3125C48.7305 17.1432 48.668 16.9935 48.582 16.8633C48.4987 16.7331 48.3919 16.6315 48.2617 16.5586C48.1341 16.4831 47.9818 16.4453 47.8047 16.4453C47.6276 16.4453 47.474 16.4831 47.3438 16.5586C47.2161 16.6315 47.1107 16.7331 47.0273 16.8633C46.944 16.9935 46.8828 17.1432 46.8438 17.3125C46.8047 17.4792 46.7852 17.6562 46.7852 17.8438ZM51.5078 16.5781V20H50.5664V15.7734H51.4648L51.5078 16.5781ZM52.8008 15.7461L52.793 16.6211C52.7357 16.6107 52.6732 16.6029 52.6055 16.5977C52.5404 16.5924 52.4753 16.5898 52.4102 16.5898C52.2487 16.5898 52.1068 16.6133 51.9844 16.6602C51.862 16.7044 51.7591 16.7695 51.6758 16.8555C51.5951 16.9388 51.5326 17.0404 51.4883 17.1602C51.444 17.2799 51.418 17.4141 51.4102 17.5625L51.1953 17.5781C51.1953 17.3125 51.2214 17.0664 51.2734 16.8398C51.3255 16.6133 51.4036 16.4141 51.5078 16.2422C51.6146 16.0703 51.7474 15.9362 51.9062 15.8398C52.0677 15.7435 52.2539 15.6953 52.4648 15.6953C52.5221 15.6953 52.5833 15.7005 52.6484 15.7109C52.7161 15.7214 52.7669 15.7331 52.8008 15.7461ZM54.3242 16.6758V20H53.3828V15.7734H54.2695L54.3242 16.6758ZM54.1562 17.7305L53.8516 17.7266C53.8542 17.4271 53.8958 17.1523 53.9766 16.9023C54.0599 16.6523 54.1745 16.4375 54.3203 16.2578C54.4688 16.0781 54.6458 15.9401 54.8516 15.8438C55.0573 15.7448 55.2865 15.6953 55.5391 15.6953C55.7422 15.6953 55.9258 15.724 56.0898 15.7812C56.2565 15.8359 56.3984 15.9258 56.5156 16.0508C56.6354 16.1758 56.7266 16.3385 56.7891 16.5391C56.8516 16.737 56.8828 16.9805 56.8828 17.2695V20H55.9375V17.2656C55.9375 17.0625 55.9076 16.9023 55.8477 16.7852C55.7904 16.6654 55.7057 16.5807 55.5938 16.5312C55.4844 16.4792 55.3477 16.4531 55.1836 16.4531C55.0221 16.4531 54.8776 16.487 54.75 16.5547C54.6224 16.6224 54.5143 16.7148 54.4258 16.832C54.3398 16.9492 54.2734 17.0846 54.2266 17.2383C54.1797 17.3919 54.1562 17.556 54.1562 17.7305ZM60.2266 19.1523V17.1367C60.2266 16.9857 60.1992 16.8555 60.1445 16.7461C60.0898 16.6367 60.0065 16.5521 59.8945 16.4922C59.7852 16.4323 59.6471 16.4023 59.4805 16.4023C59.3268 16.4023 59.194 16.4284 59.082 16.4805C58.9701 16.5326 58.8828 16.6029 58.8203 16.6914C58.7578 16.7799 58.7266 16.8802 58.7266 16.9922H57.7891C57.7891 16.8255 57.8294 16.6641 57.9102 16.5078C57.9909 16.3516 58.1081 16.2122 58.2617 16.0898C58.4154 15.9674 58.599 15.8711 58.8125 15.8008C59.026 15.7305 59.2656 15.6953 59.5312 15.6953C59.849 15.6953 60.1302 15.7487 60.375 15.8555C60.6224 15.9622 60.8164 16.1237 60.957 16.3398C61.1003 16.5534 61.1719 16.8216 61.1719 17.1445V19.0234C61.1719 19.2161 61.1849 19.3893 61.2109 19.543C61.2396 19.694 61.2799 19.8255 61.332 19.9375V20H60.3672C60.3229 19.8984 60.2878 19.7695 60.2617 19.6133C60.2383 19.4544 60.2266 19.3008 60.2266 19.1523ZM60.3633 17.4297L60.3711 18.0117H59.6953C59.5208 18.0117 59.3672 18.0286 59.2344 18.0625C59.1016 18.0938 58.9909 18.1406 58.9023 18.2031C58.8138 18.2656 58.7474 18.3411 58.7031 18.4297C58.6589 18.5182 58.6367 18.6185 58.6367 18.7305C58.6367 18.8424 58.6628 18.9453 58.7148 19.0391C58.7669 19.1302 58.8424 19.2018 58.9414 19.2539C59.043 19.306 59.1654 19.332 59.3086 19.332C59.5013 19.332 59.6693 19.293 59.8125 19.2148C59.9583 19.1341 60.0729 19.0365 60.1562 18.9219C60.2396 18.8047 60.2839 18.694 60.2891 18.5898L60.5938 19.0078C60.5625 19.1146 60.5091 19.2292 60.4336 19.3516C60.3581 19.474 60.2591 19.5911 60.1367 19.7031C60.0169 19.8125 59.8724 19.9023 59.7031 19.9727C59.5365 20.043 59.3438 20.0781 59.125 20.0781C58.849 20.0781 58.6029 20.0234 58.3867 19.9141C58.1706 19.8021 58.0013 19.6523 57.8789 19.4648C57.7565 19.2747 57.6953 19.0599 57.6953 18.8203C57.6953 18.5964 57.737 18.3984 57.8203 18.2266C57.9062 18.0521 58.0312 17.9062 58.1953 17.7891C58.362 17.6719 58.5651 17.5833 58.8047 17.5234C59.0443 17.4609 59.3177 17.4297 59.625 17.4297H60.3633ZM59.0938 15.1758L59.8555 14H60.918L59.8555 15.1758H59.0938Z" fill="black"/>
<path d="M240.555 19.2227V20H236.605V19.2227H240.555ZM240.465 14.918L236.969 20H236.312V19.3789L239.82 14.3125H240.465V14.918ZM240.102 14.3125V15.0938H236.336V14.3125H240.102ZM242.32 14V20H241.375V14H242.32ZM245.734 19.1523V17.1367C245.734 16.9857 245.707 16.8555 245.652 16.7461C245.598 16.6367 245.514 16.5521 245.402 16.4922C245.293 16.4323 245.155 16.4023 244.988 16.4023C244.835 16.4023 244.702 16.4284 244.59 16.4805C244.478 16.5326 244.391 16.6029 244.328 16.6914C244.266 16.7799 244.234 16.8802 244.234 16.9922H243.297C243.297 16.8255 243.337 16.6641 243.418 16.5078C243.499 16.3516 243.616 16.2122 243.77 16.0898C243.923 15.9674 244.107 15.8711 244.32 15.8008C244.534 15.7305 244.773 15.6953 245.039 15.6953C245.357 15.6953 245.638 15.7487 245.883 15.8555C246.13 15.9622 246.324 16.1237 246.465 16.3398C246.608 16.5534 246.68 16.8216 246.68 17.1445V19.0234C246.68 19.2161 246.693 19.3893 246.719 19.543C246.747 19.694 246.788 19.8255 246.84 19.9375V20H245.875C245.831 19.8984 245.796 19.7695 245.77 19.6133C245.746 19.4544 245.734 19.3008 245.734 19.1523ZM245.871 17.4297L245.879 18.0117H245.203C245.029 18.0117 244.875 18.0286 244.742 18.0625C244.609 18.0938 244.499 18.1406 244.41 18.2031C244.322 18.2656 244.255 18.3411 244.211 18.4297C244.167 18.5182 244.145 18.6185 244.145 18.7305C244.145 18.8424 244.171 18.9453 244.223 19.0391C244.275 19.1302 244.35 19.2018 244.449 19.2539C244.551 19.306 244.673 19.332 244.816 19.332C245.009 19.332 245.177 19.293 245.32 19.2148C245.466 19.1341 245.581 19.0365 245.664 18.9219C245.747 18.8047 245.792 18.694 245.797 18.5898L246.102 19.0078C246.07 19.1146 246.017 19.2292 245.941 19.3516C245.866 19.474 245.767 19.5911 245.645 19.7031C245.525 19.8125 245.38 19.9023 245.211 19.9727C245.044 20.043 244.852 20.0781 244.633 20.0781C244.357 20.0781 244.111 20.0234 243.895 19.9141C243.678 19.8021 243.509 19.6523 243.387 19.4648C243.264 19.2747 243.203 19.0599 243.203 18.8203C243.203 18.5964 243.245 18.3984 243.328 18.2266C243.414 18.0521 243.539 17.9062 243.703 17.7891C243.87 17.6719 244.073 17.5833 244.312 17.5234C244.552 17.4609 244.826 17.4297 245.133 17.4297H245.871ZM244.602 15.1758L245.363 14H246.426L245.363 15.1758H244.602Z" fill="black"/>
<path d="M120.738 17.8789H119.258V17.1016H120.738C120.996 17.1016 121.204 17.0599 121.363 16.9766C121.522 16.8932 121.638 16.7786 121.711 16.6328C121.786 16.4844 121.824 16.3151 121.824 16.125C121.824 15.9453 121.786 15.7773 121.711 15.6211C121.638 15.4622 121.522 15.3346 121.363 15.2383C121.204 15.1419 120.996 15.0938 120.738 15.0938H119.559V20H118.578V14.3125H120.738C121.178 14.3125 121.552 14.3906 121.859 14.5469C122.169 14.7005 122.405 14.9141 122.566 15.1875C122.728 15.4583 122.809 15.7682 122.809 16.1172C122.809 16.4844 122.728 16.7995 122.566 17.0625C122.405 17.3255 122.169 17.5273 121.859 17.668C121.552 17.8086 121.178 17.8789 120.738 17.8789ZM124.539 16.5781V20H123.598V15.7734H124.496L124.539 16.5781ZM125.832 15.7461L125.824 16.6211C125.767 16.6107 125.704 16.6029 125.637 16.5977C125.572 16.5924 125.507 16.5898 125.441 16.5898C125.28 16.5898 125.138 16.6133 125.016 16.6602C124.893 16.7044 124.79 16.7695 124.707 16.8555C124.626 16.9388 124.564 17.0404 124.52 17.1602C124.475 17.2799 124.449 17.4141 124.441 17.5625L124.227 17.5781C124.227 17.3125 124.253 17.0664 124.305 16.8398C124.357 16.6133 124.435 16.4141 124.539 16.2422C124.646 16.0703 124.779 15.9362 124.938 15.8398C125.099 15.7435 125.285 15.6953 125.496 15.6953C125.553 15.6953 125.615 15.7005 125.68 15.7109C125.747 15.7214 125.798 15.7331 125.832 15.7461ZM127.43 15.7734V20H126.484V15.7734H127.43ZM126.422 14.6641C126.422 14.5208 126.469 14.4023 126.562 14.3086C126.659 14.2122 126.792 14.1641 126.961 14.1641C127.128 14.1641 127.259 14.2122 127.355 14.3086C127.452 14.4023 127.5 14.5208 127.5 14.6641C127.5 14.8047 127.452 14.9219 127.355 15.0156C127.259 15.1094 127.128 15.1562 126.961 15.1562C126.792 15.1562 126.659 15.1094 126.562 15.0156C126.469 14.9219 126.422 14.8047 126.422 14.6641ZM130.324 20.0781C130.012 20.0781 129.729 20.0273 129.477 19.9258C129.227 19.8216 129.013 19.6771 128.836 19.4922C128.661 19.3073 128.527 19.0898 128.434 18.8398C128.34 18.5898 128.293 18.3203 128.293 18.0312V17.875C128.293 17.5443 128.341 17.2448 128.438 16.9766C128.534 16.7083 128.668 16.4792 128.84 16.2891C129.012 16.0964 129.215 15.9492 129.449 15.8477C129.684 15.7461 129.938 15.6953 130.211 15.6953C130.513 15.6953 130.777 15.7461 131.004 15.8477C131.23 15.9492 131.418 16.0924 131.566 16.2773C131.717 16.4596 131.829 16.6771 131.902 16.9297C131.978 17.1823 132.016 17.4609 132.016 17.7656V18.168H128.75V17.4922H131.086V17.418C131.081 17.2487 131.047 17.0898 130.984 16.9414C130.924 16.793 130.832 16.6732 130.707 16.582C130.582 16.4909 130.415 16.4453 130.207 16.4453C130.051 16.4453 129.911 16.4792 129.789 16.5469C129.669 16.612 129.569 16.707 129.488 16.832C129.408 16.957 129.345 17.1081 129.301 17.2852C129.259 17.4596 129.238 17.6562 129.238 17.875V18.0312C129.238 18.2161 129.263 18.388 129.312 18.5469C129.365 18.7031 129.44 18.8398 129.539 18.957C129.638 19.0742 129.758 19.1667 129.898 19.2344C130.039 19.2995 130.199 19.332 130.379 19.332C130.605 19.332 130.807 19.2865 130.984 19.1953C131.161 19.1042 131.315 18.9753 131.445 18.8086L131.941 19.2891C131.85 19.4219 131.732 19.5495 131.586 19.6719C131.44 19.7917 131.262 19.8893 131.051 19.9648C130.842 20.0404 130.6 20.0781 130.324 20.0781ZM133.691 16.6328V20H132.75V15.7734H133.637L133.691 16.6328ZM133.539 17.7305L133.219 17.7266C133.219 17.4349 133.255 17.1654 133.328 16.918C133.401 16.6706 133.508 16.4557 133.648 16.2734C133.789 16.0885 133.964 15.9466 134.172 15.8477C134.383 15.7461 134.626 15.6953 134.902 15.6953C135.095 15.6953 135.271 15.724 135.43 15.7812C135.591 15.8359 135.73 15.9232 135.848 16.043C135.967 16.1628 136.059 16.3164 136.121 16.5039C136.186 16.6914 136.219 16.918 136.219 17.1836V20H135.277V17.2656C135.277 17.0599 135.246 16.8984 135.184 16.7812C135.124 16.6641 135.036 16.5807 134.922 16.5312C134.81 16.4792 134.676 16.4531 134.52 16.4531C134.342 16.4531 134.191 16.487 134.066 16.5547C133.944 16.6224 133.844 16.7148 133.766 16.832C133.688 16.9492 133.63 17.0846 133.594 17.2383C133.557 17.3919 133.539 17.556 133.539 17.7305ZM136.16 17.4805L135.719 17.5781C135.719 17.3229 135.754 17.082 135.824 16.8555C135.897 16.6263 136.003 16.4258 136.141 16.2539C136.281 16.0794 136.454 15.9427 136.66 15.8438C136.866 15.7448 137.102 15.6953 137.367 15.6953C137.583 15.6953 137.776 15.7253 137.945 15.7852C138.117 15.8424 138.263 15.9336 138.383 16.0586C138.503 16.1836 138.594 16.3464 138.656 16.5469C138.719 16.7448 138.75 16.9844 138.75 17.2656V20H137.805V17.2617C137.805 17.0482 137.773 16.8828 137.711 16.7656C137.651 16.6484 137.565 16.5677 137.453 16.5234C137.341 16.4766 137.207 16.4531 137.051 16.4531C136.905 16.4531 136.776 16.4805 136.664 16.5352C136.555 16.5872 136.462 16.6615 136.387 16.7578C136.311 16.8516 136.254 16.9596 136.215 17.082C136.178 17.2044 136.16 17.3372 136.16 17.4805ZM141.582 20.0781C141.27 20.0781 140.987 20.0273 140.734 19.9258C140.484 19.8216 140.271 19.6771 140.094 19.4922C139.919 19.3073 139.785 19.0898 139.691 18.8398C139.598 18.5898 139.551 18.3203 139.551 18.0312V17.875C139.551 17.5443 139.599 17.2448 139.695 16.9766C139.792 16.7083 139.926 16.4792 140.098 16.2891C140.27 16.0964 140.473 15.9492 140.707 15.8477C140.941 15.7461 141.195 15.6953 141.469 15.6953C141.771 15.6953 142.035 15.7461 142.262 15.8477C142.488 15.9492 142.676 16.0924 142.824 16.2773C142.975 16.4596 143.087 16.6771 143.16 16.9297C143.236 17.1823 143.273 17.4609 143.273 17.7656V18.168H140.008V17.4922H142.344V17.418C142.339 17.2487 142.305 17.0898 142.242 16.9414C142.182 16.793 142.09 16.6732 141.965 16.582C141.84 16.4909 141.673 16.4453 141.465 16.4453C141.309 16.4453 141.169 16.4792 141.047 16.5469C140.927 16.612 140.827 16.707 140.746 16.832C140.665 16.957 140.603 17.1081 140.559 17.2852C140.517 17.4596 140.496 17.6562 140.496 17.875V18.0312C140.496 18.2161 140.521 18.388 140.57 18.5469C140.622 18.7031 140.698 18.8398 140.797 18.957C140.896 19.0742 141.016 19.1667 141.156 19.2344C141.297 19.2995 141.457 19.332 141.637 19.332C141.863 19.332 142.065 19.2865 142.242 19.1953C142.419 19.1042 142.573 18.9753 142.703 18.8086L143.199 19.2891C143.108 19.4219 142.99 19.5495 142.844 19.6719C142.698 19.7917 142.52 19.8893 142.309 19.9648C142.1 20.0404 141.858 20.0781 141.582 20.0781ZM144.953 16.5781V20H144.012V15.7734H144.91L144.953 16.5781ZM146.246 15.7461L146.238 16.6211C146.181 16.6107 146.118 16.6029 146.051 16.5977C145.986 16.5924 145.921 16.5898 145.855 16.5898C145.694 16.5898 145.552 16.6133 145.43 16.6602C145.307 16.7044 145.204 16.7695 145.121 16.8555C145.04 16.9388 144.978 17.0404 144.934 17.1602C144.889 17.2799 144.863 17.4141 144.855 17.5625L144.641 17.5781C144.641 17.3125 144.667 17.0664 144.719 16.8398C144.771 16.6133 144.849 16.4141 144.953 16.2422C145.06 16.0703 145.193 15.9362 145.352 15.8398C145.513 15.7435 145.699 15.6953 145.91 15.6953C145.967 15.6953 146.029 15.7005 146.094 15.7109C146.161 15.7214 146.212 15.7331 146.246 15.7461ZM147.77 16.6758V20H146.828V15.7734H147.715L147.77 16.6758ZM147.602 17.7305L147.297 17.7266C147.299 17.4271 147.341 17.1523 147.422 16.9023C147.505 16.6523 147.62 16.4375 147.766 16.2578C147.914 16.0781 148.091 15.9401 148.297 15.8438C148.503 15.7448 148.732 15.6953 148.984 15.6953C149.188 15.6953 149.371 15.724 149.535 15.7812C149.702 15.8359 149.844 15.9258 149.961 16.0508C150.081 16.1758 150.172 16.3385 150.234 16.5391C150.297 16.737 150.328 16.9805 150.328 17.2695V20H149.383V17.2656C149.383 17.0625 149.353 16.9023 149.293 16.7852C149.236 16.6654 149.151 16.5807 149.039 16.5312C148.93 16.4792 148.793 16.4531 148.629 16.4531C148.467 16.4531 148.323 16.487 148.195 16.5547C148.068 16.6224 147.96 16.7148 147.871 16.832C147.785 16.9492 147.719 17.0846 147.672 17.2383C147.625 17.3919 147.602 17.556 147.602 17.7305ZM153.672 19.1523V17.1367C153.672 16.9857 153.645 16.8555 153.59 16.7461C153.535 16.6367 153.452 16.5521 153.34 16.4922C153.23 16.4323 153.092 16.4023 152.926 16.4023C152.772 16.4023 152.639 16.4284 152.527 16.4805C152.415 16.5326 152.328 16.6029 152.266 16.6914C152.203 16.7799 152.172 16.8802 152.172 16.9922H151.234C151.234 16.8255 151.275 16.6641 151.355 16.5078C151.436 16.3516 151.553 16.2122 151.707 16.0898C151.861 15.9674 152.044 15.8711 152.258 15.8008C152.471 15.7305 152.711 15.6953 152.977 15.6953C153.294 15.6953 153.576 15.7487 153.82 15.8555C154.068 15.9622 154.262 16.1237 154.402 16.3398C154.546 16.5534 154.617 16.8216 154.617 17.1445V19.0234C154.617 19.2161 154.63 19.3893 154.656 19.543C154.685 19.694 154.725 19.8255 154.777 19.9375V20H153.812C153.768 19.8984 153.733 19.7695 153.707 19.6133C153.684 19.4544 153.672 19.3008 153.672 19.1523ZM153.809 17.4297L153.816 18.0117H153.141C152.966 18.0117 152.812 18.0286 152.68 18.0625C152.547 18.0938 152.436 18.1406 152.348 18.2031C152.259 18.2656 152.193 18.3411 152.148 18.4297C152.104 18.5182 152.082 18.6185 152.082 18.7305C152.082 18.8424 152.108 18.9453 152.16 19.0391C152.212 19.1302 152.288 19.2018 152.387 19.2539C152.488 19.306 152.611 19.332 152.754 19.332C152.947 19.332 153.115 19.293 153.258 19.2148C153.404 19.1341 153.518 19.0365 153.602 18.9219C153.685 18.8047 153.729 18.694 153.734 18.5898L154.039 19.0078C154.008 19.1146 153.954 19.2292 153.879 19.3516C153.803 19.474 153.704 19.5911 153.582 19.7031C153.462 19.8125 153.318 19.9023 153.148 19.9727C152.982 20.043 152.789 20.0781 152.57 20.0781C152.294 20.0781 152.048 20.0234 151.832 19.9141C151.616 19.8021 151.447 19.6523 151.324 19.4648C151.202 19.2747 151.141 19.0599 151.141 18.8203C151.141 18.5964 151.182 18.3984 151.266 18.2266C151.352 18.0521 151.477 17.9062 151.641 17.7891C151.807 17.6719 152.01 17.5833 152.25 17.5234C152.49 17.4609 152.763 17.4297 153.07 17.4297H153.809ZM152.539 15.1758L153.301 14H154.363L153.301 15.1758H152.539Z" fill="black"/>
</svg>
