<svg xmlns="http://www.w3.org/2000/svg" xmlns:xlink="http://www.w3.org/1999/xlink" width="155" zoomAndPan="magnify" viewBox="0 0 141.75 141.749996" height="189" preserveAspectRatio="xMidYMid meet" version="1.0"><defs><clipPath id="id1"><path d="M 38.492188 38.492188 L 102.992188 38.492188 L 102.992188 102.992188 L 38.492188 102.992188 Z M 38.492188 38.492188 " clip-rule="nonzero"/></clipPath><clipPath id="id2"><path d="M 38.492188 39 L 102.992188 39 L 102.992188 102 L 38.492188 102 Z M 38.492188 39 " clip-rule="nonzero"/></clipPath><clipPath id="id3"><path d="M 38.492188 38.492188 L 102.992188 38.492188 L 102.992188 102.992188 L 38.492188 102.992188 Z M 38.492188 38.492188 " clip-rule="nonzero"/></clipPath></defs><g clip-path="url(#id1)"><path fill="#ffffff" d="M 38.492188 38.492188 L 102.992188 38.492188 L 102.992188 102.992188 L 38.492188 102.992188 Z M 38.492188 38.492188 " fill-opacity="1" fill-rule="nonzero"/></g><g clip-path="url(#id2)"><path fill="#ffffff" d="M 38.492188 39.601562 L 54.058594 39.601562 M 56.285156 39.601562 L 62.957031 39.601562 M 71.851562 39.601562 L 76.300781 39.601562 M 78.523438 39.601562 L 85.199219 39.601562 M 87.421875 39.601562 L 102.992188 39.601562 M 38.492188 41.828125 L 40.714844 41.828125 M 51.835938 41.828125 L 54.058594 41.828125 M 56.285156 41.828125 L 60.730469 41.828125 M 62.957031 41.828125 L 67.402344 41.828125 M 69.628906 41.828125 L 74.078125 41.828125 M 76.300781 41.828125 L 80.75 41.828125 M 87.421875 41.828125 L 89.644531 41.828125 M 100.765625 41.828125 L 102.992188 41.828125 M 38.492188 44.050781 L 40.714844 44.050781 M 42.9375 44.050781 L 49.609375 44.050781 M 51.835938 44.050781 L 54.058594 44.050781 M 58.507812 44.050781 L 65.179688 44.050781 M 67.402344 44.050781 L 74.078125 44.050781 M 78.523438 44.050781 L 80.75 44.050781 M 87.421875 44.050781 L 89.644531 44.050781 M 91.871094 44.050781 L 98.542969 44.050781 M 100.765625 44.050781 L 102.992188 44.050781 M 38.492188 46.273438 L 40.714844 46.273438 M 42.9375 46.273438 L 49.609375 46.273438 M 51.835938 46.273438 L 54.058594 46.273438 M 56.285156 46.273438 L 58.507812 46.273438 M 62.957031 46.273438 L 67.402344 46.273438 M 74.078125 46.273438 L 78.523438 46.273438 M 82.972656 46.273438 L 85.199219 46.273438 M 87.421875 46.273438 L 89.644531 46.273438 M 91.871094 46.273438 L 98.542969 46.273438 M 100.765625 46.273438 L 102.992188 46.273438 M 38.492188 48.5 L 40.714844 48.5 M 42.9375 48.5 L 49.609375 48.5 M 51.835938 48.5 L 54.058594 48.5 M 58.507812 48.5 L 62.957031 48.5 M 65.179688 48.5 L 69.628906 48.5 M 80.75 48.5 L 82.972656 48.5 M 87.421875 48.5 L 89.644531 48.5 M 91.871094 48.5 L 98.542969 48.5 M 100.765625 48.5 L 102.992188 48.5 M 38.492188 50.722656 L 40.714844 50.722656 M 51.835938 50.722656 L 54.058594 50.722656 M 60.730469 50.722656 L 62.957031 50.722656 M 69.628906 50.722656 L 71.851562 50.722656 M 76.300781 50.722656 L 85.199219 50.722656 M 87.421875 50.722656 L 89.644531 50.722656 M 100.765625 50.722656 L 102.992188 50.722656 M 38.492188 52.949219 L 54.058594 52.949219 M 56.285156 52.949219 L 58.507812 52.949219 M 60.730469 52.949219 L 62.957031 52.949219 M 65.179688 52.949219 L 67.402344 52.949219 M 69.628906 52.949219 L 71.851562 52.949219 M 74.078125 52.949219 L 76.300781 52.949219 M 78.523438 52.949219 L 80.75 52.949219 M 82.972656 52.949219 L 85.199219 52.949219 M 87.421875 52.949219 L 102.992188 52.949219 M 56.285156 55.171875 L 58.507812 55.171875 M 60.730469 55.171875 L 62.957031 55.171875 M 65.179688 55.171875 L 71.851562 55.171875 M 76.300781 55.171875 L 78.523438 55.171875 M 80.75 55.171875 L 85.199219 55.171875 M 38.492188 57.394531 L 40.714844 57.394531 M 42.9375 57.394531 L 47.386719 57.394531 M 49.609375 57.394531 L 56.285156 57.394531 M 60.730469 57.394531 L 65.179688 57.394531 M 67.402344 57.394531 L 71.851562 57.394531 M 74.078125 57.394531 L 82.972656 57.394531 M 87.421875 57.394531 L 89.644531 57.394531 M 94.09375 57.394531 L 96.316406 57.394531 M 98.542969 57.394531 L 102.992188 57.394531 M 42.9375 59.621094 L 49.609375 59.621094 M 65.179688 59.621094 L 67.402344 59.621094 M 71.851562 59.621094 L 76.300781 59.621094 M 80.75 59.621094 L 82.972656 59.621094 M 85.199219 59.621094 L 94.09375 59.621094 M 100.765625 59.621094 L 102.992188 59.621094 M 38.492188 61.84375 L 42.9375 61.84375 M 45.164062 61.84375 L 47.386719 61.84375 M 49.609375 61.84375 L 54.058594 61.84375 M 65.179688 61.84375 L 67.402344 61.84375 M 69.628906 61.84375 L 74.078125 61.84375 M 85.199219 61.84375 L 87.421875 61.84375 M 91.871094 61.84375 L 94.09375 61.84375 M 96.316406 61.84375 L 100.765625 61.84375 M 45.164062 64.066406 L 47.386719 64.066406 M 54.058594 64.066406 L 56.285156 64.066406 M 62.957031 64.066406 L 65.179688 64.066406 M 67.402344 64.066406 L 74.078125 64.066406 M 78.523438 64.066406 L 80.75 64.066406 M 82.972656 64.066406 L 89.644531 64.066406 M 100.765625 64.066406 L 102.992188 64.066406 M 38.492188 66.292969 L 40.714844 66.292969 M 51.835938 66.292969 L 58.507812 66.292969 M 62.957031 66.292969 L 67.402344 66.292969 M 74.078125 66.292969 L 78.523438 66.292969 M 80.75 66.292969 L 82.972656 66.292969 M 89.644531 66.292969 L 91.871094 66.292969 M 94.09375 66.292969 L 98.542969 66.292969 M 38.492188 68.515625 L 42.9375 68.515625 M 45.164062 68.515625 L 49.609375 68.515625 M 54.058594 68.515625 L 56.285156 68.515625 M 60.730469 68.515625 L 69.628906 68.515625 M 76.300781 68.515625 L 78.523438 68.515625 M 80.75 68.515625 L 85.199219 68.515625 M 87.421875 68.515625 L 89.644531 68.515625 M 96.316406 68.515625 L 102.992188 68.515625 M 40.714844 70.742188 L 42.9375 70.742188 M 51.835938 70.742188 L 54.058594 70.742188 M 56.285156 70.742188 L 58.507812 70.742188 M 60.730469 70.742188 L 62.957031 70.742188 M 69.628906 70.742188 L 71.851562 70.742188 M 78.523438 70.742188 L 85.199219 70.742188 M 91.871094 70.742188 L 94.09375 70.742188 M 96.316406 70.742188 L 102.992188 70.742188 M 38.492188 72.964844 L 40.714844 72.964844 M 42.9375 72.964844 L 45.164062 72.964844 M 49.609375 72.964844 L 51.835938 72.964844 M 58.507812 72.964844 L 69.628906 72.964844 M 71.851562 72.964844 L 74.078125 72.964844 M 80.75 72.964844 L 82.972656 72.964844 M 89.644531 72.964844 L 91.871094 72.964844 M 98.542969 72.964844 L 100.765625 72.964844 M 40.714844 75.1875 L 42.9375 75.1875 M 45.164062 75.1875 L 49.609375 75.1875 M 51.835938 75.1875 L 58.507812 75.1875 M 62.957031 75.1875 L 67.402344 75.1875 M 76.300781 75.1875 L 87.421875 75.1875 M 89.644531 75.1875 L 96.316406 75.1875 M 98.542969 75.1875 L 100.765625 75.1875 M 49.609375 77.414062 L 51.835938 77.414062 M 58.507812 77.414062 L 60.730469 77.414062 M 67.402344 77.414062 L 69.628906 77.414062 M 82.972656 77.414062 L 85.199219 77.414062 M 89.644531 77.414062 L 91.871094 77.414062 M 94.09375 77.414062 L 100.765625 77.414062 M 38.492188 79.636719 L 40.714844 79.636719 M 42.9375 79.636719 L 47.386719 79.636719 M 49.609375 79.636719 L 58.507812 79.636719 M 60.730469 79.636719 L 62.957031 79.636719 M 65.179688 79.636719 L 67.402344 79.636719 M 78.523438 79.636719 L 80.75 79.636719 M 82.972656 79.636719 L 85.199219 79.636719 M 87.421875 79.636719 L 94.09375 79.636719 M 96.316406 79.636719 L 98.542969 79.636719 M 45.164062 81.859375 L 49.609375 81.859375 M 58.507812 81.859375 L 67.402344 81.859375 M 71.851562 81.859375 L 89.644531 81.859375 M 96.316406 81.859375 L 98.542969 81.859375 M 40.714844 84.085938 L 42.9375 84.085938 M 47.386719 84.085938 L 49.609375 84.085938 M 51.835938 84.085938 L 58.507812 84.085938 M 65.179688 84.085938 L 69.628906 84.085938 M 71.851562 84.085938 L 74.078125 84.085938 M 76.300781 84.085938 L 98.542969 84.085938 M 56.285156 86.308594 L 58.507812 86.308594 M 62.957031 86.308594 L 65.179688 86.308594 M 67.402344 86.308594 L 74.078125 86.308594 M 76.300781 86.308594 L 85.199219 86.308594 M 91.871094 86.308594 L 102.992188 86.308594 M 38.492188 88.535156 L 54.058594 88.535156 M 56.285156 88.535156 L 58.507812 88.535156 M 65.179688 88.535156 L 69.628906 88.535156 M 74.078125 88.535156 L 78.523438 88.535156 M 80.75 88.535156 L 85.199219 88.535156 M 87.421875 88.535156 L 89.644531 88.535156 M 91.871094 88.535156 L 96.316406 88.535156 M 98.542969 88.535156 L 100.765625 88.535156 M 38.492188 90.757812 L 40.714844 90.757812 M 51.835938 90.757812 L 54.058594 90.757812 M 56.285156 90.757812 L 67.402344 90.757812 M 74.078125 90.757812 L 76.300781 90.757812 M 78.523438 90.757812 L 80.75 90.757812 M 82.972656 90.757812 L 85.199219 90.757812 M 91.871094 90.757812 L 96.316406 90.757812 M 98.542969 90.757812 L 102.992188 90.757812 M 38.492188 92.980469 L 40.714844 92.980469 M 42.9375 92.980469 L 49.609375 92.980469 M 51.835938 92.980469 L 54.058594 92.980469 M 58.507812 92.980469 L 60.730469 92.980469 M 69.628906 92.980469 L 74.078125 92.980469 M 76.300781 92.980469 L 78.523438 92.980469 M 82.972656 92.980469 L 94.09375 92.980469 M 96.316406 92.980469 L 98.542969 92.980469 M 100.765625 92.980469 L 102.992188 92.980469 M 38.492188 95.207031 L 40.714844 95.207031 M 42.9375 95.207031 L 49.609375 95.207031 M 51.835938 95.207031 L 54.058594 95.207031 M 56.285156 95.207031 L 58.507812 95.207031 M 62.957031 95.207031 L 65.179688 95.207031 M 67.402344 95.207031 L 71.851562 95.207031 M 74.078125 95.207031 L 80.75 95.207031 M 85.199219 95.207031 L 87.421875 95.207031 M 89.644531 95.207031 L 96.316406 95.207031 M 98.542969 95.207031 L 100.765625 95.207031 M 38.492188 97.429688 L 40.714844 97.429688 M 42.9375 97.429688 L 49.609375 97.429688 M 51.835938 97.429688 L 54.058594 97.429688 M 56.285156 97.429688 L 58.507812 97.429688 M 60.730469 97.429688 L 65.179688 97.429688 M 71.851562 97.429688 L 78.523438 97.429688 M 82.972656 97.429688 L 87.421875 97.429688 M 89.644531 97.429688 L 91.871094 97.429688 M 96.316406 97.429688 L 98.542969 97.429688 M 100.765625 97.429688 L 102.992188 97.429688 M 38.492188 99.652344 L 40.714844 99.652344 M 51.835938 99.652344 L 54.058594 99.652344 M 58.507812 99.652344 L 62.957031 99.652344 M 67.402344 99.652344 L 71.851562 99.652344 M 74.078125 99.652344 L 76.300781 99.652344 M 78.523438 99.652344 L 80.75 99.652344 M 82.972656 99.652344 L 85.199219 99.652344 M 89.644531 99.652344 L 91.871094 99.652344 M 94.09375 99.652344 L 96.316406 99.652344 M 98.542969 99.652344 L 100.765625 99.652344 M 38.492188 101.878906 L 54.058594 101.878906 M 56.285156 101.878906 L 58.507812 101.878906 M 60.730469 101.878906 L 65.179688 101.878906 M 67.402344 101.878906 L 74.078125 101.878906 M 76.300781 101.878906 L 78.523438 101.878906 M 82.972656 101.878906 L 85.199219 101.878906 M 89.644531 101.878906 L 91.871094 101.878906 M 94.09375 101.878906 L 96.316406 101.878906 M 98.542969 101.878906 L 100.765625 101.878906 " fill-opacity="1" fill-rule="nonzero"/></g><g clip-path="url(#id3)"><path stroke-linecap="butt" transform="matrix(2.224138, 0, 0, 2.224138, 38.490505, 38.490503)" fill="none" stroke-linejoin="miter" d="M 0.000756589 0.499546 L 6.999607 0.499546 M 8.000697 0.499546 L 11.000455 0.499546 M 14.999547 0.499546 L 16.999971 0.499546 M 17.999305 0.499546 L 21.000819 0.499546 M 22.000153 0.499546 L 29.000759 0.499546 M 0.000756589 1.500637 L 1.000091 1.500637 M 6.000273 1.500637 L 6.999607 1.500637 M 8.000697 1.500637 L 9.999365 1.500637 M 11.000455 1.500637 L 12.999123 1.500637 M 14.000213 1.500637 L 16.000637 1.500637 M 16.999971 1.500637 L 19.000395 1.500637 M 22.000153 1.500637 L 22.999487 1.500637 M 27.999669 1.500637 L 29.000759 1.500637 M 0.000756589 2.49997 L 1.000091 2.49997 M 1.999424 2.49997 L 4.999182 2.49997 M 6.000273 2.49997 L 6.999607 2.49997 M 9.000031 2.49997 L 11.999789 2.49997 M 12.999123 2.49997 L 16.000637 2.49997 M 17.999305 2.49997 L 19.000395 2.49997 M 22.000153 2.49997 L 22.999487 2.49997 M 24.000577 2.49997 L 27.000335 2.49997 M 27.999669 2.49997 L 29.000759 2.49997 M 0.000756589 3.499304 L 1.000091 3.499304 M 1.999424 3.499304 L 4.999182 3.499304 M 6.000273 3.499304 L 6.999607 3.499304 M 8.000697 3.499304 L 9.000031 3.499304 M 11.000455 3.499304 L 12.999123 3.499304 M 16.000637 3.499304 L 17.999305 3.499304 M 19.999729 3.499304 L 21.000819 3.499304 M 22.000153 3.499304 L 22.999487 3.499304 M 24.000577 3.499304 L 27.000335 3.499304 M 27.999669 3.499304 L 29.000759 3.499304 M 0.000756589 4.500395 L 1.000091 4.500395 M 1.999424 4.500395 L 4.999182 4.500395 M 6.000273 4.500395 L 6.999607 4.500395 M 9.000031 4.500395 L 11.000455 4.500395 M 11.999789 4.500395 L 14.000213 4.500395 M 19.000395 4.500395 L 19.999729 4.500395 M 22.000153 4.500395 L 22.999487 4.500395 M 24.000577 4.500395 L 27.000335 4.500395 M 27.999669 4.500395 L 29.000759 4.500395 M 0.000756589 5.499728 L 1.000091 5.499728 M 6.000273 5.499728 L 6.999607 5.499728 M 9.999365 5.499728 L 11.000455 5.499728 M 14.000213 5.499728 L 14.999547 5.499728 M 16.999971 5.499728 L 21.000819 5.499728 M 22.000153 5.499728 L 22.999487 5.499728 M 27.999669 5.499728 L 29.000759 5.499728 M 0.000756589 6.500819 L 6.999607 6.500819 M 8.000697 6.500819 L 9.000031 6.500819 M 9.999365 6.500819 L 11.000455 6.500819 M 11.999789 6.500819 L 12.999123 6.500819 M 14.000213 6.500819 L 14.999547 6.500819 M 16.000637 6.500819 L 16.999971 6.500819 M 17.999305 6.500819 L 19.000395 6.500819 M 19.999729 6.500819 L 21.000819 6.500819 M 22.000153 6.500819 L 29.000759 6.500819 M 8.000697 7.500153 L 9.000031 7.500153 M 9.999365 7.500153 L 11.000455 7.500153 M 11.999789 7.500153 L 14.999547 7.500153 M 16.999971 7.500153 L 17.999305 7.500153 M 19.000395 7.500153 L 21.000819 7.500153 M 0.000756589 8.499486 L 1.000091 8.499486 M 1.999424 8.499486 L 3.999849 8.499486 M 4.999182 8.499486 L 8.000697 8.499486 M 9.999365 8.499486 L 11.999789 8.499486 M 12.999123 8.499486 L 14.999547 8.499486 M 16.000637 8.499486 L 19.999729 8.499486 M 22.000153 8.499486 L 22.999487 8.499486 M 24.999911 8.499486 L 25.999245 8.499486 M 27.000335 8.499486 L 29.000759 8.499486 M 1.999424 9.500577 L 4.999182 9.500577 M 11.999789 9.500577 L 12.999123 9.500577 M 14.999547 9.500577 L 16.999971 9.500577 M 19.000395 9.500577 L 19.999729 9.500577 M 21.000819 9.500577 L 24.999911 9.500577 M 27.999669 9.500577 L 29.000759 9.500577 M 0.000756589 10.499911 L 1.999424 10.499911 M 3.000515 10.499911 L 3.999849 10.499911 M 4.999182 10.499911 L 6.999607 10.499911 M 11.999789 10.499911 L 12.999123 10.499911 M 14.000213 10.499911 L 16.000637 10.499911 M 21.000819 10.499911 L 22.000153 10.499911 M 24.000577 10.499911 L 24.999911 10.499911 M 25.999245 10.499911 L 27.999669 10.499911 M 3.000515 11.499245 L 3.999849 11.499245 M 6.999607 11.499245 L 8.000697 11.499245 M 11.000455 11.499245 L 11.999789 11.499245 M 12.999123 11.499245 L 16.000637 11.499245 M 17.999305 11.499245 L 19.000395 11.499245 M 19.999729 11.499245 L 22.999487 11.499245 M 27.999669 11.499245 L 29.000759 11.499245 M 0.000756589 12.500335 L 1.000091 12.500335 M 6.000273 12.500335 L 9.000031 12.500335 M 11.000455 12.500335 L 12.999123 12.500335 M 16.000637 12.500335 L 17.999305 12.500335 M 19.000395 12.500335 L 19.999729 12.500335 M 22.999487 12.500335 L 24.000577 12.500335 M 24.999911 12.500335 L 27.000335 12.500335 M 0.000756589 13.499669 L 1.999424 13.499669 M 3.000515 13.499669 L 4.999182 13.499669 M 6.999607 13.499669 L 8.000697 13.499669 M 9.999365 13.499669 L 14.000213 13.499669 M 16.999971 13.499669 L 17.999305 13.499669 M 19.000395 13.499669 L 21.000819 13.499669 M 22.000153 13.499669 L 22.999487 13.499669 M 25.999245 13.499669 L 29.000759 13.499669 M 1.000091 14.500759 L 1.999424 14.500759 M 6.000273 14.500759 L 6.999607 14.500759 M 8.000697 14.500759 L 9.000031 14.500759 M 9.999365 14.500759 L 11.000455 14.500759 M 14.000213 14.500759 L 14.999547 14.500759 M 17.999305 14.500759 L 21.000819 14.500759 M 24.000577 14.500759 L 24.999911 14.500759 M 25.999245 14.500759 L 29.000759 14.500759 M 0.000756589 15.500093 L 1.000091 15.500093 M 1.999424 15.500093 L 3.000515 15.500093 M 4.999182 15.500093 L 6.000273 15.500093 M 9.000031 15.500093 L 14.000213 15.500093 M 14.999547 15.500093 L 16.000637 15.500093 M 19.000395 15.500093 L 19.999729 15.500093 M 22.999487 15.500093 L 24.000577 15.500093 M 27.000335 15.500093 L 27.999669 15.500093 M 1.000091 16.499427 L 1.999424 16.499427 M 3.000515 16.499427 L 4.999182 16.499427 M 6.000273 16.499427 L 9.000031 16.499427 M 11.000455 16.499427 L 12.999123 16.499427 M 16.999971 16.499427 L 22.000153 16.499427 M 22.999487 16.499427 L 25.999245 16.499427 M 27.000335 16.499427 L 27.999669 16.499427 M 4.999182 17.500517 L 6.000273 17.500517 M 9.000031 17.500517 L 9.999365 17.500517 M 12.999123 17.500517 L 14.000213 17.500517 M 19.999729 17.500517 L 21.000819 17.500517 M 22.999487 17.500517 L 24.000577 17.500517 M 24.999911 17.500517 L 27.999669 17.500517 M 0.000756589 18.499851 L 1.000091 18.499851 M 1.999424 18.499851 L 3.999849 18.499851 M 4.999182 18.499851 L 9.000031 18.499851 M 9.999365 18.499851 L 11.000455 18.499851 M 11.999789 18.499851 L 12.999123 18.499851 M 17.999305 18.499851 L 19.000395 18.499851 M 19.999729 18.499851 L 21.000819 18.499851 M 22.000153 18.499851 L 24.999911 18.499851 M 25.999245 18.499851 L 27.000335 18.499851 M 3.000515 19.499185 L 4.999182 19.499185 M 9.000031 19.499185 L 12.999123 19.499185 M 14.999547 19.499185 L 22.999487 19.499185 M 25.999245 19.499185 L 27.000335 19.499185 M 1.000091 20.500275 L 1.999424 20.500275 M 3.999849 20.500275 L 4.999182 20.500275 M 6.000273 20.500275 L 9.000031 20.500275 M 11.999789 20.500275 L 14.000213 20.500275 M 14.999547 20.500275 L 16.000637 20.500275 M 16.999971 20.500275 L 27.000335 20.500275 M 8.000697 21.499609 L 9.000031 21.499609 M 11.000455 21.499609 L 11.999789 21.499609 M 12.999123 21.499609 L 16.000637 21.499609 M 16.999971 21.499609 L 21.000819 21.499609 M 24.000577 21.499609 L 29.000759 21.499609 M 0.000756589 22.500699 L 6.999607 22.500699 M 8.000697 22.500699 L 9.000031 22.500699 M 11.999789 22.500699 L 14.000213 22.500699 M 16.000637 22.500699 L 17.999305 22.500699 M 19.000395 22.500699 L 21.000819 22.500699 M 22.000153 22.500699 L 22.999487 22.500699 M 24.000577 22.500699 L 25.999245 22.500699 M 27.000335 22.500699 L 27.999669 22.500699 M 0.000756589 23.500033 L 1.000091 23.500033 M 6.000273 23.500033 L 6.999607 23.500033 M 8.000697 23.500033 L 12.999123 23.500033 M 16.000637 23.500033 L 16.999971 23.500033 M 17.999305 23.500033 L 19.000395 23.500033 M 19.999729 23.500033 L 21.000819 23.500033 M 24.000577 23.500033 L 25.999245 23.500033 M 27.000335 23.500033 L 29.000759 23.500033 M 0.000756589 24.499367 L 1.000091 24.499367 M 1.999424 24.499367 L 4.999182 24.499367 M 6.000273 24.499367 L 6.999607 24.499367 M 9.000031 24.499367 L 9.999365 24.499367 M 14.000213 24.499367 L 16.000637 24.499367 M 16.999971 24.499367 L 17.999305 24.499367 M 19.999729 24.499367 L 24.999911 24.499367 M 25.999245 24.499367 L 27.000335 24.499367 M 27.999669 24.499367 L 29.000759 24.499367 M 0.000756589 25.500457 L 1.000091 25.500457 M 1.999424 25.500457 L 4.999182 25.500457 M 6.000273 25.500457 L 6.999607 25.500457 M 8.000697 25.500457 L 9.000031 25.500457 M 11.000455 25.500457 L 11.999789 25.500457 M 12.999123 25.500457 L 14.999547 25.500457 M 16.000637 25.500457 L 19.000395 25.500457 M 21.000819 25.500457 L 22.000153 25.500457 M 22.999487 25.500457 L 25.999245 25.500457 M 27.000335 25.500457 L 27.999669 25.500457 M 0.000756589 26.499791 L 1.000091 26.499791 M 1.999424 26.499791 L 4.999182 26.499791 M 6.000273 26.499791 L 6.999607 26.499791 M 8.000697 26.499791 L 9.000031 26.499791 M 9.999365 26.499791 L 11.999789 26.499791 M 14.999547 26.499791 L 17.999305 26.499791 M 19.999729 26.499791 L 22.000153 26.499791 M 22.999487 26.499791 L 24.000577 26.499791 M 25.999245 26.499791 L 27.000335 26.499791 M 27.999669 26.499791 L 29.000759 26.499791 M 0.000756589 27.499125 L 1.000091 27.499125 M 6.000273 27.499125 L 6.999607 27.499125 M 9.000031 27.499125 L 11.000455 27.499125 M 12.999123 27.499125 L 14.999547 27.499125 M 16.000637 27.499125 L 16.999971 27.499125 M 17.999305 27.499125 L 19.000395 27.499125 M 19.999729 27.499125 L 21.000819 27.499125 M 22.999487 27.499125 L 24.000577 27.499125 M 24.999911 27.499125 L 25.999245 27.499125 M 27.000335 27.499125 L 27.999669 27.499125 M 0.000756589 28.500215 L 6.999607 28.500215 M 8.000697 28.500215 L 9.000031 28.500215 M 9.999365 28.500215 L 11.999789 28.500215 M 12.999123 28.500215 L 16.000637 28.500215 M 16.999971 28.500215 L 17.999305 28.500215 M 19.999729 28.500215 L 21.000819 28.500215 M 22.999487 28.500215 L 24.000577 28.500215 M 24.999911 28.500215 L 25.999245 28.500215 M 27.000335 28.500215 L 27.999669 28.500215 " stroke="#000000" stroke-width="1" stroke-opacity="1" stroke-miterlimit="4"/></g></svg>