<svg width="305" height="27" viewBox="0 0 305 27" fill="none" xmlns="http://www.w3.org/2000/svg">
<line x1="2" y1="10.5" x2="107" y2="10.5" stroke="#737373" stroke-width="3"/>
<line x1="107.5" y1="6.5" x2="107.5" y2="14.5" stroke="#737373" stroke-width="3" stroke-linecap="round"/>
<line x1="197.5" y1="6.5" x2="197.5" y2="14.5" stroke="#737373" stroke-width="3" stroke-linecap="round"/>
<line x1="303.5" y1="6.5" x2="303.5" y2="14.5" stroke="#737373" stroke-width="3" stroke-linecap="round"/>
<line x1="1.5" y1="6.5" x2="1.5" y2="14.5" stroke="#737373" stroke-width="3" stroke-linecap="round"/>
<line x1="107" y1="10.5" x2="197" y2="10.5" stroke="#737373" stroke-width="3"/>
<line x1="197" y1="10.5" x2="302" y2="10.5" stroke="#737373" stroke-width="3"/>
<path d="M49.0898 19.3125V25H48.1094L45.5586 20.9258V25H44.5781V19.3125H45.5586L48.1172 23.3945V19.3125H49.0898ZM51.1836 20.7734V25H50.2422V20.7734H51.1836ZM50.25 20.2109L51.0117 19.0352H52.0742L51.0117 20.2109H50.25ZM55.5273 24.25V25H52.3789V24.25H55.5273ZM55.4414 21.3594L52.6992 25H52.0898V24.3945L54.8164 20.7734H55.4414V21.3594ZM55.0781 20.7734V21.5234H52.1367V20.7734H55.0781ZM57.2305 19V25H56.2852V19H57.2305ZM59.8555 20.7734L58.0156 22.8125L57.0078 23.8438L56.7617 23.0469L57.5234 22.1055L58.7188 20.7734H59.8555ZM58.9219 25L57.5508 23.0156L58.1445 22.3555L60.0117 25H58.9219ZM62.2383 25.0781C61.9258 25.0781 61.6432 25.0273 61.3906 24.9258C61.1406 24.8216 60.9271 24.6771 60.75 24.4922C60.5755 24.3073 60.4414 24.0898 60.3477 23.8398C60.2539 23.5898 60.207 23.3203 60.207 23.0312V22.875C60.207 22.5443 60.2552 22.2448 60.3516 21.9766C60.4479 21.7083 60.582 21.4792 60.7539 21.2891C60.9258 21.0964 61.1289 20.9492 61.3633 20.8477C61.5977 20.7461 61.8516 20.6953 62.125 20.6953C62.4271 20.6953 62.6914 20.7461 62.918 20.8477C63.1445 20.9492 63.332 21.0924 63.4805 21.2773C63.6315 21.4596 63.7435 21.6771 63.8164 21.9297C63.8919 22.1823 63.9297 22.4609 63.9297 22.7656V23.168H60.6641V22.4922H63V22.418C62.9948 22.2487 62.9609 22.0898 62.8984 21.9414C62.8385 21.793 62.7461 21.6732 62.6211 21.582C62.4961 21.4909 62.3294 21.4453 62.1211 21.4453C61.9648 21.4453 61.8255 21.4792 61.7031 21.5469C61.5833 21.612 61.4831 21.707 61.4023 21.832C61.3216 21.957 61.2591 22.1081 61.2148 22.2852C61.1732 22.4596 61.1523 22.6562 61.1523 22.875V23.0312C61.1523 23.2161 61.1771 23.388 61.2266 23.5469C61.2786 23.7031 61.3542 23.8398 61.4531 23.957C61.5521 24.0742 61.6719 24.1667 61.8125 24.2344C61.9531 24.2995 62.1133 24.332 62.293 24.332C62.5195 24.332 62.7214 24.2865 62.8984 24.1953C63.0755 24.1042 63.2292 23.9753 63.3594 23.8086L63.8555 24.2891C63.7643 24.4219 63.6458 24.5495 63.5 24.6719C63.3542 24.7917 63.1758 24.8893 62.9648 24.9648C62.7565 25.0404 62.5143 25.0781 62.2383 25.0781Z" fill="black"/>
<path d="M238.527 23.9609L240.023 19.3125H241.105L239.066 25H238.336L238.527 23.9609ZM237.145 19.3125L238.629 23.9609L238.832 25H238.098L236.066 19.3125H237.145ZM242.828 24.5391L243.977 20.7734H244.984L243.289 25.6445C243.25 25.7487 243.199 25.862 243.137 25.9844C243.074 26.1068 242.992 26.2227 242.891 26.332C242.792 26.444 242.668 26.5339 242.52 26.6016C242.371 26.6719 242.191 26.707 241.98 26.707C241.897 26.707 241.816 26.6992 241.738 26.6836C241.663 26.6706 241.591 26.6562 241.523 26.6406L241.52 25.9219C241.546 25.9245 241.577 25.9271 241.613 25.9297C241.652 25.9323 241.684 25.9336 241.707 25.9336C241.863 25.9336 241.993 25.9141 242.098 25.875C242.202 25.8385 242.286 25.7786 242.352 25.6953C242.419 25.612 242.477 25.5 242.523 25.3594L242.828 24.5391ZM242.18 20.7734L243.184 23.9375L243.352 24.9297L242.699 25.0977L241.164 20.7734H242.18ZM247.895 23.8555C247.895 23.7617 247.871 23.6771 247.824 23.6016C247.777 23.5234 247.688 23.4531 247.555 23.3906C247.424 23.3281 247.232 23.2708 246.977 23.2188C246.753 23.1693 246.547 23.1107 246.359 23.043C246.174 22.9727 246.016 22.888 245.883 22.7891C245.75 22.6901 245.647 22.5729 245.574 22.4375C245.501 22.3021 245.465 22.1458 245.465 21.9688C245.465 21.7969 245.503 21.6341 245.578 21.4805C245.654 21.3268 245.762 21.1914 245.902 21.0742C246.043 20.957 246.214 20.8646 246.414 20.7969C246.617 20.7292 246.844 20.6953 247.094 20.6953C247.448 20.6953 247.751 20.7552 248.004 20.875C248.259 20.9922 248.454 21.1523 248.59 21.3555C248.725 21.556 248.793 21.7826 248.793 22.0352H247.852C247.852 21.9232 247.823 21.819 247.766 21.7227C247.711 21.6237 247.628 21.5443 247.516 21.4844C247.404 21.4219 247.263 21.3906 247.094 21.3906C246.932 21.3906 246.798 21.4167 246.691 21.4688C246.587 21.5182 246.509 21.5833 246.457 21.6641C246.408 21.7448 246.383 21.8333 246.383 21.9297C246.383 22 246.396 22.0638 246.422 22.1211C246.451 22.1758 246.497 22.2266 246.562 22.2734C246.628 22.3177 246.716 22.3594 246.828 22.3984C246.943 22.4375 247.086 22.4753 247.258 22.5117C247.581 22.5794 247.858 22.6667 248.09 22.7734C248.324 22.8776 248.504 23.013 248.629 23.1797C248.754 23.3438 248.816 23.5521 248.816 23.8047C248.816 23.9922 248.776 24.1641 248.695 24.3203C248.617 24.474 248.503 24.6081 248.352 24.7227C248.201 24.8346 248.02 24.9219 247.809 24.9844C247.6 25.0469 247.366 25.0781 247.105 25.0781C246.723 25.0781 246.398 25.0104 246.133 24.875C245.867 24.737 245.665 24.5612 245.527 24.3477C245.392 24.1315 245.324 23.9076 245.324 23.6758H246.234C246.245 23.8503 246.293 23.9896 246.379 24.0938C246.467 24.1953 246.577 24.2695 246.707 24.3164C246.84 24.3607 246.977 24.3828 247.117 24.3828C247.286 24.3828 247.428 24.3607 247.543 24.3164C247.658 24.2695 247.745 24.207 247.805 24.1289C247.865 24.0482 247.895 23.957 247.895 23.8555ZM249.461 22.9336V22.8438C249.461 22.5391 249.505 22.2565 249.594 21.9961C249.682 21.7331 249.81 21.5052 249.977 21.3125C250.146 21.1172 250.352 20.9661 250.594 20.8594C250.839 20.75 251.115 20.6953 251.422 20.6953C251.732 20.6953 252.008 20.75 252.25 20.8594C252.495 20.9661 252.702 21.1172 252.871 21.3125C253.04 21.5052 253.169 21.7331 253.258 21.9961C253.346 22.2565 253.391 22.5391 253.391 22.8438V22.9336C253.391 23.2383 253.346 23.5208 253.258 23.7812C253.169 24.0417 253.04 24.2695 252.871 24.4648C252.702 24.6576 252.496 24.8086 252.254 24.918C252.012 25.0247 251.737 25.0781 251.43 25.0781C251.12 25.0781 250.842 25.0247 250.598 24.918C250.355 24.8086 250.15 24.6576 249.98 24.4648C249.811 24.2695 249.682 24.0417 249.594 23.7812C249.505 23.5208 249.461 23.2383 249.461 22.9336ZM250.402 22.8438V22.9336C250.402 23.1237 250.422 23.3034 250.461 23.4727C250.5 23.6419 250.561 23.7904 250.645 23.918C250.728 24.0456 250.835 24.1458 250.965 24.2188C251.095 24.2917 251.25 24.3281 251.43 24.3281C251.604 24.3281 251.755 24.2917 251.883 24.2188C252.013 24.1458 252.12 24.0456 252.203 23.918C252.286 23.7904 252.348 23.6419 252.387 23.4727C252.428 23.3034 252.449 23.1237 252.449 22.9336V22.8438C252.449 22.6562 252.428 22.4792 252.387 22.3125C252.348 22.1432 252.285 21.9935 252.199 21.8633C252.116 21.7331 252.009 21.6315 251.879 21.5586C251.751 21.4831 251.599 21.4453 251.422 21.4453C251.245 21.4453 251.091 21.4831 250.961 21.5586C250.833 21.6315 250.728 21.7331 250.645 21.8633C250.561 21.9935 250.5 22.1432 250.461 22.3125C250.422 22.4792 250.402 22.6562 250.402 22.8438ZM255.129 19V25H254.184V19H255.129ZM257.754 20.7734L255.914 22.8125L254.906 23.8438L254.66 23.0469L255.422 22.1055L256.617 20.7734H257.754ZM256.82 25L255.449 23.0156L256.043 22.3555L257.91 25H256.82ZM260.137 25.0781C259.824 25.0781 259.542 25.0273 259.289 24.9258C259.039 24.8216 258.826 24.6771 258.648 24.4922C258.474 24.3073 258.34 24.0898 258.246 23.8398C258.152 23.5898 258.105 23.3203 258.105 23.0312V22.875C258.105 22.5443 258.154 22.2448 258.25 21.9766C258.346 21.7083 258.48 21.4792 258.652 21.2891C258.824 21.0964 259.027 20.9492 259.262 20.8477C259.496 20.7461 259.75 20.6953 260.023 20.6953C260.326 20.6953 260.59 20.7461 260.816 20.8477C261.043 20.9492 261.23 21.0924 261.379 21.2773C261.53 21.4596 261.642 21.6771 261.715 21.9297C261.79 22.1823 261.828 22.4609 261.828 22.7656V23.168H258.562V22.4922H260.898V22.418C260.893 22.2487 260.859 22.0898 260.797 21.9414C260.737 21.793 260.645 21.6732 260.52 21.582C260.395 21.4909 260.228 21.4453 260.02 21.4453C259.863 21.4453 259.724 21.4792 259.602 21.5469C259.482 21.612 259.382 21.707 259.301 21.832C259.22 21.957 259.158 22.1081 259.113 22.2852C259.072 22.4596 259.051 22.6562 259.051 22.875V23.0312C259.051 23.2161 259.076 23.388 259.125 23.5469C259.177 23.7031 259.253 23.8398 259.352 23.957C259.451 24.0742 259.57 24.1667 259.711 24.2344C259.852 24.2995 260.012 24.332 260.191 24.332C260.418 24.332 260.62 24.2865 260.797 24.1953C260.974 24.1042 261.128 23.9753 261.258 23.8086L261.754 24.2891C261.663 24.4219 261.544 24.5495 261.398 24.6719C261.253 24.7917 261.074 24.8893 260.863 24.9648C260.655 25.0404 260.413 25.0781 260.137 25.0781ZM259.48 20.1758L260.242 19H261.305L260.242 20.1758H259.48Z" fill="black"/>
<path d="M141.57 23.5352C141.57 23.418 141.552 23.3138 141.516 23.2227C141.482 23.1315 141.421 23.0482 141.332 22.9727C141.243 22.8971 141.118 22.8242 140.957 22.7539C140.798 22.681 140.595 22.6068 140.348 22.5312C140.077 22.4479 139.827 22.3555 139.598 22.2539C139.371 22.1497 139.173 22.0299 139.004 21.8945C138.835 21.7565 138.703 21.599 138.609 21.4219C138.516 21.2422 138.469 21.0352 138.469 20.8008C138.469 20.569 138.517 20.3581 138.613 20.168C138.712 19.9779 138.852 19.8138 139.031 19.6758C139.214 19.5352 139.428 19.4271 139.676 19.3516C139.923 19.2734 140.197 19.2344 140.496 19.2344C140.918 19.2344 141.281 19.3125 141.586 19.4688C141.893 19.625 142.129 19.8346 142.293 20.0977C142.46 20.3607 142.543 20.651 142.543 20.9688H141.57C141.57 20.7812 141.53 20.6159 141.449 20.4727C141.371 20.3268 141.251 20.2122 141.09 20.1289C140.931 20.0456 140.729 20.0039 140.484 20.0039C140.253 20.0039 140.06 20.0391 139.906 20.1094C139.753 20.1797 139.638 20.2747 139.562 20.3945C139.487 20.5143 139.449 20.6497 139.449 20.8008C139.449 20.9076 139.474 21.0052 139.523 21.0938C139.573 21.1797 139.648 21.2604 139.75 21.3359C139.852 21.4089 139.979 21.4779 140.133 21.543C140.286 21.6081 140.467 21.6706 140.676 21.7305C140.991 21.8242 141.266 21.9284 141.5 22.043C141.734 22.1549 141.93 22.2826 142.086 22.4258C142.242 22.569 142.359 22.7318 142.438 22.9141C142.516 23.0938 142.555 23.2982 142.555 23.5273C142.555 23.7669 142.507 23.9831 142.41 24.1758C142.314 24.3659 142.176 24.5286 141.996 24.6641C141.819 24.7969 141.605 24.8997 141.355 24.9727C141.108 25.043 140.832 25.0781 140.527 25.0781C140.254 25.0781 139.984 25.0417 139.719 24.9688C139.456 24.8958 139.216 24.7852 139 24.6367C138.784 24.4857 138.612 24.2982 138.484 24.0742C138.357 23.8477 138.293 23.5833 138.293 23.2812H139.273C139.273 23.4661 139.305 23.6237 139.367 23.7539C139.432 23.8841 139.522 23.9909 139.637 24.0742C139.751 24.1549 139.884 24.2148 140.035 24.2539C140.189 24.293 140.353 24.3125 140.527 24.3125C140.757 24.3125 140.948 24.2799 141.102 24.2148C141.258 24.1497 141.375 24.0586 141.453 23.9414C141.531 23.8242 141.57 23.6888 141.57 23.5352ZM145.266 20.7734V21.4609H142.883V20.7734H145.266ZM143.57 19.7383H144.512V23.832C144.512 23.9622 144.53 24.0625 144.566 24.1328C144.605 24.2005 144.659 24.2461 144.727 24.2695C144.794 24.293 144.874 24.3047 144.965 24.3047C145.03 24.3047 145.092 24.3008 145.152 24.293C145.212 24.2852 145.26 24.2773 145.297 24.2695L145.301 24.9883C145.223 25.0117 145.132 25.0326 145.027 25.0508C144.926 25.069 144.809 25.0781 144.676 25.0781C144.46 25.0781 144.268 25.0404 144.102 24.9648C143.935 24.8867 143.805 24.7604 143.711 24.5859C143.617 24.4115 143.57 24.1797 143.57 23.8906V19.7383ZM146.938 21.5781V25H145.996V20.7734H146.895L146.938 21.5781ZM148.23 20.7461L148.223 21.6211C148.165 21.6107 148.103 21.6029 148.035 21.5977C147.97 21.5924 147.905 21.5898 147.84 21.5898C147.678 21.5898 147.536 21.6133 147.414 21.6602C147.292 21.7044 147.189 21.7695 147.105 21.8555C147.025 21.9388 146.962 22.0404 146.918 22.1602C146.874 22.2799 146.848 22.4141 146.84 22.5625L146.625 22.5781C146.625 22.3125 146.651 22.0664 146.703 21.8398C146.755 21.6133 146.833 21.4141 146.938 21.2422C147.044 21.0703 147.177 20.9362 147.336 20.8398C147.497 20.7435 147.684 20.6953 147.895 20.6953C147.952 20.6953 148.013 20.7005 148.078 20.7109C148.146 20.7214 148.197 20.7331 148.23 20.7461ZM150.605 25.0781C150.293 25.0781 150.01 25.0273 149.758 24.9258C149.508 24.8216 149.294 24.6771 149.117 24.4922C148.943 24.3073 148.809 24.0898 148.715 23.8398C148.621 23.5898 148.574 23.3203 148.574 23.0312V22.875C148.574 22.5443 148.622 22.2448 148.719 21.9766C148.815 21.7083 148.949 21.4792 149.121 21.2891C149.293 21.0964 149.496 20.9492 149.73 20.8477C149.965 20.7461 150.219 20.6953 150.492 20.6953C150.794 20.6953 151.059 20.7461 151.285 20.8477C151.512 20.9492 151.699 21.0924 151.848 21.2773C151.999 21.4596 152.111 21.6771 152.184 21.9297C152.259 22.1823 152.297 22.4609 152.297 22.7656V23.168H149.031V22.4922H151.367V22.418C151.362 22.2487 151.328 22.0898 151.266 21.9414C151.206 21.793 151.113 21.6732 150.988 21.582C150.863 21.4909 150.697 21.4453 150.488 21.4453C150.332 21.4453 150.193 21.4792 150.07 21.5469C149.951 21.612 149.85 21.707 149.77 21.832C149.689 21.957 149.626 22.1081 149.582 22.2852C149.54 22.4596 149.52 22.6562 149.52 22.875V23.0312C149.52 23.2161 149.544 23.388 149.594 23.5469C149.646 23.7031 149.721 23.8398 149.82 23.957C149.919 24.0742 150.039 24.1667 150.18 24.2344C150.32 24.2995 150.48 24.332 150.66 24.332C150.887 24.332 151.089 24.2865 151.266 24.1953C151.443 24.1042 151.596 23.9753 151.727 23.8086L152.223 24.2891C152.132 24.4219 152.013 24.5495 151.867 24.6719C151.721 24.7917 151.543 24.8893 151.332 24.9648C151.124 25.0404 150.882 25.0781 150.605 25.0781ZM155.609 24.125V19H156.555V25H155.699L155.609 24.125ZM152.859 22.9336V22.8516C152.859 22.5312 152.897 22.2396 152.973 21.9766C153.048 21.7109 153.158 21.4831 153.301 21.293C153.444 21.1003 153.618 20.9531 153.824 20.8516C154.03 20.7474 154.262 20.6953 154.52 20.6953C154.775 20.6953 154.999 20.7448 155.191 20.8438C155.384 20.9427 155.548 21.0846 155.684 21.2695C155.819 21.4518 155.927 21.6706 156.008 21.9258C156.089 22.1784 156.146 22.4596 156.18 22.7695V23.0312C156.146 23.3333 156.089 23.6094 156.008 23.8594C155.927 24.1094 155.819 24.3255 155.684 24.5078C155.548 24.6901 155.383 24.8307 155.188 24.9297C154.995 25.0286 154.77 25.0781 154.512 25.0781C154.257 25.0781 154.026 25.0247 153.82 24.918C153.617 24.8112 153.444 24.6615 153.301 24.4688C153.158 24.276 153.048 24.0495 152.973 23.7891C152.897 23.526 152.859 23.2409 152.859 22.9336ZM153.801 22.8516V22.9336C153.801 23.1263 153.818 23.306 153.852 23.4727C153.888 23.6393 153.944 23.7865 154.02 23.9141C154.095 24.0391 154.193 24.138 154.312 24.2109C154.435 24.2812 154.581 24.3164 154.75 24.3164C154.964 24.3164 155.139 24.2695 155.277 24.1758C155.415 24.082 155.523 23.9557 155.602 23.7969C155.682 23.6354 155.737 23.4557 155.766 23.2578V22.5508C155.75 22.3971 155.717 22.2539 155.668 22.1211C155.621 21.9883 155.557 21.8724 155.477 21.7734C155.396 21.6719 155.296 21.5938 155.176 21.5391C155.059 21.4818 154.919 21.4531 154.758 21.4531C154.586 21.4531 154.44 21.4896 154.32 21.5625C154.201 21.6354 154.102 21.7357 154.023 21.8633C153.948 21.9909 153.892 22.1393 153.855 22.3086C153.819 22.4779 153.801 22.6589 153.801 22.8516ZM158.473 21.6758V25H157.531V20.7734H158.418L158.473 21.6758ZM158.305 22.7305L158 22.7266C158.003 22.4271 158.044 22.1523 158.125 21.9023C158.208 21.6523 158.323 21.4375 158.469 21.2578C158.617 21.0781 158.794 20.9401 159 20.8438C159.206 20.7448 159.435 20.6953 159.688 20.6953C159.891 20.6953 160.074 20.724 160.238 20.7812C160.405 20.8359 160.547 20.9258 160.664 21.0508C160.784 21.1758 160.875 21.3385 160.938 21.5391C161 21.737 161.031 21.9805 161.031 22.2695V25H160.086V22.2656C160.086 22.0625 160.056 21.9023 159.996 21.7852C159.939 21.6654 159.854 21.5807 159.742 21.5312C159.633 21.4792 159.496 21.4531 159.332 21.4531C159.171 21.4531 159.026 21.487 158.898 21.5547C158.771 21.6224 158.663 21.7148 158.574 21.832C158.488 21.9492 158.422 22.0846 158.375 22.2383C158.328 22.3919 158.305 22.556 158.305 22.7305ZM163.855 25.0781C163.543 25.0781 163.26 25.0273 163.008 24.9258C162.758 24.8216 162.544 24.6771 162.367 24.4922C162.193 24.3073 162.059 24.0898 161.965 23.8398C161.871 23.5898 161.824 23.3203 161.824 23.0312V22.875C161.824 22.5443 161.872 22.2448 161.969 21.9766C162.065 21.7083 162.199 21.4792 162.371 21.2891C162.543 21.0964 162.746 20.9492 162.98 20.8477C163.215 20.7461 163.469 20.6953 163.742 20.6953C164.044 20.6953 164.309 20.7461 164.535 20.8477C164.762 20.9492 164.949 21.0924 165.098 21.2773C165.249 21.4596 165.361 21.6771 165.434 21.9297C165.509 22.1823 165.547 22.4609 165.547 22.7656V23.168H162.281V22.4922H164.617V22.418C164.612 22.2487 164.578 22.0898 164.516 21.9414C164.456 21.793 164.363 21.6732 164.238 21.582C164.113 21.4909 163.947 21.4453 163.738 21.4453C163.582 21.4453 163.443 21.4792 163.32 21.5469C163.201 21.612 163.1 21.707 163.02 21.832C162.939 21.957 162.876 22.1081 162.832 22.2852C162.79 22.4596 162.77 22.6562 162.77 22.875V23.0312C162.77 23.2161 162.794 23.388 162.844 23.5469C162.896 23.7031 162.971 23.8398 163.07 23.957C163.169 24.0742 163.289 24.1667 163.43 24.2344C163.57 24.2995 163.73 24.332 163.91 24.332C164.137 24.332 164.339 24.2865 164.516 24.1953C164.693 24.1042 164.846 23.9753 164.977 23.8086L165.473 24.2891C165.382 24.4219 165.263 24.5495 165.117 24.6719C164.971 24.7917 164.793 24.8893 164.582 24.9648C164.374 25.0404 164.132 25.0781 163.855 25.0781ZM163.199 20.1758L163.961 19H165.023L163.961 20.1758H163.199Z" fill="black"/>
</svg>
