<svg width="300" height="27" viewBox="0 0 305 27" fill="none" xmlns="http://www.w3.org/2000/svg">
<line x1="2" y1="10.5" x2="107" y2="10.5" stroke="#737373" stroke-width="3"/>
<line x1="107.5" y1="6.5" x2="107.5" y2="14.5" stroke="#737373" stroke-width="3" stroke-linecap="round"/>
<line x1="197.5" y1="6.5" x2="197.5" y2="14.5" stroke="#737373" stroke-width="3" stroke-linecap="round"/>
<line x1="303.5" y1="6.5" x2="303.5" y2="14.5" stroke="#737373" stroke-width="3" stroke-linecap="round"/>
<line x1="1.5" y1="6.5" x2="1.5" y2="14.5" stroke="#737373" stroke-width="3" stroke-linecap="round"/>
<line x1="107" y1="10.5" x2="197" y2="10.5" stroke="#737373" stroke-width="3"/>
<line x1="197" y1="10.5" x2="302" y2="10.5" stroke="#737373" stroke-width="3"/>
<path d="M49.0898 19.3125V25H48.1094L45.5586 20.9258V25H44.5781V19.3125H45.5586L48.1172 23.3945V19.3125H49.0898ZM51.1836 20.7734V25H50.2422V20.7734H51.1836ZM50.25 20.2109L51.0117 19.0352H52.0742L51.0117 20.2109H50.25ZM55.5273 24.25V25H52.3789V24.25H55.5273ZM55.4414 21.3594L52.6992 25H52.0898V24.3945L54.8164 20.7734H55.4414V21.3594ZM55.0781 20.7734V21.5234H52.1367V20.7734H55.0781ZM57.2305 19V25H56.2852V19H57.2305ZM59.8555 20.7734L58.0156 22.8125L57.0078 23.8438L56.7617 23.0469L57.5234 22.1055L58.7188 20.7734H59.8555ZM58.9219 25L57.5508 23.0156L58.1445 22.3555L60.0117 25H58.9219ZM62.8359 24.1523V22.1367C62.8359 21.9857 62.8086 21.8555 62.7539 21.7461C62.6992 21.6367 62.6159 21.5521 62.5039 21.4922C62.3945 21.4323 62.2565 21.4023 62.0898 21.4023C61.9362 21.4023 61.8034 21.4284 61.6914 21.4805C61.5794 21.5326 61.4922 21.6029 61.4297 21.6914C61.3672 21.7799 61.3359 21.8802 61.3359 21.9922H60.3984C60.3984 21.8255 60.4388 21.6641 60.5195 21.5078C60.6003 21.3516 60.7174 21.2122 60.8711 21.0898C61.0247 20.9674 61.2083 20.8711 61.4219 20.8008C61.6354 20.7305 61.875 20.6953 62.1406 20.6953C62.4583 20.6953 62.7396 20.7487 62.9844 20.8555C63.2318 20.9622 63.4258 21.1237 63.5664 21.3398C63.7096 21.5534 63.7812 21.8216 63.7812 22.1445V24.0234C63.7812 24.2161 63.7943 24.3893 63.8203 24.543C63.849 24.694 63.8893 24.8255 63.9414 24.9375V25H62.9766C62.9323 24.8984 62.8971 24.7695 62.8711 24.6133C62.8477 24.4544 62.8359 24.3008 62.8359 24.1523ZM62.9727 22.4297L62.9805 23.0117H62.3047C62.1302 23.0117 61.9766 23.0286 61.8438 23.0625C61.7109 23.0938 61.6003 23.1406 61.5117 23.2031C61.4232 23.2656 61.3568 23.3411 61.3125 23.4297C61.2682 23.5182 61.2461 23.6185 61.2461 23.7305C61.2461 23.8424 61.2721 23.9453 61.3242 24.0391C61.3763 24.1302 61.4518 24.2018 61.5508 24.2539C61.6523 24.306 61.7747 24.332 61.918 24.332C62.1107 24.332 62.2786 24.293 62.4219 24.2148C62.5677 24.1341 62.6823 24.0365 62.7656 23.9219C62.849 23.8047 62.8932 23.694 62.8984 23.5898L63.2031 24.0078C63.1719 24.1146 63.1185 24.2292 63.043 24.3516C62.9674 24.474 62.8685 24.5911 62.7461 24.7031C62.6263 24.8125 62.4818 24.9023 62.3125 24.9727C62.1458 25.043 61.9531 25.0781 61.7344 25.0781C61.4583 25.0781 61.2122 25.0234 60.9961 24.9141C60.7799 24.8021 60.6107 24.6523 60.4883 24.4648C60.3659 24.2747 60.3047 24.0599 60.3047 23.8203C60.3047 23.5964 60.3464 23.3984 60.4297 23.2266C60.5156 23.0521 60.6406 22.9062 60.8047 22.7891C60.9714 22.6719 61.1745 22.5833 61.4141 22.5234C61.6536 22.4609 61.9271 22.4297 62.2344 22.4297H62.9727Z" fill="black"/>
<path d="M238.527 23.9609L240.023 19.3125H241.105L239.066 25H238.336L238.527 23.9609ZM237.145 19.3125L238.629 23.9609L238.832 25H238.098L236.066 19.3125H237.145ZM242.828 24.5391L243.977 20.7734H244.984L243.289 25.6445C243.25 25.7487 243.199 25.862 243.137 25.9844C243.074 26.1068 242.992 26.2227 242.891 26.332C242.792 26.444 242.668 26.5339 242.52 26.6016C242.371 26.6719 242.191 26.707 241.98 26.707C241.897 26.707 241.816 26.6992 241.738 26.6836C241.663 26.6706 241.591 26.6562 241.523 26.6406L241.52 25.9219C241.546 25.9245 241.577 25.9271 241.613 25.9297C241.652 25.9323 241.684 25.9336 241.707 25.9336C241.863 25.9336 241.993 25.9141 242.098 25.875C242.202 25.8385 242.286 25.7786 242.352 25.6953C242.419 25.612 242.477 25.5 242.523 25.3594L242.828 24.5391ZM242.18 20.7734L243.184 23.9375L243.352 24.9297L242.699 25.0977L241.164 20.7734H242.18ZM247.895 23.8555C247.895 23.7617 247.871 23.6771 247.824 23.6016C247.777 23.5234 247.688 23.4531 247.555 23.3906C247.424 23.3281 247.232 23.2708 246.977 23.2188C246.753 23.1693 246.547 23.1107 246.359 23.043C246.174 22.9727 246.016 22.888 245.883 22.7891C245.75 22.6901 245.647 22.5729 245.574 22.4375C245.501 22.3021 245.465 22.1458 245.465 21.9688C245.465 21.7969 245.503 21.6341 245.578 21.4805C245.654 21.3268 245.762 21.1914 245.902 21.0742C246.043 20.957 246.214 20.8646 246.414 20.7969C246.617 20.7292 246.844 20.6953 247.094 20.6953C247.448 20.6953 247.751 20.7552 248.004 20.875C248.259 20.9922 248.454 21.1523 248.59 21.3555C248.725 21.556 248.793 21.7826 248.793 22.0352H247.852C247.852 21.9232 247.823 21.819 247.766 21.7227C247.711 21.6237 247.628 21.5443 247.516 21.4844C247.404 21.4219 247.263 21.3906 247.094 21.3906C246.932 21.3906 246.798 21.4167 246.691 21.4688C246.587 21.5182 246.509 21.5833 246.457 21.6641C246.408 21.7448 246.383 21.8333 246.383 21.9297C246.383 22 246.396 22.0638 246.422 22.1211C246.451 22.1758 246.497 22.2266 246.562 22.2734C246.628 22.3177 246.716 22.3594 246.828 22.3984C246.943 22.4375 247.086 22.4753 247.258 22.5117C247.581 22.5794 247.858 22.6667 248.09 22.7734C248.324 22.8776 248.504 23.013 248.629 23.1797C248.754 23.3438 248.816 23.5521 248.816 23.8047C248.816 23.9922 248.776 24.1641 248.695 24.3203C248.617 24.474 248.503 24.6081 248.352 24.7227C248.201 24.8346 248.02 24.9219 247.809 24.9844C247.6 25.0469 247.366 25.0781 247.105 25.0781C246.723 25.0781 246.398 25.0104 246.133 24.875C245.867 24.737 245.665 24.5612 245.527 24.3477C245.392 24.1315 245.324 23.9076 245.324 23.6758H246.234C246.245 23.8503 246.293 23.9896 246.379 24.0938C246.467 24.1953 246.577 24.2695 246.707 24.3164C246.84 24.3607 246.977 24.3828 247.117 24.3828C247.286 24.3828 247.428 24.3607 247.543 24.3164C247.658 24.2695 247.745 24.207 247.805 24.1289C247.865 24.0482 247.895 23.957 247.895 23.8555ZM249.461 22.9336V22.8438C249.461 22.5391 249.505 22.2565 249.594 21.9961C249.682 21.7331 249.81 21.5052 249.977 21.3125C250.146 21.1172 250.352 20.9661 250.594 20.8594C250.839 20.75 251.115 20.6953 251.422 20.6953C251.732 20.6953 252.008 20.75 252.25 20.8594C252.495 20.9661 252.702 21.1172 252.871 21.3125C253.04 21.5052 253.169 21.7331 253.258 21.9961C253.346 22.2565 253.391 22.5391 253.391 22.8438V22.9336C253.391 23.2383 253.346 23.5208 253.258 23.7812C253.169 24.0417 253.04 24.2695 252.871 24.4648C252.702 24.6576 252.496 24.8086 252.254 24.918C252.012 25.0247 251.737 25.0781 251.43 25.0781C251.12 25.0781 250.842 25.0247 250.598 24.918C250.355 24.8086 250.15 24.6576 249.98 24.4648C249.811 24.2695 249.682 24.0417 249.594 23.7812C249.505 23.5208 249.461 23.2383 249.461 22.9336ZM250.402 22.8438V22.9336C250.402 23.1237 250.422 23.3034 250.461 23.4727C250.5 23.6419 250.561 23.7904 250.645 23.918C250.728 24.0456 250.835 24.1458 250.965 24.2188C251.095 24.2917 251.25 24.3281 251.43 24.3281C251.604 24.3281 251.755 24.2917 251.883 24.2188C252.013 24.1458 252.12 24.0456 252.203 23.918C252.286 23.7904 252.348 23.6419 252.387 23.4727C252.428 23.3034 252.449 23.1237 252.449 22.9336V22.8438C252.449 22.6562 252.428 22.4792 252.387 22.3125C252.348 22.1432 252.285 21.9935 252.199 21.8633C252.116 21.7331 252.009 21.6315 251.879 21.5586C251.751 21.4831 251.599 21.4453 251.422 21.4453C251.245 21.4453 251.091 21.4831 250.961 21.5586C250.833 21.6315 250.728 21.7331 250.645 21.8633C250.561 21.9935 250.5 22.1432 250.461 22.3125C250.422 22.4792 250.402 22.6562 250.402 22.8438ZM255.129 19V25H254.184V19H255.129ZM257.754 20.7734L255.914 22.8125L254.906 23.8438L254.66 23.0469L255.422 22.1055L256.617 20.7734H257.754ZM256.82 25L255.449 23.0156L256.043 22.3555L257.91 25H256.82ZM260.734 24.1523V22.1367C260.734 21.9857 260.707 21.8555 260.652 21.7461C260.598 21.6367 260.514 21.5521 260.402 21.4922C260.293 21.4323 260.155 21.4023 259.988 21.4023C259.835 21.4023 259.702 21.4284 259.59 21.4805C259.478 21.5326 259.391 21.6029 259.328 21.6914C259.266 21.7799 259.234 21.8802 259.234 21.9922H258.297C258.297 21.8255 258.337 21.6641 258.418 21.5078C258.499 21.3516 258.616 21.2122 258.77 21.0898C258.923 20.9674 259.107 20.8711 259.32 20.8008C259.534 20.7305 259.773 20.6953 260.039 20.6953C260.357 20.6953 260.638 20.7487 260.883 20.8555C261.13 20.9622 261.324 21.1237 261.465 21.3398C261.608 21.5534 261.68 21.8216 261.68 22.1445V24.0234C261.68 24.2161 261.693 24.3893 261.719 24.543C261.747 24.694 261.788 24.8255 261.84 24.9375V25H260.875C260.831 24.8984 260.796 24.7695 260.77 24.6133C260.746 24.4544 260.734 24.3008 260.734 24.1523ZM260.871 22.4297L260.879 23.0117H260.203C260.029 23.0117 259.875 23.0286 259.742 23.0625C259.609 23.0938 259.499 23.1406 259.41 23.2031C259.322 23.2656 259.255 23.3411 259.211 23.4297C259.167 23.5182 259.145 23.6185 259.145 23.7305C259.145 23.8424 259.171 23.9453 259.223 24.0391C259.275 24.1302 259.35 24.2018 259.449 24.2539C259.551 24.306 259.673 24.332 259.816 24.332C260.009 24.332 260.177 24.293 260.32 24.2148C260.466 24.1341 260.581 24.0365 260.664 23.9219C260.747 23.8047 260.792 23.694 260.797 23.5898L261.102 24.0078C261.07 24.1146 261.017 24.2292 260.941 24.3516C260.866 24.474 260.767 24.5911 260.645 24.7031C260.525 24.8125 260.38 24.9023 260.211 24.9727C260.044 25.043 259.852 25.0781 259.633 25.0781C259.357 25.0781 259.111 25.0234 258.895 24.9141C258.678 24.8021 258.509 24.6523 258.387 24.4648C258.264 24.2747 258.203 24.0599 258.203 23.8203C258.203 23.5964 258.245 23.3984 258.328 23.2266C258.414 23.0521 258.539 22.9062 258.703 22.7891C258.87 22.6719 259.073 22.5833 259.312 22.5234C259.552 22.4609 259.826 22.4297 260.133 22.4297H260.871ZM259.602 20.1758L260.363 19H261.426L260.363 20.1758H259.602Z" fill="black"/>
<path d="M140.527 23.9609L142.023 19.3125H143.105L141.066 25H140.336L140.527 23.9609ZM139.145 19.3125L140.629 23.9609L140.832 25H140.098L138.066 19.3125H139.145ZM144.828 24.5391L145.977 20.7734H146.984L145.289 25.6445C145.25 25.7487 145.199 25.862 145.137 25.9844C145.074 26.1068 144.992 26.2227 144.891 26.332C144.792 26.444 144.668 26.5339 144.52 26.6016C144.371 26.6719 144.191 26.707 143.98 26.707C143.897 26.707 143.816 26.6992 143.738 26.6836C143.663 26.6706 143.591 26.6562 143.523 26.6406L143.52 25.9219C143.546 25.9245 143.577 25.9271 143.613 25.9297C143.652 25.9323 143.684 25.9336 143.707 25.9336C143.863 25.9336 143.993 25.9141 144.098 25.875C144.202 25.8385 144.286 25.7786 144.352 25.6953C144.419 25.612 144.477 25.5 144.523 25.3594L144.828 24.5391ZM144.18 20.7734L145.184 23.9375L145.352 24.9297L144.699 25.0977L143.164 20.7734H144.18ZM144.656 20.1758L145.418 19H146.48L145.418 20.1758H144.656ZM147.527 19H148.469V24.0977L148.379 25H147.527V19ZM151.227 22.8477V22.9297C151.227 23.2422 151.191 23.5299 151.121 23.793C151.053 24.0534 150.949 24.2799 150.809 24.4727C150.671 24.6654 150.499 24.8151 150.293 24.9219C150.09 25.026 149.854 25.0781 149.586 25.0781C149.323 25.0781 149.094 25.0286 148.898 24.9297C148.703 24.8307 148.539 24.6901 148.406 24.5078C148.276 24.3255 148.171 24.1081 148.09 23.8555C148.009 23.6029 147.952 23.3242 147.918 23.0195V22.7578C147.952 22.4505 148.009 22.1719 148.09 21.9219C148.171 21.6693 148.276 21.4518 148.406 21.2695C148.539 21.0846 148.702 20.9427 148.895 20.8438C149.09 20.7448 149.318 20.6953 149.578 20.6953C149.849 20.6953 150.087 20.7474 150.293 20.8516C150.501 20.9557 150.674 21.1042 150.812 21.2969C150.951 21.487 151.053 21.7135 151.121 21.9766C151.191 22.2396 151.227 22.5299 151.227 22.8477ZM150.285 22.9297V22.8477C150.285 22.6576 150.27 22.4792 150.238 22.3125C150.207 22.1432 150.155 21.9948 150.082 21.8672C150.012 21.7396 149.915 21.6393 149.793 21.5664C149.673 21.4909 149.523 21.4531 149.344 21.4531C149.177 21.4531 149.034 21.4818 148.914 21.5391C148.794 21.5964 148.694 21.6745 148.613 21.7734C148.533 21.8724 148.469 21.987 148.422 22.1172C148.378 22.2474 148.348 22.388 148.332 22.5391V23.2461C148.355 23.4414 148.405 23.6211 148.48 23.7852C148.559 23.9466 148.668 24.0768 148.809 24.1758C148.949 24.2721 149.13 24.3203 149.352 24.3203C149.526 24.3203 149.673 24.2852 149.793 24.2148C149.913 24.1445 150.008 24.0469 150.078 23.9219C150.151 23.7943 150.203 23.6458 150.234 23.4766C150.268 23.3073 150.285 23.125 150.285 22.9297ZM151.844 22.9336V22.8438C151.844 22.5391 151.888 22.2565 151.977 21.9961C152.065 21.7331 152.193 21.5052 152.359 21.3125C152.529 21.1172 152.734 20.9661 152.977 20.8594C153.221 20.75 153.497 20.6953 153.805 20.6953C154.115 20.6953 154.391 20.75 154.633 20.8594C154.878 20.9661 155.085 21.1172 155.254 21.3125C155.423 21.5052 155.552 21.7331 155.641 21.9961C155.729 22.2565 155.773 22.5391 155.773 22.8438V22.9336C155.773 23.2383 155.729 23.5208 155.641 23.7812C155.552 24.0417 155.423 24.2695 155.254 24.4648C155.085 24.6576 154.879 24.8086 154.637 24.918C154.395 25.0247 154.12 25.0781 153.812 25.0781C153.503 25.0781 153.225 25.0247 152.98 24.918C152.738 24.8086 152.533 24.6576 152.363 24.4648C152.194 24.2695 152.065 24.0417 151.977 23.7812C151.888 23.5208 151.844 23.2383 151.844 22.9336ZM152.785 22.8438V22.9336C152.785 23.1237 152.805 23.3034 152.844 23.4727C152.883 23.6419 152.944 23.7904 153.027 23.918C153.111 24.0456 153.217 24.1458 153.348 24.2188C153.478 24.2917 153.633 24.3281 153.812 24.3281C153.987 24.3281 154.138 24.2917 154.266 24.2188C154.396 24.1458 154.503 24.0456 154.586 23.918C154.669 23.7904 154.73 23.6419 154.77 23.4727C154.811 23.3034 154.832 23.1237 154.832 22.9336V22.8438C154.832 22.6562 154.811 22.4792 154.77 22.3125C154.73 22.1432 154.668 21.9935 154.582 21.8633C154.499 21.7331 154.392 21.6315 154.262 21.5586C154.134 21.4831 153.982 21.4453 153.805 21.4453C153.628 21.4453 153.474 21.4831 153.344 21.5586C153.216 21.6315 153.111 21.7331 153.027 21.8633C152.944 21.9935 152.883 22.1432 152.844 22.3125C152.805 22.4792 152.785 22.6562 152.785 22.8438ZM157.508 21.5781V25H156.566V20.7734H157.465L157.508 21.5781ZM158.801 20.7461L158.793 21.6211C158.736 21.6107 158.673 21.6029 158.605 21.5977C158.54 21.5924 158.475 21.5898 158.41 21.5898C158.249 21.5898 158.107 21.6133 157.984 21.6602C157.862 21.7044 157.759 21.7695 157.676 21.8555C157.595 21.9388 157.533 22.0404 157.488 22.1602C157.444 22.2799 157.418 22.4141 157.41 22.5625L157.195 22.5781C157.195 22.3125 157.221 22.0664 157.273 21.8398C157.326 21.6133 157.404 21.4141 157.508 21.2422C157.615 21.0703 157.747 20.9362 157.906 20.8398C158.068 20.7435 158.254 20.6953 158.465 20.6953C158.522 20.6953 158.583 20.7005 158.648 20.7109C158.716 20.7214 158.767 20.7331 158.801 20.7461ZM160.324 21.6758V25H159.383V20.7734H160.27L160.324 21.6758ZM160.156 22.7305L159.852 22.7266C159.854 22.4271 159.896 22.1523 159.977 21.9023C160.06 21.6523 160.174 21.4375 160.32 21.2578C160.469 21.0781 160.646 20.9401 160.852 20.8438C161.057 20.7448 161.286 20.6953 161.539 20.6953C161.742 20.6953 161.926 20.724 162.09 20.7812C162.257 20.8359 162.398 20.9258 162.516 21.0508C162.635 21.1758 162.727 21.3385 162.789 21.5391C162.852 21.737 162.883 21.9805 162.883 22.2695V25H161.938V22.2656C161.938 22.0625 161.908 21.9023 161.848 21.7852C161.79 21.6654 161.706 21.5807 161.594 21.5312C161.484 21.4792 161.348 21.4531 161.184 21.4531C161.022 21.4531 160.878 21.487 160.75 21.5547C160.622 21.6224 160.514 21.7148 160.426 21.832C160.34 21.9492 160.273 22.0846 160.227 22.2383C160.18 22.3919 160.156 22.556 160.156 22.7305ZM166.227 24.1523V22.1367C166.227 21.9857 166.199 21.8555 166.145 21.7461C166.09 21.6367 166.007 21.5521 165.895 21.4922C165.785 21.4323 165.647 21.4023 165.48 21.4023C165.327 21.4023 165.194 21.4284 165.082 21.4805C164.97 21.5326 164.883 21.6029 164.82 21.6914C164.758 21.7799 164.727 21.8802 164.727 21.9922H163.789C163.789 21.8255 163.829 21.6641 163.91 21.5078C163.991 21.3516 164.108 21.2122 164.262 21.0898C164.415 20.9674 164.599 20.8711 164.812 20.8008C165.026 20.7305 165.266 20.6953 165.531 20.6953C165.849 20.6953 166.13 20.7487 166.375 20.8555C166.622 20.9622 166.816 21.1237 166.957 21.3398C167.1 21.5534 167.172 21.8216 167.172 22.1445V24.0234C167.172 24.2161 167.185 24.3893 167.211 24.543C167.24 24.694 167.28 24.8255 167.332 24.9375V25H166.367C166.323 24.8984 166.288 24.7695 166.262 24.6133C166.238 24.4544 166.227 24.3008 166.227 24.1523ZM166.363 22.4297L166.371 23.0117H165.695C165.521 23.0117 165.367 23.0286 165.234 23.0625C165.102 23.0938 164.991 23.1406 164.902 23.2031C164.814 23.2656 164.747 23.3411 164.703 23.4297C164.659 23.5182 164.637 23.6185 164.637 23.7305C164.637 23.8424 164.663 23.9453 164.715 24.0391C164.767 24.1302 164.842 24.2018 164.941 24.2539C165.043 24.306 165.165 24.332 165.309 24.332C165.501 24.332 165.669 24.293 165.812 24.2148C165.958 24.1341 166.073 24.0365 166.156 23.9219C166.24 23.8047 166.284 23.694 166.289 23.5898L166.594 24.0078C166.562 24.1146 166.509 24.2292 166.434 24.3516C166.358 24.474 166.259 24.5911 166.137 24.7031C166.017 24.8125 165.872 24.9023 165.703 24.9727C165.536 25.043 165.344 25.0781 165.125 25.0781C164.849 25.0781 164.603 25.0234 164.387 24.9141C164.171 24.8021 164.001 24.6523 163.879 24.4648C163.757 24.2747 163.695 24.0599 163.695 23.8203C163.695 23.5964 163.737 23.3984 163.82 23.2266C163.906 23.0521 164.031 22.9062 164.195 22.7891C164.362 22.6719 164.565 22.5833 164.805 22.5234C165.044 22.4609 165.318 22.4297 165.625 22.4297H166.363ZM165.094 20.1758L165.855 19H166.918L165.855 20.1758H165.094Z" fill="black"/>
</svg>
