<svg width="300" height="22" viewBox="0 0 305 22" fill="none" xmlns="http://www.w3.org/2000/svg">
<line x1="2" y1="5.5" x2="122" y2="5.5" stroke="#737373" stroke-width="3"/>
<line x1="122.5" y1="1.5" x2="122.5" y2="9.5" stroke="#737373" stroke-width="3" stroke-linecap="round"/>
<line x1="182.5" y1="1.5" x2="182.5" y2="9.5" stroke="#737373" stroke-width="3" stroke-linecap="round"/>
<line x1="303.5" y1="1.5" x2="303.5" y2="9.5" stroke="#737373" stroke-width="3" stroke-linecap="round"/>
<line x1="1.5" y1="1.5" x2="1.5" y2="9.5" stroke="#737373" stroke-width="3" stroke-linecap="round"/>
<line x1="122" y1="5.5" x2="182" y2="5.5" stroke="#737373" stroke-width="3"/>
<line x1="182" y1="5.5" x2="302" y2="5.5" stroke="#737373" stroke-width="3"/>
<path d="M56.0898 14.3125V20H55.1094L52.5586 15.9258V20H51.5781V14.3125H52.5586L55.1172 18.3945V14.3125H56.0898ZM58.1836 15.7734V20H57.2422V15.7734H58.1836ZM57.25 15.2109L58.0117 14.0352H59.0742L58.0117 15.2109H57.25ZM62.5273 19.25V20H59.3789V19.25H62.5273ZM62.4414 16.3594L59.6992 20H59.0898V19.3945L61.8164 15.7734H62.4414V16.3594ZM62.0781 15.7734V16.5234H59.1367V15.7734H62.0781ZM64.2305 14V20H63.2852V14H64.2305ZM66.8555 15.7734L65.0156 17.8125L64.0078 18.8438L63.7617 18.0469L64.5234 17.1055L65.7188 15.7734H66.8555ZM65.9219 20L64.5508 18.0156L65.1445 17.3555L67.0117 20H65.9219ZM68.6797 19.5391L69.8281 15.7734H70.8359L69.1406 20.6445C69.1016 20.7487 69.0508 20.862 68.9883 20.9844C68.9258 21.1068 68.8438 21.2227 68.7422 21.332C68.6432 21.444 68.5195 21.5339 68.3711 21.6016C68.2227 21.6719 68.043 21.707 67.832 21.707C67.7487 21.707 67.668 21.6992 67.5898 21.6836C67.5143 21.6706 67.4427 21.6562 67.375 21.6406L67.3711 20.9219C67.3971 20.9245 67.4284 20.9271 67.4648 20.9297C67.5039 20.9323 67.5352 20.9336 67.5586 20.9336C67.7148 20.9336 67.8451 20.9141 67.9492 20.875C68.0534 20.8385 68.138 20.7786 68.2031 20.6953C68.2708 20.612 68.3281 20.5 68.375 20.3594L68.6797 19.5391ZM68.0312 15.7734L69.0352 18.9375L69.2031 19.9297L68.5508 20.0977L67.0156 15.7734H68.0312Z" fill="black"/>
<path d="M231.527 18.9609L233.023 14.3125H234.105L232.066 20H231.336L231.527 18.9609ZM230.145 14.3125L231.629 18.9609L231.832 20H231.098L229.066 14.3125H230.145ZM235.828 19.5391L236.977 15.7734H237.984L236.289 20.6445C236.25 20.7487 236.199 20.862 236.137 20.9844C236.074 21.1068 235.992 21.2227 235.891 21.332C235.792 21.444 235.668 21.5339 235.52 21.6016C235.371 21.6719 235.191 21.707 234.98 21.707C234.897 21.707 234.816 21.6992 234.738 21.6836C234.663 21.6706 234.591 21.6562 234.523 21.6406L234.52 20.9219C234.546 20.9245 234.577 20.9271 234.613 20.9297C234.652 20.9323 234.684 20.9336 234.707 20.9336C234.863 20.9336 234.993 20.9141 235.098 20.875C235.202 20.8385 235.286 20.7786 235.352 20.6953C235.419 20.612 235.477 20.5 235.523 20.3594L235.828 19.5391ZM235.18 15.7734L236.184 18.9375L236.352 19.9297L235.699 20.0977L234.164 15.7734H235.18ZM240.895 18.8555C240.895 18.7617 240.871 18.6771 240.824 18.6016C240.777 18.5234 240.688 18.4531 240.555 18.3906C240.424 18.3281 240.232 18.2708 239.977 18.2188C239.753 18.1693 239.547 18.1107 239.359 18.043C239.174 17.9727 239.016 17.888 238.883 17.7891C238.75 17.6901 238.647 17.5729 238.574 17.4375C238.501 17.3021 238.465 17.1458 238.465 16.9688C238.465 16.7969 238.503 16.6341 238.578 16.4805C238.654 16.3268 238.762 16.1914 238.902 16.0742C239.043 15.957 239.214 15.8646 239.414 15.7969C239.617 15.7292 239.844 15.6953 240.094 15.6953C240.448 15.6953 240.751 15.7552 241.004 15.875C241.259 15.9922 241.454 16.1523 241.59 16.3555C241.725 16.556 241.793 16.7826 241.793 17.0352H240.852C240.852 16.9232 240.823 16.819 240.766 16.7227C240.711 16.6237 240.628 16.5443 240.516 16.4844C240.404 16.4219 240.263 16.3906 240.094 16.3906C239.932 16.3906 239.798 16.4167 239.691 16.4688C239.587 16.5182 239.509 16.5833 239.457 16.6641C239.408 16.7448 239.383 16.8333 239.383 16.9297C239.383 17 239.396 17.0638 239.422 17.1211C239.451 17.1758 239.497 17.2266 239.562 17.2734C239.628 17.3177 239.716 17.3594 239.828 17.3984C239.943 17.4375 240.086 17.4753 240.258 17.5117C240.581 17.5794 240.858 17.6667 241.09 17.7734C241.324 17.8776 241.504 18.013 241.629 18.1797C241.754 18.3438 241.816 18.5521 241.816 18.8047C241.816 18.9922 241.776 19.1641 241.695 19.3203C241.617 19.474 241.503 19.6081 241.352 19.7227C241.201 19.8346 241.02 19.9219 240.809 19.9844C240.6 20.0469 240.366 20.0781 240.105 20.0781C239.723 20.0781 239.398 20.0104 239.133 19.875C238.867 19.737 238.665 19.5612 238.527 19.3477C238.392 19.1315 238.324 18.9076 238.324 18.6758H239.234C239.245 18.8503 239.293 18.9896 239.379 19.0938C239.467 19.1953 239.577 19.2695 239.707 19.3164C239.84 19.3607 239.977 19.3828 240.117 19.3828C240.286 19.3828 240.428 19.3607 240.543 19.3164C240.658 19.2695 240.745 19.207 240.805 19.1289C240.865 19.0482 240.895 18.957 240.895 18.8555ZM242.461 17.9336V17.8438C242.461 17.5391 242.505 17.2565 242.594 16.9961C242.682 16.7331 242.81 16.5052 242.977 16.3125C243.146 16.1172 243.352 15.9661 243.594 15.8594C243.839 15.75 244.115 15.6953 244.422 15.6953C244.732 15.6953 245.008 15.75 245.25 15.8594C245.495 15.9661 245.702 16.1172 245.871 16.3125C246.04 16.5052 246.169 16.7331 246.258 16.9961C246.346 17.2565 246.391 17.5391 246.391 17.8438V17.9336C246.391 18.2383 246.346 18.5208 246.258 18.7812C246.169 19.0417 246.04 19.2695 245.871 19.4648C245.702 19.6576 245.496 19.8086 245.254 19.918C245.012 20.0247 244.737 20.0781 244.43 20.0781C244.12 20.0781 243.842 20.0247 243.598 19.918C243.355 19.8086 243.15 19.6576 242.98 19.4648C242.811 19.2695 242.682 19.0417 242.594 18.7812C242.505 18.5208 242.461 18.2383 242.461 17.9336ZM243.402 17.8438V17.9336C243.402 18.1237 243.422 18.3034 243.461 18.4727C243.5 18.6419 243.561 18.7904 243.645 18.918C243.728 19.0456 243.835 19.1458 243.965 19.2188C244.095 19.2917 244.25 19.3281 244.43 19.3281C244.604 19.3281 244.755 19.2917 244.883 19.2188C245.013 19.1458 245.12 19.0456 245.203 18.918C245.286 18.7904 245.348 18.6419 245.387 18.4727C245.428 18.3034 245.449 18.1237 245.449 17.9336V17.8438C245.449 17.6562 245.428 17.4792 245.387 17.3125C245.348 17.1432 245.285 16.9935 245.199 16.8633C245.116 16.7331 245.009 16.6315 244.879 16.5586C244.751 16.4831 244.599 16.4453 244.422 16.4453C244.245 16.4453 244.091 16.4831 243.961 16.5586C243.833 16.6315 243.728 16.7331 243.645 16.8633C243.561 16.9935 243.5 17.1432 243.461 17.3125C243.422 17.4792 243.402 17.6562 243.402 17.8438ZM248.129 14V20H247.184V14H248.129ZM250.754 15.7734L248.914 17.8125L247.906 18.8438L247.66 18.0469L248.422 17.1055L249.617 15.7734H250.754ZM249.82 20L248.449 18.0156L249.043 17.3555L250.91 20H249.82ZM252.578 19.5391L253.727 15.7734H254.734L253.039 20.6445C253 20.7487 252.949 20.862 252.887 20.9844C252.824 21.1068 252.742 21.2227 252.641 21.332C252.542 21.444 252.418 21.5339 252.27 21.6016C252.121 21.6719 251.941 21.707 251.73 21.707C251.647 21.707 251.566 21.6992 251.488 21.6836C251.413 21.6706 251.341 21.6562 251.273 21.6406L251.27 20.9219C251.296 20.9245 251.327 20.9271 251.363 20.9297C251.402 20.9323 251.434 20.9336 251.457 20.9336C251.613 20.9336 251.743 20.9141 251.848 20.875C251.952 20.8385 252.036 20.7786 252.102 20.6953C252.169 20.612 252.227 20.5 252.273 20.3594L252.578 19.5391ZM251.93 15.7734L252.934 18.9375L253.102 19.9297L252.449 20.0977L250.914 15.7734H251.93ZM252.406 15.1758L253.168 14H254.23L253.168 15.1758H252.406Z" fill="black"/>
<path d="M141.527 18.9609L143.023 14.3125H144.105L142.066 20H141.336L141.527 18.9609ZM140.145 14.3125L141.629 18.9609L141.832 20H141.098L139.066 14.3125H140.145ZM145.828 19.5391L146.977 15.7734H147.984L146.289 20.6445C146.25 20.7487 146.199 20.862 146.137 20.9844C146.074 21.1068 145.992 21.2227 145.891 21.332C145.792 21.444 145.668 21.5339 145.52 21.6016C145.371 21.6719 145.191 21.707 144.98 21.707C144.897 21.707 144.816 21.6992 144.738 21.6836C144.663 21.6706 144.591 21.6562 144.523 21.6406L144.52 20.9219C144.546 20.9245 144.577 20.9271 144.613 20.9297C144.652 20.9323 144.684 20.9336 144.707 20.9336C144.863 20.9336 144.993 20.9141 145.098 20.875C145.202 20.8385 145.286 20.7786 145.352 20.6953C145.419 20.612 145.477 20.5 145.523 20.3594L145.828 19.5391ZM145.18 15.7734L146.184 18.9375L146.352 19.9297L145.699 20.0977L144.164 15.7734H145.18ZM145.656 15.1758L146.418 14H147.48L146.418 15.1758H145.656ZM148.527 14H149.469V19.0977L149.379 20H148.527V14ZM152.227 17.8477V17.9297C152.227 18.2422 152.191 18.5299 152.121 18.793C152.053 19.0534 151.949 19.2799 151.809 19.4727C151.671 19.6654 151.499 19.8151 151.293 19.9219C151.09 20.026 150.854 20.0781 150.586 20.0781C150.323 20.0781 150.094 20.0286 149.898 19.9297C149.703 19.8307 149.539 19.6901 149.406 19.5078C149.276 19.3255 149.171 19.1081 149.09 18.8555C149.009 18.6029 148.952 18.3242 148.918 18.0195V17.7578C148.952 17.4505 149.009 17.1719 149.09 16.9219C149.171 16.6693 149.276 16.4518 149.406 16.2695C149.539 16.0846 149.702 15.9427 149.895 15.8438C150.09 15.7448 150.318 15.6953 150.578 15.6953C150.849 15.6953 151.087 15.7474 151.293 15.8516C151.501 15.9557 151.674 16.1042 151.812 16.2969C151.951 16.487 152.053 16.7135 152.121 16.9766C152.191 17.2396 152.227 17.5299 152.227 17.8477ZM151.285 17.9297V17.8477C151.285 17.6576 151.27 17.4792 151.238 17.3125C151.207 17.1432 151.155 16.9948 151.082 16.8672C151.012 16.7396 150.915 16.6393 150.793 16.5664C150.673 16.4909 150.523 16.4531 150.344 16.4531C150.177 16.4531 150.034 16.4818 149.914 16.5391C149.794 16.5964 149.694 16.6745 149.613 16.7734C149.533 16.8724 149.469 16.987 149.422 17.1172C149.378 17.2474 149.348 17.388 149.332 17.5391V18.2461C149.355 18.4414 149.405 18.6211 149.48 18.7852C149.559 18.9466 149.668 19.0768 149.809 19.1758C149.949 19.2721 150.13 19.3203 150.352 19.3203C150.526 19.3203 150.673 19.2852 150.793 19.2148C150.913 19.1445 151.008 19.0469 151.078 18.9219C151.151 18.7943 151.203 18.6458 151.234 18.4766C151.268 18.3073 151.285 18.125 151.285 17.9297ZM152.844 17.9336V17.8438C152.844 17.5391 152.888 17.2565 152.977 16.9961C153.065 16.7331 153.193 16.5052 153.359 16.3125C153.529 16.1172 153.734 15.9661 153.977 15.8594C154.221 15.75 154.497 15.6953 154.805 15.6953C155.115 15.6953 155.391 15.75 155.633 15.8594C155.878 15.9661 156.085 16.1172 156.254 16.3125C156.423 16.5052 156.552 16.7331 156.641 16.9961C156.729 17.2565 156.773 17.5391 156.773 17.8438V17.9336C156.773 18.2383 156.729 18.5208 156.641 18.7812C156.552 19.0417 156.423 19.2695 156.254 19.4648C156.085 19.6576 155.879 19.8086 155.637 19.918C155.395 20.0247 155.12 20.0781 154.812 20.0781C154.503 20.0781 154.225 20.0247 153.98 19.918C153.738 19.8086 153.533 19.6576 153.363 19.4648C153.194 19.2695 153.065 19.0417 152.977 18.7812C152.888 18.5208 152.844 18.2383 152.844 17.9336ZM153.785 17.8438V17.9336C153.785 18.1237 153.805 18.3034 153.844 18.4727C153.883 18.6419 153.944 18.7904 154.027 18.918C154.111 19.0456 154.217 19.1458 154.348 19.2188C154.478 19.2917 154.633 19.3281 154.812 19.3281C154.987 19.3281 155.138 19.2917 155.266 19.2188C155.396 19.1458 155.503 19.0456 155.586 18.918C155.669 18.7904 155.73 18.6419 155.77 18.4727C155.811 18.3034 155.832 18.1237 155.832 17.9336V17.8438C155.832 17.6562 155.811 17.4792 155.77 17.3125C155.73 17.1432 155.668 16.9935 155.582 16.8633C155.499 16.7331 155.392 16.6315 155.262 16.5586C155.134 16.4831 154.982 16.4453 154.805 16.4453C154.628 16.4453 154.474 16.4831 154.344 16.5586C154.216 16.6315 154.111 16.7331 154.027 16.8633C153.944 16.9935 153.883 17.1432 153.844 17.3125C153.805 17.4792 153.785 17.6562 153.785 17.8438ZM158.508 16.5781V20H157.566V15.7734H158.465L158.508 16.5781ZM159.801 15.7461L159.793 16.6211C159.736 16.6107 159.673 16.6029 159.605 16.5977C159.54 16.5924 159.475 16.5898 159.41 16.5898C159.249 16.5898 159.107 16.6133 158.984 16.6602C158.862 16.7044 158.759 16.7695 158.676 16.8555C158.595 16.9388 158.533 17.0404 158.488 17.1602C158.444 17.2799 158.418 17.4141 158.41 17.5625L158.195 17.5781C158.195 17.3125 158.221 17.0664 158.273 16.8398C158.326 16.6133 158.404 16.4141 158.508 16.2422C158.615 16.0703 158.747 15.9362 158.906 15.8398C159.068 15.7435 159.254 15.6953 159.465 15.6953C159.522 15.6953 159.583 15.7005 159.648 15.7109C159.716 15.7214 159.767 15.7331 159.801 15.7461ZM161.324 16.6758V20H160.383V15.7734H161.27L161.324 16.6758ZM161.156 17.7305L160.852 17.7266C160.854 17.4271 160.896 17.1523 160.977 16.9023C161.06 16.6523 161.174 16.4375 161.32 16.2578C161.469 16.0781 161.646 15.9401 161.852 15.8438C162.057 15.7448 162.286 15.6953 162.539 15.6953C162.742 15.6953 162.926 15.724 163.09 15.7812C163.257 15.8359 163.398 15.9258 163.516 16.0508C163.635 16.1758 163.727 16.3385 163.789 16.5391C163.852 16.737 163.883 16.9805 163.883 17.2695V20H162.938V17.2656C162.938 17.0625 162.908 16.9023 162.848 16.7852C162.79 16.6654 162.706 16.5807 162.594 16.5312C162.484 16.4792 162.348 16.4531 162.184 16.4531C162.022 16.4531 161.878 16.487 161.75 16.5547C161.622 16.6224 161.514 16.7148 161.426 16.832C161.34 16.9492 161.273 17.0846 161.227 17.2383C161.18 17.3919 161.156 17.556 161.156 17.7305ZM166.07 19.5391L167.219 15.7734H168.227L166.531 20.6445C166.492 20.7487 166.441 20.862 166.379 20.9844C166.316 21.1068 166.234 21.2227 166.133 21.332C166.034 21.444 165.91 21.5339 165.762 21.6016C165.613 21.6719 165.434 21.707 165.223 21.707C165.139 21.707 165.059 21.6992 164.98 21.6836C164.905 21.6706 164.833 21.6562 164.766 21.6406L164.762 20.9219C164.788 20.9245 164.819 20.9271 164.855 20.9297C164.895 20.9323 164.926 20.9336 164.949 20.9336C165.105 20.9336 165.236 20.9141 165.34 20.875C165.444 20.8385 165.529 20.7786 165.594 20.6953C165.661 20.612 165.719 20.5 165.766 20.3594L166.07 19.5391ZM165.422 15.7734L166.426 18.9375L166.594 19.9297L165.941 20.0977L164.406 15.7734H165.422ZM165.898 15.1758L166.66 14H167.723L166.66 15.1758H165.898Z" fill="black"/>
</svg>
