<svg width="300" height="22" viewBox="0 0 305 22" fill="none" xmlns="http://www.w3.org/2000/svg">
<line x1="2" y1="5.5" x2="92" y2="5.5" stroke="#737373" stroke-width="3"/>
<line x1="92.5" y1="1.5" x2="92.5" y2="9.5" stroke="#737373" stroke-width="3" stroke-linecap="round"/>
<line x1="182.5" y1="1.5" x2="182.5" y2="9.5" stroke="#737373" stroke-width="3" stroke-linecap="round"/>
<line x1="303.5" y1="1.5" x2="303.5" y2="9.5" stroke="#737373" stroke-width="3" stroke-linecap="round"/>
<line x1="1.5" y1="1.5" x2="1.5" y2="9.5" stroke="#737373" stroke-width="3" stroke-linecap="round"/>
<line x1="92" y1="5.5" x2="182" y2="5.5" stroke="#737373" stroke-width="3"/>
<line x1="182" y1="5.5" x2="302" y2="5.5" stroke="#737373" stroke-width="3"/>
<path d="M42.0898 14.3125V20H41.1094L38.5586 15.9258V20H37.5781V14.3125H38.5586L41.1172 18.3945V14.3125H42.0898ZM44.1836 15.7734V20H43.2422V15.7734H44.1836ZM43.25 15.2109L44.0117 14.0352H45.0742L44.0117 15.2109H43.25ZM48.5273 19.25V20H45.3789V19.25H48.5273ZM48.4414 16.3594L45.6992 20H45.0898V19.3945L47.8164 15.7734H48.4414V16.3594ZM48.0781 15.7734V16.5234H45.1367V15.7734H48.0781ZM50.2305 14V20H49.2852V14H50.2305ZM52.8555 15.7734L51.0156 17.8125L50.0078 18.8438L49.7617 18.0469L50.5234 17.1055L51.7188 15.7734H52.8555ZM51.9219 20L50.5508 18.0156L51.1445 17.3555L53.0117 20H51.9219ZM55.8359 19.1523V17.1367C55.8359 16.9857 55.8086 16.8555 55.7539 16.7461C55.6992 16.6367 55.6159 16.5521 55.5039 16.4922C55.3945 16.4323 55.2565 16.4023 55.0898 16.4023C54.9362 16.4023 54.8034 16.4284 54.6914 16.4805C54.5794 16.5326 54.4922 16.6029 54.4297 16.6914C54.3672 16.7799 54.3359 16.8802 54.3359 16.9922H53.3984C53.3984 16.8255 53.4388 16.6641 53.5195 16.5078C53.6003 16.3516 53.7174 16.2122 53.8711 16.0898C54.0247 15.9674 54.2083 15.8711 54.4219 15.8008C54.6354 15.7305 54.875 15.6953 55.1406 15.6953C55.4583 15.6953 55.7396 15.7487 55.9844 15.8555C56.2318 15.9622 56.4258 16.1237 56.5664 16.3398C56.7096 16.5534 56.7812 16.8216 56.7812 17.1445V19.0234C56.7812 19.2161 56.7943 19.3893 56.8203 19.543C56.849 19.694 56.8893 19.8255 56.9414 19.9375V20H55.9766C55.9323 19.8984 55.8971 19.7695 55.8711 19.6133C55.8477 19.4544 55.8359 19.3008 55.8359 19.1523ZM55.9727 17.4297L55.9805 18.0117H55.3047C55.1302 18.0117 54.9766 18.0286 54.8438 18.0625C54.7109 18.0938 54.6003 18.1406 54.5117 18.2031C54.4232 18.2656 54.3568 18.3411 54.3125 18.4297C54.2682 18.5182 54.2461 18.6185 54.2461 18.7305C54.2461 18.8424 54.2721 18.9453 54.3242 19.0391C54.3763 19.1302 54.4518 19.2018 54.5508 19.2539C54.6523 19.306 54.7747 19.332 54.918 19.332C55.1107 19.332 55.2786 19.293 55.4219 19.2148C55.5677 19.1341 55.6823 19.0365 55.7656 18.9219C55.849 18.8047 55.8932 18.694 55.8984 18.5898L56.2031 19.0078C56.1719 19.1146 56.1185 19.2292 56.043 19.3516C55.9674 19.474 55.8685 19.5911 55.7461 19.7031C55.6263 19.8125 55.4818 19.9023 55.3125 19.9727C55.1458 20.043 54.9531 20.0781 54.7344 20.0781C54.4583 20.0781 54.2122 20.0234 53.9961 19.9141C53.7799 19.8021 53.6107 19.6523 53.4883 19.4648C53.3659 19.2747 53.3047 19.0599 53.3047 18.8203C53.3047 18.5964 53.3464 18.3984 53.4297 18.2266C53.5156 18.0521 53.6406 17.9062 53.8047 17.7891C53.9714 17.6719 54.1745 17.5833 54.4141 17.5234C54.6536 17.4609 54.9271 17.4297 55.2344 17.4297H55.9727Z" fill="black"/>
<path d="M231.527 18.9609L233.023 14.3125H234.105L232.066 20H231.336L231.527 18.9609ZM230.145 14.3125L231.629 18.9609L231.832 20H231.098L229.066 14.3125H230.145ZM235.828 19.5391L236.977 15.7734H237.984L236.289 20.6445C236.25 20.7487 236.199 20.862 236.137 20.9844C236.074 21.1068 235.992 21.2227 235.891 21.332C235.792 21.444 235.668 21.5339 235.52 21.6016C235.371 21.6719 235.191 21.707 234.98 21.707C234.897 21.707 234.816 21.6992 234.738 21.6836C234.663 21.6706 234.591 21.6562 234.523 21.6406L234.52 20.9219C234.546 20.9245 234.577 20.9271 234.613 20.9297C234.652 20.9323 234.684 20.9336 234.707 20.9336C234.863 20.9336 234.993 20.9141 235.098 20.875C235.202 20.8385 235.286 20.7786 235.352 20.6953C235.419 20.612 235.477 20.5 235.523 20.3594L235.828 19.5391ZM235.18 15.7734L236.184 18.9375L236.352 19.9297L235.699 20.0977L234.164 15.7734H235.18ZM240.895 18.8555C240.895 18.7617 240.871 18.6771 240.824 18.6016C240.777 18.5234 240.688 18.4531 240.555 18.3906C240.424 18.3281 240.232 18.2708 239.977 18.2188C239.753 18.1693 239.547 18.1107 239.359 18.043C239.174 17.9727 239.016 17.888 238.883 17.7891C238.75 17.6901 238.647 17.5729 238.574 17.4375C238.501 17.3021 238.465 17.1458 238.465 16.9688C238.465 16.7969 238.503 16.6341 238.578 16.4805C238.654 16.3268 238.762 16.1914 238.902 16.0742C239.043 15.957 239.214 15.8646 239.414 15.7969C239.617 15.7292 239.844 15.6953 240.094 15.6953C240.448 15.6953 240.751 15.7552 241.004 15.875C241.259 15.9922 241.454 16.1523 241.59 16.3555C241.725 16.556 241.793 16.7826 241.793 17.0352H240.852C240.852 16.9232 240.823 16.819 240.766 16.7227C240.711 16.6237 240.628 16.5443 240.516 16.4844C240.404 16.4219 240.263 16.3906 240.094 16.3906C239.932 16.3906 239.798 16.4167 239.691 16.4688C239.587 16.5182 239.509 16.5833 239.457 16.6641C239.408 16.7448 239.383 16.8333 239.383 16.9297C239.383 17 239.396 17.0638 239.422 17.1211C239.451 17.1758 239.497 17.2266 239.562 17.2734C239.628 17.3177 239.716 17.3594 239.828 17.3984C239.943 17.4375 240.086 17.4753 240.258 17.5117C240.581 17.5794 240.858 17.6667 241.09 17.7734C241.324 17.8776 241.504 18.013 241.629 18.1797C241.754 18.3438 241.816 18.5521 241.816 18.8047C241.816 18.9922 241.776 19.1641 241.695 19.3203C241.617 19.474 241.503 19.6081 241.352 19.7227C241.201 19.8346 241.02 19.9219 240.809 19.9844C240.6 20.0469 240.366 20.0781 240.105 20.0781C239.723 20.0781 239.398 20.0104 239.133 19.875C238.867 19.737 238.665 19.5612 238.527 19.3477C238.392 19.1315 238.324 18.9076 238.324 18.6758H239.234C239.245 18.8503 239.293 18.9896 239.379 19.0938C239.467 19.1953 239.577 19.2695 239.707 19.3164C239.84 19.3607 239.977 19.3828 240.117 19.3828C240.286 19.3828 240.428 19.3607 240.543 19.3164C240.658 19.2695 240.745 19.207 240.805 19.1289C240.865 19.0482 240.895 18.957 240.895 18.8555ZM242.461 17.9336V17.8438C242.461 17.5391 242.505 17.2565 242.594 16.9961C242.682 16.7331 242.81 16.5052 242.977 16.3125C243.146 16.1172 243.352 15.9661 243.594 15.8594C243.839 15.75 244.115 15.6953 244.422 15.6953C244.732 15.6953 245.008 15.75 245.25 15.8594C245.495 15.9661 245.702 16.1172 245.871 16.3125C246.04 16.5052 246.169 16.7331 246.258 16.9961C246.346 17.2565 246.391 17.5391 246.391 17.8438V17.9336C246.391 18.2383 246.346 18.5208 246.258 18.7812C246.169 19.0417 246.04 19.2695 245.871 19.4648C245.702 19.6576 245.496 19.8086 245.254 19.918C245.012 20.0247 244.737 20.0781 244.43 20.0781C244.12 20.0781 243.842 20.0247 243.598 19.918C243.355 19.8086 243.15 19.6576 242.98 19.4648C242.811 19.2695 242.682 19.0417 242.594 18.7812C242.505 18.5208 242.461 18.2383 242.461 17.9336ZM243.402 17.8438V17.9336C243.402 18.1237 243.422 18.3034 243.461 18.4727C243.5 18.6419 243.561 18.7904 243.645 18.918C243.728 19.0456 243.835 19.1458 243.965 19.2188C244.095 19.2917 244.25 19.3281 244.43 19.3281C244.604 19.3281 244.755 19.2917 244.883 19.2188C245.013 19.1458 245.12 19.0456 245.203 18.918C245.286 18.7904 245.348 18.6419 245.387 18.4727C245.428 18.3034 245.449 18.1237 245.449 17.9336V17.8438C245.449 17.6562 245.428 17.4792 245.387 17.3125C245.348 17.1432 245.285 16.9935 245.199 16.8633C245.116 16.7331 245.009 16.6315 244.879 16.5586C244.751 16.4831 244.599 16.4453 244.422 16.4453C244.245 16.4453 244.091 16.4831 243.961 16.5586C243.833 16.6315 243.728 16.7331 243.645 16.8633C243.561 16.9935 243.5 17.1432 243.461 17.3125C243.422 17.4792 243.402 17.6562 243.402 17.8438ZM248.129 14V20H247.184V14H248.129ZM250.754 15.7734L248.914 17.8125L247.906 18.8438L247.66 18.0469L248.422 17.1055L249.617 15.7734H250.754ZM249.82 20L248.449 18.0156L249.043 17.3555L250.91 20H249.82ZM253.734 19.1523V17.1367C253.734 16.9857 253.707 16.8555 253.652 16.7461C253.598 16.6367 253.514 16.5521 253.402 16.4922C253.293 16.4323 253.155 16.4023 252.988 16.4023C252.835 16.4023 252.702 16.4284 252.59 16.4805C252.478 16.5326 252.391 16.6029 252.328 16.6914C252.266 16.7799 252.234 16.8802 252.234 16.9922H251.297C251.297 16.8255 251.337 16.6641 251.418 16.5078C251.499 16.3516 251.616 16.2122 251.77 16.0898C251.923 15.9674 252.107 15.8711 252.32 15.8008C252.534 15.7305 252.773 15.6953 253.039 15.6953C253.357 15.6953 253.638 15.7487 253.883 15.8555C254.13 15.9622 254.324 16.1237 254.465 16.3398C254.608 16.5534 254.68 16.8216 254.68 17.1445V19.0234C254.68 19.2161 254.693 19.3893 254.719 19.543C254.747 19.694 254.788 19.8255 254.84 19.9375V20H253.875C253.831 19.8984 253.796 19.7695 253.77 19.6133C253.746 19.4544 253.734 19.3008 253.734 19.1523ZM253.871 17.4297L253.879 18.0117H253.203C253.029 18.0117 252.875 18.0286 252.742 18.0625C252.609 18.0938 252.499 18.1406 252.41 18.2031C252.322 18.2656 252.255 18.3411 252.211 18.4297C252.167 18.5182 252.145 18.6185 252.145 18.7305C252.145 18.8424 252.171 18.9453 252.223 19.0391C252.275 19.1302 252.35 19.2018 252.449 19.2539C252.551 19.306 252.673 19.332 252.816 19.332C253.009 19.332 253.177 19.293 253.32 19.2148C253.466 19.1341 253.581 19.0365 253.664 18.9219C253.747 18.8047 253.792 18.694 253.797 18.5898L254.102 19.0078C254.07 19.1146 254.017 19.2292 253.941 19.3516C253.866 19.474 253.767 19.5911 253.645 19.7031C253.525 19.8125 253.38 19.9023 253.211 19.9727C253.044 20.043 252.852 20.0781 252.633 20.0781C252.357 20.0781 252.111 20.0234 251.895 19.9141C251.678 19.8021 251.509 19.6523 251.387 19.4648C251.264 19.2747 251.203 19.0599 251.203 18.8203C251.203 18.5964 251.245 18.3984 251.328 18.2266C251.414 18.0521 251.539 17.9062 251.703 17.7891C251.87 17.6719 252.073 17.5833 252.312 17.5234C252.552 17.4609 252.826 17.4297 253.133 17.4297H253.871ZM252.602 15.1758L253.363 14H254.426L253.363 15.1758H252.602Z" fill="black"/>
<path d="M125.527 18.9609L127.023 14.3125H128.105L126.066 20H125.336L125.527 18.9609ZM124.145 14.3125L125.629 18.9609L125.832 20H125.098L123.066 14.3125H124.145ZM129.828 19.5391L130.977 15.7734H131.984L130.289 20.6445C130.25 20.7487 130.199 20.862 130.137 20.9844C130.074 21.1068 129.992 21.2227 129.891 21.332C129.792 21.444 129.668 21.5339 129.52 21.6016C129.371 21.6719 129.191 21.707 128.98 21.707C128.897 21.707 128.816 21.6992 128.738 21.6836C128.663 21.6706 128.591 21.6562 128.523 21.6406L128.52 20.9219C128.546 20.9245 128.577 20.9271 128.613 20.9297C128.652 20.9323 128.684 20.9336 128.707 20.9336C128.863 20.9336 128.993 20.9141 129.098 20.875C129.202 20.8385 129.286 20.7786 129.352 20.6953C129.419 20.612 129.477 20.5 129.523 20.3594L129.828 19.5391ZM129.18 15.7734L130.184 18.9375L130.352 19.9297L129.699 20.0977L128.164 15.7734H129.18ZM129.656 15.1758L130.418 14H131.48L130.418 15.1758H129.656ZM132.527 14H133.469V19.0977L133.379 20H132.527V14ZM136.227 17.8477V17.9297C136.227 18.2422 136.191 18.5299 136.121 18.793C136.053 19.0534 135.949 19.2799 135.809 19.4727C135.671 19.6654 135.499 19.8151 135.293 19.9219C135.09 20.026 134.854 20.0781 134.586 20.0781C134.323 20.0781 134.094 20.0286 133.898 19.9297C133.703 19.8307 133.539 19.6901 133.406 19.5078C133.276 19.3255 133.171 19.1081 133.09 18.8555C133.009 18.6029 132.952 18.3242 132.918 18.0195V17.7578C132.952 17.4505 133.009 17.1719 133.09 16.9219C133.171 16.6693 133.276 16.4518 133.406 16.2695C133.539 16.0846 133.702 15.9427 133.895 15.8438C134.09 15.7448 134.318 15.6953 134.578 15.6953C134.849 15.6953 135.087 15.7474 135.293 15.8516C135.501 15.9557 135.674 16.1042 135.812 16.2969C135.951 16.487 136.053 16.7135 136.121 16.9766C136.191 17.2396 136.227 17.5299 136.227 17.8477ZM135.285 17.9297V17.8477C135.285 17.6576 135.27 17.4792 135.238 17.3125C135.207 17.1432 135.155 16.9948 135.082 16.8672C135.012 16.7396 134.915 16.6393 134.793 16.5664C134.673 16.4909 134.523 16.4531 134.344 16.4531C134.177 16.4531 134.034 16.4818 133.914 16.5391C133.794 16.5964 133.694 16.6745 133.613 16.7734C133.533 16.8724 133.469 16.987 133.422 17.1172C133.378 17.2474 133.348 17.388 133.332 17.5391V18.2461C133.355 18.4414 133.405 18.6211 133.48 18.7852C133.559 18.9466 133.668 19.0768 133.809 19.1758C133.949 19.2721 134.13 19.3203 134.352 19.3203C134.526 19.3203 134.673 19.2852 134.793 19.2148C134.913 19.1445 135.008 19.0469 135.078 18.9219C135.151 18.7943 135.203 18.6458 135.234 18.4766C135.268 18.3073 135.285 18.125 135.285 17.9297ZM136.844 17.9336V17.8438C136.844 17.5391 136.888 17.2565 136.977 16.9961C137.065 16.7331 137.193 16.5052 137.359 16.3125C137.529 16.1172 137.734 15.9661 137.977 15.8594C138.221 15.75 138.497 15.6953 138.805 15.6953C139.115 15.6953 139.391 15.75 139.633 15.8594C139.878 15.9661 140.085 16.1172 140.254 16.3125C140.423 16.5052 140.552 16.7331 140.641 16.9961C140.729 17.2565 140.773 17.5391 140.773 17.8438V17.9336C140.773 18.2383 140.729 18.5208 140.641 18.7812C140.552 19.0417 140.423 19.2695 140.254 19.4648C140.085 19.6576 139.879 19.8086 139.637 19.918C139.395 20.0247 139.12 20.0781 138.812 20.0781C138.503 20.0781 138.225 20.0247 137.98 19.918C137.738 19.8086 137.533 19.6576 137.363 19.4648C137.194 19.2695 137.065 19.0417 136.977 18.7812C136.888 18.5208 136.844 18.2383 136.844 17.9336ZM137.785 17.8438V17.9336C137.785 18.1237 137.805 18.3034 137.844 18.4727C137.883 18.6419 137.944 18.7904 138.027 18.918C138.111 19.0456 138.217 19.1458 138.348 19.2188C138.478 19.2917 138.633 19.3281 138.812 19.3281C138.987 19.3281 139.138 19.2917 139.266 19.2188C139.396 19.1458 139.503 19.0456 139.586 18.918C139.669 18.7904 139.73 18.6419 139.77 18.4727C139.811 18.3034 139.832 18.1237 139.832 17.9336V17.8438C139.832 17.6562 139.811 17.4792 139.77 17.3125C139.73 17.1432 139.668 16.9935 139.582 16.8633C139.499 16.7331 139.392 16.6315 139.262 16.5586C139.134 16.4831 138.982 16.4453 138.805 16.4453C138.628 16.4453 138.474 16.4831 138.344 16.5586C138.216 16.6315 138.111 16.7331 138.027 16.8633C137.944 16.9935 137.883 17.1432 137.844 17.3125C137.805 17.4792 137.785 17.6562 137.785 17.8438ZM142.508 16.5781V20H141.566V15.7734H142.465L142.508 16.5781ZM143.801 15.7461L143.793 16.6211C143.736 16.6107 143.673 16.6029 143.605 16.5977C143.54 16.5924 143.475 16.5898 143.41 16.5898C143.249 16.5898 143.107 16.6133 142.984 16.6602C142.862 16.7044 142.759 16.7695 142.676 16.8555C142.595 16.9388 142.533 17.0404 142.488 17.1602C142.444 17.2799 142.418 17.4141 142.41 17.5625L142.195 17.5781C142.195 17.3125 142.221 17.0664 142.273 16.8398C142.326 16.6133 142.404 16.4141 142.508 16.2422C142.615 16.0703 142.747 15.9362 142.906 15.8398C143.068 15.7435 143.254 15.6953 143.465 15.6953C143.522 15.6953 143.583 15.7005 143.648 15.7109C143.716 15.7214 143.767 15.7331 143.801 15.7461ZM145.324 16.6758V20H144.383V15.7734H145.27L145.324 16.6758ZM145.156 17.7305L144.852 17.7266C144.854 17.4271 144.896 17.1523 144.977 16.9023C145.06 16.6523 145.174 16.4375 145.32 16.2578C145.469 16.0781 145.646 15.9401 145.852 15.8438C146.057 15.7448 146.286 15.6953 146.539 15.6953C146.742 15.6953 146.926 15.724 147.09 15.7812C147.257 15.8359 147.398 15.9258 147.516 16.0508C147.635 16.1758 147.727 16.3385 147.789 16.5391C147.852 16.737 147.883 16.9805 147.883 17.2695V20H146.938V17.2656C146.938 17.0625 146.908 16.9023 146.848 16.7852C146.79 16.6654 146.706 16.5807 146.594 16.5312C146.484 16.4792 146.348 16.4531 146.184 16.4531C146.022 16.4531 145.878 16.487 145.75 16.5547C145.622 16.6224 145.514 16.7148 145.426 16.832C145.34 16.9492 145.273 17.0846 145.227 17.2383C145.18 17.3919 145.156 17.556 145.156 17.7305ZM151.227 19.1523V17.1367C151.227 16.9857 151.199 16.8555 151.145 16.7461C151.09 16.6367 151.007 16.5521 150.895 16.4922C150.785 16.4323 150.647 16.4023 150.48 16.4023C150.327 16.4023 150.194 16.4284 150.082 16.4805C149.97 16.5326 149.883 16.6029 149.82 16.6914C149.758 16.7799 149.727 16.8802 149.727 16.9922H148.789C148.789 16.8255 148.829 16.6641 148.91 16.5078C148.991 16.3516 149.108 16.2122 149.262 16.0898C149.415 15.9674 149.599 15.8711 149.812 15.8008C150.026 15.7305 150.266 15.6953 150.531 15.6953C150.849 15.6953 151.13 15.7487 151.375 15.8555C151.622 15.9622 151.816 16.1237 151.957 16.3398C152.1 16.5534 152.172 16.8216 152.172 17.1445V19.0234C152.172 19.2161 152.185 19.3893 152.211 19.543C152.24 19.694 152.28 19.8255 152.332 19.9375V20H151.367C151.323 19.8984 151.288 19.7695 151.262 19.6133C151.238 19.4544 151.227 19.3008 151.227 19.1523ZM151.363 17.4297L151.371 18.0117H150.695C150.521 18.0117 150.367 18.0286 150.234 18.0625C150.102 18.0938 149.991 18.1406 149.902 18.2031C149.814 18.2656 149.747 18.3411 149.703 18.4297C149.659 18.5182 149.637 18.6185 149.637 18.7305C149.637 18.8424 149.663 18.9453 149.715 19.0391C149.767 19.1302 149.842 19.2018 149.941 19.2539C150.043 19.306 150.165 19.332 150.309 19.332C150.501 19.332 150.669 19.293 150.812 19.2148C150.958 19.1341 151.073 19.0365 151.156 18.9219C151.24 18.8047 151.284 18.694 151.289 18.5898L151.594 19.0078C151.562 19.1146 151.509 19.2292 151.434 19.3516C151.358 19.474 151.259 19.5911 151.137 19.7031C151.017 19.8125 150.872 19.9023 150.703 19.9727C150.536 20.043 150.344 20.0781 150.125 20.0781C149.849 20.0781 149.603 20.0234 149.387 19.9141C149.171 19.8021 149.001 19.6523 148.879 19.4648C148.757 19.2747 148.695 19.0599 148.695 18.8203C148.695 18.5964 148.737 18.3984 148.82 18.2266C148.906 18.0521 149.031 17.9062 149.195 17.7891C149.362 17.6719 149.565 17.5833 149.805 17.5234C150.044 17.4609 150.318 17.4297 150.625 17.4297H151.363ZM150.094 15.1758L150.855 14H151.918L150.855 15.1758H150.094Z" fill="black"/>
</svg>
